<?xml version="1.0" standalone="no"?>
<!DOCTYPE svg PUBLIC "-//W3C//DTD SVG 1.1//EN" "http://www.w3.org/Graphics/SVG/1.1/DTD/svg11.dtd" >
<svg>
<metadata>
Created by FontForge 20110222 at Tue Feb 18 11:21:00 2014
 By deploy user
Copyright (c) 2008 by YouWorkForThem. All rights reserved.
</metadata>
<defs>
<font id="Hannah-Regular" horiz-adv-x="500" >
  <font-face 
    font-family="Hannah Regular"
    font-weight="400"
    font-stretch="normal"
    units-per-em="1000"
    panose-1="2 0 0 0 0 0 0 0 0 0"
    ascent="800"
    descent="-200"
    x-height="702"
    cap-height="703"
    bbox="-3.22222 -327.882 771.462 891"
    underline-thickness="50"
    underline-position="-50"
    unicode-range="U+0020-FB02"
  />
<missing-glyph horiz-adv-x="211" 
 />
    <glyph glyph-name=".notdef" horiz-adv-x="211" 
 />
    <glyph glyph-name=".null" horiz-adv-x="0" 
 />
    <glyph glyph-name="nonmarkingreturn" horiz-adv-x="333" 
 />
    <glyph glyph-name="space" unicode=" " horiz-adv-x="211" 
 />
    <glyph glyph-name="exclam" unicode="!" horiz-adv-x="105" 
d="M71 371v-32q-4 -52 -5 -94q0 -33 -1 -36q1 -2 1 -16q2 -2 1.5 -6.5t-2.5 -5.5q-5 -3 -14 -3q-8 4 -8 26t2 68q0 2 -1 6.5t0 7.5q0 5 2 15q4 60 1 132q-1 23 -1 68q-1 22 -1 66q-2 33 -5 70q-1 14 -5 47q0 1 -1 6t0 7q5 5 12 5t12 -4v-14t1 -15l3 -18t2 -18q0 -7 1 -22
t1 -22q1 -15 1.5 -43t0.5 -37q1 -13 1.5 -39.5t1.5 -39.5v-59zM66 84v-22.5t1 -22.5q0 -3 2 -12t2 -15q-8 -8 -10 -9q-9 -1 -17 5q-3 4 -1.5 35t1.5 39q-2 10 -1 14q1 3 8.5 4t11.5 -1q4 -8 3 -15z" />
    <glyph glyph-name="quotedbl" unicode="&#x22;" horiz-adv-x="182" 
d="M77 732q5 3 13.5 2t9.5 -7q-1 -16 -10 -28q-2 -8 -2 -12q-2 -3 -10 -19q-1 -9 -8 -25.5t-8 -27.5q-4 -6 -5 -12q-1 -1 -3 -5t-3 -5q-7 -20 -13 -22q-11 -1 -16 7q0 4 3 9t3 7q2 4 3 7q1 1 3 7.5t4 8.5q1 7 6 21.5t6 23.5q4 7 9.5 23t8.5 22q0 16 9 25zM144 719
q12 0 16 -9v-2q-1 -3 -3 -7l-3 -6q-5 -10 -13 -34q-1 -4 -8 -20q-2 -4 -8 -17.5t-10 -20.5q-4 -12 -8 -17q-5 -14 -8 -16q-15 2 -18 8q0 8 3 13q1 1 2.5 5t3.5 5q3 12 10 19q4 13 15 38t15 40q2 2 3 6t3 5q4 8 8 10z" />
    <glyph glyph-name="numbersign" unicode="#" horiz-adv-x="395" 
d="M203 562q-2 -17 -11 -47.5t-11 -44.5q59 -10 80 -7q2 1 2.5 4t1 6.5t0.5 4.5q1 2 1 6t1 7q1 5 6 23.5t5 28.5q0 3 2.5 7t2.5 6q0 7 6 13q13 3 19 -11q-1 -4 -3.5 -10.5t-3.5 -9.5q-3 -23 -4 -27q-6 -25 -8 -45q2 -3 5 -3t8 1t7 1t7.5 -1t8.5 -1h24q24 -4 24 -12
q0 -2 -1 -4q-2 -5 -8 -6t-16 1t-15 2h-48q-3 0 -5 -2.5t-3 -5t-2 -7t-1 -5.5q-1 -5 -7 -31t-8 -42q10 -1 37.5 1t36.5 -1q13 -2 14 -7q2 -11 -3 -12q-7 -4 -45 -2.5t-43 1.5q-2 -1 -3 -6.5t-2 -6.5q-2 -9 -5 -24.5t-5 -23.5q-2 -5 -4 -17.5t-3 -17.5q-1 -4 -1.5 -15.5
t-3.5 -16.5q-8 -2 -14.5 0.5t-7.5 7.5q-1 14 -0.5 19t4.5 19.5t5 21.5q1 6 8 27t8 31q0 2 -13 2q-22 3 -71 5q-2 -1 -4 -9q-2 -5 -4.5 -18t-3.5 -18q0 -1 -2 -18.5t-7 -29.5q-8 -18 -14 -23q-4 -6 -10.5 -8.5t-10.5 4.5q-2 4 2.5 11t4.5 10q0 7 5 27q4 16 6 25q0 1 3 7
q1 2 1 6v9q4 2 4 3q2 3 4 10.5t3 9.5q-1 2 -17 2q-4 0 -38.5 -1.5t-36.5 0.5q-14 2 -9 14q1 4 5 4.5t10.5 -1t8.5 -1.5q10 0 37 2t43 1q2 4 3.5 8.5t2 9.5t1.5 7q1 9 5 20q2 11 5.5 27t4.5 20q-1 3 -5.5 2t-6.5 -1h-40q-48 -3 -53 -3q-9 9 -10 16q2 4 4.5 4.5t6.5 -0.5t6 -1
q5 0 15 1.5t14 1.5q9 1 36.5 0.5t36.5 -0.5q1 3 2.5 8t1.5 6q1 5 4 18t5 21q4 8 8 25t10 25q4 5 11.5 2.5t6.5 -9.5zM178 448q-3 -2 -3 -4q-5 -8 -8 -19t-5 -25t-4 -20q-5 -18 -7 -24q0 -1 2.5 -2.5t8 -2t12.5 -1t15.5 -0.5t16 -0.5t16.5 -0.5h15q7 34 11 46q7 32 9 47
q-15 -1 -41 2.5t-38 3.5z" />
    <glyph glyph-name="dollar" unicode="$" horiz-adv-x="443" 
d="M230 761h12q6 -1 7 -13.5t0 -24.5t1 -19q28 0 62 -6q11 -3 31 -11q1 -1 6 -3t7 -3q1 -1 5.5 -3t5.5 -4q23 -18 32 -42q7 -19 7 -29q0 -1 2 -6.5t1 -9.5q-7 -7 -10 -8q-10 -3 -15 11q-2 5 -1.5 13.5t-1.5 12.5q-1 13 -12 28q-1 0 -1 1v2t-1 1t-2 1q-13 13 -17 14
q-3 3 -10 6t-9 5q-2 1 -10.5 3.5t-13.5 3.5q-37 7 -54 5q-2 -6 -2 -31q0 -1 -1 -3v-1v-39q0 -52 1 -78q3 -47 -1 -153q4 -5 25 -14q8 -4 24 -14q15 -10 23 -13q2 -2 6.5 -4.5t5.5 -3.5q2 -4 5 -4l1 -3q2 -3 4 -3q5 0 10.5 -9.5t7.5 -11.5l18 -21q9 -11 16 -23q7 -15 11 -28
q1 -4 2 -12.5t2 -12.5q1 -3 0 -8t-1 -7q0 -1 1 -6t0 -6q0 -4 -0.5 -8t-1.5 -9t-1 -8q0 -4 -1 -13t-1 -14q0 -4 -3 -10.5t-4 -11.5q-6 -18 -6 -20q0 -4 -7 -11q-6 -8 -8 -12q-4 -7 -13 -13q-3 -2 -8 -5.5t-6 -4.5q-2 -1 -6 -5q-4 -1 -11.5 -5.5t-10.5 -5.5q-6 -4 -24 -8
q-4 -1 -12 -5t-12 -5q-5 -1 -14 -3t-13 -4q-3 -16 -3 -41v-8.5v-9.5t-0.5 -7.5t-3 -6.5t-5.5 -3q-4 0 -14 2q-3 3 0 16q2 12 2 58q-7 1 -20.5 2.5t-20.5 2.5q-4 1 -18 2t-21 3q-22 8 -26 9l-4 2l-4 2q-31 14 -32 15q-14 12 -20 19q0 1 -2 2.5t-2 2.5l-3 6l-3 3l-1 2
q-10 16 -11 27q0 6 2 6q8 3 13.5 -1t6.5 -11q0 -2 1.5 -3t1.5 -2q1 -1 1 -3.5t1 -3.5t4 -4.5t3 -6.5l17 -17q1 -1 3 -1q6 -4 10 -8q1 0 4.5 -1.5t5.5 -2.5q26 -13 83 -19h9q4 -2 7 -2q7 -2 15 0q3 20 2 74t-1 73v54q0 41 -1 57q0 2 0.5 5t0.5 4q0 57 2 86q-3 3 -15 8l-16 8
q-5 3 -30 20q-24 17 -50 45q-21 23 -41 54q-10 29 -12 36q-1 2 -1 5v5q-3 14 -3 35q6 32 23 50q23 25 38 35q38 22 95 32q11 0 15 3q1 7 0.5 18.5t-0.5 23.5t2 14zM246 352v-14v-14v-32q0 -8 0.5 -22t0.5 -22q0 -59 1 -89v-42q0 -14 -1 -42.5t-1 -38.5q0 -15 2 -18q6 0 31 8
q5 2 14 6t14 5q25 9 47 31q18 34 20 41q1 2 1.5 5t1 7t0.5 6q1 3 2 8.5t2 8.5q7 35 5 59q0 6 -4 20q-1 6 -5 14q-1 3 -4.5 8t-4.5 8q-2 3 -5 8t-4 8q-13 16 -24 25q-2 1 -8 7t-9 8q-2 1 -5 5t-6 6q-19 11 -27 17q-21 14 -32 18q-2 -2 -2 -3zM219 685q-34 -8 -50 -12
q-5 -2 -14 -5.5t-15.5 -7t-10.5 -7.5q-2 -1 -16 -12q-13 -13 -15 -16q-22 -25 -18 -62q1 -5 3 -18t4 -19q1 -1 1 -2q4 -10 14 -28q11 -16 12 -19q4 -3 9.5 -10.5t8.5 -10.5t6.5 -6t8 -6.5t6.5 -5.5q9 -8 22 -17q14 -10 24 -16l11 -5.5t15 -6.5q3 29 3 120q0 27 -1 40
q0 3 0.5 8t0.5 7q0 79 -1 117h-8z" />
    <glyph glyph-name="percent" unicode="%" horiz-adv-x="549" 
d="M525 138q1 0 1 -2q1 -8 0 -20.5t-1 -18.5q1 -5 -2.5 -14.5t-3.5 -15.5q0 -3 -11 -20q-9 -16 -13 -19l-4 -4l-5 -5l-12 -9q-23 -16 -34 -16q-34 0 -48 6q-12 6 -19 9q-2 1 -4 2.5t-4.5 3.5t-3.5 3l-1 1q-2 1 -3 2q-30 22 -37 45q-3 9 -5 22q-2 30 0 44q0 5 3.5 15t3.5 15
q0 1 1.5 4t1.5 6q0 16 17 33l8 8l8 8q3 2 9.5 8.5t10.5 8.5q16 9 30 10q3 0 11 -0.5t12 -0.5q8 0 20 -4q14 -6 18 -10q1 -1 3.5 -2.5t3.5 -2.5q10 -5 13 -9q2 -2 7 -6.5t8 -7t6 -7t5 -9.5q7 -16 7 -23q0 -6 1.5 -16t1.5 -12zM491 181q-2 3 -5.5 7t-4.5 5q-4 5 -13 12t-12 10
q-8 8 -14 10q-12 4 -44 -2q-2 0 -15 -10q-2 -2 -7 -6t-7 -7q-6 -8 -13 -25q-24 -47 -16 -81q3 -16 4 -18t4 -6.5t4 -6.5q0 -1 8 -14q1 -3 13 -12q1 -1 5.5 -5t7.5 -6q31 -21 58 -9q21 9 31 24q1 1 2.5 4t2.5 4q6 10 9 16q2 6 4 9q7 37 7 68q0 22 -9 39zM509 737
q-1 -5 -7.5 -11t-7.5 -10q-3 -4 -7.5 -11t-7.5 -11q-10 -24 -24 -49q-2 -7 -6 -11q-4 -10 -7 -12q-6 -12 -28 -45q-4 -10 -13 -23q-1 -4 -6 -11.5t-7 -12.5l-30 -51q-14 -22 -62 -102q-3 -6 -9.5 -16t-11.5 -18.5t-9 -16.5q-3 -3 -7.5 -11t-7.5 -11q-1 -4 -6 -11.5t-7 -12.5
q-3 -1 -5 -8q-5 -6 -11 -17q-2 -3 -7 -11.5t-8 -13.5q-1 0 -2 -2l-1 -2q0 -1 -5 -8q-2 -2 -5 -8t-6 -9q-1 -1 -4 -5t-5 -7q-3 -6 -11.5 -20.5t-13.5 -22.5l-21 -33q-2 -2 -6 -8q-1 -1 -2.5 -4.5t-2.5 -4.5q-5 -9 -11 -16q-2 -4 -16 -25q-1 -2 -3 -6.5t-4 -6.5q0 -1 -3 -4
l-2.5 -5t-2.5 -4l-3 -3q-5 -10 -8 -13q0 -3 -2 -8t-3 -9q-2 -1 -4 -6t-5 -5q-1 -8 -11 -9t-15 5q-4 13 9 28q2 0 3.5 2t2.5 5t2 4l15 24q1 3 5 8.5t6 8.5q10 15 12 17q2 5 5.5 10t8 11t6.5 10q2 3 6 11l5 5q0 3 2 5q1 3 6 9.5t7 11.5q6 8 16 26q1 1 1 3q1 1 3 1q1 2 2.5 6
t2.5 6q1 1 3.5 4t3.5 5q15 21 26 41q4 6 11 17.5t9 14.5q0 1 1 2l2 2t1 3t1 3l1 1q2 0 2 1q1 2 10 16.5t13 22.5q2 2 3.5 6t2.5 5q1 2 4 5.5t3 4.5q1 2 16 26t22 37q1 0 5 9q1 1 4.5 6.5t4.5 8.5q13 21 14 24q2 2 15 23q3 4 7 12t7 12q2 4 7 11.5t7 13.5q6 8 15 24.5
t13 23.5q1 1 6.5 10.5t7.5 14.5q5 6 15 24q3 3 7.5 11.5t7.5 11.5q3 7 12 24t13 27q2 5 7 12t7 12q8 10 8 11q0 10 7 11q15 5 21 -5q0 -1 0.5 -2.5t0.5 -2.5zM234 600q1 1 1 -1q-6 -53 -6 -55q-1 -7 -12 -34q-5 -11 -14 -20q-1 -2 -4 -4t-5 -4q-15 -13 -19 -14
q-12 -6 -18 -8q-2 -1 -8.5 -2t-10.5 -3q-52 -5 -90 31q-17 23 -20 43q-6 33 -6 42q0 7 2 20t2 19q1 2 2 7t2 7l1 2q1 2 2 2q2 14 4 19q1 3 5 9l4 8q20 35 35 41q8 3 27 5h19q3 0 18 -5q3 -1 8 -2t8 -2q1 -1 4 -1t5 -1l2 -1q1 -1 2 -1q2 -1 4 -1q5 -2 15 -10q14 -10 23 -29
q12 -23 15 -37q0 -1 3 -20zM181 501q10 14 12 18q1 1 2 4t2 5q4 9 6 20q7 31 6 48q-2 40 -15 55q-4 5 -6 9l-2 1l-2 4q-7 8 -14 12q-24 10 -36 11q-24 2 -34 -3q-21 -12 -35 -36q-1 -5 -5.5 -15.5t-5.5 -13.5q-1 -5 -3 -17q-1 -3 -2 -8.5t-2 -8.5q-1 -28 6 -57q5 -20 14 -31
q5 -6 24 -19q25 -11 51 -2q2 0 8 2q4 3 12 6.5t9 4.5q3 2 10 11z" />
    <glyph glyph-name="ampersand" unicode="&#x26;" horiz-adv-x="456" 
d="M205 365q1 -6 13 -22q2 -2 4 -6t4 -6l3 -6l4 -4l3 -6q0 -1 2 -3t2 -3q2 -3 6 -11q4 -7 14 -21q1 -2 3 -6.5t3 -6.5q0 -1 2 -2.5t2 -2.5t1 -3t1 -3t2 -3t2 -3q3 -4 17.5 -25.5t20.5 -33.5q1 -2 7 -11t10 -13q2 1 3 4.5t2 4.5q1 3 18 53q1 2 2 5t1.5 5t2 4.5t3.5 3.5
q16 8 19 -3q2 -4 -1.5 -9.5t-3.5 -7.5q-7 -12 -7 -16t-5 -17q-3 -10 -11 -28q-8 -20 -9 -23q2 -4 6 -10.5t5 -9.5q2 -3 25 -34q5 -5 13 -15q10 -12 14 -16q10 -10 14 -15q2 -2 12 -17q1 -2 6 -7t5 -11q-6 -6 -17 -6q-2 1 -3.5 3t-3 5t-2.5 4q-1 2 -5 5.5t-5 5.5
q-3 4 -8.5 12t-8.5 12q-2 4 -16 15q-13 16 -14 17l-10 10q-4 4 -9.5 13t-8.5 13q-2 -1 -4 -5t-2 -5q-1 -2 -2.5 -5.5t-2.5 -5.5q-4 -9 -13 -18q-12 -16 -29 -33q-20 -20 -33 -27l-18 -9q-10 -5 -19 -8q-8 -3 -44 -3q-5 0 -43 8q-8 1 -19 5q-7 1 -14 5q0 2 -1 2l-9 6l-2 2
l-2 1q-1 0 -1 2t-1 2q-12 12 -13 14q-2 5 -7 23q-1 3 -3.5 11t-3.5 11q-3 10 -3 38q0 29 2 38q0 2 0.5 5t1.5 7t1 6q2 16 4 25q7 28 13 46q7 22 21 40q20 24 36 41q22 22 27 25l12 6q10 5 11 6q-2 7 -13 24q-12 24 -20 44q-12 26 -13 31q-9 24 -13 49q-12 58 -12 67
q-3 39 13 72q11 24 34 36q21 12 51 14t60 -6q20 -6 31 -12q16 -8 26 -18q20 -20 25 -44q2 -8 2 -60q0 -26 -4 -45q-3 -14 -10 -34l-2 -4t-1 -4q-6 -10 -10 -18q-1 -1 -2.5 -4t-3.5 -5q0 -2 -4 -8q-8 -15 -22 -24q-5 -4 -13 -10q-1 -1 -7 -4q-1 -1 -5 -3.5t-5 -4.5t-3.5 -2.5
t-3.5 -1.5q-11 -9 -17 -11q-1 -1 -6 -4.5t-8 -4.5zM204 391q3 2 9 4q5 3 13 8t13 8q20 12 40 32l21 28q5 8 14 33q17 46 11 97q-3 17 -4 21q-7 18 -13 26q-11 17 -22 23l-24 12q-7 0 -11 1q-4 0 -10 2l-1 -1q-2 -1 -3 0q-3 0 -5 1q-4 0 -11 1.5t-12 1.5q-1 0 -31 -5
q-1 -1 -6.5 -2t-7.5 -3q-1 0 -4 -3q-1 0 -2 -1l-8 -8q-10 -10 -12 -14l-9 -18q-4 -9 -6 -31q-1 -14 3 -40q3 -26 11 -51q9 -37 13 -49q4 -7 10.5 -21.5t9.5 -20.5q12 -24 16 -30q5 -8 7 -8q3 1 6 3.5t5 3.5zM106 282q-13 -21 -24 -58q-6 -18 -8 -32l-3 -21q-8 -35 0 -78
q4 -18 7 -27q3 -12 14 -24q11 -11 19 -15q4 -1 10 -4q6 -1 18.5 -3t18.5 -4q2 0 7 -1.5t8 -1.5q16 -2 31 1q2 0 16 5q10 4 15 7q6 3 16.5 12.5t14.5 12.5q2 1 4 5t4 5q15 13 21 23q2 4 4 5q3 8 11.5 23.5t11.5 25.5q-2 5 -8.5 14t-8.5 13q-2 3 -7.5 12t-8.5 15
q-4 4 -9.5 13.5t-8.5 12.5q0 1 -2 3t-2 3q-2 3 -6 10t-7 10q-9 18 -20 35.5t-26.5 40.5t-21.5 33l-1 1h-1q-48 -25 -78 -72z" />
    <glyph glyph-name="quotesingle" unicode="'" horiz-adv-x="122" 
d="M77 719q5 3 13.5 2t9.5 -7q-1 -10 -10 -28q-2 -4 -2 -12q0 -4 -4.5 -10.5t-5.5 -8.5l-7 -24.5t-9 -28.5q-3 -10 -5 -12q-1 -2 -3 -5t-3 -5q-2 -3 -5 -11.5t-8 -10.5q-11 -1 -16 7q0 3 3 9t3 7q2 4 3 7q1 1 3 7.5t4 8.5q5 26 12 45q1 4 5.5 13.5t7 17t2.5 14.5q0 13 12 25
z" />
    <glyph glyph-name="parenleft" unicode="(" horiz-adv-x="326" 
d="M304 697q-3 -11 -19 -10q-17 -4 -23 -5q-31 -9 -69 -32q-30 -21 -58 -63q-1 -2 -5.5 -10t-6.5 -13q-12 -24 -14 -29q-1 -1 -1 -3v-3q-8 -14 -16 -34q-9 -23 -16 -51q-3 -11 -12 -54q0 -4 -2 -14t-2 -14q0 -11 -1 -16q-1 -13 1 -72q1 0 1 -1l-1 -2v-3q0 -6 2 -21.5
t2 -23.5q1 -5 2.5 -14t3 -16.5t3.5 -14.5q0 -2 2 -6q0 -5 5 -20q0 -1 1.5 -4t1.5 -4q1 -1 2 -3.5t1 -3.5q1 -7 13 -30q1 -3 6 -14q2 -3 7.5 -9t7.5 -9t13 -18q24 -26 54 -42q6 -4 28 -15q5 0 11.5 -2.5t10.5 -2.5q7 -3 26 -4t22 -1q8 -2 10 -3q5 0 5 -5q0 -16 -19 -14
q-5 0 -6 1q-2 0 -4.5 -0.5t-3.5 -0.5t-6 1t-9 0q-3 1 -16 3t-19 5q-5 2 -17 5t-17 5l-2 1q-4 3 -19 14q-2 1 -6 5q-4 2 -10 7t-8 6q-1 2 -7 4q-6 7 -12 17q-1 1 -2 1h-1l-3 3q-4 4 -12 16q-2 4 -7.5 11t-7.5 9q-2 3 -6 7q-3 10 -10.5 26t-9.5 21q-3 9 -10 38q-4 11 -5 19
q-19 111 -6 191q7 46 11 61l2 3q10 37 16 53q5 10 6 13q20 50 26 58q0 5 5 10q3 5 4 11q1 2 13 14v4l5 5l2 3q1 2 5 7t6 6q1 1 2.5 4t2.5 4l18 15q11 11 15 14q1 1 24 11q3 3 11 7q36 18 61 19q1 0 2 0.5t2 0.5q20 3 26 -9z" />
    <glyph glyph-name="parenright" unicode=")" horiz-adv-x="338" 
d="M29 -31q1 4 15 9q10 4 16 4q1 0 13.5 5t19.5 6q3 1 9 6t9 6q2 2 8.5 5.5t9.5 7.5q2 2 8 5t9 7q10 10 14 15q33 33 57 65q-1 3 2 7l3 4q0 1 0.5 3.5t1.5 3.5q0 1 7 12q4 8 5 11q17 42 21 55q1 5 12 58q5 35 8 60q2 21 0 58q-1 21 -9 52q-20 64 -22 70q-8 16 -9 21
q-3 6 -19 34q0 2 -1 3q1 1 -1 1q0 3 -1 4q-2 0 -3 1t-1 5q-2 4 -7 9q-21 27 -28 34q-1 2 -6 7q-1 1 -4 2l-2 1q-2 1 -7.5 7t-8.5 9q-2 1 -6.5 3.5t-9 5.5t-7.5 6l-21 9q-13 4 -25 7q-31 14 -46 18q-1 2 -4.5 4t-5 4t-0.5 6q1 3 3.5 4t6 0.5t8.5 0.5q29 -10 42 -18
q16 -5 46 -15q10 -8 38 -24q7 -9 15 -15q0 -1 2 -1q2 -1 2 -3q2 0 3 -1l3 -4q3 -4 6 -5q3 -4 11.5 -15.5t14.5 -16.5l12 -18q2 -2 5 -9t5 -9q48 -90 54 -172q2 -18 4 -25q1 -30 -15 -137q-14 -43 -15 -47q-1 -2 -3.5 -10.5t-5.5 -11.5q-2 -3 -9 -22q-7 -12 -9 -20
q-9 -13 -12 -20q-5 -4 -13 -15t-12 -15q-19 -24 -26 -30q-9 -9 -28 -27q-3 -2 -15 -9t-17 -12q-4 -1 -10 -4.5t-9 -4.5q-9 -4 -20 -7q-3 0 -7.5 -3.5t-6.5 -3.5q-3 -1 -8.5 -1.5t-8.5 -1.5q0 -2 -2 -2h-9q-13 8 -14 14z" />
    <glyph glyph-name="asterisk" unicode="*" horiz-adv-x="246" 
d="M198 631q-5 -3 -31 -3q-12 0 -15 -3q3 -6 12.5 -15t11.5 -12t9 -8.5t9.5 -10.5t0.5 -12q-9 -7 -20 0q-14 10 -21 20q-5 7 -11 15q-1 1 -5.5 6t-7.5 6q0 -4 2.5 -20t-0.5 -21q-2 -9 -5 -11q-7 -6 -15.5 -1t-8.5 12q0 3 1 14t0 17l-9 -6q-12 -14 -19 -21q-1 -1 -3.5 -4.5
t-4.5 -4.5q-18 0 -20 9q1 4 9 12q24 24 30 32q-4 1 -15.5 -1t-16.5 1q-11 4 -11 13q0 3 1.5 4.5t4 2t5 0.5h6.5h6t6 1t6 1h7.5t8.5 2q1 2 -5 5l-1 2q0 1 -1 1q-1 1 -13 10q-2 2 -7 5.5t-8 7t-3 7.5q2 7 11 6.5t14 -4.5q13 -13 21 -18q1 0 1 12q1 3 0 8t-1 7q0 4 5.5 5
t11.5 -1.5t7 -5.5q2 -6 1.5 -16.5t0.5 -14.5q2 0 9 9q2 3 4.5 4.5t5.5 5.5t5 6q3 3 9 7q8 6 10 6q12 2 16 -7q2 -4 -3 -8l-5 -5q-3 -3 -6 -8q-1 -2 -2.5 -2.5t-1.5 -1.5q-1 0 -7 -6q-4 -3 -6 -6.5t-5 -5.5q6 -1 17.5 0.5t20 1t11.5 -7.5q3 -8 -3 -12z" />
    <glyph glyph-name="plus" unicode="+" horiz-adv-x="322" 
d="M175 454q-3 -121 -3 -122q4 -1 39.5 -1.5t41.5 -2.5q23 5 24 -8q2 -6 -3 -8q-4 -4 -25 -4.5t-47.5 1t-27.5 1.5v-72v-18q0 -24 -5 -28q-11 -4 -17 2q-1 17 0.5 57t-1.5 61q-6 1 -42 1h-42q-22 0 -23 11q1 11 25 5h41t40 1q1 4 1 12.5v12.5t1 31.5t2 41.5q0 3 1 9t1 9v14
q0 1 2 3q3 0 5.5 -1t4 -2.5t4 -3t3.5 -2.5z" />
    <glyph glyph-name="comma" unicode="," horiz-adv-x="153" 
d="M102 33q8 1 13 -1t4 -7q-2 -6 -7.5 -14t-6.5 -10l-15 -21q-2 -4 -7 -12t-8 -11q-14 -22 -14 -23q-6 -13 -15 -16q-11 2 -12 8t2 12t9.5 14t8.5 11q0 2 1 3q1 2 8 12q6 8 20 26l4 8q2 0 2 1q-1 1 0 2q2 0 2 1q-1 1 0 2q2 0 2 1q3 9 6 12q2 2 3 2z" />
    <glyph glyph-name="hyphen" unicode="-" horiz-adv-x="378" 
d="M33 324q1 6 7 8q33 -1 68 -0.5t88.5 1t66.5 0.5q11 0 17 -1q35 -3 46 -2q9 0 14 -2.5t4 -10.5q-2 -12 -27 -7q-9 -1 -29 1t-23 2q-1 0 -18 -0.5t-29.5 -0.5h-18.5q-8 -1 -39 2q-10 1 -54.5 0t-45.5 -1q-2 0 -5.5 -1t-6.5 -0.5t-5 2.5q-8 1 -10 10z" />
    <glyph glyph-name="period" unicode="." horiz-adv-x="92" 
d="M54 -5q-3 -2 -12 0q-9 5 -9 19v41q0 3 0.5 9.5t0.5 9.5v8.5t2 9.5q3 4 9.5 2.5t8.5 -4.5q1 -2 1 -12q3 -18 3 -20v-19q1 -5 1 -16q-1 -5 -0.5 -9.5t-0.5 -10t-4 -8.5z" />
    <glyph glyph-name="slash" unicode="/" horiz-adv-x="286" 
d="M251 695q1 -5 1 -7.5t-2.5 -7t-3.5 -6.5q-1 -4 -2.5 -7.5t-2.5 -7.5t-2 -6q-5 -15 -10.5 -45t-9.5 -44q-3 -9 -20 -72.5t-27 -95.5q-2 -7 -5 -21.5t-5 -21.5q-3 -13 -8.5 -37.5t-6.5 -30.5q-2 -12 -9.5 -33t-9.5 -29q-2 -5 -4 -16t-2 -12q0 -3 -2.5 -10.5t-2.5 -9.5
q-1 -8 -5 -21q0 -1 -0.5 -2.5t-1 -3.5t-0.5 -4l-2 -2q-4 -15 -6 -19q-3 -5 -6 -12q-1 -3 -3.5 -9t-3.5 -9q-1 -2 -2 -6.5t-1 -6.5q-7 -31 -22 -62q-1 -2 -3.5 -9t-4.5 -10q-10 -14 -21 -4q-3 3 3 10q2 6 4 11q2 1 2 2q1 3 4.5 12.5t5.5 15.5q5 15 5 16q9 38 17 53
q12 27 16 48q4 18 5 22q0 2 0.5 6t1.5 6l3 6q0 5 1 7q1 4 3.5 12.5t2.5 10.5q2 6 6.5 20.5t6.5 22.5l15 69q7 29 13 50q2 6 3 10q3 6 5 18q1 3 3 10t3 10q12 54 17 72q3 10 9 27.5t8 25.5q4 15 10 46.5t11 45.5q1 2 4.5 11t3.5 14q0 13 10 15t14 -5z" />
    <glyph glyph-name="zero" unicode="0" horiz-adv-x="460" 
d="M410 194q-4 -30 -12 -63q-2 -2 -3 -7.5t-2 -7.5q-1 -4 -5 -16q-1 -3 -4.5 -10t-4.5 -10q-3 -9 -7 -17q0 -1 -8 -14l-18 -21q-19 -21 -35 -27q-6 -2 -17.5 -5t-15.5 -4q-14 -4 -34 -2q-5 0 -16 -0.5t-15 0.5l-9 3q-3 1 -13.5 2t-15.5 3q-8 4 -17 7q-2 1 -5 1h-4
q-12 6 -15 9q-1 1 -5 4.5t-6 5.5l-3 3q-1 2 -2 2l-6 6l-6 6q-6 8 -10 12q-5 5 -13 19q-15 28 -18 36q-9 25 -9 37q0 5 -2 13t-2 11v7t-1 8q-1 2 -2 6t-2 6v5l-2 8q-1 13 -1 45q0 40 1 60q1 10 1 31q0 6 2 19t2 21q-1 6 0 13v51q0 1 0.5 3t0.5 4q-2 8 -2 18q0 59 12 99
q4 14 16 42q15 33 23 42q5 6 15 16q20 15 30 20q17 8 39 12q18 5 35 5h23q1 0 6 -0.5t7 -1.5q3 -1 14 -5q2 -1 22 -9q16 -8 24 -13q1 -1 2.5 -1.5t2.5 -2.5q6 -3 20 -17q0 -1 2 -2t3 -2q2 -4 3 -5q7 -7 9 -11q2 -3 9 -14q9 -14 18 -51q4 -15 12 -47q8 -39 9 -50
q0 -1 0.5 -3.5t0.5 -3.5q6 -40 7 -69q2 -20 2 -30q2 -55 0 -111q0 -33 -5 -68zM374 111l2.5 7.5t2.5 6.5q4 10 6 24q2 5 3 6q1 6 2.5 15.5t2.5 12.5q5 40 7 97v62v21t-1 21l-3 39q0 4 -7 48v10q-9 45 -9 47q-1 3 -2.5 9t-1.5 8q-1 6 -4 15.5t-3 11.5q-14 47 -25 63
q-6 9 -27 28l-2 2l-2 2t-5 3l-21 12l-3 3q0 1 -2 1h-3q-2 1 -4 3q-3 1 -11 3q-22 6 -36 6q-43 1 -80 -18q-34 -19 -50 -52q-2 -4 -3.5 -11t-2.5 -10q0 -1 -1 -3l-1 -2v-2q0 -2 -1 -3q-2 -2 -6.5 -13t-4.5 -14q0 -9 -3 -24.5t-4 -19.5t-1 -12.5v-12.5t-0.5 -7.5t-1.5 -8
t-1 -7.5q0 -5 0.5 -15t0.5 -16q0 -4 1 -14t1 -15q0 -3 -0.5 -9.5t-0.5 -9.5q1 -12 -1.5 -25t-3.5 -30v-5q-2 -10 -2 -18v-58q0 -3 -0.5 -9t-0.5 -8v-19q2 -30 4 -37q14 -66 16 -72q10 -35 28 -55q19 -24 43 -39q6 -4 13 -6t17 -3.5t15 -2.5q37 -6 59 -5q32 2 55 13
q4 2 28 23q1 3 5 8t5 7q2 2 5.5 7t5.5 8q4 5 14 38z" />
    <glyph glyph-name="one" unicode="1" horiz-adv-x="194" 
d="M50 700q2 0 7 0.5t7 0.5t6.5 -1t7.5 -1q11 0 29 2q22 2 27 0q4 -4 5 -7q-3 -21 -3 -24q0 -4 -0.5 -12.5t-0.5 -13.5q-1 -8 -1 -25v-25v-15q-2 -38 -1 -59v-108q-1 -9 -1 -26q0 -4 0.5 -13t0.5 -13q0 -3 0.5 -9t0.5 -9q0 -6 -1 -17t-1 -17q0 -1 0.5 -3.5t0.5 -4.5t-0.5 -4
t-0.5 -4v-17q0 -11 0.5 -33.5t-0.5 -34.5v-71q0 -9 -1.5 -31t-1.5 -27q-1 -20 -1 -36v-2q1 -1 1 -2l-1 -2v-2q2 -6 2 -7v-9q3 -15 -8 -21q-4 -2 -10.5 -1.5t-7.5 4.5q-1 1 1 10q4 27 4 60t1 46q1 12 0.5 37t0.5 38q1 11 3 35v42q1 25 1 71q1 16 0 43.5t-1 35.5q0 4 0.5 13.5
t0.5 14.5q0 1 -1 4v2l1 1q-1 13 -1 38t-1 38v20q0 6 0.5 18t0.5 18v9q2 13 2 49q2 27 -1 39q-2 4 -11 1q-1 0 -2 1l-1 1q-45 -3 -51 -3q-12 -2 -25.5 1t-12.5 10q1 8 15 8.5t23 -1.5z" />
    <glyph glyph-name="two" unicode="2" horiz-adv-x="444" 
d="M82 16q6 0 23.5 1.5t27.5 1.5h36h31q1 0 3 -1h2h18q7 -1 20 -1l1 1h3q0 -1 1 -1l1 1h1q4 -1 13.5 -2t11.5 -1h67q8 -2 20 0q3 0 9 1t9 0q8 -3 10 -10q-2 -13 -12 -10q-8 -2 -20 1q-7 0 -30 1.5t-33 0.5q-7 -1 -22.5 1t-22.5 2h-14q-23 1 -71 -1q-14 0 -17 -1
q-7 -5 -36.5 -2.5t-37.5 1.5q-13 -4 -20 -2q-10 4 -9 14q0 4 1.5 6t4 4.5l3.5 3.5q2 3 6.5 6t5.5 4t3 2.5t3.5 2t3 2l2.5 2.5q2 2 7 5t7 6q2 2 8 7t8 8q6 10 20 23t19 18t19 21t22 25q9 11 11 16q2 1 3 2l3 3l2 1v1l6 6q1 1 1 2.5t1 2.5l12 15q4 5 11.5 13t8.5 10
q13 19 19 27q2 3 8.5 11.5t10.5 13.5q1 3 4.5 8t4.5 6q6 13 9 19q6 8 8 10q1 1 1 3l2 1q2 3 5 10t5 10q6 12 10 18q5 7 10 21q13 29 14 31q4 8 6 16v2.5t1 2.5q1 2 2.5 6.5l3 9t2.5 8.5q7 16 7 39q0 4 1 25t0 32q0 4 -3 15t-3 16q0 14 -12 34q-3 2 -6 7.5t-5 7.5t-6.5 7
t-6.5 7q-20 15 -27 17q-15 5 -16 5q-3 0 -9.5 1.5t-9.5 1.5q-3 1 -9 1q-6 2 -9 2q-14 1 -26 0q-46 -3 -73 -14l-12 -6q0 -1 -2 -3q-1 0 -3 -0.5t-3 -1.5l-3 -3q-1 -1 -3.5 -2.5t-3.5 -3.5q-2 -3 -9 -8q-15 -11 -18 -19q-2 -6 -7 -7t-10 6q-4 11 5 22q2 3 5 7t4 6q8 11 28 22
q12 7 50 17q4 1 13.5 2t13.5 2q27 3 30 3q47 0 72 -8q4 -1 11 -4t11 -4q13 -6 23 -14q8 -6 14 -14q2 -2 11 -16q2 -3 5.5 -11t5.5 -11q6 -8 6 -14q0 -4 1.5 -10t1.5 -8q0 -5 3 -23v-17q0 -7 -0.5 -18t-0.5 -14q0 -10 -3.5 -26.5t-3.5 -18.5q-7 -48 -43 -109q-2 -5 -7 -17
t-9 -19l-5 -5q0 -1 -0.5 -2.5t-1.5 -2.5l-3 -3q-1 -2 -4 -10l-4 -4q-11 -17 -13 -20q-5 -7 -8 -14q-16 -25 -22 -31q-2 -2 -5 -7t-5 -7q-2 -4 -7 -9t-7 -8q-6 -11 -19 -24q-24 -27 -25 -28l-12 -15l-12 -12q-3 -4 -12.5 -13.5t-13.5 -15.5q-3 -3 -10.5 -11t-11.5 -12
q-2 -2 -4 -5t-3 -4l-1 -1q0 -2 -1 -2h-1q-2 0 -2 -1q-1 -1 -2 -3l-1 -2q-16 -16 -22 -23q-11 -9 -13 -13z" />
    <glyph glyph-name="three" unicode="3" horiz-adv-x="451" 
d="M47 116q8 4 10.5 3t8 -10t7.5 -11q3 -2 10 -15q1 -3 11 -13t12 -13q21 -24 61 -37q1 0 4 -0.5t4 -1.5q3 -1 8 -4t8 -4h6l3 -2q22 -4 66 7q12 2 19 4q23 7 51 28q15 12 27 29q13 18 19 50q7 32 7 60q0 13 -7 50q-16 42 -55 76q-8 4 -28 12q-3 1 -8 1.5t-8 0.5q-5 1 -9 11
q0 6 3 9q1 1 11 5q4 2 12 8q4 1 5 2l3 3q2 2 6.5 5.5t6.5 5.5q21 16 26 22q18 20 26 44q11 35 12 58q1 11 1 33v2q-1 2 -1 3q3 29 -15 63q-1 2 -3 4t-3 4t-3.5 9t-6.5 10q-2 1 -6 4t-5 4q-2 2 -5.5 4t-5.5 4q-3 2 -10.5 7.5t-11.5 7.5q-3 1 -11 3q-1 1 -4 2t-4 2
q-3 1 -9.5 2.5t-9.5 2.5q-8 2 -22 4q-14 4 -21 4q-20 1 -48 -9q-21 -6 -40 -17q-8 -5 -20 -17q-5 -5 -11 -15.5t-10 -14.5q-5 -5 -8 -11l-2 -4q-8 -8 -17 -1q-1 3 0 6.5t2.5 5.5t4 5.5t3.5 5.5q2 3 5.5 11t6.5 12q4 5 9 10t12.5 11t10.5 9q2 1 13 7.5t19 9.5l6 3q4 1 12 5
t36 6q8 1 23.5 -1t21.5 -2q4 0 13 -3t10 -3q3 -1 18.5 -7t22.5 -11l18 -12t16 -11l6 -6t5 -6q1 0 2 -2l1 -2q1 -2 4.5 -6.5t5.5 -7.5q7 -14 8 -15t1 -2q1 -2 1 -3q0 -2 2 -5t2 -4v-5q2 -1 2 -2q2 -4 2 -14q2 -5 4 -13q6 -46 -1 -75q-3 -15 -7 -27q-3 -13 -8 -24
q-14 -31 -22 -42q-10 -13 -26 -24q-12 -7 -15 -10q-1 -1 -6 -4t-6 -7q3 -3 15 -8l6 -4q6 -3 9 -5q12 -10 17 -15q2 -2 5.5 -6.5t5.5 -6.5l9 -12q6 -6 15 -30q4 -9 10 -35q4 -14 4 -20v-21q0 -10 -2 -26q-2 -5 -3 -14t-2 -12q-1 -2 -3 -4v-7l-2 -3q-2 -14 -6 -18
q-3 -12 -17 -32q-14 -18 -24 -25q-2 -1 -5.5 -6.5t-6.5 -7.5q-1 0 -6.5 -2t-9.5 -4q-7 -4 -19 -8q-9 -6 -16 -7q-30 -8 -36 -8h-19q-21 -2 -33 0q-22 3 -46 13q-11 4 -20 10q-3 2 -9.5 5t-9.5 5q-16 9 -33 28q-4 4 -9.5 14.5t-8.5 14.5q-2 2 -4.5 7t-4.5 7q0 1 -3.5 5.5
t-3.5 7t2 6.5z" />
    <glyph glyph-name="four" unicode="4" horiz-adv-x="346" 
d="M291 695q-3 -25 -3 -73q0 -13 -0.5 -39.5t-0.5 -39.5q0 -8 1 -34t0 -40q0 -6 -1 -18.5t-1 -18.5v-20q0 -2 -1 -8t-1 -9q0 -2 0.5 -6t0.5 -6t-0.5 -5.5t-0.5 -5.5q0 -3 1 -9t1 -9q1 -3 0 -9t-1 -8q0 -8 0.5 -26t0.5 -27v-34v-100v-83q0 -3 0.5 -10.5t0.5 -11.5v-19
q0 -2 1 -7t1 -8q0 -8 -3 -10q-5 -5 -16 0q-2 1 -2 13q-2 16 -2 43q0 5 1 16.5t1 17.5q0 70 -1 107l1 1v1q-2 16 0 33v67q0 1 -0.5 17t-2.5 23q-1 0 -33 3h-37q-3 0 -11 1t-11 1q-1 0 -3.5 -0.5t-3.5 -0.5q-11 1 -32 1h-34q-3 0 -9 -0.5t-8 -0.5h-3l-2 1q-22 -2 -26 0
q-8 8 -4 22q0 1 1.5 3t0.5 4q0 28 -2 124t1 127l-1 1q-1 1 0 2q1 18 -1 56q-3 15 2 17q11 1 14 -6.5t4 -20.5v-3q0 -19 -1 -80t1 -80q1 -24 1 -74q0 -7 0.5 -20t0.5 -19q1 -7 0.5 -12.5t0 -12t3.5 -10.5q2 -1 17 -4q10 -1 63 -1q11 1 31.5 -0.5t28.5 -1.5q3 0 9.5 1t10.5 1
q30 3 32 4q1 18 2 52t2 52v61.5t1 65.5q0 3 0.5 7.5t0.5 6.5q0 11 1 36.5t0 38.5q0 15 2 17q4 4 10 3t7 -7z" />
    <glyph glyph-name="five" unicode="5" horiz-adv-x="461" 
d="M413 682q-2 -1 -5 -1h-2q-3 -1 -10 0.5t-10 1.5t-9.5 -1t-10.5 -1q-3 0 -9 0.5t-9 0.5h-18q-6 0 -18 0.5t-18 0.5q-14 0 -38 -1.5t-34 -1.5h-70h-1q-1 1 -2 1h-37q-23 0 -29 -4q-2 -3 -2 -27q1 -30 1 -86q0 -2 -0.5 -7t-0.5 -7t0.5 -7t0.5 -8q0 -16 2 -42q1 -7 0 -21.5
t-1 -18.5q0 -8 1 -22.5t0 -24.5q1 -2 1.5 -5.5t1 -7.5t0.5 -6q4 -1 27 2q33 2 58 -1q11 0 15 -1q24 -2 35 -5q2 0 8 -2t8 -2q3 0 8.5 -2t8.5 -3q1 -1 6.5 -2t6.5 -2q4 -2 9 -3.5t9 -2.5q15 -6 27 -15t13 -10q2 0 6 -5q6 -4 16 -14q9 -9 13 -14q6 -8 14 -21q7 -12 10 -29
q0 -1 3 -17q0 -1 2 -7t2 -9v-40q0 -2 -1 -6t-1 -6v-14q0 -4 -2 -12q0 -9 -1 -13q-1 -3 -2 -9t-2 -9q-5 -16 -5 -17q-9 -27 -12 -32q-2 -3 -5 -7t-4 -7q-4 -8 -12 -16q-9 -10 -22 -16q-1 -1 -6 -2.5t-6 -2.5q-1 0 -10 -3t-14 -4q-8 -2 -73 -10q-44 -5 -78 -1q-4 1 -11 2.5
t-10 2.5q-12 4 -20 4q-2 2 -6 2.5t-5 1.5q-2 1 -6.5 2t-7.5 3q-7 5 -8 9q1 7 9 9.5t14 -1.5q4 -4 18 -8q0 -3 4 -3q2 -1 7.5 -2t8.5 -2q3 0 9.5 -2t10.5 -3q27 -4 64 -1q2 0 16.5 2.5t21.5 3.5q45 6 58 11q1 2 6.5 3.5t6.5 2.5l7 7t8 7q3 3 6 7.5t5 6.5q6 10 22 57
q4 10 6 40q4 26 4 39q0 6 -2.5 16.5t-2.5 15.5q0 8 -3 16q0 2 -2 6.5t-2 7.5q-11 25 -15 31q-1 3 -6 7t-6 7q-2 1 -5.5 5t-6.5 6q-2 1 -5 5t-4 5t-3.5 2t-4.5 2t-3 3q-6 3 -7 4q-5 6 -13 10q-2 1 -32 10q-7 2 -18 4t-16 3t-16 3t-16 3q-42 10 -84 -2q-25 -7 -28 -6
q-6 0 -12 8q-2 3 0 16q1 3 1.5 9t1.5 8q0 45 1 68q0 11 -2 31.5t-2 27.5q0 10 -0.5 32t-0.5 32q0 6 1 26t0 32q0 14 -1 20q0 2 -2 7t-2.5 7.5t0.5 6.5q4 9 12 9q2 0 7.5 -0.5t8.5 -0.5l1 1h1q5 -2 21 0q2 0 4 -0.5t3 -0.5h49h31h64q6 0 16.5 0.5t15.5 0.5h44h28h18
q24 0 26 -1q6 0 9.5 -6.5t-2.5 -10.5z" />
    <glyph glyph-name="six" unicode="6" horiz-adv-x="489" 
d="M155 692q1 -4 -3.5 -7t-4.5 -4q-1 -2 -4 -5.5t-4 -5.5q-18 -19 -35 -70q-1 -4 -5 -13.5t-5 -15.5q-2 -3 -3 -7.5t-2.5 -10.5t-2.5 -9q-1 -7 -3 -51q-2 -16 -2 -25q2 -21 -2 -48l1 -2q-1 -21 -3 -59q0 -3 2 2l2 3q3 3 3 7q3 3 9 15q13 22 27 33q9 6 12 11l4 4q2 2 5.5 3
t4.5 2l8 8l14 7q21 14 46 18q30 9 69 -2q16 -2 27 -6l22 -11q32 -14 65 -63q13 -19 18 -31q1 -3 1 -8q3 -3 3 -5q2 -6 8.5 -21.5t8.5 -25.5q6 -24 6 -40q0 -5 0.5 -14.5t0.5 -14.5q1 -7 -4 -48q-1 -9 -6 -34q-2 -11 -11 -35q-2 -6 -10 -21q-2 -3 -5.5 -10t-5.5 -10
q-10 -16 -22 -27q-1 -1 -5 -4.5t-6 -5.5q-2 -1 -7 -5t-7 -5q-5 -3 -24 -10q-12 -6 -19 -10q-7 -1 -23 -7q-21 -6 -55 -1l-8 2q-5 1 -14 1q-3 1 -9.5 2.5t-9.5 2.5q-9 2 -23 10q-15 6 -16 7q-17 6 -27 15q-6 3 -21 18q-14 14 -18 22q-4 10 -6 14q-1 3 -2 8t-2 8q-3 6 -8 29
l-6 33q-1 15 -3 33q-4 44 -4 71v13q-2 27 0 54q0 4 1.5 15.5t1.5 16.5q0 22 2 33q3 16 3 48v23q2 28 3 40q5 37 7 43q1 4 5 22.5t7 27.5q1 3 5 10t6 11l6 12q2 4 18 29q2 3 6 10t6 10l3 5q3 4 7 3q9 0 12 -7zM382 77q15 18 23 40q2 5 4 13q6 18 7 28q0 2 0.5 5t0.5 5
q1 4 2 11t1 8q0 6 2 20.5t2 20.5q0 7 -3 46l-3 24q-1 8 -6 19q-5 10 -9 22q-2 4 -4 11t-3 9l-5 10q-1 1 -4 5q-2 3 -15 22q-6 11 -17 20q-7 6 -22 15.5t-20 13.5q-3 2 -9 4t-7 2q-10 4 -28 8q-26 5 -49 -1q-17 -3 -43 -19q-5 -3 -15 -11q-3 -2 -8.5 -6t-8.5 -6
q-12 -9 -23 -24l-21 -30q-1 -2 -2 -5t-1 -4q0 -3 -3.5 -5t-3.5 -4q-1 -3 -5 -10t-4 -12q0 -1 -4 -19q0 -20 -2 -26q1 -2 -1 -18q-1 -1 0 -3l1 -1q0 -1 -1 -2t0 -2q0 -11 2 -27q2 -46 5 -69q5 -32 6 -34q4 -15 10 -26q4 -9 15 -22q3 -5 11 -12.5t10 -9.5q10 -8 19 -12
q2 -1 8 -4.5t9 -4.5q2 -1 5.5 -2t5.5 -2l2 -2q16 -5 32 -8q3 -1 52 -6q15 0 32 6h3.5t3.5 1q2 1 7 4t8 4l12 6t13 7.5t12 6.5q7 6 24 32z" />
    <glyph glyph-name="seven" unicode="7" horiz-adv-x="502" 
d="M165 -1q-6 -2 -10.5 1.5t-4.5 8.5q0 4 1.5 7t4.5 5t4 5q6 11 15.5 30.5t13.5 26.5q2 6 22 45q18 34 27 50q4 11 16 31q10 20 16 30q13 23 34.5 68t26.5 56q5 10 13.5 30.5t11.5 26.5q2 2 2 4q0 1 3 7t4 9t4.5 10.5t4.5 9.5q1 4 3.5 10.5t4.5 12t4 10.5q6 20 17 45
q3 9 9 25.5t7 20.5q6 21 16 44q1 1 4.5 13.5t6.5 16.5q1 2 2 5t2 5q5 6 3 10q-1 2 -12 2h-47q-4 0 -14 0.5t-16 0.5q-1 0 -3 -0.5t-4 -0.5q-1 0 -3.5 0.5t-3.5 0.5h-12q-40 0 -60 1q-11 1 -31.5 0t-30.5 -1q-10 1 -30 1h-30h-20.5t-21.5 1q-12 1 -38 1q-1 0 -2 0.5t-2 0.5
q-5 0 -21 -2q-7 -1 -21 -1q-2 0 -7 -1t-8 -1t-7 1t-6 3.5t-2 7.5q3 5 7.5 7t9 1t9.5 0q15 0 23 1q15 0 22 1q9 0 19.5 -0.5t24.5 -1.5t21 -1h35h39q9 0 33.5 0.5t33.5 -0.5q11 0 35 1t37 0h33h32q6 1 17 0t15 -1q17 4 25 2q2 -1 7 -8q0 -1 0.5 -2t0.5 -2q1 -6 -3.5 -13
t-5.5 -9q0 -1 -1 -4t-1 -5q-1 -2 -2.5 -4t-1.5 -3q-3 -6 -10 -26t-11 -28q-1 -3 -3.5 -10t-3.5 -11q-4 -12 -24 -65q-3 -7 -7.5 -21t-8.5 -25t-8 -20q-2 -7 -8 -20.5t-9 -20.5q-2 -4 -2 -6q-9 -17 -16 -35q-3 -7 -9.5 -20t-9.5 -20l-10 -20l-10 -20q-2 -4 -8 -18.5
t-11 -21.5q-8 -12 -11 -19q-10 -18 -21 -39q0 -1 -0.5 -2.5t-1.5 -2.5q0 -4 -3 -5q-1 -1 -1 -3q-1 -1 -1 -2q-6 -11 -10 -19q-3 -5 -11.5 -21.5t-13.5 -23.5q-1 -2 -3.5 -9t-4.5 -10q-4 -7 -8.5 -17t-7.5 -15q-6 -15 -7 -16q-2 -3 -6 -9.5t-5 -9.5q-8 -19 -14 -21z" />
    <glyph glyph-name="eight" unicode="8" horiz-adv-x="405" 
d="M145 373q0 2 -6 8q-2 0 -4 2t-4 2q-1 1 -3.5 2t-3.5 2q-8 4 -12 7q-6 8 -9 11l-15 15q-1 2 -3 6.5t-3 6.5q-3 5 -8 30q-8 29 -3 67q1 8 3.5 22.5t2.5 21.5q7 33 11 41q2 3 4 6.5t3.5 6.5l3.5 7t4 7q15 22 29 33q23 16 36 22q7 2 21 8q12 2 19 2q4 0 10 -1t9 -1q3 1 12 -5
q13 -3 21 -7q1 -1 6 -3.5t8 -4.5q2 -1 5 -3.5t5.5 -4.5t4.5 -4q6 -7 8 -14q2 -4 9 -15t10 -17q1 -3 4.5 -8.5t5 -10.5t1.5 -11q0 -7 2.5 -21t2.5 -20q0 -35 -6 -58q-4 -22 -8 -30q-1 -2 -2 -6t-2 -5q-1 -2 -3.5 -6.5t-3.5 -9.5q-2 -12 -7 -19q-4 -8 -6 -11q-8 -11 -54 -38
q-1 -1 0 -2t4 -3t4 -2q13 -6 17 -8q2 -1 7 -3t8 -4q2 -1 4 -3.5t3 -3.5q22 -22 25 -27q4 -3 5 -8l7 -7l1 -3q1 -3 2 -3q1 -2 4.5 -7t4.5 -6q1 -3 3 -13q4 -11 15 -60q3 -13 5 -25t2 -20q0 -4 -2 -11t-2 -10v-13q0 -4 -4 -12t-4 -12q-2 -6 -12 -25q-3 -4 -8 -11t-7 -11
q-14 -22 -43 -41q-23 -15 -32 -18q-12 -5 -36 -12q-19 -3 -41 2q-20 4 -32 9q-25 10 -28 13q-2 2 -6 6.5t-6 6.5q-26 32 -36 58q-18 50 -18 81q0 8 2 28q1 8 12 44q1 3 3 8.5t3 8.5q3 10 18 44q5 9 13 20q2 4 6.5 10t6.5 10q8 12 23 22q1 1 4 2t5 3q1 1 3 2t2 4zM337 185
q-7 50 -20 81q-5 12 -13 25q-11 24 -26 39q-1 1 -13 8q-3 2 -16 7q-10 7 -13 8q-13 6 -15 7q-13 4 -37 4q-2 1 -4.5 -1t-3.5 -2q-2 -1 -5.5 -0.5t-4.5 0.5q-1 -2 -12 -7q-8 -5 -20 -19q-4 -6 -7 -8q-7 -9 -8 -10q-13 -17 -23 -41q-27 -67 -28 -101q-1 -11 1 -29q3 -25 3 -26
q1 -3 6 -13q6 -24 14 -38q7 -15 21 -29l9 -9q2 -2 4.5 -3.5t5.5 -3l5 -2.5t6.5 -1.5t7.5 -2.5q24 -11 56 -8q2 0 7 0.5t7 1.5q12 3 19 7q1 1 3 1t3 1q7 3 17 10.5t13 9.5q23 21 30 32l12 24q2 4 5 12.5t5 12.5q11 33 10 60q0 1 -1 1.5t0 1.5zM308 574q-1 7 -3.5 20t-3.5 21
q-1 3 -5 9.5t-5 9.5v4l-2 2q-4 6 -10 16q-3 2 -9 9t-9 9q-10 5 -11 6q-4 0 -8 2.5t-7 2.5q-5 0 -12.5 1.5t-14.5 1.5q-19 0 -23 -2q-3 -1 -7 -3q-2 -1 -3 -1l-3 -3q-1 0 -3 -0.5t-3 -1.5t-2 -3l-1 -1q-1 -1 -2.5 -1.5t-2.5 -1.5t-7 -6t-11 -7q-3 -4 -8.5 -10.5t-8.5 -10.5
q-6 -9 -8 -11q-2 -6 -8 -18v-5q-2 0 -2 -1q-5 -13 -5 -16q-5 -20 -7 -47q-4 -34 -1 -52q2 -29 9 -44q1 -2 3 -7t4 -8q6 -10 21 -19q15 -12 23 -16q22 -9 38 -9q2 0 8 -0.5t8 -0.5t7.5 1.5t6.5 1.5q35 17 47 33q14 16 20 27q10 20 14 32q10 52 9 80q0 7 -2 17z" />
    <glyph glyph-name="nine" unicode="9" horiz-adv-x="455" 
d="M129 5q0 3 1 4t3.5 2t3.5 2l12 12q10 12 15 17l4 2q3 3 4 5l6 9q22 28 27 35q1 2 6 8.5t8 9.5q1 2 2 3.5t2.5 3t3 3.5t2.5 3l2 4v1q0 1 2 2q1 1 9 14q1 1 2.5 3.5t2.5 3.5q1 2 5 6q1 2 2.5 4t1.5 3q4 3 7.5 10.5t4.5 8.5q8 12 12 19q5 8 22 39q3 7 9.5 18t11.5 22
q1 3 -4 -1q-1 -1 -4 -3l-4 -4q-8 -5 -15 -10q-4 -3 -13.5 -7.5t-13.5 -6.5q-32 -17 -69 -17q-5 0 -15 1.5t-11 1.5l-27 6q-27 7 -44 18q-20 14 -28 23q-12 14 -20 33q-3 6 -7 20q-6 29 -2 65l6 39q0 4 1 10t2 10l6 18q0 3 2 9q1 1 2 4t1 4q1 3 2 9t2 9l5.5 11t4.5 10
q1 2 2.5 6t3 7.5t3.5 7.5q1 1 3.5 8.5t5.5 11.5t13 21q16 28 38 45q5 8 21 20q1 1 6.5 8t9.5 10q0 1 1 1t2 1q2 2 4 3q1 0 3.5 3t3.5 3q5 2 16 5t16 5q33 11 84 -10q6 -3 18 -11q2 -1 4 -3.5t4 -3.5q5 -5 8 -6q2 -4 7 -9.5t7 -8.5q2 -2 4 -5.5t3 -5.5l3 -6l8 -16
q8 -17 14 -36q1 -2 5.5 -12.5t5.5 -16.5q2 -30 3 -46q3 -48 -15 -106q-3 -6 -5 -19t-5 -18l-2 -2v-3q0 -1 -2 -4.5t-3 -5.5t-2 -6t-1 -5q-6 -17 -16 -32q-4 -5 -8 -17q-5 -13 -7 -16t-5.5 -9.5t-6.5 -11.5t-6 -9q-4 -12 -32 -58l-1 -2l-1 -2q-1 -2 -3 -5t-3 -5q-2 -2 -5 -7
t-4 -7q-2 -2 -8 -10q-3 -2 -6 -8t-5 -8q-6 -11 -19.5 -28t-17.5 -24q-12 -19 -41 -50q-8 -10 -12 -12q-2 -3 -11 -10q-11 -9 -14 -8q-3 0 -8 3t-6 6zM379 427q1 5 2.5 14t2.5 13q4 18 4 29q0 3 -0.5 9t-0.5 8q0 10 -1.5 27t-1.5 26q-1 1 -1.5 4t-0.5 4q-1 4 -4 11.5t-4 10.5
v3l-2 2q-2 3 -4 9l-3 9q-3 8 -20 40q-14 14 -29 26q-5 0 -5 3q-3 1 -12.5 4.5t-16.5 4.5t-16 1q-36 -1 -62 -20q-4 -3 -10 -9q-1 0 -1 -2q-2 0 -3 -1q-4 -4 -7 -6q-1 -1 -3.5 -3t-3.5 -3q0 -1 -1 -2t-1 -2l-5 -5l-5 -5q0 -1 -1 -2t-1 -2q-2 -2 -6 -5t-5 -5q-5 -6 -15 -20
q-3 -4 -8 -13t-7 -12q-4 -7 -12 -23q-2 -5 -5.5 -14t-5.5 -13q-4 -11 -5 -14q-2 -4 -4.5 -12t-3.5 -9q-1 -4 -2.5 -11.5t-2.5 -11.5q-6 -28 -9 -57q0 -2 -1 -4.5t-1 -3.5v-19q-2 -19 1 -32q9 -43 54 -69q31 -19 63 -19h26q23 3 46 15q21 12 22 13q17 9 36 22q5 3 7.5 5.5
l5 5t4 3.5t3.5 4l3 4.5t3.5 6.5t4.5 8q1 2 3 5.5t3 5.5q10 20 10 22q1 9 7 26.5t8 24.5z" />
    <glyph glyph-name="colon" unicode=":" horiz-adv-x="96" 
d="M54 381q-11 -5 -19 3q-2 64 -2 102l1 5q0 5 2 6q12 2 17 -2q2 -3 2 -25q1 -6 1 -21v-24q2 -33 -2 -44zM61 24q2 -19 -2 -24q-10 -5 -16 -1q-3 2 -3 16q-3 96 -3 99q2 5 12 5q1 0 4 -1.5t4 -1.5q2 -4 2 -30q2 -18 2 -30v-32z" />
    <glyph glyph-name="semicolon" unicode=";" horiz-adv-x="130" 
d="M96 378q0 -4 0.5 -13t0.5 -13q-2 -18 -6 -21q-3 0 -5.5 0.5t-4 1.5t-3.5 2.5t-3 2.5q-1 7 0 18.5t1 15.5q0 8 -1.5 23t-1.5 22t1 22t1 22q0 5 -1 17t-1 18q1 3 3 3q7 1 17 -5q1 -7 1 -65q0 -17 2 -51zM71 95q4 6 12.5 4.5t11.5 -7.5q0 -7 -1 -11q0 -1 -1 -3q-2 -4 -2 -6
q-1 -3 -3 -10t-3 -10q-4 -12 -17 -53.5t-21 -63.5q-3 -15 -5 -17q-5 -3 -11.5 0t-8.5 9q38 112 49 154v14z" />
    <glyph glyph-name="less" unicode="&#x3c;" horiz-adv-x="619" 
d="M573 9q-2 0 -6 2.5t-9.5 6.5t-8.5 6q-15 7 -58 32q-16 5 -40 20q-4 3 -11 6.5l-9 4.5l-2 2q-4 0 -6 2l-1 2q-1 0 -2.5 0.5t-2.5 1.5t-18 10.5t-26 13.5q-10 6 -36.5 20.5t-39.5 23.5q-5 3 -18 10.5t-21 10.5q-3 2 -9.5 5.5t-9.5 5.5q-3 1 -9.5 4.5t-10.5 5.5
q-26 14 -38 22q-7 3 -21 13q-5 2 -11.5 5t-15 7t-12.5 6q-5 2 -27 11.5t-34 17.5q-3 2 -19 10q-1 0 -5 2t-8 1q-4 0 -6 1.5t-3 5.5t-2 5q-11 13 -3 22q1 4 7.5 4t9.5 2q1 0 8 5q2 1 5.5 2t5.5 2q6 4 9 5q1 0 4 0.5t4 1.5l2 2l12 3q1 1 5 2.5t5 2.5q28 10 43 15q4 1 28 9.5
t36 13.5q4 2 11 4.5t9 3.5q1 0 4.5 2t5.5 3t5.5 1.5t5.5 1.5q26 12 40 18q13 3 40 17q7 3 20.5 8.5t20.5 9.5q5 2 15 6.5t15 6.5q2 2 7 4t8 3t8 3.5l7 3.5q5 2 15.5 6t15.5 6q15 7 18 8q2 1 4 1q4 2 17.5 8t21.5 9q23 10 26 11q4 3 8 3l4 2q1 0 3.5 2t3.5 2q9 3 11 3v-5
l-2 -12t-2 -6q-8 -4 -11 -5q-1 -1 -3 -1t-3 -1q-8 -3 -23.5 -10t-23.5 -10q-16 -7 -47 -19.5t-46 -19.5q-4 -2 -13.5 -6.5t-13.5 -6.5q-9 -4 -30.5 -13.5t-33.5 -14.5q-62 -28 -94 -40q-30 -11 -40 -15q-4 -2 -11 -4t-10 -3q-2 -1 -8.5 -4t-11.5 -4q-14 -4 -42 -14l-12 -4
q-4 -2 -5 -2q-5 -2 -13 -6q-3 -1 -11 -6t-9 -8q0 -3 17.5 -11.5t17.5 -10.5q2 0 5.5 -2t4.5 -2q11 -4 20 -10q7 -4 22.5 -10.5t23.5 -11.5q1 -1 5.5 -3t6.5 -4l5 -3q1 -1 4 -2t5 -3q3 -3 16 -8l1 -2q1 -2 2 -2q3 0 4 -1q3 -1 10.5 -5t11.5 -6l21 -12q2 -2 7 -4q3 -2 8 -4
t7 -4q2 -1 7 -4t7 -4q48 -28 56 -32q10 -4 20 -10q15 -9 18 -12q16 -8 45.5 -24t40.5 -22q6 -3 22 -13q5 -2 15.5 -7.5t13.5 -7.5q1 0 3 -2t3 -2l16 -8l3 -3q8 -3 9 -4q2 -2 8.5 -4.5t8.5 -3.5q1 -1 3 -8.5t2 -13t-2 -6.5z" />
    <glyph glyph-name="equal" unicode="=" horiz-adv-x="526" 
d="M50 296q24 1 112 -1q9 0 28 0.5t28 0.5q10 0 28 -0.5t27 -0.5q8 2 13 2q6 0 19.5 -0.5t20.5 -0.5h56q38 -2 78 3h3q18 0 19 -12q0 -12 -11 -12q-1 -1 -9 2q-20 0 -70 -1.5t-77 -0.5q-32 1 -99 1q-9 0 -31 -2l-66 3q-10 0 -32.5 0.5t-33.5 0.5q-1 1 -3.5 4t-3 5t0.5 7
q0 2 3 2zM416 355q-15 -2 -25 0t-27 2q-9 0 -28 -0.5t-28 -0.5q-10 0 -24.5 -1.5t-23.5 -1.5q-2 -1 -10 0.5t-10 1.5q-6 0 -19.5 0.5t-20.5 0.5q-9 0 -19 0.5t-20 0.5q-8 0 -30.5 0.5t-37.5 1.5q-2 0 -8.5 -0.5l-13 -1t-13 -0.5t-10.5 2t-4 6q0 12 11 12q1 1 13 1t25.5 -0.5
t26.5 -1.5h12q21 0 30.5 -0.5t20.5 -1t30 -0.5q18 -1 50 0.5t47 1.5q9 0 31 2l66 -3q6 0 28 -1t38 0q3 0 6 -5t0 -11q0 -3 -63 -3z" />
    <glyph glyph-name="greater" unicode="&#x3e;" horiz-adv-x="619" 
d="M46 591q2 0 6 -2.5t9.5 -6.5t8.5 -6q15 -7 58 -32q8 -3 20.5 -10.5t19.5 -9.5q3 -3 6 -4.5t7.5 -3.5t6.5 -3l2 -2q4 0 6 -2l1 -2q1 0 2.5 -0.5t2.5 -1.5t18 -10.5t26 -13.5q10 -6 36.5 -20.5t39.5 -23.5q5 -3 18 -10.5t21 -10.5q3 -2 9.5 -5.5t9.5 -5.5q3 -1 9.5 -4.5
t10.5 -5.5q26 -14 38 -22q7 -3 21 -13q5 -2 11.5 -5t15 -7t12.5 -6q50 -25 61 -29q1 -1 19 -10q1 0 5 -2t8 -1q4 0 6 -1.5t3 -5.5t2 -5q11 -13 3 -22q-1 -4 -7.5 -4t-9.5 -2q-1 0 -8 -5q-2 -1 -5.5 -2t-5.5 -2q-6 -4 -9 -5q-1 0 -4 -0.5t-4 -1.5l-2 -2l-12 -3l-5 -2.5
l-5 -2.5q-28 -10 -43 -15q-4 -1 -28 -9.5t-36 -13.5q-3 -2 -10.5 -4.5t-9.5 -3.5q-1 0 -4.5 -2t-5.5 -3t-5.5 -1.5t-5.5 -1.5q-26 -12 -40 -18q-13 -3 -40 -17q-6 -3 -20 -8.5t-21 -9.5q-5 -2 -15 -6.5t-15 -6.5q-3 -2 -8 -4t-7 -3l-7 -3.5t-8 -3.5q-5 -2 -15.5 -6t-15.5 -6
q-15 -7 -18 -8q-2 -1 -4 -1q-4 -2 -17.5 -8t-21.5 -9q-23 -10 -26 -11q-5 -3 -8 -3l-4 -2q-1 0 -3.5 -2t-3.5 -2q-9 -3 -11 -3l1 5q0 6 1 12t2 6q8 4 11 5q1 1 3 1t3 1q8 4 23.5 10t23.5 10q15 7 46 19.5t47 19.5q4 2 13.5 6.5t13.5 6.5q9 4 30.5 13.5t33.5 14.5q15 7 47 20
t47 20q6 2 19 7.5t21 7.5q3 2 21 7q15 7 20 8q7 3 22.5 7.5t19.5 6.5l12 4q4 2 5 2q5 2 13 6q3 1 11 6t9 8q0 3 -17.5 11.5t-17.5 10.5q-4 0 -10 4q-8 2 -20 10q-40 19 -46 22q-1 1 -5.5 3t-6.5 4l-5 3q-1 1 -4 2t-5 3q-3 3 -16 8q-1 0 -2 2l-1 2q-3 0 -4 1q-3 1 -10.5 5
t-11.5 6l-21 12q-3 2 -7 4q-2 2 -7 4t-8 4q-3 1 -7 4t-7 4q-6 3 -26 14.5t-30 17.5q-2 1 -8.5 5t-11.5 5q-2 3 -9 6.5t-9 5.5q-16 8 -45.5 24t-40.5 22q-6 3 -22 13q-5 2 -15 7.5t-14 7.5q-1 0 -3 2t-3 2l-16 8l-3 3q-7 3 -9 4q-2 2 -8.5 4.5t-8.5 3.5q-1 1 -3 8.5t-2 13
t2 6.5z" />
    <glyph glyph-name="question" unicode="?" horiz-adv-x="358" 
d="M313 598q1 -13 -1 -61q-10 -41 -12 -48q-6 -14 -9 -20q-9 -18 -11 -20q-2 -5 -8 -12.5t-7 -12.5q-7 -6 -22.5 -22.5t-24.5 -24.5q-3 -5 -11 -14t-10 -12q-1 -1 -4.5 -6t-5.5 -8q-1 -2 -5 -6t-5 -6l-1 -1q0 -2 -1 -2q-1 -5 -5.5 -16t-5.5 -17q-4 -5 -7.5 -18t-4.5 -15
q0 -10 -2.5 -30.5t-2.5 -31.5q-2 -27 0 -53l-2 -10q-14 -7 -22 0q-3 1 -2 9t1 11q-2 21 -1 36q0 7 3 29.5t2 35.5q2 4 4 11t3 11q4 14 5 21q5 6 8.5 18.5t5.5 15.5t7 8.5t7 7.5q0 2 1 3l1 2l3 3q24 31 31 41q4 2 10 7.5t11 7.5q-1 2 2 4t4 3q0 2 1 4q1 1 3.5 2.5t3.5 3.5
q1 0 1 2v1q2 3 8.5 10.5t9.5 12.5q2 4 7.5 13.5t7.5 13.5q21 56 20 104q0 2 -3 20q-2 9 -10 24t-9 18q-3 4 -30 25q-20 9 -45 12q-9 1 -28 1q-4 -1 -14 -1t-14 -1q-10 -3 -43 -18q-17 -11 -35 -32l-2 -2q-12 -14 -24 -4q-3 6 7 13q1 2 9 13q4 3 12 10t11 11q4 1 6 5
q3 1 13 6t17 7q5 3 17.5 6t15.5 4q4 0 19 0.5t22 1.5q8 -2 27 -2q38 -13 42 -15q15 -7 32 -26q24 -39 29 -61zM149 69q1 -1 1.5 -4.5t1.5 -4.5q-1 -11 0 -22t-0.5 -23t-5.5 -19q-12 0 -18 6q-1 8 -0.5 24t-0.5 25q0 2 -1.5 6t-0.5 7q1 6 10.5 7.5t13.5 -2.5z" />
    <glyph glyph-name="at" unicode="@" horiz-adv-x="779" 
d="M455 258q-2 -3 -3 -8v-6l-1 -1q-1 -1 -1 -2q-1 -1 -1.5 -1h-1.5q-1 -1 -1 -3q-1 -3 -1 -4q-2 -1 -4 -7q-7 -7 -18 -14q-1 0 -12 -5q-1 -2 -4.5 -3t-4.5 -2q-3 -4 -12.5 -5.5t-12.5 -2.5q-13 -5 -28 -5q-19 0 -28 1l-2 1q-1 -1 -18 6h-3q-1 2 -2 3l-4 1q-3 1 -5 2
q-3 1 -8 4t-7 4q-4 2 -9 7t-7 6q-1 2 -14 12q-15 13 -23 43q-4 18 -3 27q-1 10 2 37q1 5 3.5 14.5t2.5 11.5q4 22 5 23q6 17 8 21q5 9 6 11q4 10 19 21q2 3 5.5 5.5t4.5 4.5q3 2 6.5 6.5t4.5 5.5q9 13 10 13q3 2 11 5t11 5q7 5 15 10q2 0 3 1l1 2q1 1 7 1q45 11 60 9
q34 0 65 -8q3 -1 8.5 -4t7.5 -4q3 0 4.5 -2t3 -4.5t2.5 -3.5q1 -10 -2 -30q1 -2 0.5 -4.5t-0.5 -3.5q1 -2 3 -10q-6 -55 -6 -60q-2 -18 -1 -25q0 -3 -2.5 -5.5t-1.5 -5.5q-2 -3 -0.5 -7t1.5 -6q-4 -22 -4 -33q0 -3 2.5 -15t1.5 -18q-1 -1 3 -3q2 -1 3 -2q1 -2 3 -4.5t3 -4.5
q1 -3 3 -5.5t2 -3.5l6 -8q5 -7 21 -17q18 -8 21 -9q6 -1 17.5 -2.5t17.5 -2.5q3 0 6 0.5t6 0.5q44 14 63 38q5 3 18 21q2 2 6 7.5t5 7.5q1 1 2 2.5t1 2.5l1 1q1 1 1 2l5 7q3 4 4 8q7 13 8 27q8 35 9 60q3 36 0 53q-11 39 -19 51q0 1 -2.5 5t-2.5 7q-1 1 -3.5 5.5t-3.5 7.5
q-2 3 -6 10t-7 10q-3 5 -22 26q-4 7 -12 13q-1 1 -5.5 4t-6.5 6q-2 1 -5 7q-6 6 -10 8q-6 6 -20.5 15t-18.5 12q-7 5 -21 13l-21 12q-16 11 -29 16q-2 1 -12 5q-20 7 -50 12q-1 1 -2 1h-5q-5 2 -18 4t-15 2l-2 -1q-2 -1 -3 -1q-16 5 -35 2q-20 0 -47 -5l-4 -2q-1 -1 -3.5 -1
t-4.5 -1q-2 0 -22 -6q-3 -2 -11 -3.5t-9 -2.5q-6 -4 -19 -11t-18 -10q-4 -2 -9 -7.5t-7 -6.5q-11 -8 -33 -30q-3 -4 -11 -12q-6 -4 -7 -10q-2 0 -2 -3q-3 -3 -3 -4q-3 -4 -8 -13t-7 -12q-8 -10 -13 -20q-6 -16 -10 -23q-1 -3 -4.5 -9t-5.5 -11q-3 -9 -7 -17q-1 -3 -7 -19
q0 -1 -1 -3v-2q-2 -8 -6.5 -22.5t-5.5 -21.5q-3 -11 -8 -45q-12 -55 -8 -84q1 -11 9 -37q2 -13 12 -33q8 -10 9 -17q5 -2 5 -8q2 -2 7 -14q11 -14 15 -21q5 -4 12 -11q1 -2 5.5 -5t5.5 -5q15 -15 20 -18q36 -26 46 -32q14 -10 46 -26q7 -3 19.5 -11t18.5 -11q7 -2 22 -8.5
t23 -8.5q1 0 9.5 -1t12.5 -2q3 0 9 -2t9 -2q1 0 6 0.5t9 0.5q4 1 9 0q3 1 12 1.5t12 0.5q4 1 15 2t16 2q2 1 4 1h4q3 0 13 3q6 2 10 1q39 9 51 13q6 2 8 3q5 0 7 1q1 1 11 5t14 6q23 10 25 11q3 1 8.5 3.5t7.5 3.5q1 2 4.5 4t5.5 4l7 7q10 6 18 4q9 -2 12 -8q1 -10 -9 -16
q-1 -4 -7 -5.5t-7 -2.5q-6 -6 -15 -7q-2 -1 -5.5 -5t-5.5 -5q-5 -2 -14 -7t-14 -6q-6 -1 -13.5 -3.5l-10.5 -3.5t-16 -6t-19 -4q-5 1 -18 -3l-14 -3.5l-14 -3.5q-5 -1 -13 -3.5t-12 -2.5q-45 -6 -84 -2q-2 0 -28 6q-4 1 -15 2t-17 3q-1 0 -2.5 1.5t-2.5 1.5q-10 2 -14 3
l-1 3q-16 5 -18 7q-6 4 -10 6q-26 13 -31 17q-3 2 -11.5 6.5t-11.5 6.5q-3 1 -6.5 4t-5.5 4q-10 2 -11 5q-2 0 -4.5 2t-4.5 3l-10 5q-1 2 -5 3.5t-5 3.5q-2 3 -5.5 6t-5.5 6l-6 6q0 2 -1 2q-1 1 -7 4.5t-9 6.5q-8 8 -14 11q-7 7 -10 12q-3 3 -7 9.5t-6 9.5q-3 7 -7 11
q-2 2 -16 21q-6 18 -19 43q-6 13 -11 50q-2 15 -1 22q-1 2 0 6t1 5q0 4 -2 8q0 2 6 37q13 68 18 84q5 20 17 44q8 20 12 27l3 6t3.5 7.5t2.5 7.5q1 2 1 5l1 2q7 12 8 13q2 8 6 11q9 24 29 44q6 10 25 33q29 24 35 28q2 1 6.5 4t6.5 4l4 4h7q4 4 6 4q2 1 7.5 2t9.5 3
q2 1 6 4.5t6 4.5q5 3 26 8q8 3 20.5 5t18.5 4q50 5 90 -1q39 -4 58 -9q7 -1 24 -7q10 -4 13 -4q4 -2 13 -6t14 -6q3 -2 8.5 -4t7.5 -4q5 -5 7 -6q7 -2 14 -7q2 -1 8 -6.5t9 -6.5q1 -1 16 -11q16 -7 34 -23q2 -2 7.5 -8t9.5 -10q21 -20 32 -41q1 -2 3.5 -6t4.5 -7t4 -5
q1 -2 2.5 -4.5t2.5 -3.5q3 -3 4 -5q1 -3 4 -8t4 -7q1 -3 5.5 -13t7.5 -15q1 -4 4 -13t4 -14q1 -4 2.5 -13.5t3.5 -13.5q1 -6 0.5 -17.5t-0.5 -15.5q2 -10 -2.5 -27t-5.5 -24q-8 -31 -13 -46q-1 -4 -7 -12q-2 -4 -7 -10t-7 -8q-1 -1 -1 -2l-1 -1q0 -5 -5 -8l-1 -1
q-1 -1 -8 -11t-12 -15q-13 -13 -35 -27q-6 -2 -17.5 -6.5t-17.5 -6.5q-16 -4 -24 -3q-9 1 -22.5 3.5t-19.5 3.5q-26 8 -34 14q-5 7 -9 9q-2 2 -5 3.5t-6 3.5q-2 2 -4 4.5t-4.5 5.5t-3.5 5t-6 7t-7 8q-1 1 -2 5t-3 5zM407 496q-7 -1 -18 -1q-7 -3 -20 -5q-27 -8 -29 -9
q-4 -2 -22 -12q-6 -6 -20.5 -18.5t-19.5 -19.5q-6 -8 -15 -26.5t-11 -21.5q-1 -6 -4.5 -17.5t-4.5 -17.5t-1 -16q0 -2 -1.5 -6t-1.5 -5q2 -14 2 -18q0 -5 3 -12t2 -11q-1 -3 6 -12q0 -1 2 -5q2 -5 15 -16q4 -3 9.5 -8t9.5 -8t12 -7q5 -5 10 -6q16 -7 40 -5q19 6 23 6
q20 5 22 5q4 1 11 10q3 2 14 13q4 5 14 22q11 28 13 32q0 1 3 31q0 4 2 13t3 13q0 2 0.5 4t0.5 3t0.5 2.5t0.5 2.5q0 5 1 15.5t1 16.5q3 30 3 32q0 5 -1 13t-1 12q0 17 -3 26q-40 11 -50 11z" />
    <glyph glyph-name="A" unicode="A" horiz-adv-x="435" 
d="M406 0q-5 5 -9.5 19t-6.5 17l-12 39q-6 15 -14.5 45.5t-9.5 33.5q-9 32 -27 90.5t-21 67.5q-8 0 -16.5 0.5t-19.5 1.5t-17 1q-7 1 -21 1q-6 0 -19 1t-19 1q-32 3 -82 -4q-2 -3 -4 -10.5t-2 -8.5q0 -3 -3 -8t-3 -8q-14 -43 -24 -88q-25 -112 -28 -127q0 -3 -1 -9.5
t-2 -9.5q-6 -26 -8 -36q-2 -12 -6 -14q-14 -7 -18 4q-1 5 -0.5 7.5t2.5 6.5t2 7q12 52 14 64q1 2 2 8t2 8q1 13 7 32q1 5 13 58.5t21 80.5q2 4 3 7q7 20 10 38q3 12 4 17q0 3 2 8t2 7q2 18 4 26q0 2 1.5 7t2.5 8q0 5 1 8q2 5 4 15t4 15q4 16 10 48.5t10 47.5q2 7 5 21t5 20
q3 12 9 43q2 11 11 41q0 2 1 10t2 12q1 2 3.5 8.5t3.5 9.5q2 8 3 13q0 3 1 5q3 3 8 4q8 2 11 -1q3 -1 8 -17q1 -2 2.5 -5.5t2.5 -6.5t1 -6q1 -6 4.5 -15.5t4.5 -13.5q0 -4 2 -10q0 -1 7 -17q3 -9 11 -29q26 -68 34 -96q2 -7 15 -54.5t21 -72.5l9 -24q0 -5 1 -7q0 -2 3 -5
q1 -2 2 -7t1 -7q3 -13 11.5 -38t11.5 -36q1 -1 6 -20q1 -4 8 -25q2 -4 4 -14l6 -21q15 -66 38 -117q1 -4 3.5 -11.5t2.5 -8.5q8 -10 6 -18q1 -1 -3 -3l-2 -1l-2 -1h-1q-1 -1 -3 -2h-6zM190 665q-3 -7 -7 -24.5t-8 -24.5q0 -3 -9 -47q-8 -30 -11 -46q-10 -46 -14 -70
q-1 -3 -2 -11t-3 -13q-7 -23 -11 -40q-10 -42 -11 -53q15 -1 45 1q32 3 57 0q12 -2 36 -2q37 -2 46 0q0 1 -3 14q-1 4 -28 96q-1 6 -4.5 16t-4.5 15q-2 4 -4 17q-7 23 -33 91q-3 8 -10 25.5t-7 18.5q-2 7 -4 17l-6 21l-1 2l-1 1z" />
    <glyph glyph-name="B" unicode="B" horiz-adv-x="497" 
d="M313 407q13 -4 35 -14q5 -3 14 -8t12 -7q4 -1 7 -3.5t7 -6.5l6 -6q0 -2 2.5 -3t2.5 -2q9 -6 15 -16q12 -9 19 -18q6 -7 17 -34q10 -18 15 -35q4 -16 6 -30q12 -63 -11 -113q-4 -9 -13 -22.5t-11 -17.5t-5.5 -7t-8.5 -6.5t-7 -5.5q-1 -1 -23 -12q-4 -2 -13.5 -6t-13.5 -5
q-1 -1 -3 -2t-4.5 -1.5t-3.5 -1.5q-17 -9 -19 -9q-9 -2 -27 -4t-20 -2q-5 0 -16.5 -2.5t-18.5 -3.5q-6 -1 -16.5 -1h-17.5q-3 0 -9 -1t-9 -1q-24 0 -37 -1q-12 -2 -17 -2q-3 0 -12.5 2t-16.5 1q-1 0 -3.5 -1t-4.5 -1t-6.5 1t-6.5 1q-1 0 -7 -1t-9 0q-11 5 -12 7q-10 5 -11 9
q-3 1 -1 7.5t2 9.5q-2 64 -1 97q1 29 -1 91q0 1 3 140q0 31 1 48q0 3 -0.5 9t-0.5 8q0 9 -1.5 35.5t0.5 34.5q0 1 0.5 1t0.5 1q-4 15 -3 19q2 10 2 35q0 4 -0.5 13t-0.5 14q0 9 1 36t0 42q0 1 1.5 9.5t-1.5 9.5q-5 10 -2 20q0 4 9 4q4 0 13 -1t14 0q3 0 10 -0.5t11 -0.5
t15.5 1t13.5 1q9 1 26 1h24q31 2 72 -4q14 -2 34.5 -6.5t31.5 -6.5q10 -4 12 -5q5 -2 27 -18q5 -5 9 -8q0 -1 1 -1l2 -1q0 -2 1 -3l1 -1q6 -14 15 -26q15 -27 18 -57q2 -17 0 -37q0 -4 -2.5 -14.5t-2.5 -16.5q0 -10 -8 -22l-4 -5q-4 -4 -6 -8q-12 -21 -32 -33
q-3 -2 -9.5 -4.5t-8.5 -3.5q-3 -1 -7.5 -3t-6.5 -3q-9 -1 -17 -6zM137 415q2 -1 3.5 0.5t2.5 1.5l2 -1h3q16 1 44 1q4 0 10 -0.5t10 -0.5h21.5t20.5 1q4 0 53 9q13 3 25 9q1 1 8 4.5t11 7.5q11 10 18 19q9 8 15 19q6 12 6 16q0 6 2 16q4 17 2 47q-4 24 -7 35q-4 13 -18 35
q-10 15 -36 25q-36 14 -52 14q-10 0 -32 4q-16 3 -30 2t-45 -1q-13 1 -40 0.5t-37 -0.5q-1 -2 -6 -2t-6 -1q1 -19 -1 -53.5t-2 -52.5q0 -4 0.5 -15t0.5 -17q0 -4 -0.5 -9t-1.5 -11t-1 -9q-1 -7 0 -20.5t1 -17.5q-2 -11 0 -29.5t2 -24.5q6 0 25 -0.5t29 -0.5zM99 21
q6 -2 11 -2q1 -1 3 0t3 1q3 0 16.5 -2.5t19.5 -1.5q7 1 19.5 2.5t18.5 1.5q9 0 35 2q17 0 37 3l15 2.5t16.5 2.5t15.5 1q26 4 49 16q16 6 43 23q5 4 13 12l9 7q1 2 4.5 8t4.5 9q2 5 4 11q0 1 3 4q0 3 1.5 8t1.5 6q0 4 1 7q0 2 1 4t1 3q0 6 0.5 17.5t1.5 16.5q2 36 -6 63
l-11 36q0 2 -5 12q-4 8 -7 11q-2 2 -3 4.5t-2 3.5q-2 2 -5.5 6.5t-4.5 5.5l-13 13q-1 1 -2.5 3t-2.5 3l-4 6q-2 3 -12 8q-3 2 -9 5t-9 5t-8 4t-6 3q-17 11 -31 13q-9 2 -25 4q-17 3 -80 1q-55 0 -78 -1q-8 0 -22 -2t-16 -2q-2 -56 -1 -87v-6v-17q-2 -88 -1 -115
q0 -9 -0.5 -24.5t-0.5 -22.5q-1 -9 0.5 -24.5t1.5 -21.5q-2 -29 2 -45q4 -4 13 -4z" />
    <glyph glyph-name="C" unicode="C" horiz-adv-x="384" 
d="M369 637q-6 -4 -14 4l-1 1q0 2 -1 3q-7 9 -12 12q-1 1 -4 3.5t-5 3.5q-27 20 -41 25q-29 10 -62 0l-22 -11l-21 -15q-6 -4 -10 -8l-8 -8q-6 -5 -11 -11.5t-10.5 -15t-8.5 -13.5q0 -1 -11 -17q-1 -1 -1 -3t-1 -3q-1 -2 -2.5 -3t-1.5 -2q-1 -3 -3 -9.5t-4 -9.5
q-7 -13 -8 -18l-9 -18q-5 -10 -10 -32q-2 -7 -8.5 -28t-8.5 -33q-12 -78 -14 -101q-1 -13 -1 -36q0 -42 5 -71q2 -12 3 -17q1 -3 1 -8q0 -1 1.5 -3.5t1.5 -3.5q1 -3 2 -9t1 -7q2 -5 9 -25q7 -15 11 -31q16 -26 20 -33q3 -4 8.5 -12t8.5 -12q0 -1 3 -3t3 -4q3 -2 8.5 -6
t7.5 -6l2 -2q2 -2 8 -5q3 -2 9 -5.5t8 -5.5q31 -15 53 -19q27 -1 50 7q27 14 41 25q2 2 8.5 8t10.5 9q16 19 21 10q1 -2 3 -4.5t2.5 -3t-0.5 -3.5q-1 -4 -6 -9q-4 -2 -10 -9t-9 -8q-4 -2 -7 -4t-6 -5t-6 -5q-3 -1 -8 -6t-9 -7q-6 -3 -15 -5q-3 0 -7 -3t-6 -3q-30 -2 -39 -2
q-24 0 -63 16q-29 14 -47 28q-7 6 -13 13t-12.5 16t-10 15.5t-10.5 18.5t-10 17q-20 53 -25 78q-16 77 -11 141q1 6 9 68q2 14 8 42q1 3 1.5 10t1.5 11q1 2 4 9t4 12q4 11 5 20q4 12 15 37l2 4t1 4q1 1 1.5 3t1.5 4l2 4q1 1 2 3.5t1 3.5l9 18q11 24 23 40q2 2 5 7t5 7
q0 1 1 2t2 2.5t2 2.5q2 4 4 6l9 9l2 1v2q0 1 2 1t2 1l2 3q2 2 6.5 5.5t6.5 5.5q0 2 1 2l18 12q2 1 11 5q1 1 4 1q12 7 14 8q15 3 29 3q10 0 28 -2q16 -3 26 -9q2 -1 11 -7q22 -14 23 -15q4 -2 10.5 -9t8.5 -9l2.5 -2.5t3 -2.5t3.5 -3t3 -3.5t1.5 -3.5t-0.5 -3.5t-3 -3.5z
" />
    <glyph glyph-name="D" unicode="D" horiz-adv-x="428" 
d="M86 -10q-16 0 -19 13q-6 27 -6 75l1 2v3t-0.5 2t-0.5 2v21q1 7 0.5 26.5t-0.5 27.5v56q0 86 1 130v46q-2 22 -1 64.5t0 65.5q-1 11 -1 61.5t-3 75.5q-1 3 -1 9v10q-2 13 1 19q10 7 23 1q4 0 15 0.5t12 -1.5q7 -1 18 -5q68 -17 73 -20q8 -6 24 -12q1 -1 5 -2t5 -2l6 -3
q3 -1 9 -7q1 0 2 -1l11 -11q1 -1 3 -2q4 -3 6 -4l15 -15t17 -19q2 -3 8 -8.5t8 -10.5q3 -3 7.5 -9t7.5 -8l9 -15q0 -2 2 -4l3 -3q0 -2 0.5 -5t0.5 -4t2 -3t3 -4q0 -1 1 -3.5t2 -3.5q19 -40 30 -85q2 -8 7 -54q1 -14 1 -53q0 -52 -26 -126q-7 -19 -16 -36q-1 -3 -3 -7.5
t-2 -6.5t-2 -5.5t-2 -5.5q-4 -8 -9 -13l-4 -8t-5 -9t-5 -8q-1 -1 -2 -3.5t-1 -3.5l-3 -2q-1 -1 -1 -3q-1 -1 -6.5 -9t-7.5 -13l-7 -7q-1 0 -1 -2l-1 -2q-1 -1 -2 -1t-2 -1q-10 -8 -14 -12q-2 -1 -7 -4.5t-8 -4.5l-27 -18q-8 -4 -12.5 -6t-10 -3.5t-8 -1.5t-11.5 -1t-16 -2
q-2 0 -20 -1t-35 -2.5t-18 -2.5q-1 -2 -12 -2zM102 19q7 1 49.5 3.5t50.5 4.5q4 2 12 4q13 4 23 10q8 4 11 6q3 3 13.5 12t15.5 15q1 0 4 3q9 11 13 18q2 3 4 7q0 3 1 4q24 35 40 73q15 42 23 87q10 45 10 88v14q-2 30 -8 57q-4 25 -14 48q-1 4 -3 11.5t-4 11.5
q-1 2 -4.5 10t-5.5 11q-2 5 -5 10q-1 3 -5 7q-1 0 -1 2v2q-2 2 -5.5 9t-6.5 11q-2 4 -22 26q-19 21 -25 26q-1 1 -26 23q-5 3 -14.5 8.5t-17 9t-14.5 5.5q-88 28 -110 23q-2 -6 0 -17q1 -3 1.5 -10t0.5 -10q0 -4 1 -12t1 -11v-108q0 -13 -2 -41t-1 -44q1 -27 1 -81
q0 -2 -0.5 -5.5t-0.5 -4.5q0 -2 0.5 -5.5t0.5 -5.5q0 -12 0.5 -37.5t0.5 -36.5q0 -10 1.5 -35t0.5 -38q-1 -10 -0.5 -38.5t0.5 -39.5q-1 -9 0 -23t1 -19q0 -31 3 -41q5 -4 12 3z" />
    <glyph glyph-name="E" unicode="E" horiz-adv-x="314" 
d="M277 8q0 -12 -18 -10q-3 -2 -19 -0.5t-20 1.5q-7 0 -27 1t-30 0q-15 -1 -39 -0.5t-35 0.5q-25 -2 -31 5q-3 5 -3 10t1.5 12.5t1.5 10.5v19t1 20q2 40 0 116q-1 16 0 46.5t1 39.5q0 6 0.5 19.5t0.5 20.5q-7 142 -2 202q2 8 0.5 75.5t-1.5 79.5q0 1 -2 10t2 10q3 2 12 2h21
q52 2 66 1q3 0 8.5 -0.5t8.5 -0.5q6 0 16 0.5t16 0.5h33q13 2 21 0q4 -1 7.5 -6t2.5 -9q0 -8 -10 -8q-3 0 -8.5 1t-8.5 0q-22 -3 -26 -2h-8h-16q-16 2 -26 3h-14h-14q-33 2 -58 -1q-2 -19 -2 -84q0 -20 -2 -61.5t-2 -63.5v-42q0 -12 2 -39.5t1 -42.5q3 -1 7.5 -1t7.5 -1
q2 -1 17 -1h37q8 -2 12 -2q11 -1 27.5 -1h26.5q1 0 3 0.5t3 0.5l9 -1q8 -1 11.5 -3t3.5 -7q0 -3 -0.5 -5t-3 -3.5t-4.5 -2t-6 0t-6.5 0.5t-7 0.5t-6.5 0.5q-7 0 -21.5 0.5t-19.5 1.5h-39t-47 2q-1 -30 -0.5 -100t-1.5 -100q-1 -7 0.5 -19.5t1.5 -17.5q-3 -55 1 -66
q1 -2 15.5 -2h16.5q7 -1 20.5 0t18.5 1q2 0 6 -0.5t6 -0.5t7 0.5t8 0.5t8.5 -1.5t7.5 -1.5q6 -1 18.5 0t16.5 1t9.5 -0.5t7.5 -0.5q20 0 23 -1q5 -2 5 -7z" />
    <glyph glyph-name="F" unicode="F" horiz-adv-x="327" 
d="M292 679q-2 -5 -14 -5q-3 -1 -8.5 0.5t-7.5 1.5q-6 0 -17.5 -1t-17.5 -1q-7 0 -19 2h-20q-8 0 -26 1.5t-26 1.5l-2 -1q-5 2 -23 1t-25 0q-3 -6 -3 -32t1 -33q0 -32 1 -35q1 -30 -2 -64.5t-3 -65.5v-106q2 -1 28 -1h10h3l2 -1q88 2 112 1q1 0 1 -0.5t1 -0.5t6.5 1t10 0.5
t7.5 -2.5q8 -11 5 -17q-1 -2 -3.5 -3t-6.5 -1h-6q-5 0 -19 2q-3 0 -10 -1t-11 0q-12 2 -18 2h-58q-43 0 -52 -3q-1 -1 -1 -14t-0.5 -27t-0.5 -29v-7q-1 -13 -1 -37q-1 -18 0 -55.5t0 -58.5q-2 -40 1 -74q1 -11 -4.5 -16.5t-15.5 -2.5q-2 3 -2 16v6v42q0 10 0.5 32t0.5 32
q1 13 0 36.5t-1 30.5q0 11 1 37t1 36v26v49q1 2 0 7l-1 4l1 1v2q0 9 0.5 40t0.5 39q1 3 0 8t-1 7q0 6 0.5 17.5t0.5 16.5t-0.5 16t-0.5 16q0 3 1 15.5t0 20.5q0 11 1 36.5t0 38.5q0 13 -1 20q0 1 -1 3.5t-1 4.5v12.5t-2 11.5q-4 8 3 18q5 5 26 3h52q17 0 27 -1h31h33
q8 -1 22 0.5t24.5 0.5t15.5 -7q2 -1 2.5 -5.5t-1.5 -7.5z" />
    <glyph glyph-name="G" unicode="G" horiz-adv-x="415" 
d="M348 618q-11 -5 -20 17q-1 1 -1 2q-2 2 -8 7.5t-8 7.5l-9 9q-4 2 -11.5 8t-12.5 7q-4 2 -38 5q-4 1 -9 -0.5t-9 -0.5q-38 -12 -49 -19q-2 -2 -11 -8q-1 -1 -3.5 -1.5t-3.5 -0.5q-6 -6 -15 -12q-18 -16 -28 -30q-18 -27 -31 -74l-6 -27q-2 -12 -3.5 -36t-1.5 -29t-2 -26
t-1 -32q1 -12 -0.5 -25.5t-1.5 -23.5q0 -12 2 -45t2 -45q0 -6 0.5 -18t0.5 -17t2.5 -15.5t2.5 -15.5q0 -2 0.5 -7.5t1.5 -8.5q0 -8 3 -15q2 -10 3 -14q3 -15 3 -16q11 -31 22 -48q9 -13 27 -26q5 -3 8 -8q15 -8 28 -13q22 -6 33 -6q22 0 46 7q4 1 10 5.5t8 5.5q3 3 9 7
q2 1 4.5 3t4.5 2q4 1 7 5t5.5 9.5t4.5 7.5q9 16 14 30q4 10 6 17q2 3 3.5 10t2.5 10q0 1 1 3t1 4t0.5 5t1 5.5t1.5 4.5q9 44 10 57q2 17 2 36q0 1 -0.5 3.5t-0.5 3.5q2 6 2 8q0 9 -2 29q0 17 -6 24h-12t-11 -1q-3 1 -19 0t-19 -1q-22 -1 -97 3q-7 0 -24 -1t-25 1q-3 4 -2 18
q4 3 8.5 3.5t9 0t10.5 0.5q4 -1 11 1h20q14 -1 29.5 -1.5t27.5 -0.5q9 -1 28 -1q1 0 16 3q5 -2 10 0q1 0 4 1t4 1q2 0 4 -1t4 -1q21 0 24 1q6 4 10 4q13 -3 14 -4q7 -5 7 -15v-6q-1 -16 -1 -42v-43q0 -6 -5 -34l-1 -1v-2v-1l1 -1q0 -1 -1.5 -5t-1.5 -6q0 -4 -1 -12.5
t-1 -12.5q-1 -4 -3 -10.5t-2 -9.5q-2 -8 -4 -22q-1 -5 -2 -11t-2 -10.5t-5 -8.5q-1 -1 -4 -7.5t-5 -8.5q-4 -4 -4 -10t-11 -17q-2 -3 -5 -6t-5 -6q-17 -19 -37 -28q-12 -7 -32 -9q-24 -4 -39 -2q-7 0 -25 4q-11 2 -33 15q-14 7 -28 18q-18 15 -22 22q-2 3 -12 26
q-7 12 -12 26q-7 26 -8 29v5l-2 3q-2 7 -3 21.5t-2 18.5q0 1 -1 2.5t-1 2.5q-1 5 -1 15q0 1 -3 65q-3 45 -3 66v34t1 35q0 1 0.5 5t0.5 6v10l3 21q1 6 1 18t1 18q1 17 6 34q3 8 4 18q1 2 1.5 8t1.5 9q10 27 11 30q2 6 7.5 17l7.5 15q0 1 11 15q17 21 27 28q3 2 11 5.5
t11 6.5q3 2 8 6.5t8 6.5q15 7 25 10q16 5 25 7q25 2 46 0q9 0 17 -4q14 -6 21 -10q2 -1 6 -4t6 -4q4 -4 5 -4q1 -1 3 -2l2 -2q14 -11 20 -20q19 -27 6 -32z" />
    <glyph glyph-name="H" unicode="H" horiz-adv-x="390" 
d="M334 695v-15q0 -64 -3 -132q0 -4 0.5 -16t0.5 -15q0 -4 -1 -10.5t-1 -9.5q0 -7 1 -16.5t0 -16.5t-0.5 -20.5t0.5 -19.5q-1 -7 -1 -20v-21v-41q0 -6 0.5 -21t-0.5 -22v-21t-1 -21v-151v-15v-8q1 -14 1 -41v-39q0 -4 -7 -4.5t-11 2.5q-3 3 -3 16q-5 163 0 289q-2 2 -6 1.5
t-6 0.5q-36 0 -52 4q-9 -1 -44.5 0.5t-40.5 1.5q-8 0 -38 -1t-39 -2q-1 -6 -1 -17v-18q-1 -14 -1.5 -31t-1 -38t-0.5 -32q0 -3 0.5 -9t0.5 -8q0 -11 -1 -61.5t0 -59.5q0 -3 1.5 -18t-0.5 -17q-1 -8 -19 -3q-4 3 -4 27q0 5 -0.5 15.5t-0.5 15.5q0 9 0.5 27t0.5 27
q0 17 0.5 53t0.5 55q0 18 2 52v11q1 7 -0.5 20.5t-1.5 18.5q0 8 -1.5 24.5t-0.5 25.5q1 17 1 103q-1 18 0 52.5t1 43.5q-2 86 1 117q0 9 3 11q6 2 11 2q6 0 8 -4q2 -5 1.5 -8t-2 -9.5t-1.5 -9.5q-1 -6 -1 -18.5v-19.5v-109v-77q0 -12 1.5 -49t0.5 -57q16 -6 60 -2h18
q2 0 14.5 -0.5t15.5 -0.5q1 0 24 1t29 0q20 -2 29 -2q18 2 35 2q2 3 2.5 6.5t0.5 8v6.5v23q0 6 -0.5 22t0.5 22q3 14 2 61.5t0 62.5q2 42 2 131q0 3 -1 7t-0.5 6.5t2.5 4.5q6 4 13 3t8 -6z" />
    <glyph glyph-name="I" unicode="I" horiz-adv-x="139" 
d="M65 0q-4 2 -6 13q-1 4 -1 16q0 23 1 31q1 6 0 20t0 20q1 14 1 40q0 49 -1 73q-1 25 -0.5 75.5t-0.5 75.5v157v117v19q0 5 -0.5 16t-0.5 17q0 1 -0.5 3.5t-1 4.5t0.5 3.5t3 1.5q11 2 16.5 -4t6 -11.5t0.5 -17.5q0 -10 -0.5 -27t-0.5 -23q0 -7 1.5 -22.5t0.5 -23.5
q-2 -18 -1 -29q1 -19 0 -54t-1 -52v-22q0 -33 1 -50q1 -19 0 -54.5t-1 -46.5q0 -34 1 -50q1 -14 1 -49q0 -31 -2 -101q0 -7 2 -22.5t0 -24.5q-3 -13 -5 -15q-9 -4 -13 -4z" />
    <glyph glyph-name="J" unicode="J" horiz-adv-x="473" 
d="M3 154q3 9 16 3q3 -1 4.5 -3.5t2.5 -8t2 -7.5q5 -17 16 -41q8 -16 13 -24q2 -3 7.5 -9t8.5 -9q10 -12 16 -17q3 -3 25 -14q8 -4 37 -8q5 0 15.5 -1t15.5 -2q41 -2 66 5q5 0 8 1q1 0 2.5 1.5t2.5 1.5q5 0 7 1q12 4 24 10q1 1 18 14q8 7 15 15q10 13 24 38q6 11 14 31
q5 10 9 24q6 19 12 61q6 44 7 67q0 5 -0.5 15t-0.5 14q0 2 0.5 5t0.5 4v10q0 3 0.5 8t0.5 9v4l-1 3v79q1 12 1 34v34q0 2 -0.5 3t-0.5 2q0 3 0.5 9t0.5 10t-0.5 11t-0.5 10v38q0 19 1 21v21q0 23 -1 27q0 1 -1 11v10v7q-2 11 2 17q2 1 9 4q1 0 11 -3q7 -2 5 -22
q-3 -19 -1 -65q0 -1 0.5 -4t0.5 -5t-1 -5.5t-1 -5.5v-12q-1 -14 -1 -45q-1 -12 -1 -39q0 -90 1 -109q0 -4 -0.5 -11t-0.5 -11q0 -9 1.5 -32t0.5 -35q0 -3 -0.5 -8.5t-0.5 -9.5v-4q-2 -6 -2 -10v-12q0 -4 -2 -12t-2 -10q0 -3 -1 -11t-1 -11q0 -4 -2 -12t-2 -12
q-1 -3 -1.5 -11.5t-2.5 -13.5q-1 -3 -2 -6.5t-2 -6.5t-2.5 -7t-2.5 -7q-2 -6 -7.5 -17t-7.5 -16q-8 -20 -14 -32q-7 -12 -19 -26q-3 -4 -9 -7l-8 -8q-2 -1 -6 -4t-6 -4q-2 -2 -16 -9q-16 -8 -36 -13q-47 -13 -119 -2q-25 4 -39 12q-3 1 -14 5t-16 9q-1 1 -9.5 7t-9.5 9
q-4 8 -10 14q-3 4 -5.5 8t-5.5 9.5t-5 9.5t-5 12.5t-4 10.5q-6 11 -7 25l-3 6q-8 12 -5 20z" />
    <glyph glyph-name="K" unicode="K" horiz-adv-x="403" 
d="M374 -2q-4 -2 -16 4q-5 3 -10 10q-2 4 -6 9.5t-5 7.5q-5 6 -18 22.5t-20 26.5q-11 12 -17 22q-5 8 -17 22q-4 5 -16 19.5t-18 22.5q-3 4 -9 11t-9 11t-9 11t-9 11q-3 3 -8.5 9.5t-8.5 9.5q-10 10 -29 30.5t-28 29.5q-3 5 -9.5 11.5t-8.5 10.5q-1 2 -4.5 5t-4.5 5
q-5 7 -11 7q-2 0 -2 -15q-1 -22 0 -62.5t1 -53.5v-68q0 -14 0.5 -41t0.5 -41v-15q7 -30 -6 -30t-15 1q-8 5 -5 30v24q-2 26 0 85q0 19 0.5 56.5t1.5 56.5q0 18 -1.5 56t-0.5 57q0 39 -1 58q-1 11 0 34t1 28t-0.5 16.5t-0.5 17.5q0 5 0.5 16.5t0.5 17.5q0 1 -0.5 3.5
t-0.5 4.5q0 3 0.5 12t0.5 14q0 6 1 17t1 17q0 2 -0.5 7t-0.5 8q0 1 0.5 6t0.5 7q0 5 -0.5 15.5t-0.5 14.5v22q8 3 18 -4q4 -17 4 -40q0 -7 1 -21t1 -20q-1 -15 -1 -42q0 -5 -1 -19.5t0 -22.5q0 -6 0.5 -20t0.5 -22q-1 -48 1 -126q1 -1 2 -0.5t2 3.5t2 4q3 5 10 13.5t10 12.5
q1 1 7 12t11 16q12 12 19 23q3 3 9 11t9 11q1 1 3 2t3 2q3 6 4 7q2 2 6 8t7 9q4 7 14 17q4 5 12 14.5t12 14.5q8 9 24.5 31.5t26.5 32.5q28 28 51 55q4 7 8 9q1 1 2 2.5t2 3.5t2 3q2 4 12 16q5 5 11 1.5t8 -10.5q3 -9 -4 -14q-3 -1 -4.5 -3.5t-3.5 -6.5t-5 -7
q-23 -25 -30 -31q-6 -5 -18 -17q-6 -6 -16 -19.5t-14 -18.5q-11 -14 -14 -16q-4 -5 -14 -16t-14 -18q-5 -6 -14.5 -17t-14.5 -16q-14 -18 -20 -26q-1 -2 -4 -5t-4 -5t-6.5 -7t-7.5 -9q-1 -2 -3.5 -5t-3.5 -4q-4 -6 -6 -8q-1 -2 -4 -5.5t-5 -6.5t-3 -6q-2 -4 -6.5 -10
t-6.5 -9q-5 -3 -8 -8q-1 -1 -5 -9q-1 -3 -5.5 -9.5t-6.5 -10.5q1 -3 4 -7l4 -4q6 -8 8 -10l9 -9q1 0 1 -1v-1q1 0 1 -2l1 -2l4 -4q3 -4 8.5 -10t8.5 -10l17 -17q6 -7 17.5 -20t17.5 -19q15 -14 17 -18q3 -3 5.5 -6t6 -7.5t5.5 -6.5q16 -18 31 -40q2 -3 20.5 -25.5
t26.5 -35.5q1 -2 4 -5.5t4 -4.5q6 -6 8 -10q5 -5 13 -15.5t11 -14.5q6 -9 7 -10q6 -6 10 -8q3 -1 5.5 -5t3.5 -5q5 -11 -5 -15z" />
    <glyph glyph-name="L" unicode="L" horiz-adv-x="363" 
d="M57 699q4 3 16 1q7 -5 6 -17q2 -60 2 -87q0 -6 0.5 -18t0.5 -18q0 -3 -0.5 -8.5t-0.5 -8.5q0 -11 0.5 -34.5t0.5 -36.5q0 -3 -0.5 -8t-0.5 -7v-18q-1 -22 1 -64t2 -59v-18q0 -15 -2 -53q-1 -14 0.5 -39t1.5 -35q0 -121 1 -145q4 -3 21 -3h29q8 -2 62 -2q13 1 39 1
q5 0 49.5 1t69.5 0q4 0 6 -7q4 -11 -11 -16q-2 -1 -19 -1h-20q-3 0 -30.5 1.5t-33.5 0.5q-46 -5 -120 0h-15q-29 -3 -43 0q-8 2 -11 9q-2 4 0 19v60q0 8 0.5 22.5t0.5 20.5v40q0 30 -0.5 95.5t-0.5 93.5v59.5t1 55.5q0 1 -1 2.5t-1 2.5v14q1 28 -0.5 85t-0.5 85q1 10 0 19
q0 13 1 15z" />
    <glyph glyph-name="M" unicode="M" horiz-adv-x="466" 
d="M405 -4q-17 0 -22 6q-3 3 -3 7t1.5 9t1.5 8q0 5 -0.5 14.5t-0.5 13.5v59q0 9 -0.5 33t-0.5 35q0 26 0.5 78.5t0.5 79.5v156q2 114 1 160q-1 2 -5 -5q0 -1 -1 -3t-1.5 -3.5t-0.5 -2.5q-2 -5 -9.5 -24.5t-10.5 -29.5q0 -1 -1 -6.5t-2 -9.5q-1 -6 -4 -19.5t-4 -17.5l-1 -2
q-1 -3 -1 -4q-2 -11 -5.5 -31.5t-5.5 -30.5l-5.5 -38.5t-7 -44.5t-7.5 -37q-2 -8 -4.5 -23t-4.5 -22q-4 -11 -5 -14q-2 -16 -4 -23q0 -5 -1 -7q0 -1 -1 -2t-1 -2q-4 -24 -9 -39l-3 -6q-1 -2 -1 -7l-2 -3q-1 -2 -1 -5.5t-1 -5.5q-1 -1 -8 -29q-7 -29 -9 -43q0 -6 -2.5 -20
t-2.5 -22q0 -7 -2.5 -21t-2.5 -22q0 -16 -5 -26q-7 -5 -14 -3.5t-10 7.5q-3 5 -4 12t-1 16t-1 13q-1 5 -4 17t-5 17q-11 52 -14 71q-2 8 -5 22.5t-5.5 26.5t-4.5 23q-9 52 -13 71q-2 12 -7.5 36t-7.5 36q-2 13 -8.5 37.5t-8.5 31.5q-8 31 -16 69q-2 6 -8 33.5t-8 33.5
q-8 42 -11 50l-6 16v-1q0 -4 2.5 -63.5t2.5 -73.5v-70q-2 -18 0 -52.5t1 -50.5q-1 -9 -1 -27q-1 -18 -1 -72q-1 -13 0 -36t1 -31q0 -11 -1 -45.5t0 -54.5q0 -24 1 -35q0 -2 1.5 -8t1.5 -8t-2 -10q-5 -5 -14.5 -4.5t-13.5 5.5q-2 4 -0.5 11.5t1.5 8.5q0 3 -0.5 10.5
t-0.5 11.5q0 7 1.5 58.5t-0.5 64.5q-2 42 0 83q0 9 0.5 38.5t1.5 44.5q0 14 -1 42t0 43q3 84 3 85q0 17 -2 48t-2 40q-1 15 1 43.5t2 40.5v20q0 6 9.5 8.5t14.5 -3.5q4 -4 5 -7.5t1.5 -7t1.5 -6.5q2 -5 3.5 -13t2.5 -12q5 -15 8 -26l3 -15t4 -14q1 -6 4.5 -24.5t6.5 -29.5
l3 -15q0 -2 1 -6.5t2 -6.5l2 -3q1 -5 5 -23.5t7 -28.5q2 -7 8 -29t8 -34q1 -6 5 -23t6 -27q16 -76 23 -114q7 -39 23 -115l9 -36q13 69 16 81q2 12 9 35t9 30q3 12 8 34.5t8 33.5q0 3 1 5q1 4 2 9t2 11.5t2 9.5q1 4 2.5 13t2.5 13l2 3v5q6 27 13 78t9 64q1 4 3.5 13t3.5 13
q3 11 5 26q4 18 7 26q0 2 2 8l16 48q4 10 5 15q0 1 1.5 3.5t1.5 4.5q1 3 1 9q3 6 3 7q2 7 3 8q3 6 9 9q16 7 25 -4q4 -4 5 -9.5t0.5 -14.5t-0.5 -14q2 -16 2 -46.5v-37.5q1 -31 -1 -211v-21q-1 -26 0 -79t0 -78q-1 -52 3 -114q2 -30 2 -58q0 -17 -5 -17z" />
    <glyph glyph-name="N" unicode="N" horiz-adv-x="448" 
d="M392 13q0 -9 -4 -12q-7 -3 -15 0q-3 3 -4.5 10.5t-3.5 12.5q-6 13 -18.5 34t-20.5 37q-4 6 -5 9q-2 5 -5.5 12.5t-4.5 10.5q-4 8 -10 32q-2 2 -5 9t-4 8q-3 8 -11.5 21.5t-10.5 18.5q-8 20 -12 29q-2 3 -6 10t-5 11q-1 1 -1 3.5t-1 3.5l-24 57q-46 100 -67 153
q-3 6 -8 19t-8 19q-2 4 -4.5 8.5t-5.5 10t-5 8.5q-2 4 -7 13t-7 14q-1 2 -2 4.5t-2 4.5q-1 1 -2.5 4t-2.5 4q-4 4 -10 18q-3 9 -10 16q-1 -24 -1 -75q0 -7 0.5 -20t0.5 -19q2 -40 0 -117v-120.5t-1 -120.5v-18q-1 -18 0 -50.5t1 -42.5v-26q0 -17 -3 -19q-5 -3 -13 0
q-7 3 -7 17q-2 94 2 161l-1 2q-1 2 -1 4q1 34 -1 126.5t1 121.5q3 34 -1 82q0 11 0.5 39.5t-0.5 38.5v57v19t-1 18v11q0 7 4 7q3 0 5 -0.5t3 -1t2.5 -3t1.5 -3t1 -4.5l2 -3q11 -27 28 -55q6 -13 20 -38t20 -38q3 -5 13 -22.5t15.5 -30t8.5 -25.5q1 -3 3.5 -8.5t3.5 -7.5
q1 -3 2.5 -8t3.5 -8q1 -3 4.5 -9.5t4.5 -10.5q1 -1 1.5 -4t1.5 -4q2 -3 5 -11.5t4 -11.5q2 -4 5.5 -10.5t4.5 -8.5q5 -14 14 -29q1 -3 4 -10t4 -11l6 -9q1 -1 4.5 -13t7.5 -18q6 -9 6 -13q6 -15 7 -17q3 -7 15 -29t17 -33q2 -5 4 -11q3 -4 9 -20.5t8 -20.5l15 -35
q14 -30 20 -37q1 3 1 30q0 16 2.5 51t1.5 52q-3 66 -3 202q0 3 -0.5 8t-0.5 7q0 8 1 23t1 23q0 7 1 29t0 33q0 6 0.5 16.5t0.5 15.5v30q-1 6 0 15t1 12q0 4 0.5 12t0.5 12q-1 4 -1 9.5t-1 9.5t1 12t1 12q-3 17 -1 19q7 2 11 -1l3 -2q4 -2 4 -4q2 -8 1.5 -21t0.5 -21v-20v-20
v-23q0 -13 1 -20q0 -1 -1 -3v-2v-38q1 -9 0 -26t-1 -22v-26q0 -4 -1 -12t-1 -12q0 -2 1 -8t0 -10v-1l-1 -1q0 -5 1 -18t1 -19q0 -16 0.5 -54.5t0.5 -56.5q0 -26 2 -78q0 -16 -1.5 -75.5t1.5 -74.5v-21z" />
    <glyph glyph-name="O" unicode="O" horiz-adv-x="575" 
d="M509 154q-2 -7 -11 -26q-1 -1 -2 -3.5t-1 -3.5q-3 -9 -8 -17q-10 -16 -16 -23q-13 -18 -30 -35h-1v-1q-45 -36 -67 -41q-55 -13 -63 -13q-50 3 -51 3q-34 7 -46 10q-29 8 -57 23q-22 11 -45 33q-12 11 -22 23q-7 9 -15 27q-15 29 -20 85q-1 11 -3 36t-3 36q0 7 -1 10
q-1 9 -1 34t-1 34q-1 23 0 47q-2 59 6 83l6 21q0 1 1 3q2 4 2 6l3 12q1 3 8 17q5 14 9 24q2 3 4 9q1 1 5 9.5t7 12.5q6 11 22 31l18 24q4 7 20 23q40 36 83 41q34 3 57 1q2 0 8 -0.5t9 -0.5q17 -2 19 -3q3 -1 9.5 -2t9.5 -1q9 -3 10 -3q1 -1 4 -2t5 -2q1 0 3.5 -1t4.5 -2
q1 0 4 -0.5t4 -1.5q5 -1 10 -6h1q1 0 2 -1q2 -2 7.5 -4.5t7.5 -3.5q8 -6 13 -10l3 -1l3 -3q1 0 5 -4q0 -1 2 -1t2 -1l3 -3q7 -4 10 -9q12 -11 26 -28q3 -3 21 -40q5 -11 10 -31.5t6 -23.5q5 -16 5.5 -46.5t1.5 -36.5q6 -41 5 -75q-2 -10 -2 -16q-1 -6 -1.5 -21.5t-0.5 -21.5
q-1 -11 -1 -34q-2 -6 -2 -9q0 -2 0.5 -5t0.5 -4q0 -7 -2 -18.5t-2 -14.5q-2 -25 -5 -34zM483 570q-1 4 -8 16q-1 2 -8.5 14t-12.5 17q0 1 -1 2t-1 2l-13 13q-19 17 -31 23l-2 2q-4 2 -5 2q-1 1 -3 2l-2 1q-8 6 -20 11q-13 7 -37 10q-28 6 -43 7q-32 2 -56 -4q-7 -2 -25 -11
l-9 -3q-5 -3 -13.5 -8.5t-12.5 -7.5q-3 -5 -7 -5q-29 -32 -50 -64q-1 -2 -3.5 -5.5t-2.5 -4.5q-1 0 -1 -1q1 -1 0 -2q-1 0 -2 -1v-2t-1 -2l-3 -3q-1 -5 -5 -15q0 -1 -1.5 -3t-2.5 -4q-1 -1 -5 -11t-6 -14q0 -3 -1 -4q-1 -6 -6 -19q0 -4 -1 -5q-6 -18 -8 -32q-4 -22 -4 -36
q-3 -74 4 -172q1 -9 3.5 -37.5t4.5 -43.5q6 -31 15 -53q3 -9 15 -27q2 -3 6.5 -8.5t5.5 -6.5t2 -3l2 -2q1 -1 3.5 -2.5t4.5 -3t4 -2.5q6 -5 44 -28q10 -5 56 -16q7 -1 21.5 -3t21.5 -4q3 -1 8 -1t8 -1q16 0 44 6q5 1 15 4t15 4q3 3 12 7.5t12 7.5q18 13 23 15q1 2 10 11
q2 1 3.5 4.5t2.5 4.5q0 1 2 1t2 1q2 2 4 6t6 6q2 2 4 6q1 2 2 3q1 2 3 4q4 4 7 12q1 1 4 7q0 4 4 8q2 6 6 15q4 11 5 14q3 10 8 40q6 25 7 43v24q1 23 6 96q0 4 0.5 12t0.5 11q0 35 -5 73v12t-1 12q-4 35 -6 41q-11 43 -12 48z" />
    <glyph glyph-name="P" unicode="P" horiz-adv-x="362" 
d="M82 300q-1 -14 -1 -40v-44q0 -4 0.5 -13t0.5 -14q0 -10 -2 -13q0 -3 1 -6.5t1 -6.5q-2 -12 -1.5 -34.5t-1.5 -34.5q-1 -3 0 -7.5t1 -5.5q1 -7 0 -17v-31q0 -2 -0.5 -5.5t-0.5 -4.5q0 -2 1 -7.5t0 -8.5t-4 -6q-4 -2 -10 -2t-9 3q-3 0 -1 13l1 13q1 15 1 41v41q1 27 1 80
q0 9 -2 79t1 79q3 0 2 80l-2 79v40q0 13 -0.5 40.5t0.5 41.5q0 7 0.5 20.5t0.5 19.5q0 22 1 24q2 3 5.5 3.5t8.5 0t8 -0.5q27 3 66 -3q40 -6 47 -8q25 -7 32 -10q6 -2 17 -7.5l15 -7.5l3 -2q3 -3 5 -3q25 -21 40 -47q4 -5 20 -45q6 -14 6 -16q6 -21 6 -45q0 -42 -3 -53
q-3 -12 -3 -14q0 -3 -2.5 -9t-3.5 -8q-3 -14 -11 -28q-1 -2 -5 -7t-6 -8q-6 -12 -10 -16q-2 -2 -14 -12q-1 0 -2.5 -1.5t-2.5 -1.5t-5 -2.5t-6 -4.5q-9 -6 -35 -15q-2 0 -5 -1t-5 -1l-28 -7q-66 -12 -110 -13zM104 322q8 -2 45 5q38 5 82 19q17 5 34 17q9 5 19 20
q9 13 21 48q4 11 9 40q0 2 1 7.5t1 8.5q1 37 -9 65q-5 18 -12 32q-3 6 -9 15.5t-7 12.5q-14 18 -20 24q-3 2 -9.5 5.5t-9.5 5.5q-17 12 -68 21q-65 12 -92 7v-63v-84q0 -7 0.5 -21t0.5 -20q0 -9 -0.5 -38t-1.5 -44q0 -12 1.5 -39t0.5 -41q4 -1 13 -2t10 -1z" />
    <glyph glyph-name="Q" unicode="Q" horiz-adv-x="571" 
d="M582 -1q-4 1 -9.5 5.5t-7.5 5.5q-8 5 -16 12q-4 3 -12.5 9t-12.5 9q-3 2 -4.5 4t-3.5 3.5t-6 3.5q-3 1 -8 5t-9 6q-14 9 -18 11q-3 0 -5 -4.5t-3 -5.5l-9 -9q-1 -1 -5.5 -8.5t-8.5 -11.5q-10 -10 -32 -23l-25 -10q-1 0 -10.5 -4t-14.5 -4q-3 0 -24 -3q-11 1 -31 -0.5
t-28 -0.5q-8 0 -12 -1q-9 0 -18 3q-33 2 -53 7q-4 1 -12.5 5.5t-12.5 6.5q-4 3 -12.5 6.5t-10.5 4.5q-1 1 -17 11h-1l-1 1q-5 5 -7 5q-2 2 -6 5t-6 5q-6 4 -13 14q-2 4 -5 19q-2 3 -5 10t-4 10q-1 2 -4 9t-5 11q-1 3 -4 9.5t-4 10.5v3t-1 3q0 2 -2 7.5t-2 7.5q-2 9 -4 49
q0 4 -0.5 13t-0.5 12q0 4 -1 11t-1 11q-3 20 0 39q0 6 -2.5 26t-1.5 29q2 18 2 66q1 8 1 48q0 8 2.5 22.5t2.5 19.5q2 26 5 38q6 22 11 34q8 25 11 32q6 10 18 26q2 2 5.5 6.5t6.5 8t6 6.5q11 8 20 13q2 0 3 1t5 3l6 4q6 3 9 4q55 22 77 24q8 1 50 1q37 0 68 -6
q19 -6 35 -16q7 -5 8 -6t3.5 -2.5t3.5 -2.5q1 0 2.5 -1t2.5 -1q8 -8 13 -11q2 -2 4 -2q1 -1 2.5 -4t2.5 -4q18 -17 21 -28q7 -7 12 -17q12 -19 18 -32q3 -8 17 -56q12 -45 14 -62q6 -42 6 -68q-2 -98 -7 -146q-1 -10 -5 -52q-1 -5 -3 -14.5t-3.5 -18t-3.5 -14.5
q-1 -3 -2.5 -8t-2.5 -7q-3 -16 -8 -27q-1 -2 -2.5 -6t-2.5 -6q1 -4 7 -6l3 -3l6 -3q20 -15 27 -20q1 0 17.5 -9.5t23.5 -15.5q26 -19 30 -24q0 -1 1.5 -2t0.5 -3q-1 -6 -6 -8t-12 2zM493 233q1 14 3.5 39t3.5 34q0 7 1 35.5t0 42.5q-5 71 -6 75q-2 16 -4 24q-1 7 -5 22
q-1 2 -1.5 5.5t-0.5 5.5q-3 4 -3 10q0 4 -6 16q-1 2 -1 6q-2 3 -4 9q-3 10 -3 11q-6 12 -9 15q-2 2 -5 9q-2 3 -4 7q-1 2 -5 8l-6 9q-13 23 -34 41q-22 15 -30 18q-28 14 -78 14q-46 0 -54 -1q-13 -1 -28 -7q-16 -5 -39 -15q-17 -8 -20 -11q-6 -2 -8 -3q-1 -2 -2 -3t-2 -1
t-2 -1q-4 -4 -12 -13t-11 -12q-4 -6 -5 -8l-2 -1q0 -2 -2 -4q-3 -6 -7 -18q-2 -5 -6 -17t-5 -14q-2 -4 -4 -10.5t-2 -7.5q-1 -6 -2.5 -18.5t-2.5 -18.5q-2 -26 -2 -32q0 -3 -0.5 -11t-0.5 -11q-5 -102 -3 -122q1 -2 -0.5 -7.5t0.5 -8.5q1 -3 1 -16q0 -1 1 -3v-21
q2 -10 2 -14q0 -1 -0.5 -3t-0.5 -3t1 -3v-3v-45q1 -10 4 -26t4 -22q2 -3 3 -9t2 -8t3 -6.5t2 -5.5q2 -6 8 -19t8 -21l6 -6q1 -4 5.5 -10.5t5.5 -9.5q2 -1 4.5 -3.5l3.5 -3.5q5 -2 10 -5q0 -1 1 -2l8 -4l5 -2.5t4 -2.5q14 -7 21 -10q20 -8 22 -9q13 -2 39 -4q26 -4 42 -4
q8 0 17 -1t13.5 -1t12.5 1.5t19 5.5q2 1 19.5 4.5t20.5 5.5q2 3 11 5.5t11 4.5l7 7q0 1 2 1t2 1q4 4 12 13q1 2 5 6l4 8q9 15 9 16q-2 3 -5.5 5.5t-8.5 5t-7 4.5q-11 7 -33 23q-2 0 -3 1q-1 2 -2 3h-1q-2 0 -2 1l-2 4q-1 1 -3 1q-2 1 -7 4.5t-7 4.5q-6 4 -8 6q-28 18 -42 28
q-40 24 -49 30q-3 2 -10 11q-8 8 -8 9q-1 2 1 3q11 9 28 -11q4 -2 12.5 -7t9.5 -6t2 -1q2 -1 3 -1q9 -6 11 -8q1 -1 3.5 -2.5t3.5 -2.5q10 -6 15 -8q3 -2 9.5 -6.5t9.5 -6.5q37 -28 49 -35q1 -1 11 -6t14 -9q1 -2 12 -7l5 -5t9 -5q19 38 29 130z" />
    <glyph glyph-name="R" unicode="R" horiz-adv-x="416" 
d="M382 -4q-1 -2 -8 -2q-5 0 -8.5 2.5t-6 9t-4.5 8.5q-3 4 -7 12t-7 11q-2 2 -8 12.5t-10 15.5l-4 8q-1 1 -5 7q0 1 -1 2.5t-2 2.5q-6 9 -9 13q-3 5 -11 17l-1 1v2l-4 4q-2 3 -4 9q-1 3 -6 10q-1 1 -3 3.5t-3 3.5q-6 9 -17.5 26t-15.5 24q-5 6 -13 20t-13 20q-9 14 -25 40
q-16 28 -25 42q-1 0 -1 1v2l-4 4q-1 1 -1 3q-10 15 -22 27q-9 0 -54 -3q-2 -17 1 -132q0 -8 -1 -24t0 -23t0 -45.5t-1 -45.5q0 -11 1 -32t1 -33q0 -15 -4 -18q-4 -2 -10.5 -0.5t-6.5 4.5q-5 36 -3 90.5t1 69.5q-3 81 0 161q1 7 1 20.5v20.5v59v59q0 7 -0.5 20t-0.5 19
q0 54 -1 80q-2 46 1 70v11.5t2 10.5q2 4 19 4q52 0 80 -1h30t30 -2q4 -1 13.5 -3.5t14.5 -3.5q20 -6 39 -13q10 -3 12 -5q1 -2 4 -3.5t4 -1.5q8 -6 13 -8q11 -11 16 -17q8 -8 11 -13l6 -9q25 -55 21 -106l-3 -24q-4 -22 -8 -31q-4 -8 -7 -13q0 -1 -3.5 -5t-4.5 -6
q-9 -15 -23 -25l-5.5 -5.5t-5.5 -4.5q-2 -2 -6.5 -3t-5.5 -2q-16 -9 -21 -11q-21 -7 -25 -8q-2 -1 -11 -5t-14 -4q-4 0 -9.5 -1t-8.5 -1t-6 -0.5t-6 -0.5t-17.5 -1.5t-20.5 -3.5q-2 -2 4 -8q1 -1 4 -6t4 -8q3 -3 16 -20q4 -7 11.5 -22.5t13.5 -23.5q1 -2 6.5 -10t8.5 -12
q5 -6 13 -20q1 -1 2.5 -3t2.5 -3q0 -1 4 -5q1 -1 1 -3t1 -3l3 -3q5 -7 15 -25q12 -12 16 -20l3 -6q0 -1 2 -3t2 -3q1 -1 6 -11q10 -14 15 -22l3 -6q0 -1 2 -2.5t2 -2.5l3 -6l4 -4q3 -4 7 -11t7 -11q10 -14 13 -23q3 -4 10 -13.5t11.5 -17t7.5 -16.5q1 -3 0.5 -4t-2 -3
t-1.5 -3zM195 381q24 6 37 7q4 1 18.5 6t20.5 8q26 12 34 21l8 8q5 5 8 9q17 23 18 25t3 8q1 1 1.5 4t0.5 4q0 2 3 8q1 3 1.5 10t0.5 10q2 14 2 20q0 13 -2 33q-1 2 -2 8t-2 8q-3 14 -8 23l-8 16q-9 16 -13 20q-11 14 -46 27q-17 6 -57 14h-39l-42 2q-42 2 -54 -2
q-4 -1 -1 -45v-81q1 -10 1 -31.5v-32.5q2 -70 1 -112q7 -5 58 0t58 5z" />
    <glyph glyph-name="S" unicode="S" horiz-adv-x="447" 
d="M65 82q4 -3 7.5 -6.5t5.5 -5t4 -2.5q2 -2 15 -10q4 -4 7.5 -6t9.5 -4.5t11 -4.5q3 0 6 -3q11 -4 15 -6l18 -6q6 0 12 -2q12 -6 19 -6q3 -2 11 -2q39 -8 85 10q33 9 47 25q3 3 6 9v1q0 1 1 1q7 7 9 11q0 1 1 2l2 2q3 4 5.5 7t3 4t1.5 2.5t3 3.5q6 6 6 13q2 5 6.5 16
t6.5 16q6 12 8 36q3 16 -6 46q-4 20 -9 31q-1 7 -3 10q-2 4 -7 9q-8 11 -37 40q-11 11 -21 17l-2 1q-2 1 -2 2q-1 1 -3 2q-5 3 -17 9l-5 3l-12 6l-15 6t-13 5t-8 4t-9 4q-58 15 -87 35q-1 1 -7 4t-12.5 6.5t-11.5 7.5q-36 25 -48 38q-18 27 -26 44q-22 37 -8 92q7 29 22 48
l24 24q1 1 6 4.5t11 6.5q2 1 6.5 2t6.5 2q1 0 4 1.5t5 1.5q39 15 63 17q4 1 15 1h12q38 -1 77 -16q10 -2 19 -8q6 -4 16.5 -10t16.5 -10q7 -4 21 -18q15 -13 26 -37q1 -4 6 -15q1 -5 1 -7q3 -5 0 -12q0 -3 -9 -7q-4 -1 -13 6q-6 6 -6 11q0 3 -4 15q-1 4 -7 13q-11 17 -25 30
q-13 10 -30 19q-38 23 -76 24q-43 0 -83 -10q-33 -10 -61 -35q-16 -13 -23 -51q-2 -5 -2 -13q-5 -49 21 -78q2 -3 9 -13q6 -9 18 -18.5t19 -17.5q1 -1 10.5 -5.5t10.5 -5.5q5 -4 29 -16q22 -10 27 -13q3 -1 8.5 -3t8.5 -4q2 -1 5.5 -2.5t5.5 -2.5q9 -4 40.5 -15.5
t46.5 -18.5q4 -2 11.5 -7t11.5 -8l3 -2l3 -3q4 -4 20 -15q10 -8 26 -28q7 -8 11.5 -14t6 -9l3 -6t2.5 -4q2 -2 4 -5l1 -3q5 -9 6.5 -14t2 -11t1.5 -12q4 -9 5 -18v-20q-1 -29 -2 -33q-2 -13 -4 -17q-2 -6 -5.5 -12.5t-4.5 -8.5q-3 -4 -6.5 -13.5t-5.5 -13.5q-12 -21 -30 -42
q-1 -1 -2.5 -3t-2.5 -3q-16 -14 -31 -21q-5 -3 -28 -12q-16 -4 -23 -6q-1 -1 -4 -1.5t-5 -0.5l-11 -3q-16 -2 -54 2q-29 3 -50 10q-9 2 -11 4q-3 3 -6 4q-9 6 -18 9q-2 1 -8 3t-8 3l-34 17l-17 12q-15 9 -15 11q0 1 -1 2q0 1 -4 5q-5 7 7 17q2 2 6.5 0.5t7.5 -3.5t7 -5z" />
    <glyph glyph-name="T" unicode="T" horiz-adv-x="379" 
d="M378 692q0 -6 -11 -10q-4 -2 -10 -2h-26q-4 0 -12.5 -1t-11.5 -1q-2 0 -4 0.5t-3 0.5q-22 -2 -32 -2q-12 -1 -34 0.5t-29 1.5q-2 -139 -1 -180q-2 -45 0 -129.5t0 -127.5v-20.5t-1 -20.5t-1 -20.5v-20.5q-5 -102 -3 -124q2 -29 0 -39q-11 -6 -18 3q-2 4 -2.5 8.5t-0.5 10
v8.5q0 4 -0.5 13.5t-0.5 14.5q0 7 1 25t0 29l1 5q1 4 0 8l-1 1v2q1 5 1 22q0 1 -0.5 3t-0.5 3v23.5t1 23.5q1 2 1 6.5t1 6.5q0 15 1 20q0 2 0.5 21.5t1 33t-0.5 22.5q-1 21 0.5 31.5t1.5 27.5q0 8 0.5 26t0.5 27q0 20 -0.5 62t-0.5 63v131q-8 1 -23.5 1.5t-20.5 0.5h-22
t-23 1h-30q-1 0 -3.5 0.5t-3.5 0.5q-17 -2 -38 0q-13 0 -14 2q-5 8 -5 10q2 7 18 7q4 -1 17 -1h49q19 0 29 -1q3 0 14 1t17 0q52 0 62 -1q20 -1 61 0.5t63 -0.5h15q13 2 16 1q15 -2 15 -8z" />
    <glyph glyph-name="U" unicode="U" horiz-adv-x="624" 
d="M61 699q5 1 12 -2q3 -1 5 -9q0 -126 5 -221q1 -19 0.5 -59t0.5 -58q6 -140 17 -187q2 -8 4 -12q9 -27 11 -32q1 -3 5 -9q1 -2 3 -7t4 -8q0 -1 1 -2.5t2 -2.5t1 -3l1 -1h2t1 -2t1 -3q0 -1 2 -2l2 -1q0 -1 0.5 -2.5t1.5 -2.5t3.5 -4t3.5 -4q4 -3 11 -10q33 -25 61 -34
q1 -1 3 -1h3q21 -8 43 -9q43 -6 74 -2q21 2 30 5q8 2 14 4q7 2 23 11q1 0 2.5 1.5t3.5 2.5q1 1 11.5 8.5t15.5 11.5q18 22 28 32q6 7 15 20t10 15q3 7 11.5 27.5t11.5 32.5q5 19 9.5 48t6.5 41q1 7 2.5 27t1.5 22q2 20 2 90q0 13 0.5 27.5t1.5 32t1 27.5v44t1 44q0 73 -1 82
v9t-1 11q-3 16 3 16q5 0 8 -0.5t5.5 -2.5t2.5 -7q1 -2 1 -8v-11q2 -10 2 -14v-56v-78v-9q0 -2 -3 -47q0 -2 -0.5 -8t-0.5 -9q0 -2 0.5 -5t0.5 -5q0 -9 -1 -32t-1 -34v-8q0 -44 -4 -63q-2 -15 -2 -44.5t-4 -45.5q-10 -45 -15 -56q-2 -6 -5 -12q-2 -7 -7 -19t-7 -17
q-2 -6 -8 -10q-1 -1 -2 -5t-3 -6l-1 -2q-1 -2 -2 -3h-1q-1 0 -2 -1q-5 -10 -7 -12l-12 -12q-4 -6 -17 -17q-1 -1 -4.5 -3t-4.5 -4q-14 -12 -25 -18q-1 -1 -2 -1h-2l-2 -2q-10 -5 -14 -5q-4 -2 -14 -6q-3 -1 -7 -3t-7 -2q-3 -1 -8 -1.5t-8 -0.5h-10t-10 -1q-4 0 -14.5 -2
t-16.5 -2t-16.5 1.5t-15.5 1.5q-38 -2 -93 21q-17 7 -23 11q-4 2 -10.5 8t-9.5 8q-2 1 -4.5 4t-4.5 4q-8 6 -10 8q-1 1 -2 3t-2 3q-4 5 -26 42q-1 4 -3.5 11t-3.5 10q-2 3 -4.5 10.5t-3.5 9.5q-6 14 -8 45q-10 66 -11 83v19q0 6 -2 16v35q-1 16 -0.5 61t0.5 62q0 3 -1 8.5
t-1 8.5v33q0 5 -0.5 17t-0.5 18q-4 80 -1 135q0 9 4 11z" />
    <glyph glyph-name="V" unicode="V" horiz-adv-x="405" 
d="M396 694q-5 -25 -14.5 -56t-22.5 -71t-19 -60q-2 -3 -4 -13q-1 -5 -3 -13q-2 -6 -4 -12.5t-4 -15.5t-3 -14q0 -2 -2 -6t-2 -6q-2 -7 -7 -28q-1 -5 -3 -14t-3 -14q-2 -9 -5.5 -29t-5.5 -29q-7 -34 -13 -49q-1 -3 -3.5 -12.5t-3.5 -12.5q-5 -12 -9.5 -33.5t-8.5 -31.5
q-1 -3 -6 -14t-6 -17q0 -4 -1 -8t-2 -9q0 -2 -3 -6.5t-3 -8.5q0 -8 -2.5 -16t-8.5 -19.5t-7 -14.5q0 -1 -2 -4l-2 -3q-1 -1 -1 -3.5v-3.5q-1 -3 -3.5 -8t-3.5 -8q-1 -6 -2 -7q-2 -3 -4 -9.5t-5 -11t-7 -5.5q-15 -3 -20 6q-2 5 -7 30q-2 5 -4 15.5t-4 15.5q-3 12 -18 77
l-23 92q-1 2 -2 7t-2 8q-1 1 -3 16q-1 3 -3 7t-3 7q0 2 -0.5 5t-1 5.5t-1.5 4.5l-9 30q-11 36 -16 59q-20 82 -28 124q-10 58 -16 86q-4 31 -7 43q-1 2 -2 5.5t-1 5.5v5.5t-1 5.5q-3 9 -3 10q-1 3 -1.5 9t-0.5 9q-3 14 4 16q11 4 16 -13q1 -3 2 -8t2 -8l4 -16q1 -4 2 -9.5
t2 -12.5t2 -11q3 -18 6 -33q18 -105 25 -132q3 -14 9 -42.5t10 -42.5q6 -22 25 -85.5t27 -99.5q2 -7 7 -27l8 -32q4 -20 8 -33q2 -8 2 -13q0 -14 11 -40q3 1 10 18q6 16 16.5 48t16.5 47q10 32 15 49q22 67 28 100q0 2 1 7t1 7q0 1 1 3t1 3q0 2 6 34q4 14 5 27q2 6 7 25
q0 5 1 8q1 4 9 31l3 12l24 84q8 27 24 83q4 18 8 26q2 6 3 11q2 2 2 4q1 2 2 10t3 11q1 2 2.5 5.5t3.5 5.5t6 2q7 1 11.5 -2t3.5 -9z" />
    <glyph glyph-name="W" unicode="W" horiz-adv-x="459" 
d="M400 698q3 0 3.5 -4t-0.5 -11t-1 -9q0 -40 -2 -114v-18q0 -34 -1 -52q0 -86 -2 -111q-1 -9 0 -24.5t1 -21.5v-10q0 -7 -1 -19t-1 -18q2 -31 2 -95q0 -15 1 -86t0 -84q0 -18 -3 -22q-13 -8 -23 7q-3 5 -7 17q-8 26 -11 40q-5 25 -11.5 44.5t-11.5 39.5q-1 4 -5 22.5
t-7.5 37.5t-4.5 22q-1 2 -2.5 6t-2.5 6q-6 24 -8 35q0 1 -2 7q0 2 -0.5 7t-1.5 7q0 1 -2 7q-6 22 -8 34q-3 10 -5.5 28.5t-4.5 25.5q-2 11 -7 31.5t-6 24.5q-9 41 -13 55l-21 90q0 1 -3 20.5t-5 26.5q-1 3 -3 -9q-1 -5 -2 -17q-1 -7 -1 -9q-4 -20 -6 -29q-1 -5 -2.5 -15.5
t-2.5 -15.5q-20 -102 -28 -139q-2 -8 -6 -23t-5 -21q-2 -6 -2 -8q-4 -19 -10 -54q-1 -2 -5 -16q0 -1 -1 -8t-2 -11q-1 -3 -2 -8t-2 -8q-4 -16 -11 -47.5t-8 -37.5q-1 -3 -2.5 -8.5t-2.5 -8.5q-8 -34 -12 -50q-1 -3 -2 -8.5t-2 -8.5q-2 -7 -5 -21.5t-6 -23.5q-1 -3 -2 -10.5
t-3 -12t-5 -8.5q-13 -13 -22 -3q-4 5 -4.5 10t1 15.5t1.5 12.5q1 13 1 154q-1 1 0 3l1 2q-2 27 0 56q0 57 -1 86q-2 11 -0.5 89t1.5 90q0 81 -3 159q0 16 1 18q7 3 16 0q7 -3 5 -14q-1 -8 2 -74q1 -24 1 -73v-79q0 -21 -1 -70t0 -76q1 -25 -1 -76v-115q0 -5 -0.5 -14.5
t-0.5 -13.5q0 -22 -1 -25q6 15 12 39.5t14 64.5t10 48q14 61 23 103q4 19 12.5 53.5t11.5 51.5q1 6 3.5 22t4.5 23q4 17 10.5 49t9.5 47q1 6 3.5 17.5t3.5 17.5q5 29 7 35q7 29 8 37q1 4 0.5 8t0 8t3.5 6q7 5 12 2q2 -1 4.5 -1.5t4 -1t1.5 -2.5q1 -3 0 -13t-1 -14q0 -2 1 -5
t2 -5t1 -6t1 -7q9 -43 16 -70q20 -86 21 -92q4 -12 10 -36q4 -15 8.5 -42l5.5 -33q3 -17 26 -111q5 -21 14 -60.5t12 -50.5q2 -10 9 -30t8 -25q0 -2 0.5 -5t1.5 -5l1 -2q3 -8 3 -7q2 5 0.5 61.5t-1.5 62.5v13q0 2 -0.5 7.5t-0.5 7.5q-1 18 -1 54q-1 11 0 31t1 27v58
q2 48 3 145.5t3 145.5q0 12 3 12q2 0 4.5 2t3.5 0q2 -3 8 -3z" />
    <glyph glyph-name="X" unicode="X" horiz-adv-x="359" 
d="M314 83q18 -38 33 -76l-1 -5l-6 -2q-3 -2 -12 0q-2 1 -3 2.5t-1.5 3.5t-1.5 3q0 1 -0.5 2.5t-1.5 2.5q-1 4 -5.5 13t-5.5 12l-8 20l-7 14q-8 18 -17 44l-10 19q-5 11 -7 19l-34 76q-5 10 -15.5 36.5t-17.5 40.5q-1 0 -4 -8q-8 -14 -11 -21l-14 -29l-7 -11l-5 -12
q-2 -9 -5 -12l-3 -6l-2 -6l-4 -12l-9 -16q-2 -3 -4 -11q-2 -4 -4 -10q-1 -2 -4 -6l-3 -4q-3 -6 -4 -10q-3 -9 -25 -54q-2 -5 -7.5 -19.5t-10.5 -23.5q-3 -9 -8 -19q-1 -2 -3.5 -9t-5.5 -9q-13 -4 -18 1q-1 2 9 26q20 43 33 81q3 7 12.5 23.5t11.5 20.5l3 6q1 1 6 14
q13 33 24 54q12 31 50 108q-2 7 -9.5 23t-9.5 26q-58 122 -128 274q-2 3 -4.5 8.5t-4.5 8.5q-2 1 -2 2q0 2 -1 3t-5.5 6.5t-4.5 7t1 7.5q2 5 14 3q4 -1 8 -7q2 -2 2.5 -5.5t1.5 -5.5t4 -5.5t3 -4.5q16 -29 37 -75q3 -5 4 -11q7 -11 23 -45q14 -32 20 -48q2 -4 4.5 -12
t4.5 -12q5 -12 10 -23q9 -17 9 -19q4 -8 13 -27q1 -4 2.5 -8t4 -8.5t3.5 -6.5t5 -11l6 -11q1 2 4.5 9.5t5.5 10.5q1 3 4.5 9.5t4.5 9.5q3 3 5 10q2 5 42 98q6 17 11 29q6 11 10 28q2 8 3 11q2 6 4 11q3 10 4 11q6 24 7 27l21 63q1 1 1 7.5t3 8.5q16 6 20 -8q1 -3 -4 -16
l-5 -14q-6 -14 -9 -20q-2 -6 -2 -10q0 -1 -1.5 -3.5t-1.5 -4.5l-11 -37q-7 -27 -10 -36q-11 -32 -16 -41l-4 -13q-1 -3 -4 -8t-4 -7q0 -1 -0.5 -4.5t-1.5 -5.5q-4 -6 -5 -12q0 -1 -2 -5.5t-3 -6.5l-6 -16q-2 -3 -4.5 -8t-4.5 -8q-6 -19 -20 -43l-11 -20v-4q0 -1 -4 -7
q0 -2 -5 -11q0 -3 3 -7t3 -7q1 -2 3.5 -6.5t3.5 -9.5q8 -11 15 -28v-6.5t1 -7.5l7 -10q4 -8 5 -12q20 -38 33 -71q3 -6 4 -7l1 -4q0 -3 1 -4q2 -2 3 -5t2.5 -6.5t2.5 -5.5l12 -27t11 -25z" />
    <glyph glyph-name="Y" unicode="Y" horiz-adv-x="386" 
d="M185 -2q-7 -3 -11 -1q-6 0 -7 5q-1 2 -1 74v3l-1 2q0 1 0.5 2t0.5 2q0 14 -2 42v20q-1 41 1 124v19q0 2 1.5 11t-0.5 11l-2 2q-2 3 -2 5v12q-4 9 -19 40t-21 48q-4 13 -10 23q-8 18 -10 22t-5 12.5t-4 9.5q-4 8 -10 22q-6 12 -24 58q-2 4 -5 12.5t-4 9.5q-6 11 -10 23
l-15 33q-2 4 -8 15t-8 17q-1 2 -4.5 8.5t-3 8l2.5 7.5q9 11 18 -12q26 -49 76 -166q4 -9 25.5 -59.5t33.5 -76.5q1 -2 5 -11q2 -5 5.5 -12t4.5 -10l1 -3q3 -7 4 -7l3 3q2 3 5 6.5t4 4.5l1 4q1 4 2 6t3 4t2 3q6 12 8 17q1 3 4 9t4 9q13 28 16 34q3 4 7 14l1 3l2 2q2 3 5.5 9
t5.5 9q3 5 9.5 18t10.5 20q3 4 7 12l5 10q1 3 5 10.5t6 11.5q10 22 24 46q2 4 8.5 15t8.5 15q4 6 11.5 20.5t12.5 21.5q1 2 2.5 6t2.5 6q5 7 8 8q9 3 13 -8q1 -5 -4 -15q-4 -8 -6 -10q-2 -3 -13 -24q-3 -7 -16 -26.5t-17 -27.5q-8 -18 -11 -24q-5 -11 -13 -23q-6 -9 -30 -57
q-1 -1 -2 -4t-2 -4l-12 -24q-3 -6 -9 -17t-8 -15q-3 -7 -13 -30t-17 -36q-3 -3 -7 -11t-6 -11q-12 -10 -12 -21q-2 -42 -2 -77q0 -42 2 -62q0 -1 -1 -5.5t0 -6.5q1 -12 1 -37.5v-38.5q3 -68 3 -70q0 -15 -4 -17z" />
    <glyph glyph-name="Z" unicode="Z" horiz-adv-x="293" 
d="M281 688q1 -1 -2 -6q0 -5 -1 -7q0 -1 -2 -3.5t-3 -4.5q0 -1 -1.5 -6t-3 -9.5t-2.5 -6.5t-4 -13t-6 -14q0 -1 -2 -4t-3 -6q-7 -24 -16 -40q-2 -3 -4.5 -9.5t-3.5 -9.5q-5 -20 -5 -23t-3.5 -9.5t-4.5 -9.5q0 -2 -2 -6l-3 -6t-1.5 -6t-1.5 -6q-2 -4 -3 -7q-3 -16 -14 -34
q-5 -12 -8 -23q0 -2 -2 -5t-3 -6l-3 -9q0 -3 -1.5 -6t-1.5 -5q0 -6 -7 -18q-2 -3 -3.5 -11t-3.5 -11q-4 -14 -8 -20q0 -1 -3 -11q-1 -2 -2 -6t-2 -6q-2 -4 -3.5 -7.5t-2.5 -8.5t-2 -8l-4 -13q-1 -3 -3.5 -13.5t-4.5 -14.5q-1 -2 -2 -6t-2 -6t-4 -7t-3 -9l-3 -6t-3 -9
q0 -1 -2 -3.5t-2 -4.5q0 -3 -3 -5.5t-3 -4.5q0 -1 -0.5 -3.5t-1.5 -5t-2 -3.5q-2 -2 -2.5 -4.5t-1.5 -3.5q-1 -3 -4 -7t-4 -6q-1 -10 -6 -18q-1 -4 -4.5 -11t-4.5 -11q-1 -5 -1.5 -6.5t-2.5 -9.5q0 -1 -2 -6t-2 -7q-5 -13 -5 -14q-3 -3 -3.5 -7t-1.5 -6q-2 -3 -1.5 -7
t-0.5 -6q-2 -3 -3 -8t-2 -8q81 -4 129 -2q6 1 20.5 1h21.5q3 0 7.5 0.5t6.5 0.5q8 1 28 1h6q13 2 17 -1q12 -12 4 -19q-4 -3 -11.5 -3t-17 0.5t-14.5 0.5q-6 -1 -18 -0.5t-16 0.5q-12 -1 -70 -1h-20h-13q-4 2 -5 1q-56 0 -67 1t-14 11q-1 3 7 22q1 2 2.5 6.5l2.5 7.5l8 20
q1 7 4 17q1 2 3.5 7.5t3.5 8.5q1 6 6 20q1 2 4 7t4 8q0 2 2.5 6.5t3.5 6.5t2 7t2 7q1 3 5 11t5 12q6 10 7 18q20 46 22 51q2 7 8.5 26t9.5 30q1 12 17 54q7 26 12 35q2 8 8 20.5t6 13.5q4 10 10 28.5t8 24.5q1 1 1 4t1 4q2 4 3 7q7 17 8 18q5 13 7 20q2 6 26 70q1 2 11 26
q1 2 3.5 8.5t3.5 10.5q3 3 3 8q9 15 3 16q-10 2 -22 2q-10 0 -12 -1q-76 0 -106 1l-2 -1h-3q-13 0 -20 1q-48 0 -58 1q-13 2 -13 10t29 8h79q63 -2 94 -1q18 0 31 1q13 2 18 -1q10 -4 11 -11z" />
    <glyph glyph-name="bracketleft" unicode="[" horiz-adv-x="206" 
d="M123 -125q-9 1 -31 1q-3 0 -11 -1t-10 0q-10 3 -14 11q-2 4 0 19v25q0 35 1 58v221q1 12 0.5 57.5t-0.5 60.5q0 16 1 25v22v41v10q0 68 1 78v11t1 13v20q0 8 -1.5 30t0.5 29q1 14 1 26.5t-1 32t-1 24.5q0 3 1 10t0 10q0 6 4 10t17 4q4 1 12.5 -0.5t12.5 -1.5
q3 0 18.5 -0.5t23.5 -0.5q4 1 11 0.5t10 -0.5q8 1 11.5 -3.5t3.5 -11.5q0 -3 -2.5 -4.5t-7.5 -1.5t-7 -1t-23 2h-37q-2 -1 -7 0t-8.5 0t-6.5 -5q-3 -5 -3 -25v-15q0 -1 1 -27.5t0 -33.5q-4 -33 0 -126t1 -125q-1 -13 -1 -46.5v-46.5q-2 -98 -2 -210q0 -74 -1 -90
q0 -2 0.5 -5t0.5 -4q0 -6 0.5 -17t0.5 -21q0 -4 8.5 -4.5t25.5 0.5t21 1q3 0 11 0.5t13 0.5t11 -1t8.5 -4.5t1.5 -9.5q-1 -4 -3 -6t-6 -2.5t-7.5 -1t-9.5 0t-8 0.5q-5 0 -12 -1.5t-13 -0.5z" />
    <glyph glyph-name="backslash" unicode="\" horiz-adv-x="310" 
d="M51 721q4 -6 9 -21t8 -21q2 -6 7.5 -20t8.5 -22q3 -9 11 -38t11 -38q2 -6 5.5 -17t5.5 -15q26 -79 27 -87q16 -41 31 -98q14 -50 21 -76q5 -22 10 -38q2 -6 2 -7q1 -2 2 -6.5t2 -6.5q3 -12 8.5 -36t8.5 -34q2 -8 6 -26t7 -27q3 -12 24 -89q2 -3 4 -9.5t3 -9.5
q9 -18 -1 -23q-5 -1 -7 -2t-5 2t-3.5 5t-2.5 6.5t-3 6.5t-3 8t-3 8q-2 8 -11 42.5t-10 39.5q-1 4 -2.5 11t-2.5 11q-11 44 -17 66q-6 28 -11 43q0 4 -2.5 11t-2.5 9q-1 3 -1 8q-2 2 -2 3q-1 2 -2.5 8t-2.5 8q0 1 -1 6.5t-2 8.5q-1 5 -12 46q-18 63 -31 106q-2 2 -2 3
q-1 4 -3 11t-3 11q-2 6 -2 8q-1 0 -3 2v4q-4 14 -14.5 43.5t-14.5 45.5q-1 1 -1 4q-3 12 -14 47t-14 47l-18 45q-1 1 -2 6.5t-3 7.5q0 2 -2.5 6.5t-2 6.5t3.5 5q4 1 14 1z" />
    <glyph glyph-name="bracketright" unicode="]" horiz-adv-x="225" 
d="M29 -91q7 2 33 0.5t31 -1.5h20q4 0 14 2q2 0 6.5 0.5t6.5 1.5q3 28 1 91t-1 90q-1 7 0 22t1 21q0 14 1 21q3 92 2 106v89v62t1 62q0 7 0.5 20.5t0.5 19.5q4 29 -1 93q-5 75 -9 87q-26 4 -81 2q-15 0 -21.5 2t-5.5 6l2 8q2 3 5.5 4t8.5 0.5t7 -0.5q34 3 64 2q3 0 8.5 -1
t8.5 0q2 0 7 1.5t7 0.5t9 -4t9 -5v-24q3 -15 3 -17q0 -13 1 -19v-41q1 -7 1 -115q-1 -47 -1 -183q0 -95 -2 -144q-4 -96 -3 -141q2 -40 2 -54q0 -8 2 -24q0 -31 -1 -45q0 -17 -2 -19q-3 -2 -11 -1.5t-16 -0.5q-2 1 -3 0.5t-3.5 -1t-4.5 -0.5q-18 3 -41 3q-5 0 -14 -1.5
t-16.5 -1.5t-15.5 3q-10 -1 -14 4t-2 11t6 8z" />
    <glyph glyph-name="asciicircum" unicode="^" horiz-adv-x="362" 
d="M337 416q-8 5 -12.5 11.5t-7 16t-5.5 13.5q-35 57 -74 131q-20 35 -24 44q-4 5 -19 32q-3 10 -6 10q-1 0 -2 -1t-3 -4t-2 -4q-1 -2 -2.5 -5.5t-3.5 -4.5q-2 -4 -6.5 -10.5t-6.5 -9.5q-5 -7 -13 -20t-12 -19q-38 -63 -47 -81q-2 -3 -5.5 -9.5t-5.5 -9.5q-2 -2 -4 -6.5
t-4 -6.5q0 -1 -1 -3.5t-2 -3.5l-2 -1q-1 -1 -1 -2.5t-1 -2.5q-1 -2 -4 -5q-2 -6 -3 -8q0 -1 -4.5 -7.5t-6.5 -10.5q-12 -21 -16 -26q0 1 -5 3l-10 4l-4 3q5 10 6 11q6 11 7 13q4 8 7 12q2 3 5 8.5t4 8.5q0 1 6 10t8 14q5 7 13 21.5t12 21.5q2 3 6.5 10t6.5 11l3 6
q4 6 16 26.5t19 31.5l3 6q3 4 11 14q8 14 13 20q3 7 10 17.5t9 14.5q0 1 9 7q16 -2 19 -16q1 -3 11 -24q4 -7 12 -22t13 -22q9 -17 26 -47.5t23 -42.5q8 -16 13 -23q35 -61 46 -79q3 -5 -1.5 -12t-10.5 -3z" />
    <glyph glyph-name="underscore" unicode="_" horiz-adv-x="515" 
d="M177 0q97 0 109 -1q6 0 24.5 1t23.5 -1h44h44q20 1 65 1q19 0 22 -2q0 -4 2 -8q0 -3 2 -7q1 -3 -1 -4q-11 -7 -26 -8t-35.5 1.5t-29.5 2.5q-12 -1 -36 -1q-27 -2 -64 1q-23 1 -77 1q-6 0 -19.5 -0.5t-20.5 -0.5q-1 0 -3 1h-2q-6 0 -20.5 0.5t-20.5 -0.5q-1 -1 -6 -1
q-5 -1 -12.5 0.5t-10.5 1.5q-1 0 -10 -1.5t-13 -1.5q-43 0 -48 -1t-15.5 -0.5t-11.5 0.5q-21 -4 -28 2q-4 12 5 23q9 3 28 3q7 0 32 -1t39 0h70z" />
    <glyph glyph-name="grave" unicode="`" horiz-adv-x="192" 
d="M142 711q-2 -10 -7 -11q-7 -1 -16 11l-4 4l-3 6l-4 4q-4 8 -7 11q-4 4 -10 12q-2 3 -6 7.5t-5 6.5q-7 7 -19 23q-2 2 -3 2q0 3 -1 4l-2.5 2.5t-2.5 3.5t-1 4t1 3.5t2.5 2t2.5 1.5q4 1 7.5 -2.5t6.5 -3.5q8 -10 26.5 -32.5t27.5 -35.5q2 -3 8 -10.5t9 -12.5z" />
    <glyph glyph-name="a" unicode="a" horiz-adv-x="408" 
d="M161 704q9 0 12 -1q2 -2 10 -24q9 -24 10 -30q4 -17 26 -85q1 -4 3 -10t4 -10t6 -16t6 -16q5 -15 10 -25q28 -78 33 -95q2 -5 6 -14.5t5 -13.5q0 -3 1 -4q1 -3 5 -19q2 -8 9 -26.5t9 -28.5q1 -4 3.5 -8t3.5 -7q0 -9 3 -14q6 -24 15 -54q5 -15 5 -20q2 -10 3 -11
q0 -1 1.5 -3.5t2.5 -4.5q0 -1 3 -19q1 -6 5 -14.5t5 -12.5q1 -3 1.5 -11t2.5 -12l2 -4q4 -15 6 -19q0 -1 3 -7q0 -4 2 -8q4 -17 8 -31q2 -4 4 -16q2 -6 2 -7q0 -3 -4 -6q-3 -2 -9 -0.5t-7 4.5q-1 9 -14 51q-8 24 -14 48q-7 21 -21.5 78t-22.5 81q-4 3 -22.5 2t-22.5 -1
q-5 0 -15 2q-8 1 -23 0t-20 -1q-30 -2 -46 -1q-66 2 -80 1q0 -3 -2.5 -11t-3.5 -13l-16 -72q-3 -9 -5.5 -29t-4.5 -29q-16 -87 -19 -100q-1 -1 -2 -6t-3 -6q-8 0 -11 2q-6 4 -4 19l6 24q2 16 7.5 43.5t7.5 40.5q4 22 15 71t14 71q1 7 4 21t4 21q2 7 4 19q3 12 8 31t6 24
q1 4 4 12t3 13q19 72 23 95q-1 3 1.5 8t2.5 6q1 4 3 14l6 27q1 2 1 8q2 8 3 14q2 5 4.5 17.5t3.5 16.5q1 2 9 44q0 4 2.5 11t2.5 11q2 12 7 23l1 1q0 1 1 1h2zM166 663q-2 -7 -5 -22t-5 -23q0 -1 -1 -2l-1 -2v-7q-1 -5 -3 -12t-2 -10v-6t-2 -7q-9 -43 -9 -46q-1 -7 -5.5 -21
t-6.5 -24q-1 -8 -5 -19t-5 -17q-1 -3 -2 -7.5t-1 -6.5q-1 -5 -3 -13q-1 -2 -1 -7q-2 -8 -8 -26q0 -1 -0.5 -3.5t-0.5 -3.5q-6 -20 -12 -43q-5 -23 -10 -54q6 -1 17 -1h17q5 0 11 -0.5t13 -1.5t11 -1q5 0 17.5 -0.5t18.5 -0.5t18 1t18 1q10 0 40.5 -1t39.5 1q-1 3 -2 7.5
t-1 5.5q-1 5 -4.5 13.5t-4.5 11.5q-2 5 -4 13q-3 9 -7.5 24t-7.5 23q-20 55 -33 88q-3 7 -9.5 25t-10.5 28q-1 3 -2.5 9.5t-2.5 9.5q-10 24 -14 36q0 1 -0.5 2.5t-1.5 2.5q-2 6 -6 17t-5 17q-1 5 -3.5 14t-3.5 13q-1 3 -2 8.5t-2 10t-2 8.5q-1 0 -2 3l-1 2v-2q-2 -4 -1 -5z
" />
    <glyph glyph-name="b" unicode="b" horiz-adv-x="440" 
d="M271 366q3 -2 12 -4t12 -4q11 -5 42 -25q20 -11 35 -28q32 -27 44 -86q2 -35 0 -44l-3 -9q-2 -6 -2 -10q-2 -8 -2 -10v-9q-5 -5 -5 -9q-3 -4 -8 -11t-7 -11q-7 -11 -12 -14q-1 -2 -4 -3.5t-4 -2.5q-2 -4 -4 -6q-2 0 -4 -2.5t-3 -2.5q0 -1 -2.5 -2.5t-3.5 -3.5l-14 -14
q-6 -2 -9 -6q-5 -5 -11 -5q-1 -2 -3.5 -3t-3.5 -2q-10 -10 -18 -11q-1 0 -3 -2t-4 -2q-3 -2 -9 -4l-9 -3q-13 -8 -37 -13q-17 -4 -89 -6q-12 -1 -36.5 0t-35.5 1q-2 1 -4.5 3.5t-3.5 2.5q-1 1 -4 3t-3 4q1 34 1 106.5t1 108.5q0 2 0.5 7.5t0.5 8.5v38q0 13 2 45t2 51
q0 3 -0.5 9t-0.5 8q2 28 2 39q0 51 2 78q0 5 1 17.5t1 19.5q0 26 -1 40q-1 21 -1 59q-2 13 -1 18v9q-3 20 1 25q1 2 20 2q9 0 27 1t26 1l3 -1q57 0 62 -1q3 -1 8 -4t7 -4q12 -4 15 -7q9 -4 23.5 -13t18.5 -11q17 -11 35 -32q22 -32 28 -49q3 -12 7 -31q5 -25 0 -72
q-1 -22 -10 -50q-1 -1 -5 -9l-6 -9q-1 -1 -1 -3l-2 -2q-2 -1 -3 -2q0 -1 -3.5 -4.5t-4.5 -6.5q-8 -6 -9 -7q-3 0 -5.5 -1.5t-5 -4.5t-3.5 -4h-6l-3 -3l-4 -2q-3 -1 -3 -4zM128 368q9 3 27.5 3t25.5 1q4 3 29 1.5t33 -1.5q12 4 26 12l1 2h2l1 2h2l1 2q2 2 5 2l1 2
q14 10 16 13l3 3l2 1q18 21 21 60q0 8 2 28q0 12 2 28q-1 15 -7 36q-3 10 -11 30q-3 7 -11 21q-2 3 -9 10q-13 15 -27 23q-2 3 -5 5l-1 1q-1 1 -2 1q-42 24 -63 31q-88 2 -110 -3q3 -150 2 -163q-2 -22 -2.5 -55t-1.5 -48q-1 -26 0 -48h48zM229 355q-27 -1 -35 -1t-35 -3
q-5 -1 -11 -1h-10q-11 0 -30.5 -0.5t-29.5 -1.5q-1 -12 -2 -49.5t-1 -43.5q-1 -13 -1 -36q0 -24 1 -34q-1 -13 -1.5 -38t-0.5 -32q0 -21 1 -24q-2 -2 -0.5 -17t1.5 -19q-2 -30 1 -38q50 -6 127 2q9 0 39 7q4 1 17 5q7 2 15 5l22 11q38 21 59 44q7 7 17 23q13 15 17 24
q14 32 10 68q0 4 -3 22q-6 16 -7 20q-1 3 -3.5 7.5t-3.5 5.5q0 1 -1 3t-1 3q-2 3 -6 8t-5 7q-20 20 -25 24l-5 7q-1 1 -2 1t-2 1t-3 2.5t-4 2.5q-8 5 -12 5q-3 3 -32 19q-6 1 -20 5t-20 5z" />
    <glyph glyph-name="c" unicode="c" horiz-adv-x="427" 
d="M390 624q-6 -1 -9.5 0t-6.5 5t-5 6q-6 4 -16.5 13t-19.5 15t-18 10q-3 1 -10 4.5t-10 4.5q-45 15 -78 5q-10 -3 -40 -25q-13 -12 -19 -18t-15 -20.5t-15 -20.5q0 -4 -5 -14q-5 -12 -6 -13q-5 -11 -4 -14q-1 -2 -8 -9q0 -7 -3 -11q0 -1 -1.5 -5t-2.5 -6t-2 -5t-2 -5
q-6 -20 -8 -30q-1 -2 -2.5 -8t-3.5 -8q0 -12 -2 -15q-1 -2 -6 -31q0 -3 -1.5 -9.5t-1.5 -9.5t-6 -50q0 -6 -0.5 -18.5t0.5 -18.5v-19q-1 -21 11 -93q12 -46 18 -66q1 -4 15 -34q3 -3 7 -11t7 -12q5 -7 14.5 -17.5t12.5 -13.5q7 -7 34 -25q2 -1 7 -4t8 -4q1 -2 3 0q0 -2 1 -3
q1 0 17 -5l2 -2h4q3 -1 10 -1q4 -1 12 -1q8 -2 13 -2q25 1 49 11q29 19 43 31q9 9 11 10l5 5q11 8 12 14q2 1 5.5 5.5t4.5 5.5q3 7 11 2q10 -7 1 -20q-5 -8 -7 -9q0 -2 -3.5 -3.5t-3.5 -3.5q-1 -1 -4 -3.5t-4 -4.5q0 -1 -1.5 -2.5t-3.5 -2.5t-3 -2q-2 -1 -4.5 -4t-4.5 -3
q0 -2 -7 -8q-2 -4 -10.5 -6.5t-9.5 -2.5q-1 -1 -4 -4.5t-5 -5.5q-3 -3 -13 -7q-12 -4 -19 -5q-11 -4 -21 -5q-12 -2 -20 -1q-5 -1 -13.5 0t-9.5 1q-2 0 -6 0.5t-7 1t-5 1.5q-5 3 -14.5 7t-14.5 7q-12 6 -25 17q-2 2 -8 5.5t-8 6.5q-4 1 -8.5 6t-7.5 6q0 2 -2 3t-2 2
q-2 2 -4 4.5t-4.5 5.5t-3.5 5q-26 29 -48 99q-10 36 -11 48q-1 3 -1.5 8t-0.5 7q1 3 0 5q-2 4 -2 8q-1 3 -2 8t-1 8q-2 17 -2 51v41t2.5 21t2.5 22q3 47 20 97q2 13 14 46q2 5 5 13t5 13q1 2 3.5 8t3.5 8q1 3 3.5 9t3.5 8q3 8 7 12q7 11 9 14l3 6q3 3 3 5q1 1 2 3t2 3.5
t2 2.5t4.5 6t6.5 8q18 24 38 33q17 12 23 13q61 12 116 -15q3 -2 10 -4.5t11 -5.5q5 -3 13 -9q2 -4 12 -9q18 -11 26 -25v-7q-1 -2 -3 -5z" />
    <glyph glyph-name="d" unicode="d" horiz-adv-x="373" 
d="M68 331v27q-1 31 1 90q0 4 -1 13t-1 14q1 20 0.5 58.5t-0.5 57.5q0 3 -0.5 10t-0.5 10l3 63q0 3 -1 9.5t-0.5 11t2.5 7.5q7 10 34 -1q14 -3 29 -10q6 -3 19 -10t19 -10q8 -4 11 -7q2 -2 23 -15q6 -4 8 -6q2 -1 4.5 -3t3.5 -3q17 -15 20 -18l11 -11q3 -6 5 -8q1 -2 2.5 -4
t2.5 -4q2 -3 5 -9l3 -3q1 -1 1 -2q1 -2 1 -3q6 -9 7 -11q7 -11 17 -35q11 -27 19 -61q6 -33 9 -69q0 -8 2 -24t2 -24q2 -44 -9 -101q-4 -21 -14 -42q-9 -23 -17 -37q-2 -3 -13.5 -22t-18.5 -28q-6 -8 -11 -12q-17 -23 -37 -38q0 -1 -1 -1h-2l-1 -2l-3 -3l-1 -1h-2l-1 -2
q-1 -2 -5 -4t-6 -4q-7 -6 -21 -16q-17 -14 -33 -23q-1 0 -4.5 -2.5t-6.5 -3.5q-20 -14 -22 -15q-19 -6 -27 3q-6 10 -4 39q1 38 1 121q0 13 -1.5 89.5t0.5 84.5zM89 332q0 -30 2 -50q0 -1 -1 -3q-1 -1 0 -2q0 -8 0.5 -22.5t0.5 -21.5v-52q0 -18 -0.5 -55t-0.5 -57
q0 -50 1 -54q6 1 16 8q3 3 11 6t11 6q0 2 3 3t3 2l15 9q40 31 52 41q6 7 21 22q0 1 0.5 2.5t1.5 2.5q0 1 1 1l2 1q0 1 1 2t1 2l6 6q0 1 1 2t1 2q1 1 2.5 3.5t2.5 3.5q2 2 4.5 5.5t4.5 5.5l9 15l2 4l3 3q11 21 18 38q1 2 3 6.5t3.5 8t2.5 6.5q1 2 1 5.5t1 5.5q17 71 7 150
q0 4 -1.5 22.5t-3.5 27.5q-1 5 -2.5 15t-2.5 15q-1 4 -8 28q-4 12 -11 26q-4 11 -11 23q-2 5 -7.5 13t-6.5 10q-2 4 -7 11.5t-7 11.5q-12 19 -54 46q-1 1 -5 3.5t-6 4.5q-6 4 -7 5q-8 4 -24 11.5t-23 11.5l-21 6q-3 -2 -3 -3q1 -17 -1 -44v-3v-3v-56v-56q-2 -20 -1.5 -94
t0.5 -93z" />
    <glyph glyph-name="e" unicode="e" horiz-adv-x="382" 
d="M337 682q-4 -5 -16 -4q-19 0 -29 1q-4 0 -13 1.5t-13 1.5q-5 0 -15 -0.5t-16 -0.5h-20h-21q-10 0 -46 2.5t-42 -1.5q-2 0 -9 1t-9 -1v-45q0 -11 -1 -55t0 -52q1 -20 1 -47q0 -115 1 -152q7 -1 65 -1h4q8 2 17 0q5 0 16.5 -0.5t17.5 -0.5q7 0 20 0.5t20 0.5h28q16 0 25 -1
q7 -1 11.5 -4t3.5 -8q0 -5 -12 -11q-2 0 -20 3q-4 -1 -13 -0.5t-13 0.5q-2 0 -6.5 -0.5t-6.5 -0.5h-35h-8.5h-8.5q-7 1 -46 1q-1 0 -3.5 -0.5t-4.5 -0.5q-1 0 -3 0.5t-3 0.5h-13q-2 0 -17 0.5t-16 -2.5q-2 -3 -2 -18q-3 -55 -3 -96q0 -2 -0.5 -7t-1.5 -7q0 -1 1 -3l1 -1
q-5 -78 0 -152q15 -5 48 -5q10 0 43.5 1t53.5 0h27h24q23 2 29 1q20 3 20 -11q0 -7 -7 -9.5t-15 -0.5q-21 0 -65 2q-2 0 -6 -0.5t-6 -0.5h-35q-2 0 -6 -0.5t-5 -0.5q-31 0 -47 1q-16 0 -24 1q-4 0 -12 0.5t-11 0.5t-8 -1t-7 -1q-6 0 -13 3q-6 7 -4 26q0 21 1 31q3 86 3 182
q0 42 1 63q0 38 1 58v32v14q1 15 1 46v30q0 5 1 14t0 16v48q0 3 -0.5 8.5t-0.5 8.5q0 5 1 15.5t1 16.5q0 5 -0.5 13.5t-0.5 14.5q0 33 -2 47v11q3 3 6.5 3.5t10 -0.5t9.5 -1q4 0 26 2q4 0 12 -1.5t12 -0.5q40 4 68 1q5 -1 17.5 -1h19.5q3 0 9 -0.5t8 -0.5q12 2 18 2
q2 0 7 -0.5t8 -0.5q31 2 42 -7q1 -1 1.5 -5t-0.5 -6z" />
    <glyph glyph-name="f" unicode="f" horiz-adv-x="359" 
d="M326 686q-3 -12 -19 -12q-1 0 -32 3q-3 0 -13 0.5t-17 1.5q-7 -1 -49 -1q-36 0 -43 1q-2 1 -12 1t-14 2q-9 -2 -23 -1t-23 0q-1 -2 -1 -14q-2 -25 -1 -38q0 -2 -0.5 -4t-0.5 -3q0 -9 0.5 -28t0.5 -29q0 -2 -1 -14.5t0 -17.5q0 -21 1.5 -96.5t2.5 -106.5q6 -4 27 -4
q6 2 12 0q7 0 21 1.5t21 1.5q8 0 22.5 -1.5t21.5 -1.5q4 0 14 1.5t15 1.5q4 0 12 -0.5t12 -1.5q5 0 14 -1.5t13 -1.5q18 0 20 -7q0 -13 -16 -13q-1 0 -5.5 1t-6.5 1q-1 0 -3 -0.5t-3 -0.5t-3 1h-3q-35 3 -104 3q-9 0 -27 -0.5t-26 -0.5h-27q-1 -27 -1.5 -50.5t0 -40.5
t-0.5 -49v-22v-78q0 -8 2 -22.5t2 -19.5q1 -1 1.5 -4.5t0.5 -4.5t1.5 -7t-0.5 -8q0 -1 -2 -2.5t-2 -2.5q-13 -4 -23 6q-5 14 -1 30q0 6 -1 39t0 40v39q0 3 1 15.5t0 20.5v3q-1 29 0 62.5t1 55.5q0 8 -0.5 23t-0.5 23v54q0 4 -1 28t-1 29q-2 47 -2 152q0 7 1 27.5t0 31.5
q0 2 -1.5 11t0.5 11q4 4 28 2q12 -1 42 0t40 -1q12 -4 49 -1.5t45 2.5t18.5 0.5t18.5 0t18 -4.5q6 -2 9 -7q2 -2 2 -3z" />
    <glyph glyph-name="g" unicode="g" horiz-adv-x="421" 
d="M337 614q-2 -1 -5 3.5t-5 4.5t-2.5 1.5t-1 4t-1.5 4.5q-4 5 -7 9.5l-5 7.5q-27 37 -71 31q-19 -2 -55 -20q-23 -13 -39 -29q-21 -21 -30 -39q-3 -6 -18 -49q-3 -7 -7 -21t-6 -20q-7 -21 -7 -33q0 -3 -1.5 -9.5t-1.5 -9.5v-40q-1 -13 -2.5 -39.5t-2.5 -39.5q0 -7 0.5 -20
t0.5 -19q0 -16 -2 -40q0 -6 1 -19t2 -19q4 -48 9 -69q6 -20 19 -48q2 -6 4 -10l9 -15q33 -37 60 -48q36 -15 54 -9q2 0 5.5 1.5t6.5 2.5q12 6 17 9q2 0 4.5 3t5.5 3q5 5 15 15.5t16 16.5q6 8 23 41q11 23 19 52q4 11 6 21q0 4 1 8t2 9q0 3 1.5 10.5t1.5 10.5q0 1 -0.5 2.5
t-0.5 3.5l1 2v3q1 2 0 5.5t-1 4.5q-1 5 0 14.5t1 11.5q0 3 -1 7.5t-1 6.5v2l1 1v12q0 6 -0.5 16t-1.5 15q-1 2 -0.5 7.5t-1.5 8.5q-29 3 -57 0q-3 0 -7.5 -0.5t-6.5 -0.5t-7.5 1t-8.5 1q-4 1 -20 1q-3 0 -14.5 2t-19.5 2q-1 0 -14 -1.5t-16 0.5q-1 1 -3.5 4t-4 5.5t-0.5 6.5
q2 5 12 5h44q14 -3 28 -3q25 -2 73 -2q16 0 25 2q1 0 2 1l2 1h2l2 -1q14 -4 16 -8q3 -2 2 -10.5t-1 -10.5q-1 -7 0 -15l1 -1v-2q-1 -7 -1 -12.5t1 -15t1 -14.5q0 -4 1 -17.5t0 -20.5q-2 -18 -2 -30q-2 -8 -2 -15q-1 -6 -2.5 -12.5t-1.5 -11.5q0 -1 -1 -4t-1 -5
q-1 -5 -4 -13.5t-3 -9.5q-1 -3 -2 -8t-2 -7q0 -1 -2 -3v-4q-1 -2 -3 -5t-4 -7q-8 -22 -15 -29q-4 -4 -9 -11.5t-8 -10.5q-1 -2 -5.5 -5.5t-5.5 -4.5q-1 0 -1 -2v-2l-2 -2q-2 -5 -3 -5q-2 -1 -5.5 -4.5t-6.5 -4.5q-2 -1 -3.5 -3l-3 -4t-3.5 -4q-17 -11 -24 -13
q-30 -11 -65 -1q-14 4 -30 10q-1 0 -2 1q-2 2 -3 2q-3 2 -13.5 8t-15.5 11q-2 2 -8 8.5t-9 9.5q-14 14 -17 19q-6 10 -10 18q-3 7 -9.5 19.5t-10.5 23t-5 19.5q-1 3 -1 9t-1 9v6q-3 6 -3 11q-1 3 -1 10q-1 5 -1 15v15q-3 33 -1 78q0 11 5 118q0 7 2 19q0 2 -1 9.5t0 10.5
t2 9t2 9q1 4 3 22q0 4 6 20q2 14 4 18q6 12 7 17q4 12 6 16q6 12 8 18q4 12 6 17q1 5 8 12l9 12q3 3 5 9q19 16 20 17l3 3l1 2q1 1 3 2l2 1q3 2 5 6q3 0 4 1t1 2q5 1 11 7q4 2 16 7.5t18 7.5q3 2 9.5 3.5t7.5 2.5q18 5 20 5q24 0 32 -3q1 0 10.5 -4.5t10.5 -4.5q2 -1 5 -4
q2 -2 4 -3q7 -2 8 -4q2 0 4 -3.5t3 -3.5q4 -2 7 -5.5t6 -8.5t5 -7q8 -8 12 -17q2 -5 3 -8.5t0 -5.5t-2 -2.5t-4 -1.5t-5 -2z" />
    <glyph glyph-name="h" unicode="h" horiz-adv-x="395" 
d="M312 1q-3 6 -3 20q0 21 2 61v41q0 8 1.5 21.5t0.5 25.5q0 34 -1 52v1l1 1q-1 10 -1 32t-1 34q-15 4 -41 4h-45q-5 0 -14 1t-13 1q-18 0 -27 1q-58 4 -82 -1q-4 -55 -7 -133q-1 -23 -1 -55q-1 -7 0 -19.5t1 -16.5q0 -1 -0.5 -2t-0.5 -2t0.5 -5t0.5 -6v-30q0 -2 2 -8
t1.5 -10.5t-3.5 -8.5q-5 -3 -13.5 -2t-11.5 5q-3 2 -1 10t1 12q-3 56 1 166v79l3 84q0 13 -1 40t-1 41v90v41v42q0 6 -1 19t-1 20q0 6 0.5 18t0.5 17q0 2 -1 6t-1 7t2 5q8 5 16 1q3 -1 4.5 -4t1.5 -8v-6v-32t1 -35q0 -3 3 -90q2 -34 2 -111v-91q6 -3 30 -1.5t30 1.5
q5 -1 14 -1q10 -2 14 -2q4 -1 13 -1t14 -1q18 0 28 -1q29 0 42 -1q27 0 40 1q0 28 2.5 97t2.5 98q0 25 -1 81.5t0 86.5q-3 16 1 18q1 2 5.5 2.5t7.5 -1.5q6 1 10 -4q-1 -1 0 -2l1 -2q0 -2 -1 -5t-1 -4q-1 -6 -1 -17l1 -4q0 -61 1 -88q0 -5 0.5 -15t0.5 -14v-1q-1 -2 -1 -3
q2 -27 -1 -110q-2 -36 -2 -61q0 -1 0.5 -4.5t0.5 -5.5q0 -4 -0.5 -15t-0.5 -17q0 -14 0.5 -43.5t0.5 -44.5q0 -4 0.5 -11t0.5 -11t-0.5 -10t-0.5 -10q1 -32 -0.5 -90t-1.5 -76q3 -12 2 -16q3 -12 -2 -13q-2 0 -2.5 -2t-1.5 -2q-5 -3 -19 2z" />
    <glyph glyph-name="i" unicode="i" horiz-adv-x="148" 
d="M86 0q-8 -10 -25 -3q-2 7 1 33q1 22 1 65v126v24q0 1 -1 3v32v26v40v40q0 2 -0.5 6t-0.5 5q0 5 0.5 18.5t0.5 20.5q0 8 -0.5 28t-0.5 28v37v39q0 12 -0.5 39.5t0.5 41.5t-1 39q0 10 1 11q18 5 23 -11q1 -3 1 -35q-1 -13 0 -39.5t1 -31.5q-2 -34 0 -69q0 -11 -0.5 -40
t0.5 -37q3 -28 1 -82q0 -13 1 -40t0 -41v-54v-106q-1 -15 -1 -88q0 -3 1 -13.5t-2 -11.5z" />
    <glyph glyph-name="j" unicode="j" horiz-adv-x="489" 
d="M2 229l3.5 3.5t4.5 3.5q9 2 11 0q5 -1 5 -15q1 -5 2 -15t2 -15q1 -7 3 -28.5t6 -33.5q2 -10 12 -23q7 -9 21 -25q4 -5 9.5 -9t13 -9t11.5 -8q5 -2 21 -10t25 -12q14 -6 16 -6q19 -8 39 -11q29 -6 57 -3q4 0 10.5 2t9.5 2t11 0.5t11 1.5q5 1 15 5q2 1 7 2.5t7 2.5
q13 7 26 17q5 4 12.5 13.5t9.5 12.5q10 19 18 46q4 23 5 32q1 8 1 51q1 5 1 17q1 2 0 5l-1 3q0 2 0.5 5t0.5 4q1 1 0 4t-1 4t0.5 3.5t0.5 3.5q1 47 1 149v141q0 17 1 48t1 54.5t-3 45.5q-3 5 2 13q6 5 16 0q2 0 3 -1.5t1 -4t1 -3.5q2 -4 2.5 -10t-0.5 -13.5t-1 -10.5
q0 -6 1 -17t1 -16q0 -8 -2 -46v-6q-1 -17 -1 -109q0 -36 1 -54v-85v-86q0 -4 -0.5 -13.5t-0.5 -12.5l1 -2v-27q0 -3 -1 -9t-1 -9v-21q0 -2 -6 -34q-5 -18 -13 -33q-7 -14 -18 -27q-11 -15 -23 -23q-20 -14 -31 -19q-1 1 -2 0l-1 -1q-4 -1 -11 -1q-1 -1 -4 -2t-5 -2
q-5 -2 -19 -4h-6q-1 0 -3 -1l-1 -1q-7 0 -11 -1q-40 -4 -65 -1q-7 1 -21 3.5t-21 3.5q-9 1 -27 10q-3 2 -12.5 7t-16.5 7q-18 6 -34 19q-2 1 -5.5 4t-5.5 5l-6 3t-6 4q-7 6 -12 14q-3 5 -13 18t-13 22q-2 6 -7 36q-1 5 -3 17.5t-4 18.5v16q0 3 -1.5 12t-0.5 14z" />
    <glyph glyph-name="k" unicode="k" horiz-adv-x="526" 
d="M493 4l-1 -1v-1q-5 -7 -23 -2q-1 -1 -3 2q-1 2 -2 3q-1 -1 -2 0t-2.5 3t-2.5 3q-3 0 -5 2t-4 4.5t-3 3.5q-19 22 -30 32q-16 19 -18 21q-7 5 -19 20l-5 5l-5 5l-5 5t-4 5l-2 3q-1 1 -4 1q-10 14 -18 21l-39 39q-24 22 -37 32q-6 6 -19.5 16t-18.5 14q-3 3 -10 10.5
t-12 11.5q-14 10 -46 44q-21 21 -37 30q-2 1 -4.5 3t-5.5 3t-7 1q-5 -3 -5 -22q0 -4 -1 -12t-1 -11q0 -77 -2 -177q0 -1 -0.5 -3t-0.5 -3q0 -12 0.5 -39.5t1.5 -38.5q1 -3 1 -10t1 -10q2 -13 0 -17q-14 -10 -26 2q-1 3 0 10.5t1 8.5v22q0 44 -1 65q-2 90 1 156v30t1 31
q1 10 1 30.5v31.5q1 17 0 49.5t-1 41.5q0 4 0.5 14t0.5 15q1 11 0 24.5t-1 20.5v60v79q-5 8 3 11q8 1 12.5 -4t5 -9.5l1.5 -13.5q0 -7 0.5 -22t1.5 -21q2 -24 0 -49q0 -12 0.5 -28.5t0.5 -27.5q2 -73 0 -150q9 -4 17 6q2 3 6.5 7.5t6.5 7.5q5 5 18 15t19 16q1 1 3.5 1.5
t3.5 1.5q3 2 6 5q5 4 17 14l6 3q10 10 16 14q5 4 14 12t16.5 14.5t12.5 13.5q1 1 16 17t22 24q41 43 85 79q6 9 20 22t19 18q3 3 32 27q6 8 12 4q10 -2 12 -8q0 -4 -2.5 -8t-8 -7.5t-7.5 -5.5q-4 -3 -12 -11q0 -1 -2 -2l-2 -1v-3l-1 -2q-1 0 -3 -0.5l-2 -0.5q-2 -4 -11 -8
q-1 -2 -5 -5.5t-5 -5.5q-5 -7 -12 -12q-4 -5 -13 -11.5t-12 -8.5q-18 -20 -24 -25q-7 -7 -16 -13q0 -2 -1 -2q-1 -1 -3.5 -2.5t-3.5 -3.5q-2 0 -5 -5q-2 -2 -7.5 -8t-8.5 -9q-7 -9 -20.5 -21t-19.5 -19q-4 -5 -57 -52q-2 -1 -12 -9h-2q-2 0 -2 -1q-6 -6 -10 -9l-2 -1l-2 -1
q-2 -2 -7 -6.5t-7 -6.5q-1 -1 -14 -11q-2 -2 -8.5 -8t-9.5 -9q-9 -9 -14 -18q4 -5 13 -11.5t12 -8.5q11 -8 23 -22q2 -3 7 -6t6 -5q2 -2 6 -5t6 -5q5 -3 12.5 -11t11.5 -11q6 -6 20 -16q8 -8 12 -13l2 -2q2 0 3 -1l7 -7q2 0 2 -2q18 -14 27 -24q1 -1 13 -10q4 -4 12 -10
q5 -4 12 -12.5t11 -11.5l23 -23q5 -6 34 -35q3 -3 8 -9t8 -9l17 -17q2 -2 5.5 -6t5.5 -6q2 -1 5.5 -5t6.5 -6q8 -5 19 -18q2 -2 10.5 -9.5t11.5 -13.5v-2z" />
    <glyph glyph-name="l" unicode="l" horiz-adv-x="419" 
d="M404 1q-11 -3 -18 -2q-4 1 -13 1h-13q-1 0 -3 -0.5t-3 -0.5q-4 0 -26.5 1.5t-27.5 -0.5q-6 1 -16 1.5t-16 1.5h-2q-3 0 -12.5 -2t-13.5 -2h-58l-18 3q-22 0 -32 1h-31q-13 0 -19 -2q-17 0 -24 6q-2 4 -2 10t1 13.5t1 11.5q1 24 1 79.5t2 85.5q1 15 0.5 43t-0.5 42
q2 41 0 78v5v83.5t1 84.5q0 17 -1 56.5t0 63.5q0 3 0.5 10t0.5 11q0 14 3 16q9 3 16 -6q5 -8 3 -38v-24q0 -6 -1 -18t-1 -19q0 -4 2 -32q1 -14 0 -39t-1 -33q0 -21 0.5 -74t-0.5 -75q-1 -14 -1 -37.5v-38.5q0 -9 1 -27t1 -26q0 -3 -1 -9t-1 -9v-8q-1 -8 -0.5 -31t0.5 -32
v-36v-20q0 -26 7 -38q5 -6 21 -4q13 0 36.5 -1.5t35.5 -1.5q25 -1 75 1q4 0 11.5 1t11.5 1q5 0 16.5 -1t17.5 -1q6 -1 16.5 0.5t14.5 1.5q3 0 13 -1t16 0q22 6 32 -9q2 -3 2 -4.5t-2 -5.5t-2 -5z" />
    <glyph glyph-name="m" unicode="m" horiz-adv-x="522" 
d="M465 3q-9 -6 -21 -2q-4 4 -4 18q0 3 0.5 10t0.5 11q0 28 -1 42q-3 41 -1 67v23q-1 6 -1 18v17q-1 3 0.5 8t1.5 7v2q-1 2 -1 3t0.5 6t0.5 8q0 10 -1 40t0 47q0 14 2 40q-2 2 -2 3q1 5 1.5 18.5t0.5 19.5q2 27 2 83q3 56 -1 173q-2 -2 -7 -19q-1 -2 -2 -5t-2 -4
q-2 -3 -4 -9q-1 -4 -3 -10t-3 -10q-1 -2 -1 -5.5t-1 -5.5q-1 -5 -4.5 -16t-4.5 -13q-4 -9 -9.5 -29.5t-8.5 -29.5l-5.5 -22t-4.5 -19t-3.5 -19.5t-4.5 -22.5q-1 -4 -5.5 -17t-6.5 -21q0 -3 -2 -7q0 -1 -1 -7t-2 -9t-3 -7t-2 -7v-4t-1 -4q0 -1 -1.5 -3t-1.5 -4
q-2 -5 -4.5 -15.5t-3.5 -14.5q-8 -28 -12 -44q0 -3 -1 -4q-2 -6 -7 -26l-2 -3v-4q0 -1 -2 -6.5t-3 -8.5q-5 -16 -8 -20q-3 -8 -6 -26t-5 -26q-2 -5 -8 -22t-8 -26q-1 -5 -4.5 -15.5l-4.5 -13.5t-2 -8.5t-1 -8.5q-1 -3 -2.5 -8t-1.5 -6t-1 -10.5t-3 -13.5t-7 -6h-9q-4 0 -7 2
t-4.5 6t-2 6.5t-1.5 9.5t-1 9q-1 5 -6.5 25t-8.5 31q-21 80 -22 86q0 2 -1 5t-1.5 5.5t-0.5 4.5q-1 3 -2.5 10.5t-2.5 10.5l-3 15q-1 3 -2 10t-2.5 13.5t-2.5 11.5t-3.5 15t-3.5 15q-11 57 -13 66l-3 6q0 11 -1 16l-2 3q0 4 -2 10q-3 19 -14.5 56.5t-13.5 45.5q-1 1 -18 86
q-1 4 -1.5 13.5t-2.5 14.5t-4 18t-5 19q-1 0 -1.5 -2t0 -4t-0.5 -4q1 -17 1.5 -48t0.5 -41q2 -33 1 -92t0 -91v-45v-22q-1 -18 0 -37l-1 -1v-38q-1 -36 -1 -118v-59q0 -1 2.5 -16t1.5 -23q-8 -10 -25 -6q-5 6 -5 30l-1 2q0 3 1 4v8q-1 1 0 2v14q1 12 1.5 36.5t0.5 36.5
q1 11 0 36t0 37v37q0 3 0.5 9t0.5 9q-2 157 -1 205q2 92 0 110v25q-4 28 -4 43q1 12 1 32q-1 3 0.5 8.5t1.5 6.5q-3 8 -1 11q3 7 10 7q16 0 18 -4l3 -5q3 -6 3 -9l6 -15q1 -2 2 -3.5t2 -3.5q3 -5 7 -27q0 -3 2 -9.5t2 -9.5t1 -9t1 -9q2 -9 5.5 -32t6.5 -35q5 -19 18 -62
t18 -64q11 -49 15 -75q1 -5 3 -17t4 -17q1 -6 4.5 -20l5.5 -22q3 -17 8 -42q2 -6 2 -9q1 -2 1 -8q0 -1 1.5 -3.5t1.5 -3.5q1 -3 1 -10q13 -47 14 -51q1 -3 2 -10t2 -10q3 -7 8 -26t9 -27q2 -1 2 4q2 3 3 12q1 6 5 18q2 6 8 29t10 36l1 4q1 3 2 5q2 7 6.5 19.5t5.5 15.5
q3 9 10 37q4 11 9.5 36.5t10.5 38.5q6 18 11 36q8 24 10 37t9 38t10 38q2 8 6.5 23.5t8 28t6.5 23.5q2 8 6.5 27t8.5 30q5 13 6 18q4 14 23 65q1 4 1.5 10t2.5 9q6 6 10 6q18 0 21 -8q7 -17 7 -69q0 -14 0.5 -40t0.5 -40q0 -3 -3 -159v-40v-96q0 -3 -0.5 -8.5t-0.5 -8.5v-83
q1 -14 0 -39.5t-1 -33.5q3 -9 3 -22q0 -1 -1 -3.5t0 -3.5q0 -9 4 -29q-1 -1 0 -2l1 -1q0 -11 -2 -14z" />
    <glyph glyph-name="n" unicode="n" horiz-adv-x="481" 
d="M412 1q-9 -5 -17 -1q-4 2 -6.5 6t-4.5 10t-3 8l-15 30q-7 12 -8 14q-2 2 -3.5 7.5t-2.5 6.5q-2 2 -5 7t-4 7q-2 4 -6 14l-3 3q-1 2 -1 4l-5.5 11t-5.5 10q-9 20 -16 39q-6 15 -18 41.5t-16 37.5q-2 4 -8 17.5t-9 21.5q-1 3 -3.5 10t-4.5 10q-5 11 -14 32t-14 32
q0 1 -1.5 3t-2.5 4q-1 1 -4.5 10t-5.5 14q-3 2 -4 7q-3 5 -8 15.5t-7 15.5l-1 2l-1 2q-2 7 -5 11q-2 4 -2 5q0 2 -1 4l-3 3q-2 3 -5 10t-4 9q0 2 -2 4t-2 4q-4 10 -7 15q-4 6 -7 16q-2 3 -4 9t-4 8q0 4 -1 5l-1 1v2q-1 1 -3 1q0 5 -2 7q-2 6 -8 18.5t-9 19.5q-3 2 -5 9
q-1 1 -3 4t-3 4q-7 17 -9 19q-1 -24 1.5 -70t2.5 -65q0 -1 -3 -58q0 -20 0.5 -60.5t-0.5 -61.5q0 -5 -0.5 -14t-0.5 -14t0.5 -13t0.5 -13t-1 -24t0 -30q0 -1 0.5 -2t0.5 -2q-1 -10 2 -58q1 -10 0 -30t-1 -29v-30.5t1 -30.5q0 -4 2 -11.5t2 -10t-3 -10.5q-8 -5 -12 -5
q-9 2 -12 5q-2 3 -2 24q1 16 0 46.5t-1 39.5q0 73 -1 109q0 177 3 220q-1 10 1 32q1 17 -2 53q-1 3 -0.5 25t0.5 24v7v27.5t-1 27.5q0 21 -3 48v12q3 2 19 2q1 -2 3 -3t3 -3t2.5 -6.5t2.5 -6.5l6 -9t5 -9q4 -7 11 -21.5t8 -17.5q4 -7 15.5 -35.5t21.5 -42.5q3 -4 11 -22
q1 -2 3.5 -9t4.5 -11q7 -14 10 -19q7 -12 9 -21q16 -31 37 -78l3.5 -7t3.5 -8q3 -5 7 -15t7 -16q2 -5 8.5 -20.5t10.5 -24.5q1 -4 6 -14.5t7 -16.5q9 -19 17 -40q2 -4 8 -18q1 -1 1.5 -4t0.5 -4l3.5 -7t4.5 -8q11 -29 17 -40q1 -3 4 -9.5t5 -9.5q1 -2 5 -9t6 -10
q7 -11 9 -20q1 -2 4.5 -8.5t6.5 -8.5q10 119 1 306q0 12 1 42.5t0 43.5q0 8 1 41.5t0 49.5q0 27 -1 40q-1 16 -0.5 46t-0.5 47q0 2 -0.5 5t-0.5 5q0 6 1 7q13 5 17 -2q2 -2 5 -19q1 -9 0 -28t0 -30q2 -12 1.5 -67t-0.5 -70q0 -7 1 -21t1 -21q0 -1 -1 -3v-2q0 -1 0.5 -7
t0.5 -9q0 -10 -1 -31t0 -32q2 -31 1.5 -83t0.5 -82q1 -8 0 -22.5t-1 -19.5v-9v-33q0 -57 1 -71q3 -3 3 -27q0 -8 -3 -11z" />
    <glyph glyph-name="o" unicode="o" horiz-adv-x="619" 
d="M561 525l7 -29q1 -9 2 -27t2 -27q1 -17 1 -52q0 -4 0.5 -12.5t0.5 -12.5q1 -20 0 -39q1 -6 -0.5 -18t-1.5 -16q0 -2 0.5 -7t0.5 -8q-1 -5 -1 -15q0 -4 -0.5 -13.5t-1.5 -13.5q-2 -6 -2 -7v-7q0 -3 -2 -18.5t-2 -23.5q0 -3 -3 -9.5t-3 -9.5v-5.5t-1 -5.5l-3 -9l-6 -24
q-2 -7 -5 -11q1 -3 -1 -5q-4 -4 -6 -8q-2 -2 -3 -4q-3 -6 -14 -18q-3 -3 -12.5 -12t-14.5 -15q-5 -8 -14 -14q-4 -2 -9.5 -6.5t-7.5 -6.5q-6 -4 -19.5 -10.5t-17.5 -8.5q-37 -6 -41 -6h-20q-4 0 -10.5 -0.5t-9.5 -0.5q-1 0 -9 -2t-12 -2q-46 3 -51 4q-44 13 -58 20
q-51 24 -94 74q-45 57 -63 134q-2 7 -8 75q-4 29 -4 61q0 12 5 54q2 16 4 26q11 47 18 70q1 2 23 58q10 23 32 50q46 54 96 75q34 14 71 18q54 5 62 5h9l3 -2q3 2 5 1q9 -1 23 -5q1 0 3 -1t3 -1q19 -4 32 -11q2 0 3 -1q1 0 3 -2t3 -2q19 -8 21 -9q18 -13 22 -19
q3 -4 10.5 -10t10.5 -10q2 -2 4 -6t3 -5q3 -9 7 -11q5 -5 20 -34l3 -1v-3q6 -13 10 -30q1 -2 3.5 -10t4.5 -13zM545 478q-1 3 -2.5 9t-2.5 9q-1 4 -2 15.5t-3 16.5q-1 3 -3.5 13.5t-4.5 14.5q-3 7 -11 21q-2 3 -5.5 11t-5.5 11q-14 24 -27 40q-2 3 -8 7t-9 7q-2 2 -8.5 6.5
t-8.5 7.5q-3 1 -8.5 3.5t-7.5 3.5q-34 14 -67 18q-27 0 -42 -2q-5 -1 -21 -2t-24 -3q-2 0 -13.5 -4t-17.5 -4q-35 -18 -43 -23q-19 -12 -35 -29q-1 -3 -5.5 -7t-5.5 -6l-13 -13q-7 -7 -13 -17t-10 -17t-9.5 -20t-7.5 -19t-8 -22t-7 -20q-2 -6 -3.5 -12.5t-3 -14.5t-2.5 -12
q-6 -28 -8 -39q-3 -21 -3 -43q-1 -33 7 -97q4 -42 5 -49l3 -12q2 -8 7 -22.5t6 -17.5q2 -3 5 -9.5t4 -9.5l9 -18q9 -18 28 -39q40 -44 82 -64q2 -1 5.5 -2t5.5 -2l1 -2q2 -1 6.5 -2t6.5 -2q2 -5 35.5 -4.5t38.5 0.5q41 -3 88 5q27 9 43 23q3 2 12 10t15 12l11.5 11.5
t11.5 14.5q1 3 5 6t5 5q8 12 9 16q11 31 13 37q5 22 8 41q0 6 2 16t2 16q5 88 5 103q2 87 -4 148q-2 2 -2 3z" />
    <glyph glyph-name="p" unicode="p" horiz-adv-x="387" 
d="M95 295q-5 -45 -3 -119q0 -6 -0.5 -18t-0.5 -18q0 -9 2 -35q0 -5 -0.5 -17.5t0.5 -18.5v-37q0 -26 -5 -33q-11 -3 -20 2q-3 3 -1.5 18t1.5 20v20q-1 11 -1 30v31v41v38q0 1 -0.5 2.5t-0.5 3.5q1 8 1 36q1 20 1.5 61t0.5 62q0 11 -0.5 38.5t0.5 38.5q0 2 -1 9.5t0 11.5
q0 7 2 19q0 1 -1 2.5t0 3.5q0 3 -0.5 16t-0.5 19q-1 27 -1 75v79q1 5 0.5 11t-0.5 10q1 1 7 3q9 1 37 0t40 0h13q3 0 7 1t6 1q4 0 13 -1t14 -1q37 -5 46 -8q4 -1 10 -3.5t9 -3.5q34 -25 44 -37q2 -3 6 -8.5t6 -8.5q8 -12 12 -17q20 -38 24 -62q5 -25 0 -66q-2 -14 -4 -20
q0 -2 -2 -4v-5l-3 -9q-14 -46 -28 -63l-6 -9t-5 -8q-2 -3 -8 -9t-7 -8q-3 -4 -10.5 -8t-9.5 -6q-3 -1 -10 -7t-11 -6q-3 0 -16 -5q-20 -9 -32 -11q-54 -11 -84 -13h-15h-15zM126 321q18 0 21 1h8t8 1q5 1 12.5 0t10.5 0q2 1 5.5 2t6.5 2t6 3t28 7q12 7 14 8q1 1 3 1t3 1
q3 1 6 4q2 1 6.5 4t6.5 4l8 8l8 8q1 1 7 8t9 11q16 22 29 64q2 12 4 18q4 19 4 43q0 3 0.5 9.5t0.5 10.5q0 9 -6 29q-1 3 -3 9.5t-3 9.5q-2 5 -7.5 14t-6.5 10q-7 12 -12 17q-2 1 -3 3t-2 2q0 1 -2 2.5t-2 3.5q-4 5 -15 14q-3 2 -7.5 4t-7.5 4q-8 6 -13 10q-16 9 -37 11
q-4 0 -21.5 -0.5t-20.5 1.5q-12 -1 -41 -1t-41 -1v-82q0 -50 1 -76q2 -22 2 -24l1 -4v-9q0 -26 -1 -40q0 -6 1 -18.5t0 -19.5q-3 -12 -1 -42t2 -43q27 -2 31 -2z" />
    <glyph glyph-name="q" unicode="q" horiz-adv-x="530" 
d="M610 11q-2 -3 -14 -8q-9 -7 -13 -7q-49 -5 -64 -2h-5t-4 1q-10 0 -18 4q-16 4 -25 9q-1 0 -11 8q-16 12 -41 43q-3 -2 -7.5 -7t-6.5 -6q-5 -3 -13 -11q-4 -4 -24 -16q-4 -2 -7 -5q-11 -10 -52 -20q-46 -8 -86 3l-11 3q-10 2 -14 4q-4 1 -9 4t-8 4q-18 7 -30 17q-1 1 -6 4
t-7 5l-27 33q-17 19 -24 35q-6 9 -11 27q-2 4 -4 14q-7 17 -12 43q-1 3 -1.5 8.5t-0.5 8.5q0 2 -1 5t-1.5 5.5t-0.5 4.5q-1 6 -1.5 18t-0.5 18q0 1 -3 34q-2 34 -2 51q0 8 2 22q0 10 11 115q0 1 1 11.5t2 17.5q2 15 5 25q1 4 4.5 11.5t4.5 11.5q9 31 22 54q10 16 17 24
q7 9 30 25q22 17 33 22q40 18 82 23q34 4 71 -8q13 -2 36 -19q12 -10 18 -16q13 -11 21 -22q2 -2 4.5 -6t3.5 -6q6 -8 10 -13q0 -2 1 -3q16 -26 19 -34q2 -4 3.5 -8t4 -9t3.5 -8q10 -33 12 -40q1 -1 2 -7q6 -34 6 -38q2 -16 4 -48q1 -8 2.5 -25.5t2.5 -24.5q0 -20 3 -49
q0 -2 0.5 -6.5t0.5 -5.5t-0.5 -2t-0.5 -2q2 -50 0 -67q0 -3 -2 -11l-3 -12t-4 -20.5t-5 -25.5q-9 -35 -42 -91q0 -3 11 -16q4 -6 14 -16l7 -7l7 -7q9 -9 17 -13t13 -6t32 -4q30 -2 45 4q1 1 7.5 3t8.5 4q14 11 23 6q5 -6 -4 -15zM427 118q1 2 5 9.5t5 11.5q13 22 22 78
q4 28 5 44q0 51 -1 73q0 3 -1 9t-1 9q0 8 -0.5 17.5t-1.5 21t-1 17.5q-3 41 -8 78q-2 6 -2 8q-1 5 -3.5 16.5t-4.5 17.5q-1 4 -3.5 11t-3.5 9q0 1 -2 6.5t-3 8.5q0 1 -2 4.5t-3 4.5q-1 2 -4 11q-2 1 -3 3.5t-2 3.5q-1 3 -5 7q-1 4 -4 8q-7 13 -26 34q-24 29 -51 41
q-21 11 -68 7q-7 -2 -22.5 -3.5t-22.5 -3.5q-1 0 -2.5 -1t-2.5 -2t-2 -1q-2 -1 -4 -1l-12 -6q-10 -4 -19.5 -9.5t-21.5 -15.5t-16 -13q-22 -31 -23 -32t-15 -33q-1 -3 -3 -7v-4q-2 -2 -2 -3v-4q-2 -2 -2 -3q-2 -5 -4 -15q-9 -28 -10 -46q-3 -28 -3 -60q0 -5 -1 -14.5
t-1 -15.5q-2 -22 -2 -32q-1 -5 -2 -14.5t-2 -14.5q0 -3 0.5 -8t0.5 -7v-17q1 -6 2.5 -16.5t1.5 -15.5q1 -8 1 -26.5t2 -27.5q1 -8 15 -61q13 -39 20 -49q3 2 6.5 7.5t5.5 6.5t7.5 8.5t8.5 7.5q25 19 62 30q6 2 17.5 3.5t14.5 1.5q2 0 5 1t5.5 1.5t4.5 0.5q31 2 81 -10
q38 -17 49 -27q10 -5 19 -16q3 -3 8.5 -10t6.5 -9q2 0 3 -2.5t4 -1.5q5 5 11 21zM154 46q4 -2 12.5 -7.5t14.5 -7.5q5 -3 15 -7t14 -7q58 -16 92 -6q8 1 22 7q3 1 19 12q6 2 11 4q0 1 1 2q2 0 3 1t4 3l2 2h1q1 0 2 1q13 11 14 11q7 7 10 11l10 10q1 0 1 1q0 3 -2 3
q-4 8 -10 15t-13.5 14.5l-11.5 11.5q-32 22 -47 27l-7 2q-7 2 -11 4q-2 0 -9 1.5t-11 2.5h-23q-5 -1 -13 -1h-11q-3 -1 -13 -4t-15 -3q-1 -1 -6 -2t-7 -3q-1 0 -13 -5q-4 -2 -11.5 -6.5t-11 -7t-8.5 -6.5t-8 -9q-10 -13 -10 -14q-1 -1 -1.5 -2.5t-1 -3.5t-0.5 -3t-1.5 -2.5
t-2.5 -3.5q5 -7 16.5 -19t14.5 -16z" />
    <glyph glyph-name="r" unicode="r" horiz-adv-x="450" 
d="M235 210q-2 2 -21.5 25t-20.5 25q-6 9 -12 15l-2 2t-1 2l-9 12q-3 3 -9 10.5t-10 11.5l-2 1l-11 14q-35 38 -44 46q-11 15 -12 10t-1 -30v-36v-66.5t-1 -68.5q-1 -17 0.5 -54t1.5 -54v-65q-3 -8 -7 -10q-6 -4 -13 -1q-3 1 -4 4q-3 2 -0.5 40t2.5 46v22q0 21 2 120t0 119
q-2 44 0 87q1 7 0.5 20.5t-0.5 19.5v44q-3 144 -2 178q4 1 23 1q12 1 34 1q5 0 34 -2q3 0 13.5 1t16.5 0h56q22 2 37 -1q3 0 8.5 -1.5t7.5 -1.5q25 -5 34 -9q2 -1 9 -4q28 -13 44 -34q2 -2 5 -5.5t4 -5.5q14 -13 24 -36q14 -29 8 -85q-2 -10 -4 -17q-3 -10 -7 -21
q-5 -13 -17 -28q-2 -3 -28 -23q-15 -10 -19 -12q-8 -4 -22 -7.5t-16 -4.5q-32 -10 -37 -10q-3 0 -30 -3q-23 -4 -129 -4q-4 0 6 -10l2 -2l11 -11q3 -4 10 -11t10 -11l16 -16q2 -3 8 -9q1 -1 3 -5l2 -1q2 -1 2 -2q1 -1 1 -3q1 -2 7 -6q16 -19 44 -54t35 -44q37 -48 41 -53
q8 -9 39 -48q8 -10 22.5 -27t17.5 -21t21 -22q6 -8 20 -22q2 -2 2 -3q0 -11 -4 -13q-8 -3 -18 3q-2 2 -5 7.5t-4 6.5q-13 13 -21 25q-10 9 -26 31q-3 2 -8 7q0 2 -1 3q-1 0 -2 1q-2 3 -6 8t-6 8q-1 1 -2 3.5t-2 3.5l-5 5q-1 1 -3 3.5t-4 4.5q-2 3 -8 9l-3 6t-3 5t-3.5 3
t-4.5 4l-3 4q-2 2 -6 7t-7 8q-2 4 -4 7q-1 0 -4 6q-6 6 -8 9q-1 1 -1 3q-12 12 -13 16q-2 4 -8 10zM383 609q-5 9 -10.5 16.5t-11 13.5t-7.5 8q-3 4 -10.5 9.5t-9.5 7.5q-4 1 -10.5 5t-8.5 5q-1 1 -6.5 2t-7.5 3q-5 0 -20.5 2.5t-24.5 2.5q-3 0 -10.5 -0.5t-11.5 -0.5
q-15 -1 -38.5 0t-31.5 1q-6 0 -23.5 1t-26.5 0q-1 0 -14 -1t-20 -2q0 -120 1 -142q1 -24 -0.5 -68.5t-0.5 -65.5q5 -1 63 -1q8 0 27.5 -1t31.5 0q14 1 60 9q9 2 26.5 7t26.5 7q3 1 12 4.5t14 6.5q13 8 15 10q8 7 22 29q14 23 17 38q3 23 2 46q-1 3 -1.5 9.5t-0.5 7.5
q0 2 -2 6t-2 5l-3 12q-5 7 -5 8z" />
    <glyph glyph-name="s" unicode="s" horiz-adv-x="466" 
d="M69 48q2 -1 8 -4.5t9 -4.5q14 -7 25 -9q3 0 9 -2q32 -8 39 -9q1 0 8.5 -1.5t11.5 -1.5q7 -1 83 2q22 5 35 11q3 2 16 7q1 0 2.5 0.5t2.5 1.5l3 3l3 1q4 1 6 2q1 1 7 4.5t8 5.5q4 4 7 6q1 1 3 2.5t3 2.5l11 11q4 3 10 11q1 1 4 7.5t6 8.5l2.5 2.5t3 4.5t2.5 4q4 6 8 34
q8 47 2 77q-3 18 -9 31q-3 6 -10 16.5t-10 15.5q-4 4 -12 13t-13 14q-9 6 -10 7q-3 2 -9 7t-9 7q-2 2 -9.5 6t-10.5 7q-6 4 -21.5 12t-23.5 13q-3 1 -7 3.5t-6 3.5q-4 0 -5 1q-1 0 -8 5q-2 1 -5 2t-4 2q-5 3 -16 9.5t-17 9.5q-1 0 -6 2t-7 4l-3 3q-2 1 -5 2t-5 2q-1 0 -5 3
t-6 4q-4 3 -8.5 6.5t-9 7.5t-8.5 7q-32 25 -37 30q-27 25 -35 40q-11 21 -18 51q-6 37 23 77q14 20 33 32q6 4 20 10q18 7 33 11q21 4 38 5q1 0 8 1h8q24 1 67 -8q2 -1 8 -1q4 -2 6 -2q7 -1 30 -9q2 0 2 -2q1 0 17 -8q19 -9 19 -10q3 -3 10 -6.5t11 -6t7 -7.5t-2 -10
q-4 -6 -9 -6q-2 -1 -6 1.5t-5 2.5q-4 2 -9.5 7t-7.5 6q-18 14 -37 19q-66 21 -111 17q-54 -4 -79 -18q-8 -5 -29 -26q-4 -6 -11 -17q-2 -4 -8 -27q-2 -8 -2 -11q-1 -29 15 -57q4 -7 10 -14t11.5 -12t14 -12.5t12.5 -11.5q7 -5 18 -13.5t20.5 -15.5t19.5 -12q3 -1 8.5 -4
t9.5 -5q3 -1 8 -4.5t7 -4.5q5 -2 32 -17q39 -17 66 -35q30 -20 44 -32q21 -14 41 -42q14 -20 19 -30q10 -18 10 -34q0 -6 2.5 -23.5t0.5 -28.5q-1 -4 -1 -11l-3 -21q0 -2 -2 -7t-2 -8l-3 -9t-3 -10q0 -1 -4 -10.5t-7 -13.5q-7 -12 -10 -15q-2 -2 -5 -6.5t-6 -6.5
q-6 -4 -10 -8q-4 -3 -11 -8.5t-11 -8.5q-1 -1 -3.5 -2.5t-3.5 -3.5q-14 -10 -47 -23q-20 -8 -56 -10q-5 0 -15.5 -1.5t-15.5 -1.5q-10 1 -30 1q-5 0 -14 2t-12 2q-4 1 -11.5 2.5t-11.5 2.5l-21 6q-3 1 -7 1t-6 1q-19 4 -44 16q-2 1 -6 4.5t-5 4.5t-4 3l-4.5 3t-2.5 3.5
t1 5.5q5 9 12 9q1 0 5 -2t5 -2q1 -1 4 -2.5t5 -3t3 -2.5z" />
    <glyph glyph-name="t" unicode="t" horiz-adv-x="508" 
d="M506 690q1 -11 -13 -13t-25 1q-19 -3 -24 -2q-1 0 -2 1t-2 0q-7 0 -20 0.5t-18 0.5h-41q-43 3 -94 -2q-2 -114 0 -151q1 -12 1 -37q0 -9 -1 -27.5t-1 -27.5q2 -35 1 -55v-74q-2 -22 -0.5 -74.5t0.5 -73.5q-1 -25 -1 -68q0 -4 -0.5 -10t-0.5 -10q0 -6 1 -19t1 -20
q0 -14 -1 -20q-2 -10 -7 -12q-9 0 -12 1q-6 3 -6 23q1 19 0 40q0 1 1 3t0 3q0 2 1 15t0 19q0 5 -0.5 14.5t-0.5 14.5q0 4 1 10t1 10q0 10 -1 29t0 28q1 10 0 29t-1 26q0 18 2 54q1 8 0.5 28.5t-0.5 28.5q0 5 0.5 13.5t0.5 12.5q0 2 -0.5 6t-0.5 5q2 106 1 138q-1 10 0 63
t1 63q-5 2 -21 2q-44 2 -71 2q-8 0 -24 1t-24 1q-6 0 -22 -1t-25 0q-4 0 -10 1t-9 1h-27q-6 0 -9 5t-2 8q3 6 8 6q6 0 16 0.5t16 0.5q4 0 10 -1t10 -1q8 -1 22.5 0.5t20.5 1.5q8 0 22 -0.5t21 -0.5q16 -1 44.5 -1.5t37.5 -0.5q22 -1 64.5 0t63.5 1q8 -1 23 0t19 1h12t11 -1
q11 0 36.5 1.5t39.5 0.5q0 -1 2 -1q3 -2 2 -4z" />
    <glyph glyph-name="u" unicode="u" horiz-adv-x="519" 
d="M60 702q5 3 16 -4q2 -1 2 -11q3 -21 1 -64q-1 -19 2 -57.5t1 -62.5q-2 -22 -1 -33q-1 -10 -1 -31q-1 -44 1 -128q0 -77 9 -117q4 -13 10 -34q1 -5 5 -15q10 -24 22 -43q1 -1 4 -7t5 -9q0 -1 2 -2t2 -2q8 -12 13 -18q10 -12 16 -18h1q2 0 2 -1q1 -1 2.5 -3t2.5 -3t3 -1
q1 0 3 -3t4 -4q7 -3 7 -4q39 -16 67 -16q11 0 44 5q29 13 34 20q3 2 7 5.5t7 5.5q4 4 7 5q2 1 3.5 4.5t1.5 4.5q1 3 12 13q16 28 23 44q8 16 17 50q1 5 18 117q2 16 3.5 47.5t1.5 38.5q2 34 0 71v2l-1 2q0 1 1 2v2q3 73 2 93q-2 27 0 81q-2 21 0 42q0 4 -2.5 12.5t-2.5 14
t5 8.5q8 6 19 -7q3 -1 1.5 -11t-1.5 -12q2 -10 0 -31q0 -19 1 -29q0 -8 -1 -30t1 -28q1 -34 -1 -85v-6q0 -2 1 -13.5t0 -16.5q0 -2 -0.5 -7t-0.5 -8q0 -1 1 -3q0 -1 -0.5 -8t-0.5 -10q0 -4 0.5 -14t0.5 -15q0 -8 -1.5 -29.5t-0.5 -33.5q1 -26 -9 -73q-1 -3 -1 -10.5
t-1 -10.5q-2 -6 -2 -16q0 -2 -2 -8t-2 -8q0 -4 -8 -31q-1 -4 -5 -12t-5 -13q-1 -1 -1.5 -6t-2.5 -8q-4 -4 -7 -11q0 -1 -0.5 -3t-1.5 -3l-2 -3q-2 -3 -3 -4q-2 -4 -4.5 -10t-5.5 -10q-5 -7 -13 -15t-11 -12q-6 -9 -17 -16q-2 -1 -6.5 -3t-6.5 -4q-2 -1 -4 -3q-1 0 -3 -1.5
t-4 -2.5l-4 -2q-27 -11 -70 -13q-35 -1 -72 17q-20 10 -31 21q-8 8 -24 26q-22 23 -39 63q-2 5 -5.5 13t-5.5 13q-1 4 -3.5 11.5l-3.5 10.5q-10 32 -13 69q0 3 -3 69v69v74v37q3 56 1 99q0 3 -1.5 12.5t-0.5 15.5l1 2l1 2q0 44 -1 64q0 2 -1.5 7t-1 9t4.5 6z" />
    <glyph glyph-name="v" unicode="v" horiz-adv-x="465" 
d="M450 695q-1 -7 -7 -23q-2 -5 -9.5 -26t-12.5 -32q-3 -11 -8 -26q-1 -1 -1 -4q-2 -2 -2 -4q-1 -1 -1.5 -4t-0.5 -4q-1 -2 -3.5 -6.5t-3.5 -6.5q-3 -15 -9 -30q-1 -3 -3 -10t-3 -10q-1 -2 -6 -28q-3 -6 -3 -7q-1 -1 -1 -4q-2 -4 -3 -4q-5 -16 -10 -29q-1 -5 -5 -17t-5 -17
q-2 -4 -4.5 -12t-3.5 -11q-1 -12 -9 -32q-6 -17 -15.5 -50t-11.5 -40q-22 -70 -29 -87q-2 -8 -8 -24q-1 -1 -2.5 -4t-2.5 -4q-1 -2 -2 -8t-3 -10l-6 -15q-1 -3 -3.5 -16t-4.5 -19q-2 -7 -13 -31q0 -9 -6 -23q-1 -2 -2 -7.5t-2.5 -9t-4.5 -3.5q-12 -3 -18 5q-4 4 -4 12
q-4 14 -12 43t-13 43q-2 14 -4 23l-6 21q-4 14 -10 42q0 1 -1.5 5t-1.5 6q-4 12 -10.5 37.5t-10.5 37.5q-1 4 -2.5 11.5t-2.5 10.5q0 1 -1 5t-2 6q-7 23 -8 30q-2 2 -2 6l-2 4q-1 4 -1 12q-3 9 -3 10q-15 51 -27 105q-2 5 -4 17q-1 3 -2.5 7t-4 9t-3.5 9q0 1 -1 4.5t-1 5.5
q-1 1 -1.5 3l-1 4t-0.5 3l-2 2v3q-2 5 -12 35q-10 26 -15 40q-5 16 -17 50q-1 2 -1 5.5t-1 5.5q-7 15 0 20q10 6 17 -6q1 0 0.5 -4t0.5 -6q1 -3 7 -19q3 -9 7 -18q1 -3 2 -8t2 -8q1 -2 5.5 -15t6.5 -19q10 -26 14 -38q2 -8 4 -12q1 -2 3 -8q0 -2 1 -5t2 -5q1 -3 7.5 -21.5
t9.5 -28.5q15 -69 21 -93q4 -11 10 -32.5t9 -30.5q6 -28 10 -41q9 -21 10 -30q26 -108 53 -197q2 0 3.5 3.5t2.5 4.5q1 4 4.5 14.5l5.5 16.5q4 21 14 42q7 24 21 62q2 5 5.5 17t5.5 17q5 16 14.5 45.5t12.5 39.5v2.5t1 2.5q1 5 4.5 15.5l4.5 13.5q0 2 1 5t1 4t2 3.5t2 4.5
q2 4 2 10q2 6 2 8q1 8 5 19q3 11 11 32.5t12 32.5q3 9 11 39.5t14 46.5q7 18 27 76q1 2 8 21q6 17 6 19q3 14 7 21q3 6 6 9q1 2 2 5.5t3 4.5q13 2 13 -9q3 0 3 -3z" />
    <glyph glyph-name="w" unicode="w" 
d="M488 701q0 -1 -3 -23q-1 -3 -2 -10t-2 -10q0 -7 -1.5 -14t-4 -14.5t-3.5 -12.5q-3 -23 -16 -78q0 -5 -2 -12t-2 -11q0 -2 -2.5 -8.5t-1.5 -11.5q-2 -14 -8 -42q-1 -2 -3 -21q0 -2 -2 -9t-2 -12q0 -6 -3.5 -17.5t-3.5 -13.5l-6 -30q-2 -9 -6.5 -29.5t-7.5 -30.5
q-10 -47 -28 -138.5t-23 -117.5q-1 -3 -1 -9t-1 -9v-7.5t-2 -9.5q-15 -6 -21 -1q-2 3 -2.5 7t0 8t-0.5 8q-4 43 -15 136q0 4 -1 12.5t-2 12.5q-2 14 -2 22q-1 4 -3.5 17.5t-3.5 21.5l-9 48l-3 12q0 8 -1 12l-6 21q-2 11 -4 23t-4.5 26.5t-3.5 22.5l-3 24q-3 15 -7.5 42.5
t-6.5 39.5v7t-1 6q-1 3 -3 11q-2 9 -8 37t-10 43q-1 0 -3 -10q0 -5 -2 -15.5t-2 -14.5q-2 -6 -3.5 -20t-2.5 -19q-4 -28 -14 -78.5t-13 -71.5q-4 -35 -7 -49q-2 -6 -2 -8q-2 -8 -4 -24q-1 -8 -5 -24.5t-5 -24.5q0 -2 -2 -8q0 -6 -1 -8q-1 -3 -3 -7q-1 -4 -2 -12.5t-2 -12.5
q-2 -11 -8 -41q-2 -5 -4 -23q-1 -3 -2.5 -8.5t-1.5 -7.5q0 -6 -1 -9q-1 -5 -4 -18.5t-4 -19.5q-1 -4 -6.5 -20.5t-6.5 -23.5q0 -4 -0.5 -15t-1.5 -17q0 -6 -3 -12q-1 -2 -3.5 -3t-3.5 -2q-3 0 -5 1t-3.5 2t-3.5 2l-3 20q0 3 -1 9.5t-2 9.5q-2 14 -2 20q0 2 -13 111
q-1 14 -3 41.5t-3 41.5q-1 9 -15 161q-1 13 -5 39t-5 39l-4.5 36t-6.5 42q-1 9 -5.5 33.5t-6.5 38.5q-1 13 -5 29q-1 6 -1 17q-3 11 0 13q11 1 14.5 -5t4.5 -18q1 -3 3.5 -17t4.5 -19q2 -6 3.5 -17t2.5 -17q1 -8 5 -27t6 -32q2 -22 3 -34q1 -10 4.5 -32t5.5 -34
q2 -13 4 -36.5t3 -32.5t2.5 -26.5t2.5 -25.5q2 -14 4.5 -44.5t3.5 -42.5t2.5 -35t2.5 -35q9 -66 9 -74q2 0 3 2t1.5 5t0.5 4q9 26 9 28q4 19 10.5 55t9.5 53q6 26 16 80q7 31 8 40l3 21q4 34 8 50q5 26 19 113.5t24 132.5q0 2 0.5 7t1 9t1.5 6q4 2 10 2t8 -2q2 0 5 -6
q1 -3 1 -9q3 -9 5 -29.5t4 -27.5q1 -6 2.5 -17t2.5 -17q0 -2 2 -7t2 -8q1 -2 1 -8q1 -1 2 -3.5t1 -3.5q3 -12 7 -36.5t5 -27.5q4 -19 10 -62t11 -66q1 -4 2 -15.5t3 -17.5q1 -2 18 -95q8 -53 19 -134q3 2 3 11q6 22 7 26q0 9 3 21.5t4 16.5q2 19 18 73q2 15 8 37q7 29 8 37
l3 12t3.5 14.5t2.5 12.5q2 16 8 48q0 1 1 3l1 1v5q0 1 1 3q2 4 2 6v10q2 6 5 18.5t4 18.5q3 26 13 76q5 18 12 53q0 3 1 5q0 1 2 3q0 7 1 10q0 3 1.5 9.5t2.5 10.5q2 12 2 19q0 3 2 9l3 9q3 16 4 18q14 6 21 -5z" />
    <glyph glyph-name="x" unicode="x" 
d="M441 42q-5 5 -9 10t-6 8.5t-3.5 6t-2.5 3.5l-1 2q0 1 -0.5 3t-1.5 3t-2 3t-2 3l-3 6l-4 4q-2 3 -7 11t-8 11q-28 44 -54 82q-3 6 -14 22q-2 5 -7 12t-6 10q0 1 -13.5 20.5t-21.5 30.5q-7 14 -19 31q-8 -4 -12 -14l-8 -16q-1 -2 -3.5 -5t-3.5 -5q-1 -1 -1 -3.5t-1 -3.5
l-5 -5q-1 -1 -1.5 -3.5t-0.5 -3.5q-1 0 -3 -2q-3 -6 -9 -12q-2 -6 -8 -16q-7 -12 -10 -14l-8 -16q-6 -15 -18 -30q-6 -10 -8 -15q-2 -3 -5 -8t-4 -8q-3 -5 -9 -13.5t-9 -12.5q-2 -4 -8 -14q-1 -2 -4.5 -10t-5.5 -11l-2 -3l-3 -3q0 -1 -1 -2t-1 -2v-1l-1 -1q-2 -2 -5 -6.5
t-5 -6.5q-1 -2 -4.5 -7t-4.5 -7q-2 -4 -7 -11t-7 -11q-2 -1 -6 -8.5t-7 -9.5q-3 -3 -7.5 -3.5t-8.5 1.5t-4 7q-1 3 0 5t3 3.5t4 3.5t3 4q1 3 5.5 9.5t6.5 10.5q2 1 2.5 3t1.5 3q1 2 4 5q1 2 2.5 5.5t2.5 5.5q3 3 17 27q16 33 29 50q5 9 18 32t21 35q34 53 43 64q6 13 20 35
t19 33q0 1 -7 11q-8 14 -10 18q-6 6 -11 16q-13 21 -15 23t-8 10q-3 3 -7 13q-15 21 -42 66t-43 67q-2 4 -7 11.5t-7 11.5q-41 60 -45 67l-15 21l-1 2l-1 2l-1 3q-10 14 -4 19q3 2 11 -2q1 0 3 -2q1 0 1 -1v-2l2 -3q2 -3 2 -4q11 -13 18 -24q11 -21 27 -41q4 -6 13.5 -21.5
t15.5 -23.5q11 -17 13 -19l3 -6l2 -2q0 -2 1 -3q2 -2 2 -3q6 -8 10 -13q6 -10 9 -16q2 -2 4 -6.5t3 -6.5q6 -8 10 -14q11 -14 14 -19q3 -4 12 -23q5 -8 15.5 -22.5t14.5 -20.5q2 -3 7.5 -10.5t7.5 -11.5q2 -2 4.5 -6.5t5 -8t5.5 -6.5q1 0 7 10q1 2 1.5 3.5l1 3t1.5 3.5
q4 8 11.5 18.5t8.5 12.5q16 30 30 50q5 8 14.5 24.5t13.5 23.5q6 14 19 41t19 41q5 11 22.5 41.5t23.5 46.5q5 16 10 16q7 0 11 -5q2 -5 -3 -17q-3 -8 -14.5 -28t-14.5 -28q-1 -4 -5 -12q-1 -3 -11 -20q-1 -2 -5 -12q0 -2 -2 -5.5t-3 -5.5q0 -3 -3 -5.5t-3 -4.5q-1 -2 -3 -5
t-3 -5t-2 -6t-2 -6t-2.5 -3.5t-1.5 -2.5q-1 -1 -1 -3.5t-1 -3.5q-3 -6 -10 -19t-10 -19q-2 -6 -9 -15t-7 -10t-3 -6t-4 -7t-6 -7q-1 -2 -2.5 -6t-2.5 -6t-2.5 -4.5t-2.5 -4.5q-2 -4 -6.5 -10t-5.5 -7q-1 -2 -2.5 -7t-3.5 -7t-3 -6.5t-2 -5.5q-1 -3 -3.5 -6t-3.5 -5
q-1 -3 -3 -6t-4.5 -6.5t-3.5 -6.5q14 -26 31 -50q4 -5 10 -15l2 -2l1 -2q2 -2 6 -8l2 -4q1 -1 2.5 -3.5t2.5 -3.5t1 -2q1 -2 1 -3l3 -3q1 -1 1 -2v-1q4 -4 7 -10q0 -1 5.5 -8t7.5 -11q5 -9 14.5 -23.5t12.5 -19.5q5 -8 18.5 -27t19.5 -30q4 -8 7 -12l2 -2q1 -1 4.5 -5.5
t5.5 -6.5q1 -1 9 -17l4 -4q1 -1 1 -3t1 -3t5.5 -6.5t6.5 -8.5q7 -11 12 -20l2 -1q1 0 1 -1q1 -1 1 -3l2 -2q1 -3 9 -13l3 -3q-4 -8 -13 -11q-7 2 -15 19q-1 2 -6 8.5t-7 11.5q-4 4 -6 7q0 3 -1 3z" />
    <glyph glyph-name="y" unicode="y" horiz-adv-x="428" 
d="M310 536q2 4 5 9t7 11.5t6 9.5q43 78 55 99q3 4 7 12t6 11q1 1 3 5t3.5 6t4.5 3.5t6 1.5q5 0 8 -5q1 -2 1.5 -1t1.5 0q2 -4 0.5 -7t-3.5 -5l-2 -3q-2 -5 -6 -10t-6 -8q-2 -5 -6.5 -12t-6.5 -12q-4 -10 -14.5 -24.5t-13.5 -20.5q-7 -14 -11 -21l-6 -9t-6 -10
q-3 -4 -7 -13.5t-7 -13.5q0 -2 -4 -8q-1 -3 -5 -9.5t-6 -9.5q-2 -2 -4 -7t-3 -7q-10 -17 -11 -20q-1 0 -3 -2l-4 -8t-5 -9l-6 -6q0 -1 -2 -3t-3 -4q-1 -1 -3 -6.5t-5 -6.5q-11 -18 -12 -21q-10 -18 -16 -26q-1 0 -4 -7l-2 -2t-2 -1v-4l-4 -4q-4 -5 -5 -8q-1 -1 -5 -8.5
t-6 -9.5q-2 -1 -2.5 -5.5t-0.5 -10v-7.5q0 -59 -1 -76q-1 -5 0 -41.5t1 -41.5q0 -10 -1 -28t-1 -27q0 -39 1 -58v-11q-1 -4 -1 -14v-15q-2 0 -9.5 -1.5t-8.5 0.5q-4 10 -3 13v15q0 23 0.5 73t-0.5 76v46q1 9 1 23v24v7q1 6 1 10q0 25 -2 37q-1 2 -4 14t-4 14
q-26 53 -64 138.5t-58 126.5q-5 11 -19 35.5t-20 39.5q-5 5 -2 11q6 3 13 0.5t8 -8.5q6 -13 19 -37.5t18 -33.5q6 -12 17.5 -36t17.5 -36l18 -36q5 -7 5 -8q7 -15 22 -51.5t24 -53.5l11 -22q7 -17 12 -21q1 0 2 2t2 3q10 13 11 15q2 4 13 20q3 3 8.5 15t8.5 15q2 2 4.5 7.5
t3.5 6.5q0 1 2 3t3 4q2 3 7.5 10t7.5 10l15 24q5 9 15 25q0 1 2 6t4 7z" />
    <glyph glyph-name="z" unicode="z" horiz-adv-x="422" 
d="M411 688l-1 -1q-1 -8 -7.5 -18.5t-7.5 -14.5q-12 -26 -27 -51q0 -1 -1 -2q0 -1 -2 -3q0 -3 -4 -7q0 -4 -4 -6q-2 -4 -4 -10q-1 -1 -2 -3t-2 -3q-2 -3 -15 -29q-2 -4 -7.5 -11.5t-7.5 -10.5l-2.5 -2.5t-2.5 -3t-1 -3.5q-1 -1 -1 -5q-1 -1 -2.5 -3.5t-2.5 -3.5q0 -2 -1 -4
t-4 -6.5t-4 -6.5q-4 -10 -7 -15q-1 -1 -8 -13t-8 -14q-12 -19 -24 -46l-9 -15q-1 -1 -2 -4t-2 -4q1 -2 0 -3l-2 -2q-1 -1 -1 -3q-1 -6 -3 -8q-4 -2 -7 -7t-8.5 -15t-8.5 -15q-4 -14 -7 -16q-1 -4 -4 -8t-3 -8l-9 -15q-1 -4 -4 -8.5t-4 -6.5q-8 -15 -13 -33q-1 -3 -5 -6.5
t-6 -7.5q-1 -3 -3.5 -8l-3.5 -7q-8 -15 -9 -17q-6 -7 -14 -23q-2 -6 -13 -22l-3.5 -7t-5.5 -7q-2 -3 -4.5 -7t-4.5 -7q-3 -5 -7 -11q-1 -1 -2 -2.5t-1 -2.5q-5 -5 -7 -9q-1 -1 -3.5 -4t-4.5 -6q-2 -2 -4.5 -8t-5.5 -8q-1 0 -4 -6q-1 -1 -4 -4.5t-4 -5.5l-2 -4q-5 -10 -5 -14
h43h25q14 2 21 2q20 1 89 -1q10 0 42 1t49 0q2 1 14 1.5t20 -0.5h12q33 2 42 -3q4 -1 4 -8t-2 -8q-1 -1 -10 -1q-26 0 -40 1q-1 0 -2.5 -0.5t-3.5 -0.5h-17h-24q-4 0 -15.5 -1t-17.5 0h-17h-15q-15 -1 -43 1t-43 1q-1 0 -4 -0.5t-5 -0.5t-5 0.5t-4 0.5q-24 -2 -37 -2h-72
q-11 2 -11 10q0 5 6 17l1 1l2 2v2t1 2t3 2.5t2 2.5q8 10 9 13t5 7t5 7l6 9q4 6 6 8q23 35 25 38q5 8 14 23t14 23l4.5 9t6.5 10q3 7 10.5 19.5t8.5 14.5q1 3 7 16t10 19q1 4 5 10t5 9q1 1 1 3.5t1 3.5q1 3 6 11t7 13q1 1 1.5 4t0.5 4l3 6l2 4t3 4.5t3 4.5q2 4 6 12.5t6 12.5
q5 10 13 23.5t14 25.5q0 1 1.5 2.5t2.5 3.5q0 1 1 3.5t1 3.5l2 1q3 4 5 11q11 19 13 22q6 10 22 39q15 27 51 90q4 8 14 24q2 4 6.5 12.5t6.5 12.5q6 13 13 26q1 1 2 3t2 3q0 1 0.5 3.5t1.5 3.5q6 12 6 13q0 2 -4 2.5t-11.5 -0.5t-10.5 -1q-4 0 -12 -1t-12 -1q-3 0 -8 0.5
t-8 0.5h-47q-10 0 -32.5 0.5t-33.5 0.5h-68h-32q-8 -1 -78 2q-3 -1 -4.5 0t-3.5 4l-2 3q0 3 2 4.5t6 3t5 1.5q2 1 20 1q6 0 16.5 -1t16.5 -1t17.5 0.5t17.5 0.5q9 1 24 0t20 -1q10 0 42 1t50 0q14 0 22 -1h2q2 1 3 1t2 -0.5t2 -0.5q44 2 74 2h36l4 -2q3 -1 3 -4q0 -1 2.5 -2
t3.5 -3l1 -1q0 -2 1 -2z" />
    <glyph glyph-name="braceleft" unicode="{" horiz-adv-x="240" 
d="M186 701q-9 0 -16.5 -2.5t-13 -6.5t-8.5 -7t-5.5 -7.5t-3.5 -5.5q-2 -2 -4 -5t-4.5 -7t-3.5 -6q-13 -23 -20 -61q-5 -29 -5 -70q0 -34 -5 -72q-5 -36 -16 -59q-2 -3 -4.5 -7.5t-4.5 -7.5l-4 -6t-10 -9t-9 -12q0 -2 1 -3.5t4.5 -3t4.5 -2.5l10 -10q13 -12 22 -38
q4 -9 11 -45v-26q0 -2 -0.5 -6.5t-0.5 -5.5t1.5 -5t-0.5 -5q0 -19 -1 -28l-1 -2v-2l1 -4q-3 -57 4 -87q4 -12 6 -17l3 -9q5 -10 10 -15q1 -1 3.5 -5t5 -7.5t4.5 -5.5h2q2 -1 2 -3q5 -3 9 -5.5t9 -5.5q1 0 3 -1l2 -1q1 0 3 -1l4 -2l2 -1q5 0 9.5 -3t11.5 -3q5 0 13.5 -3.5
t9.5 -8.5q0 -6 -4 -8.5t-10 -1.5t-14 4q-6 3 -20.5 7.5t-20.5 7.5q-14 7 -27 18q-10 9 -22 31q-11 21 -16 36q-8 31 -5 90.5t-1 91.5q-5 39 -32 74q-3 0 -5 3l-15 6q-12 2 -13 8q-1 9 11 11q9 4 15 9q4 3 13 17q3 3 11 24q0 1 2.5 9t4.5 12q6 23 7 40q5 33 5 82v9q0 7 3 21
t3 21q0 13 12 35q1 3 3 7q0 2 1 4t1 4q4 8 6 13q10 22 25 34q12 10 28 17q9 3 22 3q12 1 21 -2t6 -11q-2 -4 -5.5 -5t-11.5 -0.5t-9 0.5zM62 408l1 2l-1 -1v-1z" />
    <glyph glyph-name="bar" unicode="|" horiz-adv-x="169" 
d="M100 -61q-10 -10 -21 -3q-2 3 0 10q0 4 -1 12.5t-1 13.5q-2 27 0 84q0 53 2 80q0 13 -0.5 39.5t0.5 40.5q1 22 -0.5 62t-1.5 55q-1 19 -1 58t-2 59q-1 15 0 42.5t1 35.5q0 6 0.5 18.5t0.5 17.5q0 3 -3 15l1 4q0 26 -1 28q0 1 -0.5 2.5t-1 4t-0.5 4.5t0.5 7.5t0.5 8.5
q0 6 -0.5 21t0.5 22q1 3 -1 6t-2 5q1 3 0 15.5t-1 14.5q0 3 -1 10.5t-0.5 13.5t3.5 10l8 4q12 5 15 -6q3 -21 3 -82v-39q2 -25 2 -84v-51q1 -8 0 -23.5t-1 -22.5q1 -4 0 -13t0 -14q-1 -2 0 -6t1 -6q1 -12 1 -32.5v-33.5v-25q3 -28 3 -82q0 -63 -1 -78q0 -13 -1 -22
q-1 -6 -1 -16v-16q0 -8 -0.5 -28t-0.5 -28q0 -2 -0.5 -4.5t-0.5 -3.5v-52q0 -4 1 -12.5t1 -12.5q1 -5 1 -14v-14z" />
    <glyph glyph-name="braceright" unicode="}" horiz-adv-x="271" 
d="M93 -20q-19 -5 -45 -1q-4 1 -7.5 1.5t-9 2.5t-8 5.5t-0.5 7.5q3 6 28 0q24 -6 38 1q11 6 31 21q2 2 7 8t8 8q3 3 7.5 9.5t6.5 8.5q15 41 18 55q5 27 5 70q0 25 6 69q2 13 8 32.5t7 25.5q2 3 5.5 10.5t6.5 10.5q3 4 10.5 10.5t10.5 9.5q-1 1 -11 9l-11 11q-18 28 -20 36
q-1 1 -12 44v26q2 8 1 11q0 1 -1.5 5t0.5 5q0 19 1 28q1 1 1 4l-1 3q4 67 -4 99q-1 8 -6 17q-1 2 -3 8q0 1 -2.5 5.5t-4.5 6.5l-1 2q0 1 -1 1q-2 2 -6 8.5t-7 8.5l-1 1q-2 1 -3 2q-3 2 -12 7t-14 8l-2 1h-3t-2 2l-1 2h-9q-3 1 -15 4q-11 2 -32 -4q-15 -6 -17 -3t-2.5 7t2 7
t6.5 3q4 3 13 5q14 3 33 1q20 -1 41 -11t34 -21q12 -11 21 -30q13 -24 16 -36q8 -31 5 -95t0 -96q5 -39 32 -71q5 -2 5 -3l7 -3.5t8 -3.5q7 -1 12 -8q-2 -9 -11 -11q-8 -6 -13 -9q-7 -6 -14 -16q-6 -9 -11 -26q-1 -3 -3.5 -8.5t-3.5 -8.5q-3 -13 -7 -41q-4 -50 -4 -79
q0 -1 -0.5 -1t-0.5 -1v-3q1 -3 1 -5q0 -6 -3 -20t-3 -21q-3 -5 -5.5 -15.5t-4.5 -14.5l-2 -4t-2 -3q0 -3 -2 -7q-1 -2 -3 -7t-3 -7q-3 -4 -8 -11t-9.5 -12.5t-9.5 -9.5q-33 -24 -45 -27z" />
    <glyph glyph-name="asciitilde" unicode="~" horiz-adv-x="341" 
d="M330 379q0 -4 -3 -6.5t-6 -3.5t-8 -2t-8 -2q-10 -4 -26 -7q-35 -7 -87 3q-23 5 -47 15q-1 0 -5 1t-5 2q-2 1 -7 5t-8 5q-2 1 -7 1.5t-7 0.5q-27 6 -39 6q-4 0 -18 -4q-9 -3 -18 -12q-5 -5 -12.5 -2t-7.5 9q0 10 24 20q13 5 32 5q7 0 19 -1.5t19 -1.5q3 0 21 -4
q12 -3 28.5 -11t23.5 -10q35 -12 77 -9q18 1 41 9q27 8 32 -1q1 -2 2 -5z" />
    <glyph glyph-name="uni00A0" unicode="&#xa0;" horiz-adv-x="211" 
 />
    <glyph glyph-name="exclamdown" unicode="&#xa1;" horiz-adv-x="120" 
d="M45 131v52q1 16 1 46.5v47.5q0 4 0.5 28t0.5 40.5v27.5q0 2 -0.5 7.5t-0.5 8.5q-2 2 -1.5 6.5t2.5 5.5q5 3 14 3q8 -4 8 -26q0 -6 1.5 -60.5t0.5 -67.5q0 -40 -1 -45q0 -1 1.5 -21.5t0.5 -23.5q-1 -41 1 -84q1 -13 0 -40.5t-1 -34.5q1 -22 1 -66q0 -10 -1 -31t0 -32
q0 -4 1.5 -18.5t1.5 -23.5v-29q-5 -5 -14.5 -5t-14.5 4v14t-1 15q-1 6 0 22.5t0 22.5t0 19t1 20q-1 14 0 41t1 39q-1 13 -1 38t-1 38v62zM50 477v22t-1 23q-1 12 2 20q1 1 1 5t0.5 7.5t2.5 3.5q16 4 17 -2q2 -5 0.5 -23.5t-1.5 -29.5q1 -4 2 -19.5t0 -18.5q-2 -4 -9 -5
t-11 2q-5 4 -3 15z" />
    <glyph glyph-name="cent" unicode="&#xa2;" horiz-adv-x="379" 
d="M229 762q1 -11 -1 -33t-2 -31q4 -2 19 -2q14 -2 22 -4q24 -6 33 -12q1 -1 29 -23l5 -5q4 -4 5 -8q10 -8 5 -14q-8 -3 -11 -1.5t-8 8.5t-7 9q-8 4 -11 6q-1 1 -4 3t-4 3t-5 3t-5 3q-28 11 -35 13q-14 3 -27 3q-4 -16 -2 -37q1 -18 -0.5 -54t-1.5 -52q-1 -5 0 -15t1 -13
q0 -5 -0.5 -13t-0.5 -12v-59v-30q0 -17 1 -26q0 -10 -0.5 -29.5t-0.5 -29.5q-1 -6 0 -11q0 -24 -2 -62q-1 -36 -1 -112q2 -36 -1 -64q0 -2 1 -5t0 -5q0 -3 -1 -16.5t0 -16.5q12 0 22 3.5t23 10.5t17 9q2 1 9.5 6t10.5 8q5 6 14 8.5t12 -2.5q6 -6 2 -12.5t-7.5 -8.5t-12 -6
t-11.5 -6t-9 -4q-8 -4 -29 -14q-2 -1 -41 -14q-3 -11 -1.5 -41t0.5 -40q-8 -7 -21 -3q-2 3 -2 19v63q-4 0 -13 1t-13 1l-30 10q-4 4 -14.5 12t-16.5 14q-3 2 -7 7t-6 6q-1 4 -5.5 9t-5.5 9q-2 3 -18 34q-4 8 -8.5 22t-7.5 19q-20 113 -15 218q0 2 3 26q0 3 0.5 11t1.5 13
q4 24 9 45q1 4 27 85q0 2 1 5t2 5q1 3 8.5 21.5t11.5 26.5q3 8 4 10q1 1 2.5 3.5t2.5 3.5q0 1 1 3l1 2l2 1q3 2 3 3l3 6l1 4q1 1 2 2.5t1 2.5q15 21 34 39q3 3 12 7t11 5q4 3 12.5 4.5t11.5 3.5q2 16 2 50q0 16 4 19q15 4 20 -1zM198 673q-26 -9 -52 -41q-9 -13 -17 -28
q-3 -6 -8.5 -16.5t-7.5 -14.5q-22 -53 -38 -117q-1 -4 -3.5 -13t-3.5 -14q-1 -3 -1.5 -6.5t-1 -8t-0.5 -6.5q-8 -28 -10 -63q0 -8 1 -25t1 -26q0 -17 2 -49q3 -50 14 -95q1 -4 2.5 -11t2.5 -10q8 -32 26 -60q4 -6 5 -7q4 -4 9.5 -10.5t8.5 -9.5q18 -18 29 -22q1 -1 10 -3
q19 -4 29 0q1 17 1.5 37t1 44.5t0.5 37.5q0 6 -0.5 19.5t-0.5 19.5q0 18 1 51t1.5 60t0.5 51q0 15 -0.5 42t-0.5 41q0 40 1.5 122t1.5 123v3q0 6 -3 5h-1z" />
    <glyph glyph-name="sterling" unicode="&#xa3;" horiz-adv-x="412" 
d="M255 561q-10 -5 -15 4v10q5 29 1 46q0 1 -0.5 3t-0.5 3v3q0 5 -2 9q-2 5 -5 10q0 1 -1 1t-1 1q-2 5 -12 12q-33 26 -63 18q-2 0 -25 -9q-13 -4 -23 -13l-11 -11l-3 -6q-9 -9 -14 -18q-8 -19 -10 -32q-5 -24 -2 -57q0 -3 1.5 -8t1.5 -6q1 -6 3 -20q1 -2 1 -6q2 -5 3 -13
q0 -4 8 -24q3 -13 7 -23q3 -9 27 -57l9 -18q9 -18 14 -25q6 -2 17 -1.5t18 -0.5q4 -1 13 -1q9 -1 31 -1q3 0 8.5 0.5t9 0.5t8 -0.5t7 -3t3.5 -6.5q1 -7 -3 -10t-13 -4q-4 0 -8 0.5t-9.5 1.5t-8.5 1q-4 0 -10 -0.5t-9 -0.5q-5 0 -24.5 1.5t-20.5 -0.5q0 -5 6 -17
q3 -8 6 -21.5t6 -21.5q16 -48 12 -114l-3 -21q0 -3 -2 -8.5t-2 -8.5q0 -11 -9 -36q-6 -16 -10 -24q-3 -6 -3 -7q38 5 47 5q12 -1 24.5 -5t26.5 -10t21 -8q26 -3 51 6q10 3 11 4l1 1q26 14 31 2q3 -7 0.5 -10t-10.5 -5t-12 -4q-1 0 -3.5 -1t-3.5 -1q-6 -2 -20 -6
q-22 -6 -36 -5q-25 2 -40 8q-1 0 -4.5 2.5t-6.5 3.5q-3 0 -4 1q-1 0 -6.5 3t-9.5 4q-6 2 -21 2q-8 0 -24 -4q-8 -3 -19 -10q-16 -11 -24 -8q-6 0 -8 2q1 1 0 2q-2 2 -4 5q0 3 3 6l4 4q-1 2 1 3t2 2q1 0 2 1.5t2 1.5q27 57 32 89q5 48 4 65q-1 34 -14 74q0 1 -0.5 4.5
t-1.5 5.5t-2.5 4t-1.5 3q-1 3 -2.5 9.5t-2.5 9.5t-1 5t-1 5q-6 12 -7 13q-15 1 -46 -1q-18 0 -21 1q-11 6 -9 14q2 7 30 7q16 0 34 2q2 4 -4 15q-2 5 -6 13q-2 5 -13 27t-15 31l-9 24q-4 9 -7 25q-2 4 -2 6q-1 2 -1 7q-1 2 -3 6.5t-2 6.5q0 6 -2 14l-3 12q-1 5 -1 15.5
t-1 15.5q-1 23 7 59q7 22 9 25q0 2 1 2q1 2 3.5 4t3.5 4t3 5t3 5q11 16 13 18q7 7 42 24q3 1 29 4q21 2 35 -3q18 -6 32 -14q15 -10 21 -18q4 -5 13 -29q10 -24 3 -57q-2 -17 -8 -20z" />
    <glyph glyph-name="yen" unicode="&#xa5;" horiz-adv-x="392" 
d="M26 700q2 0 5.5 1t6 0.5t2.5 -2.5q1 -2 4 -10.5t4 -13.5q2 -4 5 -12.5t4 -10.5q1 -4 4 -11.5t4 -10.5q2 -6 7 -21.5t6 -18.5q2 -4 3 -5q1 -2 1 -6q1 -2 3.5 -8.5t3.5 -10.5q2 -2 2 -6q1 -3 13 -30q1 -2 3 -8q0 -1 2 -5q0 -1 2 -5.5t3 -6.5l6 -15q7 -12 9 -18
q0 -1 2.5 -6.5t4.5 -9.5l1 -2l2 -2t1 -2.5v-2.5q6 -12 10 -19q6 -13 20 -45.5t22 -49.5q3 1 11 22q0 2 3 5q0 2 1 4t1 3q1 2 2.5 6t2.5 6q3 7 10 21t10 22q4 13 10 23q2 4 5 12.5t4 9.5q6 16 10 23q2 3 5.5 10.5t5.5 10.5q6 9 11 20.5t10.5 25t8.5 21.5q4 7 10 23
q30 68 35 77q4 6 6 10q1 2 2 6t2.5 7t4.5 5q3 1 7 0.5t7 -2.5t3 -4q-4 -13 -8 -22q-1 -3 -3 -6t-4.5 -6.5t-3.5 -6.5q-3 -5 -7 -15q-4 -7 -7 -14q-5 -10 -13 -32q-2 -5 -6 -14.5t-6 -15.5q-3 -5 -7 -15q-2 -5 -6.5 -15.5t-7.5 -16.5q-2 -4 -8.5 -16t-8.5 -20q-2 -2 -4 -6.5
t-3 -6.5l-2 -4t-2 -3t-1 -3v-4q-1 -3 -3 -6.5t-3.5 -6.5t-3 -7t-2.5 -7q-5 -9 -13 -27t-12 -25q0 -2 -0.5 -5.5t-1.5 -6.5q-2 -4 -9 -14q-2 -8 -6.5 -19.5t-5.5 -16.5q3 -2 32 -2h33q18 -2 26 -2q3 -1 14 1q39 3 39 -11q0 -7 -10 -9q-3 -1 -17 1q-20 -1 -60 1t-63 0
q-2 -5 0 -24q9 -2 29 -2h25h41h19q19 2 22 2q13 -2 13 -10q0 -11 -32 -11q-11 1 -29 1h-88q0 -11 -1.5 -35.5t-0.5 -37.5q1 -7 1 -22q-1 -12 -1 -34q2 -22 1 -33q0 -8 0.5 -22t1 -26t1.5 -23q0 -11 -4 -13q-9 -6 -18 3v24q2 15 0 47t-2 45q0 11 -0.5 34t-0.5 34q2 45 0 60
q-8 2 -42.5 1.5t-44.5 -0.5q-15 0 -37.5 -1t-36.5 -1q-5 1 -8 5.5t-1 8.5q-1 4 8 4q14 0 33 1.5t37 0.5q43 -2 92 0q0 3 -1 10.5t0 12.5q-2 1 -20 1h-27q-16 -1 -49 -1q-16 2 -23 2q-22 1 -28 1q-17 2 -20 5q-5 5 -3 8q2 4 15 4q9 0 39 -1q4 0 17.5 -1t20.5 0q10 -1 28 0.5
t27 1.5q13 0 15 2q1 5 -3 13.5t-5 11.5q-2 3 -3.5 7t-4 9.5t-3.5 8.5q-1 1 -2 3t-1 4q-4 9 -12.5 27.5t-11.5 25.5q-5 9 -13 27q-11 24 -21 45q-10 20 -19 47q-2 6 -6.5 18t-6.5 19q-1 3 -11.5 35.5t-15.5 46.5q-2 7 -6.5 19t-6.5 19q2 3 4 3z" />
    <glyph glyph-name="brokenbar" unicode="&#xa6;" horiz-adv-x="160" 
d="M86 503q-5 -6 -18 -2q-3 4 -1 15q0 10 1 28.5t1.5 33.5t0.5 28q0 6 1 18t1 18q0 7 -1.5 23t-0.5 24q7 9 18 5q2 -1 3 -5t2 -5q0 -2 -0.5 -6t-1.5 -7q4 -11 2 -34q-1 -21 -3 -67t-4 -67zM86 4q-5 -6 -18 -2q-3 4 -1 15q0 10 1 28.5t1.5 33.5t0.5 28q0 6 1 18t1 18
q0 7 -1.5 23t-0.5 24q7 9 18 5q2 -1 3 -5t2 -5q0 -2 -0.5 -6t-1.5 -7q4 -11 2 -34q-1 -21 -3 -67t-4 -67z" />
    <glyph glyph-name="section" unicode="&#xa7;" 
d="M408 84l-4 -4q1 -1 2.5 -3t2.5 -3q11 -15 18 -30q13 -24 13 -34q0 -6 2.5 -23.5t0.5 -28.5q-1 -4 -1 -11l-3 -21q-1 -2 -2 -7t-2 -8l-3 -9t-3 -10q-1 -1 -4.5 -10.5t-6.5 -13.5q-4 -8 -10 -13q-2 -2 -5 -6.5t-6 -6.5q-6 -4 -10 -8q-4 -3 -11 -9t-11 -9q-1 -1 -3.5 -2.5
t-3.5 -3.5q-14 -10 -47 -23q-17 -7 -56 -9q-5 0 -15.5 -1t-15.5 -1h-30q-4 0 -8 0.5t-9.5 1.5t-8.5 1q-4 1 -11.5 2t-11.5 2l-21 6q-2 1 -6 1t-7 1q-19 4 -44 16q-2 1 -6 4.5t-5 4.5t-4 3l-4.5 3t-2.5 3.5t1 5.5q2 4 12 4q1 -1 5 -2t5 -2t4 -2.5t5 -3t3 -2.5t7.5 -4t9.5 -4
q14 -7 25 -9q3 0 9 -2q15 -4 38 -7q1 0 8.5 -1.5t11.5 -1.5q49 -4 84 1q19 3 37 11q3 2 16 7q1 0 2.5 0.5t2.5 1.5l3 3l4 1q3 1 5 2q1 1 6.5 4.5t7.5 5.5q4 4 7 6q1 1 3.5 2.5t3.5 2.5q2 2 6 6.5t6 6.5q4 3 10 11q1 1 3 7t5 8l2.5 2.5t3 4.5t2.5 4q7 11 11 36q7 44 1 77
q-3 14 -10 31q-9 18 -21 33q-7 9 -25 27q-9 6 -10 7q-3 3 -9.5 8t-9.5 7q-18 12 -20 15q-6 4 -21.5 12t-23.5 13q-3 1 -7 3.5t-6 3.5q-4 0 -5 1q-1 0 -8 5q-1 1 -4 2t-5 2q-6 3 -17 9.5t-16 9.5q-1 0 -6 2t-7 4l-3 3q-2 1 -5 2t-5 2q-1 0 -3 2t-4 3q-20 14 -30 22
q-26 20 -37 32q-27 25 -33 36q-14 25 -19 50q-7 38 22 77q14 20 33 32q7 5 22 11q-15 12 -25 23q-27 25 -33 36q-14 25 -19 50q-7 38 22 77q14 20 33 32q6 4 20 10q5 2 33 9q12 2 38 4q1 0 9 1h7q29 1 67 -7q2 -1 8 -1q4 -2 6 -2q13 -2 30 -8q2 0 2 -2q2 0 17 -8
q13 -7 16 -11q3 -3 13.5 -7t15.5 -9t0 -12q-4 -6 -9 -6q-2 -1 -6 1.5t-5 2.5q-4 2 -9.5 7t-7.5 6q-22 17 -37 21q-66 21 -111 17q-54 -3 -80 -19q-8 -5 -29 -26q-2 -3 -5.5 -9.5t-4.5 -8.5q-10 -17 -12 -27q-2 -8 -2 -11q-1 -25 18 -58q4 -7 10 -14.5t11 -12t14 -13
t13 -11.5q5 -4 30 -22t29 -20q3 -1 8.5 -3.5t9.5 -4.5q3 -1 8 -4.5t7 -4.5q6 -3 17.5 -9.5t14.5 -8.5q43 -19 66 -34q20 -13 44 -34q23 -15 39 -38q11 -15 18 -30q13 -24 13 -34q0 -6 2.5 -23.5t0.5 -28.5q-1 -4 -1 -11l-3 -21q-1 -3 -2 -8t-2 -7q-1 -4 -3 -10l-3 -9
q-1 -1 -4.5 -10.5t-6.5 -13.5q-4 -7 -10 -13zM170 441q-8 5 -24 17q-16 -6 -23 -10q-8 -5 -29 -26q-2 -3 -5.5 -9.5t-4.5 -8.5q-10 -17 -12 -27q-2 -8 -2 -11q-1 -25 18 -58q4 -7 10 -14.5t11 -12t14 -13t13 -11.5q3 -2 24.5 -18.5t34.5 -23.5q3 -1 8.5 -4t9.5 -4
q3 -1 8 -4.5t7 -4.5q6 -3 17.5 -9.5t14.5 -8.5q43 -19 66 -34q20 -13 44 -34q12 -9 22 -19v1l1 1q1 1 3 7t5 8l2.5 2.5t3 4.5t2.5 4q7 11 11 36q7 44 1 77q-3 14 -10 31q-3 6 -10.5 17t-10.5 16q-4 4 -12 13t-13 14q-9 6 -10 7q-3 2 -9.5 7t-9.5 8q-18 13 -20 15
q-6 4 -21.5 12t-23.5 13q-3 1 -7 3.5t-6 3.5q-4 0 -5 1q-1 0 -8 5q-1 0 -4 2t-5 2q-6 3 -17 9.5t-16 9.5q-1 0 -6 2t-7 4l-3 3q-2 1 -5 2t-5 2q-1 0 -3 2t-4 3z" />
    <glyph glyph-name="dieresis" unicode="&#xa8;" horiz-adv-x="312" 
d="M140 628q0 -2 -8 -22q-2 -5 -7 -7.5t-5 -3.5q-2 -3 -9 -7q-4 0 -4 -1q-12 -1 -24 4q-2 0 -4 2.5t-4 2.5q-6 2 -9 4q-8 5 -11 22v12q0 1 2.5 10t2.5 12q0 2 4.5 5t10 6t7.5 4q5 3 18 3q12 -2 20 -6q10 -6 15 -16t5 -24zM174 622q-4 6 3 23q6 12 14 20q4 4 10 7q4 0 4 1
q12 1 24 -4q2 0 4 -2.5t4 -2.5q6 -2 9 -4q8 -5 11 -22v-12q0 -2 -2.5 -5.5t-2.5 -6.5q0 -1 -5 -7t-6 -9t-2 -4.5t-4 -2.5t-5 -2q-5 -3 -18 -3q-16 2 -21 5q-8 4 -10 9q-7 14 -7 22z" />
    <glyph glyph-name="copyright" unicode="&#xa9;" horiz-adv-x="509" 
d="M461 464q6 -33 1 -123q-2 -43 -10 -102q0 -4 -2 -12.5t-2 -12.5l-3.5 -14l-3.5 -14q-1 -3 -2.5 -8.5t-2.5 -8.5l-5 -10q-1 -1 -2 -5t-1 -5q-12 -29 -37 -73q-14 -23 -31 -41q-2 0 -7 -5q-1 -1 -4 -2t-5 -2l-15 -10l-8 -4q-1 -1 -1 -3q-2 0 -8 -2l-4 -2l-4 -2t-5 -1t-4 -1
q-28 -6 -42 -6q-33 0 -45 4q-11 3 -33 14q-1 1 -3.5 2t-3.5 2q-18 9 -22 13q-5 3 -13 11t-12 11q-17 12 -39 50q-7 12 -15 35q-8 26 -11 41q-1 5 -2.5 16t-2.5 16q0 7 -1 11q-3 41 -2 49v23v24q1 22 -3 92q-1 44 7 96q1 8 6 26.5t7 29.5q1 1 1.5 3.5t1.5 3.5q2 1 2 16
q-1 10 2 17.5t9 16t8 14.5q1 2 4 5.5t4 5.5t4 5t4 5q1 1 1 2t1 2l8 8l1 1h2l1 2l3 1l1 2q3 2 12.5 7t14.5 9q62 16 76 16q23 3 54 -1q33 -4 46 -10q18 -8 26 -15q21 -16 23 -18q13 -8 22 -21q14 -14 26 -38q15 -32 18 -46q1 -2 2 -6t2 -6q11 -45 16 -78zM441 331q6 71 2 118
q-7 45 -12 62q0 2 -5 21q-6 26 -10 38q-2 6 -8 18t-8 17l-6 9t-7 9l-9 9t-7 8q-23 21 -35 27q-50 25 -108 21q-3 0 -32 -6q-3 -1 -11 -3.5t-12 -4.5q-23 -6 -38 -18l-1 -2h-2q-1 0 -1 -1q-3 -2 -22 -27q-8 -20 -12 -29q-6 -23 -6 -25q0 -4 -1 -10t-1 -10q0 -8 -7 -13
q-2 -1 -3 -4.5t-1.5 -9t-1.5 -7.5q0 -1 -1.5 -3.5t-1.5 -4.5q-1 -3 -1 -9q-8 -62 -7 -117q0 -12 0.5 -37.5t0.5 -38.5q0 -42 3 -77q4 -51 19 -90q2 -6 7.5 -17.5t7.5 -18.5q2 -2 4.5 -6.5t4.5 -6.5q1 -3 4 -7.5t4 -6.5q1 -1 6 -4.5t7 -7.5q2 0 3 -2q2 -2 3 -2q6 -4 17 -15
q3 -3 13 -11q1 -1 29 -12q4 -2 14 -6l15 -6q7 0 19.5 -1.5t18.5 -1.5q5 1 16 4t17 3q36 21 46 28q4 3 18 19q2 3 6 10t6 10q17 24 32 62q14 30 22 72q2 10 3.5 21.5t3 26t2.5 22.5q4 28 4 44zM305 163q-1 -1 -6 -4.5t-8 -4.5q-15 -5 -29 -7q-30 -6 -55 7q-13 7 -32 29
q-15 23 -20 42q-1 5 -4 15t-4 15q-3 14 -5 47q-6 48 -3 90q1 7 1.5 20.5t1.5 20.5q1 8 5 23.5t5 24.5q3 6 6.5 19t6.5 19q-1 1 1 2q0 2 1 3q-1 1 1 1l1 1q1 0 1 2v2q0 2 3 5t3 4q2 3 7 10t8 10q8 8 17 14q13 11 54 11q2 0 13 -2t16 -4q2 -1 6.5 -3.5t7.5 -3.5q14 -3 8 -12
q-4 -3 -6.5 -3t-8 3t-7.5 4q-5 0 -17.5 3.5t-19.5 2.5q-26 -3 -40 -13q-17 -9 -30 -41q-2 -4 -3.5 -8.5t-3 -10t-2.5 -8.5q0 -1 -1.5 -2.5t-1.5 -2.5v-10q-12 -42 -13 -70q-3 -35 -2 -63q0 -4 1 -13t0 -14q0 -2 1 -5.5t1 -7.5q1 -4 1.5 -12.5t0.5 -12.5q1 -4 3.5 -10.5
t2.5 -9.5q1 -4 2 -11.5t1 -8.5q6 -17 12 -26q8 -14 14 -20q3 -4 26 -22q33 -5 39 -5q24 3 40 17q12 12 18 8q5 -4 -1.5 -12t-13.5 -12z" />
    <glyph glyph-name="ordfeminine" unicode="&#xaa;" horiz-adv-x="404" 
d="M349 -10q-17 -12 -24 -1q-2 5 -1.5 7t2.5 7t2 8q1 9 1 24q1 11 1 34.5t1 34.5q-3 3 -5 -2l-1 -2q-3 -1 -4 -4l-1 -2q-2 -3 -3 -5q-3 -3 -5 -11q0 -1 -3 -4t-4 -5q-2 -4 -7 -10t-6 -8q-2 -2 -5 -7t-5 -7q-4 -4 -14.5 -12.5t-14.5 -11.5q-11 -11 -29 -16q-29 -9 -67 9
q-17 8 -39 32q-11 12 -27 46q-18 41 -18 56q0 8 -3 23t-3 22q-1 4 0 12t1 11v24q0 7 8 42q2 12 21 64l6 12l1 2q0 3 2 2q1 2 2 6l2 3q4 8 9.5 17t12.5 19t10 15q10 16 15 23q1 1 4 4.5t5 5.5l1 2q2 1 6.5 4t6.5 4q17 15 29 22q34 18 96 2q2 -1 6.5 -2.5t6.5 -2.5l4 -2
q5 -3 8 -3q0 5 -1.5 15.5t-1.5 12.5q-1 5 -1.5 15t-0.5 15q-1 6 -5 24.5t-5 28.5q-2 4 -4.5 12.5t-4.5 12.5q0 2 -1.5 6t-2.5 7q-9 28 -32 43q-12 7 -23 13q-18 8 -29 9q-14 2 -41 0l-12 -3t-11 -2q-4 -1 -11.5 -2t-11.5 -2q-3 0 -18 -8q-28 -13 -41 -27q0 -3 -5 -5l-9 -21
q-2 -8 -4 -14q2 -10 -4 -13q-8 -5 -16 5q-2 5 3 19q1 3 2.5 10t2.5 10q10 20 13 23q4 4 14 12q24 20 55 27l36 6q24 4 54 2q28 -3 50 -13q6 -3 25 -17q11 -8 18 -18q1 -2 2.5 -4t2.5 -4q12 -18 13 -20q13 -28 21 -85q0 -13 1 -21q0 -6 2.5 -18.5t2.5 -17.5v-16t1 -16
q7 -122 5 -156q-1 -10 -1 -32q0 -4 -1 -14t-1 -15q-2 -40 -2 -122q0 -21 -2 -63v-27t-2 -33zM316 453q-1 1 -3 1q-4 3 -8 4q-1 2 -2 2q-4 2 -12 3.5t-12 2.5q-14 2 -24 0q-5 -2 -14 -1.5t-13 -0.5q-10 -6 -15 -11q-36 -28 -40 -32q-3 -5 -9.5 -14.5t-11.5 -17l-9 -13.5
q-2 -4 -3 -5l-3 -6q-3 -6 -5 -9q-7 -12 -14 -22q-2 -5 -5 -16t-5 -16q-2 -6 -5.5 -17.5t-4.5 -14.5q-14 -58 -5 -108q6 -40 11 -54q8 -21 9 -23q8 -17 24 -33q7 -8 34 -28q32 -9 52 -4q15 4 28 17q8 4 23 23q5 6 11 18q7 15 10 18q1 2 9 15q1 2 5 8.5t6 10.5q3 7 9 13
q7 7 7 18q3 48 5 144q2 43 -4 133q-2 3 -8.5 8.5t-7.5 6.5z" />
    <glyph glyph-name="guillemotleft" unicode="&#xab;" horiz-adv-x="436" 
d="M413 129q2 -14 -8 -14q-7 0 -12.5 3.5t-11.5 10.5t-8 9q-1 2 -5 5t-6 6q-2 2 -2 4l-9 6q-1 1 -2.5 3.5t-3.5 3.5q-5 4 -14.5 13.5t-14.5 13.5t-14.5 13t-14.5 13t-14.5 12.5t-14.5 12.5l-1 2l-1 2q-2 0 -3 1l-3 3q-1 1 -3 1q-1 1 -1 2t-1 2q-3 0 -4 1q-2 2 -5.5 5t-5.5 5
q-3 2 -8.5 7t-8.5 7l-2 1q-1 1 -4 3q-1 1 -4 3.5t-5 3.5t-7 5t-8 6q-16 12 -16 19q0 4 9 13q1 1 3 1l5 3q4 4 5 6q3 4 12 11t12 11q9 12 10 13q8 6 13 10q14 14 22 21q12 11 43 42t49 46l19 19q1 1 4.5 5t5.5 6q1 1 2.5 3.5t3 4.5t4.5 2q5 0 10.5 -1.5t7.5 -4.5t0 -6
q-2 -2 -5.5 -7t-5.5 -7q-9 -9 -15 -12q-15 -14 -49 -50t-54 -53q-9 -10 -27.5 -26.5t-25.5 -23.5q-3 -3 -12 -11.5t-13 -14.5q2 -6 12 -14q0 -1 2 -1t2 -1q5 -5 11 -8q7 -4 13.5 -10t14.5 -13t12 -11q14 -12 40 -36q9 -7 26.5 -23t26.5 -24q6 -5 23.5 -22.5t27.5 -26.5
q0 -1 1 -2t1 -2zM300 544q0 -2 -2.5 -5.5t-3.5 -4.5q-2 -3 -8 -8t-9 -9q-6 -8 -16 -16l-7 -7l-2 -1l-2 -1l-5 -5t-5 -4q-14 -12 -22 -18l-15 -12q-2 -1 -5.5 -4t-5.5 -5l-8 -8t-9 -8q-1 -1 -4 -2.5t-4 -2.5q-5 -4 -16 -15t-18 -16l-30 -24q-5 -4 -14 -12t-14 -12
q-1 -1 -7.5 -6t-8.5 -9q-2 -2 -7.5 -6.5t-6.5 -8.5q0 -3 3.5 -5t4.5 -3l9 -6q9 -5 17 -13l33 -27q6 -5 16 -15q7 -7 16 -13q6 -6 17 -16.5t14 -13.5q5 -5 16 -14t16 -14q11 -12 32.5 -31t29.5 -27q3 -3 12.5 -10t14 -12.5t0.5 -9.5t-11.5 -4.5t-11.5 3.5q-5 2 -10 8t-8 8
q-6 6 -17.5 17t-15.5 15q-8 7 -22 20t-22 20q-2 0 -2 3q-3 3 -12 10t-12 10q-55 55 -67 65q-4 4 -19 12q-3 2 -10.5 6.5t-11.5 7.5q-12 10 -19 14q-13 7 -14 18q2 4 8.5 8.5t8.5 7.5t8.5 7.5t8.5 7.5q1 1 17 14q12 10 17 15q3 3 9 8.5t8 7.5q3 3 10 7.5t9 6.5l24.5 21
t26.5 24q14 12 18 14q6 4 17.5 14t17.5 14q2 4 8.5 8t8.5 7q3 3 8.5 8t8.5 7q1 2 3.5 5t3.5 4l16 16q5 7 8 8q13 -3 16 -13z" />
    <glyph glyph-name="registered" unicode="&#xae;" horiz-adv-x="604" 
d="M553 467q13 -68 0 -183q-4 -41 -17 -88q-22 -63 -28 -76q-12 -27 -20 -39q0 -3 -4 -7q-2 -2 -7 -9.5t-9 -11.5l-1 -1q-1 -1 -4.5 -5t-5.5 -6q-18 -14 -29 -19q-30 -16 -32 -17q-5 -2 -13 -4t-9 -2t-3.5 -1.5t-4 -2t-6.5 0.5q-3 1 -6 -1t-5 -2q-5 0 -18 0.5t-16 -0.5
q-5 0 -34 6q-26 9 -54 24q-3 1 -7 4t-6 4q-4 2 -13 5.5t-12 5.5q-8 4 -11 7q-7 7 -24 16.5t-22 17.5q-2 3 -5 10.5t-4 9.5q-1 1 -1 2t-2 2t-3 3q-1 1 -1 3q-2 1 -4 3.5t-3 3.5l-4 8t-5 9q-1 1 -1 2q-1 2 -1 3q-1 1 -1 2q-1 2 -3 7t-3 6q0 1 -0.5 2.5t-1.5 2.5q-1 0 -2 2
l-1 2q-6 15 -11 23q-13 28 -17 44q-3 7 -5.5 17.5t-4.5 15.5q0 4 -1.5 15t-1.5 15v40q-1 17 4 69q0 16 2 22q0 3 2 9.5t2 9.5q1 2 3 22t8 29q6 10 8 15q1 1 5.5 5t5.5 8q6 15 8 23q2 4 4 12t3 11q1 1 2.5 3.5t2.5 3.5q8 18 9 20q6 10 19 24t17 20q16 19 32 28q2 1 20 13
q8 5 16 8q6 1 11 5q1 0 4 1t5 1q1 2 3 2q3 1 9 2.5t8 1.5l21 3q34 4 49 4q7 -1 20.5 -3t18.5 -2q28 -8 34 -12q6 0 14 -5q14 -11 31 -22l6 -5q6 -4 9 -7q2 -2 3 -4q17 -17 46 -55q2 -4 23 -51q-1 -2 1 -4.5t2 -3.5q1 -6 8 -30.5t9 -39.5zM524 239q11 50 15 128q1 9 0 23
t-1 18q-2 28 -4 41q-1 3 -3 17t-3 20q-1 4 -5.5 23t-8.5 30q-11 33 -53 90q-3 1 -6.5 5.5t-5.5 5.5q-2 3 -7.5 7t-6.5 6q-42 25 -54 29q-37 14 -81 7q-70 -10 -90 -26q-7 -2 -10 -6q-4 -2 -11 -7t-9 -6q0 -1 -2.5 -3.5l-3.5 -3.5q-1 -2 -4 -6l-3 -4q-6 -5 -15.5 -16.5
t-10.5 -12.5q-3 -6 -11.5 -18t-9.5 -14q-1 -3 -3 -8.5l-4 -11t-3 -10.5q-1 -3 -3 -7t-2 -6q-5 -14 -6 -14q-1 -3 -4.5 -9t-4.5 -12q-20 -62 -22 -97q0 -2 -1.5 -23t-1.5 -32q1 -4 0 -12t-1 -12l3 -24q7 -42 25 -84q0 -2 2 -4v-6l3 -3q1 -1 1 -2q1 -2 1 -3q1 -2 3.5 -5
t2.5 -4q0 -4 1 -7q17 -27 25 -45q1 -1 2 -2.5t2 -3.5t2 -3t3 -3.5t3 -4.5q1 0 1 -2t1 -3l2 -2l5 -10q0 -2 1 -3l5 -5q2 -1 5 -4t5 -4q2 -2 7.5 -5t6.5 -4q29 -19 37 -22q4 -2 15.5 -8t16.5 -9q24 -12 40 -17q10 -2 64 -4q1 2 5 2q25 9 52 21q32 23 41 34q28 39 30 43
q15 33 20 60q1 5 9 31t12 42zM438 186q2 -2 6 -5t7 -6t5.5 -6t2.5 -7t-3 -7q-7 -5 -16.5 0t-16.5 14q-14 17 -41.5 45.5t-35.5 38.5q-30 27 -54 54q-5 6 -29 27q-2 2 -7.5 6t-6.5 5l-6.5 6.5t-7.5 5.5q-1 -7 -1.5 -19.5t-0.5 -16.5q1 -9 0 -22.5t-1 -17.5v-61v-31
q0 -22 -2 -29q-3 -2 -10 -2t-10 2q-3 4 -3.5 8t0.5 9t1 7v24q-1 14 -1 45v23q3 52 5 164q0 21 2 55v16q0 3 1.5 7.5t1.5 6.5q0 4 -0.5 14t1.5 14q1 3 3.5 5t6.5 4l6 3q10 8 18 8q4 0 11.5 2t11.5 2q30 0 33 -1q2 -1 6 0t5 1q3 -3 7 -5q12 -3 17 -5q14 -6 40 -26
q12 -12 18 -24q17 -33 15 -64q-4 -47 -40 -70q-3 -2 -8 -4.5t-8 -4.5l-4 -2q-4 -3 -6 -3t-9 -3h-3t-2 -1q-2 0 -5.5 -1.5t-6.5 -2.5h-12l-2 -1q-1 -1 -3 -1t-8 -0.5t-9 -1.5q-3 0 -8.5 1t-8.5 1.5t-5 -0.5q-1 -3 7 -11q1 0 11 -8q3 -2 6 -5q10 -8 13 -11q8 -13 12 -14
q7 -10 16 -16q3 -2 7 -7t7 -8l2 -2l2 -2t2 -3l1 -1q6 -6 9 -8q9 -10 31 -30q13 -16 44 -47zM235 384q21 -8 60 -6q8 1 40 7q19 5 31 16q17 14 26 40q8 25 -2 52q-7 16 -16 27q-14 18 -21 22q-32 19 -68 16q-12 0 -26 -4q-2 -1 -6.5 -2.5t-7 -3t-3.5 -5.5q-2 -5 -3 -11
t-1.5 -14.5t-1.5 -12.5q-3 -34 -1 -121z" />
    <glyph glyph-name="macron" unicode="&#xaf;" 
d="M55 638q24 1 112 -1q9 0 28 0.5t28 0.5q10 0 28 -0.5t27 -0.5q8 2 13 2q6 0 19.5 -0.5t20.5 -0.5h56q38 -2 78 3h3q18 0 19 -12q0 -12 -11 -12q-1 -1 -9 2q-20 0 -70 -1.5t-77 -0.5q-32 1 -99 1q-9 0 -31 -2l-66 3q-10 0 -32.5 0.5t-33.5 0.5q0 1 -3 4t-3.5 5t0.5 7
q0 2 3 2z" />
    <glyph glyph-name="degree" unicode="&#xb0;" horiz-adv-x="266" 
d="M233 630v-23q0 -7 -6 -17q-9 -16 -12 -20q-5 -6 -6 -9l-5 -5l-4 -4q-2 -2 -5.5 -4.5t-4.5 -3.5l-9 -9q-1 -1 -19 -6q-22 -1 -44 0q-3 1 -12 2.5t-14 4.5l-14 7q-5 2 -13 6q-2 1 -6.5 3.5t-6.5 3.5q-1 2 -4.5 6t-5.5 6q-6 9 -8 38q-1 36 27 74q11 16 25 24t25 9h32
q5 0 9 -2.5t7 -2.5q26 0 50 -26q7 -10 9 -13l11 -22q4 -12 4 -17zM200 652q-3 5 -15 17q-7 6 -19 12q-5 3 -13 5.5t-11 3.5q-19 7 -31 -1q-5 -3 -11 -7q-9 -5 -13 -11q-39 -49 -21 -90q9 -11 17 -15q24 -12 37 -13h28q8 0 22 8q16 9 21 20q3 6 5 9q5 8 7 19q0 2 1.5 11
t1.5 14q0 9 -6 18z" />
    <glyph glyph-name="plusminus" unicode="&#xb1;" horiz-adv-x="576" 
d="M209 22q8 0 54.5 1.5t54.5 -0.5q5 0 24.5 0.5t23.5 -1.5q9 1 24 0t20 -1q42 3 44 3q11 1 33 0t32 -1q19 0 22 -2l2 -4q0 -7 -4 -15q-15 0 -43 1t-43 0l-36 -3q-27 -2 -64 1q-46 2 -77 2q-6 0 -19.5 -1.5t-20.5 -1.5h-3l-2 1q-5 0 -21 -0.5t-24 -1.5q-1 -1 -1 0l-1 1
q-4 -1 -12 1t-11 2q-16 -2 -23 -3q-37 0 -48 -2q-5 -1 -15 0.5t-12 0.5q-4 0 -10.5 -0.5t-10.5 0t-7 2.5q-4 12 5 23q3 1 28 1q7 0 32 -1t39 0q13 1 37 -0.5t33 -1.5zM285 454q-3 -121 -3 -122q4 -1 59.5 -1.5t61.5 -2.5q23 5 24 -8q2 -6 -3 -8q-3 -3 -24 -4t-44 -0.5
t-46.5 1.5t-25.5 1v-72v-18q0 -24 -5 -28q-11 -4 -17 2q-1 17 0.5 57t-1.5 61q-6 1 -57 1h-57q-22 0 -23 11q1 11 25 5h56t55 1q1 4 1 12.5v12.5t1 31.5t2 41.5q0 3 1 9t1 9v14q0 1 2 3q3 0 5.5 -1t4 -2.5t4 -3t3.5 -2.5z" />
    <glyph glyph-name="twosuperior" unicode="&#xb2;" horiz-adv-x="347" 
d="M280 451l-2 -6q-2 -1 -26 -1q-4 0 -13.5 -0.5t-15.5 -0.5q-9 0 -26 0.5t-27 0.5q-7 0 -19.5 -0.5t-18.5 -0.5q-25 0 -35 1q-15 -2 -18 -2q-10 2 -12.5 11t8.5 14q1 3 6.5 5t6.5 3q14 12 45 36.5t46 37.5q6 8 9 13l3 3q1 1 1 3t1 3q5 7 7 13q4 9 5 19q6 26 -4 42l-3 3
q-2 2 -2 8q-1 1 -6 5t-7 6l-4 2q-10 6 -14 7q-3 1 -11 3t-11 3q-12 -1 -32 -7q-3 -1 -11.5 -5t-14.5 -5q-11 4 -12 12q3 4 12 8.5l11 5.5q3 1 12.5 3t14.5 4q3 0 11 1t12 0q1 0 3 -0.5t4.5 -1.5t3.5 -1q27 -7 34 -11l20 -20q7 -7 8 -9q6 -13 9 -19q1 -11 1 -34
q-1 -4 -4 -13.5t-4 -15.5l-8 -13q-1 -3 -4 -7t-4 -7q-3 -2 -17 -21q-2 -1 -22 -16q0 -1 -10 -7q-6 -6 -10 -6q-3 -6 -19 -17q-1 -1 -4.5 -4t-5.5 -4q-1 -1 -4.5 -4t-4.5 -6q2 -1 20 -1q21 2 38 0q1 0 2.5 1t2.5 0h58q16 2 22 2q1 0 8.5 -1.5t11.5 -1.5q5 -3 6 -6q3 -1 3 -4z
" />
    <glyph glyph-name="threesuperior" unicode="&#xb3;" horiz-adv-x="303" 
d="M67 495q6 4 16 0q4 0 8 -8q5 -3 8 -8q11 -3 26 -8q42 -2 63 15l20 20q10 19 1 44q-1 1 -6 7t-8 9q-2 1 -8 3q-12 8 -22 8q-3 1 -36 -2q-1 0 -5.5 -2.5t-7.5 -1.5q-7 0 -11 6l-3 4q-4 4 -3 8q3 5 25 5q1 0 46 13q1 1 13 15q17 24 13 40q-1 4 -4 7t-8 6t-7 5q-2 1 -14 5.5
t-19 5.5q-8 0 -21 -5t-19 -6q-1 1 -7 3.5t-7 5.5q0 3 8 5q34 11 48 9q5 0 17 -2q13 -3 14 -4t4 -2t4 -2q2 -1 5 -1q1 -1 3.5 -2.5t4.5 -3t4 -2.5q10 -8 13 -13q1 -3 2.5 -8t2.5 -8q-1 -3 -1 -14q-1 -3 -3 -7.5t-3.5 -8.5t-2.5 -8q-2 -1 -6 -6t-7 -7q-1 -3 -5.5 -6.5
t-5.5 -6.5q3 -2 6 -3.5t7 -3t6 -2.5q2 -3 7.5 -7.5t7.5 -6.5q12 -18 17 -40q-2 -19 -6 -29q-3 -4 -7.5 -11.5t-6.5 -10.5q-5 -3 -15.5 -8.5t-15.5 -8.5q-40 -10 -60 -6q-14 2 -22 6q-3 1 -11 3.5t-12 4.5q-1 1 -6 6.5t-7 10t-1 10.5z" />
    <glyph glyph-name="acute" unicode="&#xb4;" horiz-adv-x="196" 
d="M119 699q20 0 21 -6q0 -4 -1.5 -7.5t-3.5 -6.5t-3 -5l-17 -34q-1 -4 -8 -20q-6 -12 -18 -38q-1 -3 -4 -8.5t-4 -8.5q-1 -2 -2 -4.5t-1.5 -4.5t-1.5 -4t-3 -3q-15 2 -18 8q0 10 3 13q2 2 3 5t3 5q3 3 5.5 9.5t4.5 8.5q8 13 16.5 39.5t15.5 39.5q5 10 6 11q6 11 7 11z" />
    <glyph glyph-name="mu" unicode="&#xb5;" horiz-adv-x="544" 
d="M78 -322q-8 -10 -25 -3q-2 7 1 33q1 22 1 65v263v24l-1 1v2v32v26v40v40q0 2 -0.5 6t-0.5 5q0 5 0.5 18.5t0.5 20.5q0 9 -0.5 28t-0.5 28v37v39v7q-3 138 -3 141q0 14 -3 146q0 5 -2 11t0 11q3 4 11 4t12 -3q2 -5 2 -27v-33q0 -29 2 -69q1 -21 1 -62l3 -6q1 -3 1 -35v-17
q0 -1 -1 -3q0 -10 1 -27t1 -24q0 -3 -0.5 -8t-0.5 -7q1 -1 1 -3t1 -3q-1 -62 10 -165q1 -4 2 -12.5t2 -12.5t2 -13t2 -13t3.5 -11.5l3.5 -10.5q1 -2 1 -6l4 -4q0 -1 0.5 -5.5t1.5 -6.5q2 -2 3 -4q10 -25 16 -32q9 -12 10 -13q18 -18 22 -21q7 -6 21 -16q3 -1 9 -4t10 -4
q29 -11 79 -5q3 1 9 2t9 2t10 1q23 5 39 14q2 2 6 4t6 4q1 0 5 2.5t6 4.5q10 6 22 26q2 4 6 13.5t7 14.5q5 9 8 18q2 2 6 10q7 19 13 52q6 31 6 59q0 8 0.5 17t1.5 20t1 18q0 5 3 20q3 35 3 106v10q1 8 3 28q0 11 1.5 35t1.5 36q0 2 -0.5 5t-0.5 4v77q-2 21 -2 62
q0 3 -1 6.5t-0.5 6t3.5 4.5q5 4 13 2.5t9 -5.5q2 -8 0 -25v-5q0 -3 0.5 -8.5t0.5 -9.5t-1 -12t-1 -11q0 -6 0.5 -18.5t0.5 -19.5q3 -45 2 -56l-3 -33q0 -11 -2 -35v-7q0 -5 -1 -8q0 -1 0.5 -2t0.5 -2q-2 -26 -2 -47q0 -99 -6 -129q0 -2 0.5 -7t0.5 -8t-1.5 -10t-1.5 -10v-40
q0 -1 0.5 -3t0.5 -3v-18q0 -1 0.5 -3t0.5 -3v-3l-1 -2q0 -2 0.5 -5.5t0.5 -5.5t-0.5 -5.5t-0.5 -5.5q0 -4 1 -11t1 -11v-33t1 -32q0 -5 1 -14t1 -13v-6l1 -2q1 -1 1 -3q0 -8 -3 -11q-4 -4 -7 -5q-9 0 -13 5q-5 8 -4 11q1 19 -1 58q0 1 0.5 3t0.5 4q0 41 -1 58l-4 -12
q-2 -10 -3 -12q-1 -3 -5 -10.5t-5 -11.5q-1 -3 -5 -11q-1 -2 -4.5 -5t-4.5 -5q-9 -15 -12 -18q-15 -15 -29 -24q-31 -17 -34 -18q-21 -6 -35 -9q-14 -4 -53 -2.5t-58 9.5q-2 1 -8 3.5t-9 4.5q-12 6 -17 9q-2 2 -7 5.5t-8 5.5q-1 1 -14 11q-8 6 -12 13q-8 12 -10 16
t-7.5 15.5t-8.5 18.5q0 1 -2.5 8t-3.5 12q-2 3 -4 11q0 -9 0.5 -25.5t0.5 -24.5v-54v-243q-1 -15 -1 -88q0 -3 1 -13.5t-2 -11.5z" />
    <glyph glyph-name="paragraph" unicode="&#xb6;" horiz-adv-x="258" 
d="M128 -61q-10 -10 -21 -3q-2 3 0 10q0 4 -1 12.5t-1 13.5q-2 27 0 84q0 53 2 80q0 13 -0.5 39.5t0.5 40.5q1 22 -0.5 62t-1.5 55q-1 19 -1 58t-2 59q-1 15 0 42.5t1 35.5q0 6 0.5 18.5t0.5 17.5q0 3 -2 21q-2 1 -9.5 1.5t-11.5 2.5t-14 6q-5 2 -13 6q-2 1 -6.5 5t-6.5 5
q-1 2 -5 5.5t-5 6.5q-6 9 -8 38q-1 36 27 74q11 16 25 24q9 6 23 9q1 1 4 2l4 1q12 5 15 -6q3 -21 3 -93v-39q2 -25 2 -84v-51q1 -8 0 -23.5t-1 -22.5q1 -4 0 -13t0 -14q-1 -2 0 -6t1 -6q1 -12 1 -32.5v-33.5v-25q3 -28 3 -82q0 -63 -1 -78q0 -13 -1 -22q-1 -6 -1 -16v-16
q0 -8 -0.5 -28t-0.5 -28q0 -2 -0.5 -4.5t-0.5 -3.5v-52q0 -4 1 -12.5t1 -12.5q1 -5 1 -14v-14zM180 762q10 10 21 3q2 -3 0 -10q0 -4 1 -12.5t1 -13.5q2 -27 0 -84q0 -53 -2 -80q0 -13 0.5 -39.5t-0.5 -40.5q-1 -22 0.5 -62t1.5 -55q1 -19 1 -58.5t2 -58.5q1 -15 0 -42.5
t-1 -35.5q0 -6 -0.5 -18.5t-0.5 -17.5q0 -3 3 -15l-1 -4q0 -26 1 -28q0 -1 0.5 -2.5t1 -4t0.5 -4.5t-0.5 -7.5t-0.5 -8.5q0 -6 0.5 -21t-0.5 -22q-1 -3 1 -6t2 -5q-1 -3 0 -15.5t1 -14.5q0 -3 1 -10.5t0.5 -13.5t-3.5 -10l-8 -4q-12 -5 -15 6q-3 21 -3 82v39q-2 25 -2 84v51
q-1 8 0 23.5t1 22.5q-1 5 0 14t0 13q1 2 0 6t-1 6q-1 12 -1 32.5v33.5v25q-3 28 -3 82q0 63 1 78q0 13 1 22q1 6 1 16v16q0 9 0.5 28t0.5 28q0 2 0.5 4.5t0.5 3.5v52q0 4 -1 12.5t-1 12.5q-1 4 -1 13.5v14.5z" />
    <glyph glyph-name="periodcentered" unicode="&#xb7;" horiz-adv-x="92" 
d="M54 332q-3 -2 -12 0q-9 4 -9 19v41q0 3 0.5 9.5t0.5 9.5v9v9q8 5 18 -2q0 -2 1.5 -5.5t1.5 -6.5v-20q0 -2 1.5 -8.5t1.5 -10.5q1 -5 1 -16l-1 -1q2 -20 -4 -27z" />
    <glyph glyph-name="cedilla" unicode="&#xb8;" 
d="M240 -48q1 -7 -10 -24q-2 -3 -6.5 -9.5t-6.5 -10.5q30 6 32 6q4 0 8 -0.5t9.5 -1.5t8.5 -1q2 -1 5.5 -2t5.5 -1t6 -0.5t6 -1.5q8 -3 13 -6q17 -8 22 -33q2 -13 -6 -33q-7 -18 -26 -24q-51 -18 -90 -4q-6 2 -21 5t-22 6l-18 9q-1 2 -2 3q-9 6 -5 12q2 4 16 1l15 -5l39 -13
q8 -2 14 -3q1 0 4 0.5t5 0.5q2 1 5 0t4 -1q10 2 16 2q29 5 34 8q15 7 15 32q0 19 -22 27q-10 4 -19 4h-23l-21 -6l-12 -3q-21 -9 -23 -9q-13 6 -9 17q1 1 3 3.5t3.5 5t2.5 4.5q2 2 5 8t5 8q17 26 21 34q0 3 3 3q13 -2 16 -7z" />
    <glyph glyph-name="onesuperior" unicode="&#xb9;" horiz-adv-x="224" 
d="M131 423q-3 4 -5 16q0 7 2 17v24q1 6 0 16.5t-1 13.5l3 54v30q0 4 1 13t1 14q0 2 -0.5 6t-0.5 5q0 3 1.5 19t-0.5 19q-4 0 -13 -7q-7 -2 -18.5 -10t-18.5 -10q-13 2 -16 13q2 5 9.5 8.5t9.5 4.5q9 5 39 27q9 7 14 8q8 2 17 -6q1 -4 1 -23v-12q0 -1 -0.5 -3t-0.5 -3l1 -1
v-3q-2 -16 -2 -23q-1 -5 0 -13t1 -11l-3 -36q-1 -52 2 -117q0 -2 1.5 -6t1.5 -7q2 -14 -6 -19q-5 -3 -20 2z" />
    <glyph glyph-name="ordmasculine" unicode="&#xba;" horiz-adv-x="575" 
d="M66 548q2 7 11 26q1 1 2 3.5t1 3.5q2 9 8 17q10 16 16 23q13 18 30 35q0 1 1 1q45 36 67 41q55 13 63 13q50 -3 51 -3q34 -7 46 -10q29 -8 57 -23q22 -11 45 -33q12 -11 22 -23q7 -9 15 -27q15 -29 20 -85q1 -11 3 -36t3 -36q0 -7 1 -10q0 -9 1 -34t1 -34q1 -23 0 -47
q2 -59 -6 -83l-6 -21q0 -1 -1 -3q-2 -4 -2 -6l-3 -12q-1 -3 -8 -17q-4 -14 -9 -24q-2 -3 -4 -9q-1 -1 -5 -9.5t-7 -12.5q-6 -11 -22 -31l-18 -24q-4 -7 -20 -23q-40 -36 -83 -41q-34 -3 -57 -1q-3 0 -9 0.5t-8 0.5q-18 2 -19 3q-3 1 -9.5 2t-9.5 1q-9 3 -10 3q-2 1 -5 2
t-4 2q-1 0 -3.5 1t-4.5 2q-1 0 -4 0.5t-4 1.5q-5 1 -10 6h-1q-2 0 -2 1q-2 2 -7.5 4.5t-7.5 3.5q-8 6 -13 10l-2 1q-3 2 -4 3q-1 0 -5 4q-1 1 -2 1t-2 1l-3 3q-6 4 -10 9q-12 11 -26 28q-3 3 -21 40q-5 11 -10 31.5t-6 23.5q-5 16 -5.5 46.5t-1.5 36.5q-6 41 -5 75
q2 10 2 16q1 6 1.5 21.5t0.5 21.5q1 11 1 34q2 6 2 9q0 2 -0.5 5t-0.5 4q0 7 2 18.5t2 14.5q2 25 5 34zM92 132q1 -4 8 -16q1 -2 8.5 -14t12.5 -17q1 -1 1 -2t1 -2l13 -13q19 -17 31 -23l2 -2q4 -2 5 -2q1 -1 3 -2l2 -1q8 -6 20 -11q13 -7 37 -10q28 -6 43 -7q32 -2 56 4
q7 2 25 11l9 3q5 3 13.5 8.5t12.5 7.5q3 5 7 5q29 32 50 64q1 2 3.5 5.5t2.5 4.5q1 0 1 1q-1 1 0 2q1 0 2 1t1 2v2l3 3q1 5 5 15q0 1 1.5 3t2.5 4q1 1 5 11t6 14q0 3 1 4q1 6 6 19q0 4 1 5q6 18 8 32q4 22 4 36q3 74 -4 172q-1 9 -3.5 37.5t-4.5 43.5q-6 31 -15 53
q-3 9 -15 27q-2 3 -6.5 8.5t-5.5 6.5l-3 3l-1 2q-1 1 -3.5 2.5t-4.5 3t-4 2.5q-7 6 -44 28q-10 5 -56 16q-7 1 -21.5 3t-21.5 4q-2 1 -8 1t-8 1q-16 0 -44 -6q-5 -1 -15 -4t-15 -4q-4 -3 -12 -7.5t-12 -7.5q-18 -13 -23 -15q-1 -2 -10 -11q-2 -1 -3.5 -4.5t-2.5 -4.5t-2 -1
t-2 -1q-2 -2 -4 -6t-6 -6q-2 -2 -4 -6q-1 -2 -2 -3q-1 -2 -3 -4q-4 -4 -7 -12q-1 -1 -4 -7q0 -4 -4 -8q-1 -6 -6 -15q-4 -11 -5 -14q-3 -10 -8 -40q-6 -25 -7 -43v-24q-1 -23 -6 -96q0 -4 -0.5 -12t-0.5 -11q0 -35 5 -73q1 -4 1 -12v-12q4 -35 6 -41q11 -43 12 -48z" />
    <glyph glyph-name="guillemotright" unicode="&#xbb;" horiz-adv-x="377" 
d="M154 58q4 8 11 17.5t10 14.5q3 6 9.5 15.5t9.5 14.5q2 5 9 14l7 8q4 8 7 11q0 1 2 3q0 2 1 3l5 5q0 2 1 3l7 7l3 6t3 5t2.5 3t3 4.5t2.5 3.5q1 2 3.5 5.5t3.5 5.5q8 9 20 29t20 29q2 3 5 8t5 7q1 1 13 18q0 1 8 9.5t10 14.5q-3 7 -13.5 16.5t-11.5 10.5q-2 2 -7 6t-7 6
q-6 8 -14 13q-5 3 -13.5 13.5t-11.5 13.5q-2 1 -6 6t-7 7l-10 10l-16 16q-4 4 -17.5 18t-22.5 21q-1 0 -8 5q-13 10 -15 11q-1 1 -3 2l-1 1l-3 3q-14 12 -30 21q-28 14 -21 29q4 3 17 -1q1 0 3 -2q1 -1 2 -1q5 -3 13 -9q25 -19 34 -24q4 -4 15 -12t15 -13q25 -21 57 -55
q1 0 3 -3.5t4 -4.5l2 -1l2 -1q1 0 3 -5q5 -5 14.5 -14t13.5 -13q2 -1 4.5 -4t5 -5t5.5 -3l28 -28q2 -2 7.5 -6t8.5 -6q12 -7 12 -17v-3q-1 -4 -3 -6.5t-5 -5t-5 -5.5q-15 -17 -18 -23q-3 -3 -8.5 -11.5t-9.5 -11.5q-2 -4 -7 -10t-6 -8q-14 -22 -16 -25q0 -1 -2 -3t-2 -3
q-1 -1 -2 -3.5t-2 -3.5q0 -1 -2 -2.5t-2 -2.5q-7 -12 -8 -13q-2 -3 -8 -11.5t-9 -12.5q-12 -16 -17 -24q-4 -7 -15 -26q-2 -4 -8 -9.5t-7 -7.5q0 -1 -1 -3.5t-2 -3.5t-2 -1t-2 -1q0 -2 -1 -3q0 -1 -1.5 -2.5t-2.5 -3.5q-6 -8 -7 -14q-7 -13 -14 -13q-6 -1 -12.5 3t-4.5 8z
M245 331q0 -5 -1 -7t-4 -4t-4 -3q-2 -3 -6.5 -6.5t-5.5 -5.5q-2 -3 -7 -10t-7 -11q0 -1 -5 -8l-4 -4q-6 -8 -9 -13q-4 -6 -6 -8q0 -1 -1 -1l-1 -2l-4 -6q-3 -6 -5 -8l-1 -1q-3 -6 -4 -7q0 -1 -1 -1l-2 -1q-1 -1 -1 -2.5v-2.5l-2 -1q-1 0 -1 -1l-1 -1q0 -2 -1 -2
q-3 -5 -9 -13l-2 -1q-1 -1 -1.5 -3t-0.5 -3q-2 0 -2 -1v-2l-3 -1v-3q-1 -2 -9.5 -13.5t-12.5 -17.5t-14 -20q-2 0 -2 -1v-2q-1 0 -3 -1q-2 -6 -12 -15.5t-13 -15.5q-1 -3 -5.5 -8t-5.5 -8q-1 -7 -12 -11q-12 1 -13 10q-1 5 8 19q3 2 6 6.5t5 6.5q4 4 10 12q2 3 5 7t5 7
q7 8 19 26q13 18 37 54q35 48 38 53q2 3 6 8.5t7 10t5 8.5t9 12t9 14q-1 5 -10 14q-2 2 -6 5.5t-6 5.5t-4.5 6t-3.5 5q-2 1 -5.5 3t-5.5 4q0 2 -1 3l-7 7l-2 1q-2 1 -3 2l-2 2q-1 2 -2 3q-5 5 -17 16.5t-18 17.5q-12 11 -38 32.5t-38 32.5q-1 1 -6 4.5t-6 6.5q-9 9 -6 15
q2 2 4 2t5.5 -1t5.5 -1q4 -2 9.5 -6.5t8.5 -6.5q4 -2 11 -9.5t11 -9.5q4 -4 11 -9.5t10 -8.5t18.5 -16t22.5 -21q5 -2 11.5 -9t9.5 -9q5 -5 13 -13.5t11 -11.5q2 -2 7 -5t7 -5q1 -1 2.5 -3.5t3.5 -3.5q1 -1 3 -2.5t3 -2.5q6 -7 9 -10q3 -2 8 -4t8 -4q9 -6 9 -13z" />
    <glyph glyph-name="onequarter" unicode="&#xbc;" horiz-adv-x="432" 
d="M381 153q1 -5 -0.5 -7.5t-5.5 -4t-5 -1.5q-12 2 -19 1q-2 0 -5 -2t-6 -1q-1 -5 -1 -18q0 -12 0.5 -40t0.5 -42l1 -2q1 -1 0 -2q0 -2 1.5 -17.5t-1.5 -19.5q-9 -4 -19 3q-2 4 -2 10t1 13.5t1 11.5t-0.5 8.5t-1.5 10t-1 9.5q0 10 2 28q0 1 -1 3l-1 2q2 33 0 45
q-8 1 -22.5 2t-16.5 1q-4 1 -14.5 2t-16.5 3t-8 6v27q3 15 3 50.5t1 43.5q14 2 19 -1q3 -3 3 -20q0 -3 0.5 -10t0.5 -11q0 -3 -1.5 -11t-2 -15t-0.5 -14v-24q1 -3 13 -5q23 -4 41 -3q2 64 0 99q0 3 -1 8t-1 8t2 6q5 4 16 1q4 -5 4 -38v-20q1 -17 1 -63q6 -4 21.5 -2.5
t18.5 -2.5q0 -2 1 -3t1 -2zM297 696q0 -4 -5 -12q1 -3 -0.5 -6.5t-1.5 -6.5t-1 -7t-1 -7t-1 -8t-1 -8q-1 -6 -4 -16t-4 -15q-5 -25 -7 -33l-2 -3q-1 -2 -1.5 -5.5t-0.5 -5.5l-3 -6q0 -6 -1 -9q0 -2 -1.5 -4t-1.5 -4q-1 -3 -2.5 -12t-2.5 -12q-2 -1 -2 -2q-1 -2 -1 -6t-1 -6
l-2 -4t-1 -4q0 -6 -1 -9q0 -1 -3 -7q-3 -9 -3 -20q-6 -20 -10 -30q-5 -15 -16 -47t-17 -49q-1 -1 -1.5 -3.5t-0.5 -3.5h-3q1 0 0 -1q-1 -3 -2 -11.5t-3 -13.5v-4t-1 -4q0 -1 -1.5 -2.5t-1.5 -2.5t-1 -3.5t-1 -3.5q-1 -3 -5.5 -13.5t-5.5 -13.5q-2 -8 -7 -19l-4 -8
q-1 -2 -2.5 -6.5t-2.5 -6.5q-1 -4 -5 -16q-2 -3 -5 -12q-4 -21 -10 -36q0 -1 -14 -37t-21 -55q-4 -15 -5 -20l-3 -9q-1 -1 -1 -6t-2 -6q-1 -4 -6 -9.5t-6 -9.5q-12 -7 -23 4q0 3 7 16q1 5 8 15q2 8 8 21.5t8 19.5q1 4 5 12t5 12q0 7 1 11q0 1 1 3q2 4 2 6q1 2 1.5 5t0.5 5
q1 2 3 4t2 3q1 2 2.5 8t3.5 11q0 2 2 4q0 2 2 6.5t3 7.5q1 1 1 2.5t1 2.5q0 1 2 3q2 6 3 8q1 3 5 12.5t6 14.5q20 62 23 70q5 15 14.5 41.5t11.5 32.5q8 28 26 83t26 85q4 26 12 60q3 24 9 42q8 34 8 35q2 3 3.5 10.5t2.5 10.5q0 2 1.5 5.5t1.5 6.5q-2 3 2 9q16 5 19 -8z
M73 465q-5 -1 -17 4q-1 3 -1.5 7t0 8.5t-0.5 9.5q0 8 -3 77q-1 38 -1 113q1 1 1 4v5.5t2 2.5q10 0 14 -6q0 -6 1 -9q1 -7 1.5 -23t0.5 -21q0 -4 1 -10t1 -9q1 -12 1 -34.5v-35.5q5 -67 5 -70v-2l1 -1q1 -6 -6 -10z" />
    <glyph glyph-name="onehalf" unicode="&#xbd;" horiz-adv-x="483" 
d="M431 4q1 -1 0 -2t-1 -2q-7 -4 -29 -2q-1 0 -8 -1t-12 -1q-71 4 -119 0q-2 0 -7 -1.5t-8 -1.5q-2 0 -12 5q0 1 -3.5 3.5t-2.5 5.5t18 11q2 2 20 13q4 1 6 7l8 4q1 0 1 1t1 2q6 3 7 4q2 1 5 3t5 4l3 3q2 0 3 1l9 9q1 1 2 1h1l1 3q1 3 2 3q10 8 12 8q20 20 29 33
q13 28 17 42q0 44 -7 53q-3 6 -13 13q-6 4 -13 4q-2 1 -13.5 0t-13.5 -1q-16 -7 -21 -11q-4 -1 -9.5 -7t-10.5 -7q-8 0 -15 15q11 10 43 22q22 7 51 6l14 -7q7 -3 17 -12q15 -12 15 -36q0 -4 0.5 -13.5t0.5 -14.5q0 -4 -2 -11t-2 -10l-10 -20l-12 -18q-3 -2 -6 -7t-5 -6
q-2 -5 -15 -18l-9 -9q-9 -6 -10 -7l-3 -3t-4 -2q-1 -1 -4 -3l-2 -2l-1 -2l-5 -5t-6 -5h-3q-1 0 -3 -2t-4 -3q-1 -2 -4 -4t-4 -3t-3.5 -3t-3.5 -4q4 -2 8.5 -2.5t10 0.5t8.5 1t6 -0.5t4 -0.5t5 0.5t7 0.5q7 0 22.5 -1t23.5 -1h23q4 0 10.5 1t9.5 1l1 -1q3 0 8 -7q1 -1 1 -3z
M398 701q0 -3 -16 -46l-9 -24q-4 -10 -7 -21q-3 -7 -8.5 -22t-8.5 -21q-14 -34 -17 -44q-8 -15 -16 -45q-28 -59 -29 -61q-24 -54 -28 -62q-16 -28 -22 -40q-4 -9 -17 -41q-10 -26 -22 -43v-2t-1 -1l-2 -4l-3 -6q-3 -7 -9 -20t-8 -17q-1 -1 -1 -4t-1 -5q-1 -3 -5.5 -11
t-6.5 -13q-2 -2 -4.5 -7l-3.5 -7q-1 -1 -3 -5t-4 -6l-17 -34l-6 -15q-1 0 -1 -2v-3q-5 -10 -15 -26q-1 -2 -3 -8q-3 -2 -5 -5q-1 -3 -2.5 -11t-4 -12.5t-8.5 -6.5q-8 0 -10 3l-8 8q0 9 7 16l3 6t4 6q1 8 8 20q2 3 5.5 10l5.5 11q4 6 11 19t12 20q9 27 29 62q0 3 4 8.5
t5 10.5q8 18 36 79q1 1 3.5 4t3.5 5t2.5 7.5t2.5 7.5q4 7 7 14q2 4 7 16.5t10 20.5q4 7 15.5 29.5t17.5 35.5q17 46 26 64q0 1 1.5 3t2.5 4q1 1 1.5 4t0.5 4q1 2 3.5 6.5t3.5 6.5q12 24 17 55q4 8 12 26l12 27q14 32 18 44q12 40 14 45q16 0 21 -7zM122 455q-3 1 -3 -1
q-6 -1 -20 9q0 1 -1 6t-1 9q0 3 1 9t1 9q1 3 0 8t-1 7q0 4 1 13t0.5 16.5t-2.5 12.5q4 8 4 21q0 1 -1 3.5t-1 3.5q1 7 -0.5 22t-1.5 21q0 2 0.5 8t0.5 9t-1.5 15t-0.5 19q-2 2 -5.5 -0.5t-5.5 -2.5q-1 -2 -4 -4t-5 -4q-2 -8 -9.5 -12t-13.5 5q0 2 -1.5 4.5t-0.5 4.5
q0 3 1.5 5t4 4t3.5 3q1 2 4.5 5t4.5 5q17 14 21 14t12 -4q2 0 5 -1t5 -2q0 -1 1 -3t1 -3q1 -6 1 -22l3 -24v-23q0 -3 1 -6.5t1 -5.5q0 -20 3 -30q-1 -7 0.5 -16t1.5 -12q-5 -17 -3 -30q0 -2 1.5 -5t0.5 -6l-1 -1v-1q2 -5 1 -8q0 -2 3 -11q2 -28 -5 -33z" />
    <glyph glyph-name="threequarters" unicode="&#xbe;" horiz-adv-x="594" 
d="M382 696q0 -4 -5 -12q1 -3 -0.5 -6.5t-1.5 -6.5q-1 -3 -1 -7t-1 -7t-1 -8t-1 -8q-1 -6 -4 -16t-4 -15q-5 -25 -7 -33l-2 -3q-1 -2 -1.5 -5.5t-0.5 -5.5l-3 -6q0 -6 -1 -9q0 -2 -1.5 -4t-1.5 -4q-1 -3 -2.5 -12t-2.5 -12q-2 -1 -2 -2q0 -2 -1 -6t-1 -6t-1 -4l-2 -4
q0 -6 -1 -9q0 -1 -3 -7q-3 -9 -3 -20q-6 -20 -10 -30q-5 -15 -16 -47t-17 -49q-1 -1 -1.5 -3.5t-0.5 -3.5h-3q1 0 0 -1q-1 -3 -2 -11.5t-3 -13.5q-1 -1 -1 -4v-4t-1.5 -2.5t-1.5 -2.5q-1 -1 -1 -3.5t-1 -3.5q-1 -3 -5.5 -13.5t-5.5 -13.5q-2 -8 -7 -19l-4 -8
q-1 -2 -2.5 -6.5t-2.5 -6.5q-1 -4 -5 -16q-2 -3 -5 -12q-4 -21 -10 -36q0 -1 -14 -37t-21 -55q-4 -15 -5 -20l-3 -9q-1 -1 -1 -6t-2 -6q-1 -4 -6 -9.5t-6 -9.5q-12 -7 -23 4q1 3 7 16q1 5 8 15q2 8 8 21.5t8 19.5q1 4 5 12t5 12q0 7 1 11q0 1 1 3q2 4 2 6q1 2 1.5 5t0.5 5
q1 2 3 4t2 3q1 2 2.5 8t3.5 11q0 2 2 4q0 2 2 6.5t3 7.5q0 1 1 2.5t1 2.5t2 3q2 6 3 8q1 3 5 12.5t6 14.5q20 62 23 70q5 15 14.5 41.5t11.5 32.5q8 28 26 83t26 85q4 26 12 60q3 24 9 42q8 34 8 35q2 3 3.5 10.5t2.5 10.5q0 2 1.5 5.5t1.5 6.5q-2 3 2 9q16 5 19 -8z
M528 138v-6q-5 -4 -16 -3.5t-17 -1.5q-12 2 -19 1q-3 0 -2 -17.5t1 -20.5q0 -1 2.5 -22t1.5 -33q0 -3 1.5 -8t1.5 -8q0 -10 -4 -15q-11 -3 -20 0q-9 10 -3 31q0 13 -3 23q0 51 -2 66q-1 2 -7 2.5t-7 1.5h-60q-15 -4 -18 -4q-6 0 -9 3q-6 4 -9 18.5t-4 16.5q1 4 6 16v36.5
t1 34.5q-1 8 -1 19q-1 11 0 19q5 6 14.5 3.5t11.5 -8.5v-43q0 -4 -1 -11t-1 -10q-2 -19 0 -37q1 -11 6 -20q1 -2 0.5 -6.5t1.5 -6.5q14 -1 39 0t34 1q3 4 3 26v27q0 48 -1 56q0 1 -3 13t-1 19q5 4 21 -4q1 -8 3 -22t3 -26t0 -24l-1 -1q-1 0 0 -1v-21q0 -12 2 -42q9 -2 42 1
q10 -5 12 -8q-1 -1 0 -2t1 -2zM67 486q7 4 17 0q4 0 8 -7q5 -3 8 -8q13 -3 25 -8q42 -1 66 15q19 19 20 21q10 20 1 43q-10 14 -14 18q-2 1 -8 3q-12 8 -23 8q-3 1 -36 -2q-2 0 -6.5 -2.5t-7.5 -1.5q-7 0 -11 6l-4 4q-3 4 -2 8q3 4 24 4q11 1 28.5 7.5t19.5 7.5q4 3 14 15
q17 24 13 41q-1 4 -4 7t-8 6t-7 5q-2 1 -14.5 5t-19.5 5q-7 0 -20.5 -6t-20.5 -4q-13 5 -14 8q0 3 8 5q4 1 11.5 4t12 4.5t11.5 2.5t14 0q8 0 17 -3q7 -2 15 -5q2 0 4 -2t4 -2q2 -1 5 -1q10 -6 12 -7q10 -8 13 -13q2 -4 4 -16v-16q0 -10 -9 -23q-2 -3 -6.5 -7t-6.5 -6
t-5.5 -7t-5.5 -8q2 -1 9 -3.5t10 -4.5q8 -6 14 -14q18 -22 19 -41q2 -19 -6 -31q-10 -16 -15 -21t-16.5 -10t-14.5 -7q-40 -12 -62 -8q-8 1 -22 8q-2 1 -10.5 3.5t-12.5 4.5q-18 14 -15 26z" />
    <glyph glyph-name="questiondown" unicode="&#xbf;" horiz-adv-x="359" 
d="M312 -100q-5 -28 -19 -47q-1 -1 -2.5 -3t-2 -3.5t-2 -3l-2.5 -2.5q0 -1 -2 -1t-2 -1q-2 -2 -2 -4q-12 -10 -41 -28q-1 -1 -4 -2t-4 -1q-1 -1 -4 -1.5t-4 -0.5q-20 -6 -31 -6h-32q-8 0 -28 2q-11 1 -42 17q-8 5 -13 10l-3 3t-3 2q-3 1 -8 5.5t-8 5.5q-1 1 -3.5 2.5t-3.5 3
t-1 4.5q6 12 20 6q4 -3 13.5 -11t15.5 -11q23 -14 40 -18q14 -3 65 -1q10 2 18 4q45 17 59 45q10 18 12 32q3 13 -1 52q-2 19 -7 35q-4 16 -7 23q-1 4 -3 8q-1 1 -2 5t-2.5 6.5t-2.5 3.5q-4 3 -4 5q-1 1 -2 3t-2 3q-5 10 -11 16q-1 1 -4.5 4t-4.5 4t-2.5 3t-2.5 4
q-1 1 -10.5 12.5t-16.5 15.5q-2 1 -4.5 3.5t-5 4.5t-5.5 4q-2 1 -13 15q-4 5 -14 14t-14 14q-12 13 -18 32l-9 21q-1 4 -4.5 13t-5.5 14q-3 12 -7 31q-1 2 -3.5 14t-3.5 18q-3 15 -3 46q0 40 1 47q2 21 9 24q12 -2 16 -9q2 -5 -3 -26q-3 -24 -1 -54q0 -2 1 -8.5t1 -7.5
q1 -1 0 -1l-1 -1q1 -13 11 -54q8 -37 21 -63q9 -19 26 -36q2 -2 13.5 -14.5t17.5 -17.5l31 -31q19 -17 31 -32q3 -4 13 -21q1 -3 7 -9.5t6 -10.5t6 -16q23 -48 13 -103zM121 464q-5 -5 -12 -4.5t-9 5.5v20q0 5 -0.5 16.5t0 20t3.5 12.5q17 7 19 -3q4 -39 -1 -67z" />
    <glyph glyph-name="Agrave" unicode="&#xc0;" horiz-adv-x="435" 
d="M233 731q-2 -10 -7 -11q-7 -1 -16 11l-4 4l-3 6l-4 4q-4 8 -7 11q-4 4 -10 12q-2 3 -6 7.5t-5 6.5q-7 7 -19 23q-2 2 -3 2q0 3 -1 4l-2.5 2.5t-2.5 3.5t-1 4t1 3.5t2.5 2t2.5 1.5q4 1 7.5 -2.5t6.5 -3.5q8 -10 26.5 -32.5t27.5 -35.5q2 -3 8 -10.5t9 -12.5zM406 0
q-5 5 -9.5 19t-6.5 17l-12 39q-6 15 -14.5 45.5t-9.5 33.5q-9 32 -27 90.5t-21 67.5q-8 0 -16.5 0.5t-19.5 1.5t-17 1q-7 1 -21 1q-6 0 -19 1t-19 1q-44 5 -82 -1q-2 -2 -3 -5.5t-1.5 -7.5t-1.5 -6q0 -4 -3 -10t-3 -9q-14 -43 -24 -88q-25 -112 -28 -127q0 -3 -1 -9.5
t-2 -9.5q-6 -26 -8 -36q-2 -12 -6 -14q-15 -8 -19 4q-2 5 2 11.5t4 9.5q10 42 13 64q1 2 2 8t2 8q1 13 7 32q4 14 10 43t12 52.5t13 43.5q2 4 3 7q7 20 10 38q0 1 1 7t2 10q0 3 2 8t2 7q2 18 4 26q0 2 1.5 7t2.5 8q0 5 1 8l9 30q4 16 10 48.5t10 47.5q1 7 5 21t5 20
q3 12 9 43q2 11 11 41q0 1 1.5 9.5t2.5 12.5q1 2 3.5 8.5t3.5 9.5q1 2 1.5 6.5t0.5 6.5q-1 3 0 5q3 3 8 4q8 2 11 -1q3 -1 8 -17q1 -2 2.5 -5.5t2.5 -6.5t1 -6q1 -6 4.5 -15.5t4.5 -13.5q0 -4 2 -10q0 -1 7 -17q3 -9 11 -29q26 -68 34 -96q2 -7 15 -54.5t21 -72.5l9 -24
q0 -5 1 -7q0 -2 3 -5q1 -2 2 -7t1 -7q3 -13 11.5 -38t11.5 -36q1 -1 6 -20q1 -4 8 -25q2 -4 4 -14l6 -21q15 -66 38 -117q1 -4 3.5 -11.5t2.5 -8.5q8 -10 6 -18q1 -1 -3 -3l-2 -1l-2 -1h-1q-1 -1 -3 -2h-6zM190 665q-3 -7 -7 -24.5t-8 -24.5q0 -3 -9 -47q-8 -30 -11 -46
q-10 -46 -14 -70q-1 -3 -2 -11t-3 -13q-7 -23 -11 -40q-10 -42 -11 -53q15 -1 45 1q32 3 57 0q12 -2 36 -2q37 -2 46 0q0 1 -3 14q-1 4 -28 96q-1 6 -4.5 16t-4.5 15q-2 4 -4 17q-7 23 -33 91q-3 8 -10 25.5t-7 18.5q-2 7 -4 17l-6 21l-1 2l-1 1z" />
    <glyph glyph-name="Aacute" unicode="&#xc1;" horiz-adv-x="435" 
d="M406 0q-5 5 -9.5 19t-6.5 17l-12 39q-6 15 -14.5 45.5t-9.5 33.5q-9 32 -27 90.5t-21 67.5q-8 0 -16.5 0.5t-19.5 1.5t-17 1q-7 1 -21 1q-6 0 -19 1t-19 1q-44 5 -82 -1q-2 -2 -3 -5.5t-1.5 -7.5t-1.5 -6q0 -4 -3 -10t-3 -9q-14 -43 -24 -88q-25 -112 -28 -127
q0 -3 -1 -9.5t-2 -9.5q-6 -26 -8 -36q-2 -12 -6 -14q-15 -8 -19 4q-2 5 2 11.5t4 9.5q10 42 13 64q1 2 2 8t2 8q1 13 7 32q4 14 10 43t12 52.5t13 43.5q2 4 3 7q7 20 10 38q0 1 1 7t2 10q0 3 2 8t2 7q2 18 4 26q0 2 1.5 7t2.5 8q0 5 1 8l9 30q4 16 10 48.5t10 47.5q1 7 5 21
t5 20q3 12 9 43q2 11 11 41q0 1 1.5 9.5t2.5 12.5q1 2 3.5 8.5t3.5 9.5q1 2 1.5 6.5t0.5 6.5q-1 3 0 5q3 3 8 4q8 2 11 -1q3 -1 8 -17q1 -2 2.5 -5.5t2.5 -6.5t1 -6q1 -6 4.5 -15.5t4.5 -13.5q0 -4 2 -10q0 -1 7 -17q3 -9 11 -29q26 -68 34 -96q2 -7 15 -54.5t21 -72.5
l9 -24q0 -5 1 -7q0 -2 3 -5q1 -2 2 -7t1 -7q3 -13 11.5 -38t11.5 -36q1 -1 6 -20q1 -4 8 -25q2 -4 4 -14l6 -21q15 -66 38 -117q1 -4 3.5 -11.5t2.5 -8.5q8 -10 6 -18q1 -1 -3 -3l-2 -1l-2 -1h-1q-1 -1 -3 -2h-6zM190 665q-3 -7 -7 -24.5t-8 -24.5q0 -3 -9 -47
q-8 -30 -11 -46q-10 -46 -14 -70q-1 -3 -2 -11t-3 -13q-7 -23 -11 -40q-10 -42 -11 -53q15 -1 45 1q32 3 57 0q12 -2 36 -2q37 -2 46 0q0 1 -3 14q-1 4 -28 96q-1 6 -4.5 16t-4.5 15q-2 4 -4 17q-7 23 -33 91q-3 8 -10 25.5t-7 18.5q-2 7 -4 17l-6 21l-1 2l-1 1zM247 883
q11 0 16 -9v-2q-1 -3 -3 -7l-3 -6q-5 -10 -13 -34q-1 -4 -8 -20q-2 -4 -8 -17.5t-10 -20.5q-4 -12 -8 -17q-5 -14 -8 -16q-15 2 -18 8q0 8 3 13q1 1 2.5 5t3.5 5q3 12 10 19q4 13 15 38t15 40l3 6t3 5q4 8 8 10z" />
    <glyph glyph-name="Acircumflex" unicode="&#xc2;" horiz-adv-x="435" 
d="M406 0q-5 5 -9.5 19t-6.5 17l-12 39q-6 15 -14.5 45.5t-9.5 33.5q-9 32 -27 90.5t-21 67.5q-8 0 -16.5 0.5t-19.5 1.5t-17 1q-7 1 -21 1q-6 0 -19 1t-19 1q-32 3 -82 -4q-2 -3 -4 -10.5t-2 -8.5q0 -3 -3 -8t-3 -8q-14 -43 -24 -88q-25 -112 -28 -127q0 -3 -1 -9.5
t-2 -9.5q-6 -26 -8 -36q-2 -12 -6 -14q-15 -8 -19 4q-2 5 2 11.5t4 9.5q10 42 13 64q1 2 2 8t2 8q1 13 7 32q4 14 10 43t12 52.5t13 43.5q2 4 3 7q7 20 10 38q0 1 1 7t2 10q0 3 2 8t2 7q2 18 4 26q0 2 1.5 7t2.5 8q0 5 1 8l9 30q4 16 10 48.5t10 47.5q1 7 5 21t5 20
q3 12 9 43q2 11 11 41q0 1 1.5 9.5t2.5 12.5q1 2 3.5 8.5t3.5 9.5q1 2 1.5 6.5t0.5 6.5q-1 3 0 5q3 3 8 4q8 2 11 -1q3 -1 8 -17q1 -2 2.5 -5.5t2.5 -6.5t1 -6q1 -6 4.5 -15.5t4.5 -13.5q0 -4 2 -10q0 -1 7 -17q3 -9 11 -29q26 -68 34 -96q2 -7 15 -54.5t21 -72.5l9 -24
q0 -5 1 -7q0 -2 3 -5q1 -2 2 -7t1 -7q3 -13 11.5 -38t11.5 -36q1 -1 6 -20q1 -4 8 -25q2 -4 4 -14l6 -21q15 -66 38 -117q1 -4 3.5 -11.5t2.5 -8.5q8 -10 6 -18q1 -1 -3 -3l-2 -1l-2 -1h-1q-1 -1 -3 -2h-6zM190 665q-3 -7 -7 -24.5t-8 -24.5q0 -3 -9 -47q-8 -30 -11 -46
q-10 -46 -14 -70q-1 -3 -2 -11t-3 -13q-7 -23 -11 -40q-10 -42 -11 -53q15 -1 45 1q32 3 57 0q12 -2 36 -2q37 -2 46 0q0 1 -3 14q-1 4 -28 96q-1 6 -4.5 16t-4.5 15q-2 4 -4 17q-7 23 -33 91q-3 8 -10 25.5t-7 18.5q-2 7 -4 17l-6 21l-1 2l-1 1zM251 730q-1 -2 -4 -5t-14 0
q-3 3 -5 3q-4 8 -5 15q-3 5 -6 15.5t-6 15.5q-3 7 -11 21q-6 10 -16 16q-2 0 -8 -9q-1 -1 -16 -34q-2 -5 -17 -32q-5 -9 -6 -10q-12 0 -17 8q0 2 8 15q3 6 9 16q11 29 13 34q0 1 5.5 9.5t5.5 13.5q0 7 7 16q2 2 12 5h3.5t2 -1t3.5 -1t3 -2t1.5 -5.5t1.5 -4.5q2 -2 9 -9.5
t9 -12.5q3 -4 8 -12.5t7 -10.5q11 -20 13 -26q1 -2 6 -11t4 -17z" />
    <glyph glyph-name="Atilde" unicode="&#xc3;" horiz-adv-x="435" 
d="M343 758q1 -5 -2 -7.5t-10 -5t-10 -3.5q-3 -2 -14 -8t-18 -9q-19 -9 -45 -9q-15 0 -33 8q-3 1 -9 3.5t-9 4.5q-2 1 -8.5 3.5t-8.5 4.5q-1 1 -28 9q-1 0 -7.5 2t-11.5 2q-15 0 -33 -5q-8 -4 -13 -10q-9 -9 -15 -9q-11 2 -12 10q0 2 4 6l3 3q1 0 1 1v2t1 1h2q1 1 4 3.5
t5 3.5q3 3 15 8q6 2 24 4q1 0 3 1q20 2 38 -4q5 -1 29 -11l5 -2q1 -1 2 -1.5t3 -0.5t4 -1q0 -2 1 -2q14 -7 27 -10q17 -3 19 -3q20 2 61 20q2 1 4.5 2.5t4 2.5t4.5 2.5t6 3.5q15 4 17 -10zM406 0q-5 5 -9.5 19t-6.5 17l-12 39q-6 15 -14.5 45.5t-9.5 33.5q-9 32 -27 90.5
t-21 67.5q-8 0 -16.5 0.5t-19.5 1.5t-17 1q-7 1 -21 1q-6 0 -19 1t-19 1q-44 5 -82 -1q-2 -2 -3 -5.5t-1.5 -7.5t-1.5 -6q0 -4 -3 -10t-3 -9q-14 -43 -24 -88q-25 -112 -28 -127q0 -3 -1 -9.5t-2 -9.5q-6 -26 -8 -36q-2 -12 -6 -14q-15 -8 -19 4q-2 5 2 11.5t4 9.5
q10 42 13 64q1 2 2 8t2 8q1 13 7 32q4 14 10 43t12 52.5t13 43.5q2 4 3 7q7 20 10 38q0 1 1 7t2 10q0 3 2 8t2 7q2 18 4 26q0 2 1.5 7t2.5 8q0 5 1 8l9 30q4 16 10 48.5t10 47.5q1 7 5 21t5 20q3 12 9 43q2 11 11 41q0 1 1.5 9.5t2.5 12.5q1 2 3.5 8.5t3.5 9.5q1 2 1.5 6.5
t0.5 6.5q-1 3 0 5q3 3 8 4q8 2 11 -1q3 -1 8 -17q1 -2 2.5 -5.5t2.5 -6.5t1 -6q1 -6 4.5 -15.5t4.5 -13.5q0 -4 2 -10q0 -1 7 -17q3 -9 11 -29q26 -68 34 -96q2 -7 15 -54.5t21 -72.5l9 -24q0 -5 1 -7q0 -2 3 -5q1 -2 2 -7t1 -7q3 -13 11.5 -38t11.5 -36q1 -1 6 -20
q1 -4 8 -25q2 -4 4 -14l6 -21q15 -66 38 -117q1 -4 3.5 -11.5t2.5 -8.5q8 -10 6 -18q1 -1 -3 -3l-2 -1l-2 -1h-1q-1 -1 -3 -2h-6zM190 665q-3 -7 -7 -24.5t-8 -24.5q0 -3 -9 -47q-8 -30 -11 -46q-10 -46 -14 -70q-1 -3 -2 -11t-3 -13q-7 -23 -11 -40q-10 -42 -11 -53
q15 -1 45 1q32 3 57 0q12 -2 36 -2q37 -2 46 0q0 1 -3 14q-1 4 -28 96q-1 6 -4.5 16t-4.5 15q-2 4 -4 17q-7 23 -33 91q-3 8 -10 25.5t-7 18.5q-2 7 -4 17l-6 21l-1 2l-1 1z" />
    <glyph glyph-name="Adieresis" unicode="&#xc4;" horiz-adv-x="435" 
d="M175 755q4 -6 -3 -23q-6 -12 -14 -20q-4 -4 -10 -7q-4 0 -4 -1q-12 -1 -24 4q-2 0 -4 2.5t-4 2.5q-6 2 -9 4q-8 5 -11 22v12q0 2 2.5 5.5t2.5 6.5q0 1 2.5 2t1.5 3q1 0 1 2q1 2 1 3q3 2 8 7.5t8 7.5q5 3 18 3q16 -2 21 -5q8 -4 14 -17q3 -6 3 -14zM211 739q-4 6 3 23
q6 12 14 20q4 4 10 7q4 0 4 1q12 1 24 -4q2 0 4 -2.5t4 -2.5q6 -2 9 -4q8 -5 11 -22v-12q0 -2 -2.5 -5.5t-2.5 -6.5q0 -1 -2.5 -2t-1.5 -3q-1 0 -1 -2q-1 -2 -1 -3q-3 -2 -8 -7.5t-8 -7.5q-5 -3 -18 -3q-16 2 -21 5q-8 4 -14 17q-3 6 -3 14zM406 0q-5 5 -9.5 19t-6.5 17
l-12 39q-6 15 -14.5 45.5t-9.5 33.5q-9 32 -27 90.5t-21 67.5q-8 0 -16.5 0.5t-19.5 1.5t-17 1q-7 1 -21 1q-6 0 -19 1t-19 1q-44 5 -82 -1q-2 -2 -3 -5.5t-1.5 -7.5t-1.5 -6q0 -4 -3 -10t-3 -9q-14 -43 -24 -88q-25 -112 -28 -127q0 -3 -1 -9.5t-2 -9.5q-6 -26 -8 -36
q-2 -12 -6 -14q-15 -8 -19 4q-2 5 2 11.5t4 9.5q10 42 13 64q1 2 2 8t2 8q1 13 7 32q4 14 10 43t12 52.5t13 43.5q2 4 3 7q7 20 10 38q0 1 1 7t2 10q0 3 2 8t2 7q2 18 4 26q0 2 1.5 7t2.5 8q0 5 1 8l9 30q4 16 10 48.5t10 47.5q1 7 5 21t5 20q3 12 9 43q2 11 11 41
q0 1 1.5 9.5t2.5 12.5q1 2 3.5 8.5t3.5 9.5q1 2 1.5 6.5t0.5 6.5q-1 3 0 5q3 3 8 4q8 2 11 -1q3 -1 8 -17q1 -2 2.5 -5.5t2.5 -6.5t1 -6q1 -6 4.5 -15.5t4.5 -13.5q0 -4 2 -10q0 -1 7 -17q3 -9 11 -29q26 -68 34 -96q2 -7 15 -54.5t21 -72.5l9 -24q0 -5 1 -7q0 -2 3 -5
q1 -2 2 -7t1 -7q3 -13 11.5 -38t11.5 -36q1 -1 6 -20q1 -4 8 -25q2 -4 4 -14l6 -21q15 -66 38 -117q1 -4 3.5 -11.5t2.5 -8.5q8 -10 6 -18q1 -1 -3 -3l-2 -1l-2 -1h-1q-1 -1 -3 -2h-6zM190 665q-3 -7 -7 -24.5t-8 -24.5q0 -3 -9 -47q-8 -30 -11 -46q-10 -46 -14 -70
q-1 -3 -2 -11t-3 -13q-7 -23 -11 -40q-10 -42 -11 -53q15 -1 45 1q32 3 57 0q12 -2 36 -2q37 -2 46 0q0 1 -3 14q-1 4 -28 96q-1 6 -4.5 16t-4.5 15q-2 4 -4 17q-7 23 -33 91q-3 8 -10 25.5t-7 18.5q-2 7 -4 17l-6 21l-1 2l-1 1z" />
    <glyph glyph-name="Aring" unicode="&#xc5;" horiz-adv-x="435" 
d="M406 0q-5 5 -9.5 19t-6.5 17l-12 39q-6 15 -14.5 45.5t-9.5 33.5q-9 32 -27 90.5t-21 67.5q-8 0 -16.5 0.5t-19.5 1.5t-17 1q-7 1 -21 1q-6 0 -19 1t-19 1q-44 5 -82 -1q-2 -2 -3 -5.5t-1.5 -7.5t-1.5 -6q0 -4 -3 -10t-3 -9q-14 -43 -24 -88q-25 -112 -28 -127
q0 -3 -1 -9.5t-2 -9.5q-6 -26 -8 -36q-2 -12 -6 -14q-15 -8 -19 4q-2 5 2 11.5t4 9.5q10 42 13 64q1 2 2 8t2 8q1 13 7 32q4 14 10 43t12 52.5t13 43.5q2 4 3 7q7 20 10 38q0 1 1 7t2 10q0 3 2 8t2 7q2 18 4 26q0 2 1.5 7t2.5 8q0 5 1 8l9 30q4 16 10 48.5t10 47.5q1 7 5 21
t5 20q3 12 9 43q2 11 11 41q0 1 1.5 9.5t2.5 12.5q1 2 3.5 8.5t3.5 9.5q1 2 1.5 6.5t0.5 6.5l-1 1q-2 1 -6 1q-1 2 -6 2q-1 1 -6.5 5t-7.5 7q-5 5 -5 11q0 7 1 12q1 0 2 2q1 3 2 4q1 0 1 1v2h1l6 6q0 4 3 4q1 0 2 1q3 3 5 3q16 5 28 3q3 -1 7.5 -4.5t7.5 -4.5q1 -2 5 -6
q4 -1 6 -5q3 -4 3 -7v-1q0 -14 -3 -19q-4 -11 -12 -14l-9 -3q0 -2 1 -5t2 -5t2.5 -5.5t2.5 -6.5t1 -6q1 -6 4.5 -15.5t4.5 -13.5q0 -4 2 -10q0 -1 7 -17q3 -9 11 -29q26 -68 34 -96q2 -7 15 -54.5t21 -72.5l9 -24q0 -5 1 -7q0 -2 3 -5q1 -2 2 -7t1 -7q3 -13 11.5 -38
t11.5 -36q1 -1 6 -20q1 -4 8 -25q2 -4 4 -14l6 -21q15 -66 38 -117q1 -4 3.5 -11.5t2.5 -8.5q8 -10 6 -18q1 -1 -3 -3l-2 -1l-2 -1h-1q-1 -1 -3 -2h-6zM190 665q-3 -7 -7 -24.5t-8 -24.5q0 -3 -9 -47q-8 -30 -11 -46q-10 -46 -14 -70q-1 -3 -2 -11t-3 -13q-7 -23 -11 -40
q-10 -42 -11 -53q15 -1 45 1q32 3 57 0q12 -2 36 -2q37 -2 46 0q0 1 -3 14q-1 4 -28 96q-1 6 -4.5 16t-4.5 15q-2 4 -4 17q-7 23 -33 91q-3 8 -10 25.5t-7 18.5q-2 7 -4 17l-6 21l-1 2l-1 1zM172 718q8 -4 12 -5q15 -2 19 4q7 3 7 18v1l-1 2q0 1 -2.5 2.5t-3.5 4.5l-15 6
q-9 2 -18.5 -6t-6.5 -17q0 -1 9 -10z" />
    <glyph glyph-name="AE" unicode="&#xc6;" horiz-adv-x="668" 
d="M217 321q-3 -3 -9 -14t-8 -14q-1 -2 -46 -77q-2 -2 -2 -4q-2 -2 -2 -3l-2 -1v-3q-2 -2 -4 -3v-2q0 -1 -1 -2q-1 0 -1 -1l-2 -1q0 -6 -1 -7q0 -1 -1 -1l-1 -2q-2 -2 -2 -5q-3 -3 -7 -10t-6 -10q-1 -1 -8 -11.5t-9 -16.5q-5 -3 -10 -16q-7 -8 -17.5 -26t-15.5 -24
q-1 -2 -8.5 -14.5t-10.5 -19.5l-4 -8t-5 -9q-3 -12 -10 -16q-18 3 -21 6q-1 3 0.5 5.5t4 5.5t3.5 5q1 4 4.5 10t3.5 9q5 6 12.5 19t9.5 16q3 5 12.5 21.5t15.5 24.5q2 2 28 40q1 1 10 16.5t13 25.5q2 1 3.5 4.5t3.5 4.5q0 3 4.5 9t4.5 7q3 3 18 29q1 1 1 2q2 1 4.5 6.5
t3.5 7.5q8 12 11 18q4 2 6 10q1 1 2 1q3 9 4 11q2 2 5 9.5t6 11.5q8 10 8 11q5 9 23 42t29 50q1 5 5.5 12t5.5 10q7 16 12 21q2 3 5 11t6 12q6 9 15 27t14 26q2 3 3 4q2 2 2 3l2 4l2 2l1 2q0 1 1 1q1 1 2.5 4.5t2.5 4.5q0 1 2 4t3 5l3 1v2l2 1v2q2 0 2 1l1 4q1 4 3 5
q1 4 3 7t4 7t4 7q3 8 13.5 20.5t13.5 18.5q2 5 6.5 11.5t5.5 8.5q2 2 4 3.5t3 2.5q5 9 27 7q14 -1 49.5 -0.5t44.5 -0.5q3 0 8.5 -0.5t8.5 -0.5q5 0 16 0.5t16 0.5h33q13 2 21 0q4 -1 7.5 -6t2.5 -9q0 -8 -10 -8q-3 0 -8.5 1t-8.5 0q-22 -3 -26 -2h-8h-16q-16 2 -26 3h-14
h-14q-33 2 -58 -1q-2 -19 -2 -84v-167q0 -55 -1 -82q3 -1 8 -1t7 -1t17 -1h37q8 -2 12 -2q11 -1 27.5 -1h26.5h3l3 1l8 -1q9 -1 12.5 -3t3.5 -7q0 -3 -0.5 -5t-3 -3.5t-4.5 -2t-6 0t-6.5 0.5t-7 0.5t-6.5 0.5q-7 0 -21.5 0.5t-19.5 1.5h-41t-49 2q-1 -30 -0.5 -100
t-1.5 -100q-1 -7 0.5 -19.5t1.5 -17.5q-3 -55 1 -66q1 -2 15.5 -2h16.5q7 -1 20.5 0t18.5 1q2 0 6 -0.5t6 -0.5q3 0 8 0.5t7 0.5q3 0 8.5 -1.5t7.5 -1.5q6 -1 19 0t16 1q4 0 9.5 -0.5t7.5 -0.5q20 0 23 -1q5 -2 5 -7q0 -12 -18 -10q-2 -2 -18.5 -0.5t-20.5 1.5q-3 0 -73 1.5
t-81 0.5q-9 -6 -12 0q-2 -1 -2.5 2t-1.5 3q3 25 3 312q-4 1 -38 1h-22q-32 2 -44 2h-101zM252 386q-1 -1 -3.5 -6.5t-4.5 -11.5t-3 -7q-1 -3 -2.5 -6t-2 -5t-0.5 -3q4 -3 9 -3t12.5 1t10.5 1q4 0 11 -1t10 -1q42 0 66 -1h71q1 15 2 76t0 73q-1 1 -1 2q0 11 -0.5 43t-1.5 48
v46q0 26 -2 44q-2 1 -3 -0.5t-2 -5t-2 -5.5q-4 -7 -12.5 -20t-9.5 -14q-10 -16 -17 -23q-2 -6 -7.5 -13.5t-6.5 -11.5q-29 -42 -81 -146q-4 -5 -9.5 -13.5t-6.5 -9.5q-12 -25 -14 -27z" />
    <glyph glyph-name="Ccedilla" unicode="&#xc7;" horiz-adv-x="421" 
d="M373 633q-6 -4 -14 4l-1 1q0 2 -1 3q-7 9 -12 12q-1 1 -4 3.5t-4 3.5q-27 20 -41 25q-27 9 -60 -1q-4 -1 -11 -5t-11 -5l-21 -15q-3 -2 -9 -8l-8 -8q-6 -5 -11 -11.5t-10.5 -15t-8.5 -12.5q-1 -3 -5 -9t-5 -8q0 -1 -1 -3t-1 -3q-1 -2 -2.5 -3t-1.5 -2q-2 -3 -4 -9l-3 -9
q-7 -13 -8 -18l-4 -8t-5 -9q-5 -10 -10 -32q-1 -5 -8 -26.5t-9 -33.5q-12 -75 -14 -99q-1 -12 -1 -35q0 -41 5 -70q1 -3 2 -8t1 -8q1 -3 1 -8q0 -1 1.5 -3.5t1.5 -3.5q1 -3 2 -9t1 -7l9 -24l10 -30q2 -4 6.5 -10.5t8 -12t6.5 -10.5q1 -2 17 -23q0 -1 2.5 -3t2.5 -4
q3 -2 8.5 -6t7.5 -6l2 -2q2 -2 8 -5q3 -2 9 -5.5t8 -5.5q36 -16 52 -19q23 -1 49 8q25 12 40 24q3 2 9 8l9 9q16 19 21 10q4 -10 3 -11q-1 -4 -6 -9q-4 -2 -9 -8t-8 -7q-4 -2 -9 -6.5t-9 -6.5q-3 -1 -8 -6.5t-9 -7.5q-6 -3 -15 -5q-3 0 -6.5 -3t-5.5 -3q-4 0 -17 -1.5
t-22 -1.5q-7 0 -10 1q0 -1 1 -2q1 -7 -10 -24q-2 -3 -6.5 -9.5t-6.5 -10.5q30 6 32 6q4 0 8 -0.5t9.5 -1.5t8.5 -1q2 -1 5.5 -2t5.5 -1t6 -0.5t6 -1.5t10 -6q24 -12 25 -33q3 -10 -6 -33q-7 -18 -26 -24q-51 -18 -90 -4q-4 2 -20 6.5t-23 7.5q-3 1 -9 2.5t-9 3.5q-1 2 -2 3
q-9 6 -5 12q2 4 16 1l15 -5l39 -13q8 -2 14 -3q1 0 4 0.5t5 0.5q2 1 5 0t4 -1q10 2 16 2q29 5 34 8q15 7 15 32q0 19 -22 27q-3 1 -9.5 2t-9.5 2h-23l-21 -6l-12 -3q-21 -9 -23 -9q-13 6 -9 17q1 1 3 3.5t3.5 5t2.5 4.5q2 2 5 8t5 8q17 26 21 34v1q-12 3 -33 12
q-32 15 -46 27q-21 18 -55 79q-19 49 -25 76q-15 72 -10 138q0 3 9 67q2 11 8 41q1 3 2 10t2 11q1 2 3.5 9t3.5 11q4 11 5 20q3 9 15 36q0 2 1 4l2 4q1 1 1.5 3t1.5 4l2 4q0 1 1 3.5t2 3.5q2 5 8 15q12 27 23 41q1 1 4 6t5 7q0 1 1 2t2 2.5t2 2.5q2 4 4 6l8 8l2 1v2q0 1 2 1
t2 1l2 3q2 2 6.5 5t6.5 5q0 2 1 2t17 11q5 3 11 6q1 1 4 1q12 7 14 8q22 5 28 5q10 0 28 -2q16 -3 25 -9q2 -1 11 -7q21 -13 22 -14q4 -2 10.5 -9t8.5 -9l2.5 -2.5t3 -2.5t3.5 -3t3 -3.5t1.5 -3.5t-0.5 -3.5t-3 -3.5z" />
    <glyph glyph-name="Egrave" unicode="&#xc8;" horiz-adv-x="327" 
d="M272 8q0 -13 -18 -11q-2 -1 -18.5 0t-20.5 1q-8 0 -27.5 1.5t-29.5 0.5q-15 -1 -39 0t-35 1q-2 0 -8.5 -1t-9 -1t-6.5 1.5t-7 4.5q-3 5 -3 10t1.5 12.5t1.5 10.5q1 6 1 19v20q4 79 3 116v86q0 6 -1 19.5t-1 20.5q-7 142 -2 202q4 65 4 155q0 1 -2 10t2 10q3 2 12 2h17
q38 2 66 -1q3 0 8.5 -0.5t8.5 -0.5h32q5 0 16 -1t17 -1q16 3 21 2q12 -5 10 -13q0 -9 -10 -9q-11 0 -17 -1q-22 -3 -26 -2q-6 2 -8 2h-16q-3 0 -11.5 1.5t-14.5 2.5q-4 1 -14 1t-14 1q-26 1 -58 -2v-84q0 -20 -3 -61.5t-3 -63.5v-42q0 -12 2 -39.5t1 -42.5q3 -1 8 -1t7 -1
h17q4 -3 18.5 -1.5t18.5 1.5q8 -2 12 -2q11 -1 29.5 -1.5t24.5 -0.5h3l3 1q21 -5 24 -11q-1 -10 -12.5 -10.5t-21.5 1.5q-7 0 -21.5 0.5t-19.5 1.5h-39t-47 2q-1 -31 1 -98t0 -102q-1 -13 -1 -37q-3 -55 1 -66q1 -2 15.5 -2h16.5q7 -1 20.5 0t18.5 1q2 0 6 -0.5t6 -0.5
q3 0 8 0.5t7 0.5q3 0 8.5 -1.5t7.5 -1.5q6 -1 19 0t16 1q4 0 9.5 -0.5t7.5 -0.5t6.5 0.5t7.5 1t6.5 -0.5t5.5 -4q0 -1 1 -2t1 -3zM161 747q-2 -10 -7 -11q-7 -1 -16 11l-4 4l-3 6l-4 4q-4 8 -7 11q-4 4 -10 12q-2 3 -6 7.5t-5 6.5q-7 7 -19 23q-2 2 -3 2q0 3 -1 4l-2.5 2.5
t-2.5 3.5t-1 4t1 3.5t2.5 2t2.5 1.5q4 1 7.5 -2.5t6.5 -3.5q8 -10 26.5 -32.5t27.5 -35.5q2 -3 8 -10.5t9 -12.5z" />
    <glyph glyph-name="Eacute" unicode="&#xc9;" horiz-adv-x="332" 
d="M215 863q11 0 16 -9v-2q-1 -3 -3 -7l-3 -6q-5 -10 -13 -34q-1 -4 -8 -20q-2 -4 -8 -17.5t-10 -20.5q-4 -12 -8 -17q-5 -14 -8 -16q-15 2 -18 8q0 8 3 13q1 1 2.5 5t3.5 5q3 12 10 19q4 13 15 38t15 40l3 6t3 5q4 8 8 10zM277 8q0 -13 -18 -11q-3 -1 -19 0t-20 1
q-8 0 -27.5 1.5t-29.5 0.5q-15 -1 -39 0t-35 1q-2 0 -8.5 -1t-9 -1t-6.5 1.5t-7 4.5q-3 5 -3 10t1.5 12.5t1.5 10.5v19t1 20q4 79 3 116v86q0 6 -1 19.5t-1 20.5q-7 142 -2 202q4 65 4 155q0 1 -2 10t2 10q3 2 12 2h17q38 2 66 -1q3 0 8.5 -0.5t8.5 -0.5h32q5 0 16 -1t17 -1
q16 3 21 2q12 -5 10 -13q0 -9 -10 -9q-11 0 -17 -1q-22 -3 -26 -2q-6 2 -8 2h-16q-3 0 -11.5 1.5t-14.5 2.5q-5 1 -14 1t-14 1q-26 1 -58 -2v-84q0 -20 -3 -61.5t-3 -63.5v-42q0 -12 2 -39.5t1 -42.5q3 -1 7.5 -1t7.5 -1h17q4 -3 18.5 -1.5t18.5 1.5q8 -2 12 -2
q11 -1 29.5 -1.5t24.5 -0.5q1 0 3 0.5t3 0.5q21 -5 24 -11q-1 -10 -12.5 -10.5t-21.5 1.5q-7 0 -21.5 0.5t-19.5 1.5h-39t-47 2q-1 -31 1 -98t0 -102q-1 -13 -1 -37q-3 -55 1 -66q1 -2 15.5 -2h16.5q7 -1 20.5 0t18.5 1q2 0 6 -0.5t6 -0.5t7 0.5t8 0.5t8.5 -1.5t7.5 -1.5
q6 -1 18.5 0t16.5 1t9.5 -0.5t7.5 -0.5t6.5 0.5t7.5 1t6.5 -0.5t5.5 -4q0 -1 1 -2t1 -3z" />
    <glyph glyph-name="Ecircumflex" unicode="&#xca;" horiz-adv-x="322" 
d="M272 8q0 -12 -18 -10q-2 -2 -18.5 -0.5t-20.5 1.5q-7 0 -27 1t-30 0q-15 -1 -39 -0.5t-35 0.5q-25 -2 -31 5q-3 5 -3 10t1.5 12.5t1.5 10.5q1 6 1 19v20q2 40 0 116q-1 16 0 46.5t1 39.5q0 6 0.5 19.5t0.5 20.5q-7 142 -2 202q2 8 0.5 75.5t-1.5 79.5q0 1 -2 10t2 10
q3 2 12 2h21q52 2 66 1q3 0 8.5 -0.5t8.5 -0.5q5 0 16 0.5t16 0.5h33q13 2 21 0q4 -1 7.5 -6t2.5 -9q0 -8 -10 -8q-3 0 -8.5 1t-8.5 0q-22 -3 -26 -2h-8h-16q-16 2 -26 3h-14h-14q-33 2 -58 -1q-2 -19 -2 -84q0 -20 -2 -61.5t-2 -63.5v-42q0 -12 2 -39.5t1 -42.5q3 -1 8 -1
t7 -1t17 -1h37q8 -2 12 -2q11 -1 27.5 -1h26.5h3l3 1l8 -1q9 -1 12.5 -3t3.5 -7q0 -3 -0.5 -5t-3 -3.5t-4.5 -2t-6 0t-6.5 0.5t-7 0.5t-6.5 0.5q-7 0 -21.5 0.5t-19.5 1.5h-39t-47 2q-1 -30 -0.5 -100t-1.5 -100q-1 -7 0.5 -19.5t1.5 -17.5q-3 -55 1 -66q1 -2 15.5 -2h16.5
q7 -1 20.5 0t18.5 1q2 0 6 -0.5t6 -0.5q3 0 8 0.5t7 0.5q3 0 8.5 -1.5t7.5 -1.5q6 -1 19 0t16 1q4 0 9.5 -0.5t7.5 -0.5q20 0 23 -1q5 -2 5 -7zM227 730q-1 -2 -4 -5t-14 0q-3 3 -5 3q-4 8 -5 15q-3 5 -6 15.5t-6 15.5q-3 7 -11 21q-6 10 -16 16q-2 0 -8 -9q-1 -1 -16 -34
q-2 -5 -17 -32q-5 -9 -6 -10q-12 0 -17 8q0 2 8 15q3 6 9 16q11 29 13 34q0 1 5.5 9.5t5.5 13.5q0 7 7 16q2 2 12 5h3.5t2 -1t3.5 -1t3 -2t1.5 -5.5t1.5 -4.5q2 -2 9 -9.5t9 -12.5q3 -4 8 -12.5t7 -10.5q11 -20 13 -26q1 -2 6 -11t4 -17z" />
    <glyph glyph-name="Edieresis" unicode="&#xcb;" horiz-adv-x="332" 
d="M139 775q4 -6 -3 -23q-6 -12 -14 -20q-4 -4 -10 -7q-4 0 -4 -1q-12 -1 -24 4q-2 0 -4 2.5t-4 2.5q-6 2 -9 4q-8 5 -11 22v12q0 2 2.5 5.5t2.5 6.5q0 1 2.5 2t1.5 3q1 0 1 2q1 2 1 3q3 2 8 7.5t8 7.5q5 3 18 3q16 -2 21 -5q8 -4 14 -17q3 -6 3 -14zM175 759q-4 6 3 23
q6 12 14 20q4 4 10 7q4 0 4 1q12 1 24 -4q2 0 4 -2.5t4 -2.5q6 -2 9 -4q8 -5 11 -22v-12q0 -2 -2.5 -5.5t-2.5 -6.5q0 -1 -2.5 -2t-1.5 -3q-1 0 -1 -2q-1 -2 -1 -3q-3 -2 -8 -7.5t-8 -7.5q-5 -3 -18 -3q-16 2 -21 5q-8 4 -14 17q-3 6 -3 14zM277 8q0 -13 -18 -11
q-3 -1 -19 0t-20 1q-8 0 -27.5 1.5t-29.5 0.5q-15 -1 -39 0t-35 1q-2 0 -8.5 -1t-9 -1t-6.5 1.5t-7 4.5q-3 5 -3 10t1.5 12.5t1.5 10.5v19t1 20q4 79 3 116v86q0 6 -1 19.5t-1 20.5q-7 142 -2 202q4 65 4 155q0 1 -2 10t2 10q3 2 12 2h17q38 2 66 -1q3 0 8.5 -0.5t8.5 -0.5
h32q5 0 16 -1t17 -1q16 3 21 2q12 -5 10 -13q0 -9 -10 -9q-11 0 -17 -1q-22 -3 -26 -2q-6 2 -8 2h-16q-3 0 -11.5 1.5t-14.5 2.5q-5 1 -14 1t-14 1q-26 1 -58 -2v-84q0 -20 -3 -61.5t-3 -63.5v-42q0 -12 2 -39.5t1 -42.5q3 -1 7.5 -1t7.5 -1h17q4 -3 18.5 -1.5t18.5 1.5
q8 -2 12 -2q11 -1 29.5 -1.5t24.5 -0.5q1 0 3 0.5t3 0.5q21 -5 24 -11q-1 -10 -12.5 -10.5t-21.5 1.5q-7 0 -21.5 0.5t-19.5 1.5h-39t-47 2q-1 -31 1 -98t0 -102q-1 -13 -1 -37q-3 -55 1 -66q1 -2 15.5 -2h16.5q7 -1 20.5 0t18.5 1q2 0 6 -0.5t6 -0.5t7 0.5t8 0.5t8.5 -1.5
t7.5 -1.5q6 -1 18.5 0t16.5 1t9.5 -0.5t7.5 -0.5t6.5 0.5t7.5 1t6.5 -0.5t5.5 -4q0 -1 1 -2t1 -3z" />
    <glyph glyph-name="Igrave" unicode="&#xcc;" horiz-adv-x="171" 
d="M89 0q-4 2 -6 13q-1 4 -1 16q0 23 1 31q1 6 0 20t0 20q1 14 1 40q0 49 -1 73q-1 25 -0.5 75.5t-0.5 75.5v157v117v19q0 5 -0.5 16t-0.5 17q0 1 -0.5 3.5t-1 4.5t0.5 3.5t3 1.5q11 2 16.5 -4t6 -11.5t0.5 -17.5q0 -10 -0.5 -27t-0.5 -23q0 -7 1.5 -22.5t0.5 -23.5
q-2 -18 -1 -29q1 -19 0 -54t-1 -52v-22q0 -33 1 -50q1 -19 0 -54.5t-1 -46.5q0 -34 1 -50q1 -14 1 -49q0 -31 -2 -101q0 -7 2 -22.5t0 -24.5q-3 -13 -5 -15q-9 -4 -13 -4zM97 744q-2 -10 -7 -11q-7 -1 -16 11l-4 4l-3 6l-4 4q-4 8 -7 11q-4 4 -10 12q-2 3 -6 7.5t-5 6.5
q-7 7 -19 23q-2 2 -3 2q0 3 -1 4l-2.5 2.5t-2.5 3.5t-1 4t1 3.5t2.5 2t2.5 1.5q4 1 7.5 -2.5t6.5 -3.5q8 -10 26.5 -32.5t27.5 -35.5q2 -3 8 -10.5t9 -12.5z" />
    <glyph glyph-name="Iacute" unicode="&#xcd;" horiz-adv-x="141" 
d="M62 0q-4 2 -6 13q-1 4 -1 16q0 5 0.5 10.5t2 12t1.5 8.5q1 6 0 20t0 20q1 14 1 40q0 49 -1 73q-1 25 -1 75.5t-1 75.5q-2 51 -2 157q0 16 -1.5 55.5t-0.5 61.5v19q0 5 -0.5 16t-0.5 17q0 1 -0.5 3.5t-1 4.5t0.5 3.5t3 1.5q4 2 7.5 0t6 -1.5t4 -3t2 -4.5t1 -5.5t0.5 -6
v-6.5v-6q0 -10 -0.5 -27t-0.5 -23q0 -7 1.5 -22.5t0.5 -23.5q-1 -9 1 -29q1 -17 1 -52v-54v-15v-7q0 -33 1 -50q2 -68 2 -101q0 -34 1 -50q1 -14 1 -49q0 -31 -2 -101q0 -7 2 -22.5t0 -24.5q-3 -13 -5 -15q-10 -5 -16 -4zM114 882q12 0 16 -9v-2q-1 -3 -3 -7l-3 -6
q-5 -10 -13 -34q-1 -4 -8 -20q-2 -4 -8 -17.5t-10 -20.5q-4 -12 -8 -17q-5 -14 -8 -16q-15 2 -18 8q0 9 3 13q1 1 2.5 5t3.5 5q3 12 10 19q4 13 15 38t15 40q2 1 3 5t3 6q4 8 8 10z" />
    <glyph glyph-name="Icircumflex" unicode="&#xce;" horiz-adv-x="171" 
d="M89 0q-4 2 -6 13q-1 4 -1 16q0 23 1 31q1 6 0 20t0 20q1 14 1 40q0 49 -1 73q-1 25 -0.5 75.5t-0.5 75.5v157v117v19q0 5 -0.5 16t-0.5 17q0 1 -0.5 3.5t-1 4.5t0.5 3.5t3 1.5q11 2 16.5 -4t6 -11.5t0.5 -17.5q0 -10 -0.5 -27t-0.5 -23q0 -7 1.5 -22.5t0.5 -23.5
q-2 -18 -1 -29q1 -19 0 -54t-1 -52v-22q0 -33 1 -50q1 -19 0 -54.5t-1 -46.5q0 -34 1 -50q1 -14 1 -49q0 -31 -2 -101q0 -7 2 -22.5t0 -24.5q-3 -13 -5 -15q-9 -4 -13 -4zM159 724q-1 -2 -4 -5t-14 0q-3 3 -5 3q-4 8 -5 15q-3 5 -6 15.5t-6 15.5q-3 7 -11 21q-6 10 -16 16
q-2 0 -8 -9q-1 -1 -16 -34q-2 -5 -17 -32q-5 -9 -6 -10q-12 0 -17 8q0 2 8 15q3 6 9 16q11 29 13 34q0 1 5.5 9.5t5.5 13.5q0 7 7 16q2 2 12 5h3.5t2 -1t3.5 -1t3 -2t1.5 -5.5t1.5 -4.5q2 -2 9 -9.5t9 -12.5q3 -4 8 -12.5t7 -10.5q11 -20 13 -26q1 -2 6 -11t4 -17z" />
    <glyph glyph-name="Idieresis" unicode="&#xcf;" horiz-adv-x="204" 
d="M84 785q4 -6 -3 -23q-6 -12 -14 -20q-4 -4 -10 -7q-4 0 -4 -1q-12 -1 -24 4q-2 0 -4 2.5t-4 2.5q-6 2 -9 4q-8 5 -11 22v12q0 2 2.5 5.5t2.5 6.5q0 1 2.5 2t1.5 3q1 0 1 2q1 2 1 3q3 2 8 7.5t8 7.5q5 3 18 3q16 -2 21 -5q8 -4 14 -17q3 -6 3 -14zM120 769q-4 6 3 23
q6 12 14 20q4 4 10 7q4 0 4 1q12 1 24 -4q2 0 4 -2.5t4 -2.5q6 -2 9 -4q8 -5 11 -22v-12q0 -2 -2.5 -5.5t-2.5 -6.5q0 -1 -2.5 -2t-1.5 -3q-1 0 -1 -2q-1 -2 -1 -3q-3 -2 -8 -7.5t-8 -7.5q-5 -3 -18 -3q-16 2 -21 5q-8 4 -14 17q-3 6 -3 14zM102 0q-4 2 -6 13q-1 4 -1 16
q0 5 0.5 10.5t2 12t1.5 8.5q1 6 0 20t0 20q1 14 1 40q0 49 -1 73q-1 25 -1 75.5t-1 75.5q-2 51 -2 157q0 16 -1.5 55.5t-0.5 61.5v19q0 5 -0.5 16t-0.5 17q0 1 -0.5 3.5t-1 4.5t0.5 3.5t3 1.5q4 2 7.5 0t6 -1.5t4 -3t2 -4.5t1 -5.5t0.5 -6v-6.5v-6q0 -10 -0.5 -27t-0.5 -23
q0 -7 1.5 -22.5t0.5 -23.5q-1 -9 1 -29q1 -17 1 -52v-54v-15v-7q0 -33 1 -50q2 -68 2 -101q0 -34 1 -50q1 -14 1 -49q0 -31 -2 -101q0 -7 2 -22.5t0 -24.5q-3 -13 -5 -15q-10 -5 -16 -4z" />
    <glyph glyph-name="Eth" unicode="&#xd0;" horiz-adv-x="451" 
d="M81 6q0 23 1 48t2.5 56t2.5 49q8 128 6 172q-10 4 -30.5 3.5t-30.5 0.5q-1 1 -4 3t-4.5 4.5t-0.5 5.5t5 3.5t8 0t8 0.5q20 3 49 1q1 7 1 19.5v19.5q2 41 1 60v39q-2 32 -2 47q-1 3 0 10t1 9q0 4 -0.5 10.5t-0.5 9.5q-2 24 -2 35q0 13 -1.5 39t-1.5 39q-5 11 3 16q1 0 2 1
t3 0q9 1 22 -3q15 -3 27 -6q28 -8 34 -10q5 -2 13.5 -6.5t11.5 -5.5q4 -2 13 -6t13 -6q3 -2 9.5 -6t9.5 -6t9 -5.5t8 -5.5q16 -12 32 -26q18 -16 39 -48q5 -7 13 -21q3 -5 8 -15.5t6 -13.5q1 -1 4 -6t4 -8q0 -3 2 -9q1 -3 3.5 -8t2.5 -6q2 -4 4 -12t4 -12q4 -13 7 -25
q4 -15 5 -26q1 -3 2 -8.5t2 -8.5q3 -18 3 -48v-38q0 -34 -8 -74q-3 -25 -17 -62v-2.5t-1 -1.5q-4 -10 -8 -18q-3 -6 -4 -7q-4 -9 -5 -9q-7 -5 -11 -13q-3 -3 -9.5 -8.5t-11.5 -10.5t-10 -9q-3 -3 -6 -5q-1 0 -2.5 -2t-2.5 -3t-3 -1t-3 -1q0 -2 -2 -2q-4 -4 -10 -7
q-1 -1 -2 -1q-2 -1 -3 -1q-12 -8 -19 -12q-49 -27 -56 -30q-22 -10 -40 -15q-21 -6 -41 -6q-6 0 -17 -1.5t-16 -1.5q-10 1 -18 8zM107 684q6 -72 8 -219q1 -15 1 -25t-1 -41t0 -48l48 -3h24h12l5 -2.5t4 -1.5q7 -6 4.5 -12.5t-11.5 -7.5q-2 0 -9 2t-9 0q-28 4 -68 4v-18
t-2 -17v-17q-3 -103 -4 -112q-1 -14 -3.5 -48.5t-2.5 -49.5t1 -50q6 -1 19 0.5t18 1.5q2 0 8 2t8 2q3 1 12 2.5t14 3.5q3 1 11.5 5t13.5 6q38 19 48 25q30 15 43 27q31 25 38 35q12 16 14 21q20 45 27 82q5 26 7 65q2 35 0 70q0 5 -2 17l-3 15q0 3 -1 8.5t-1 8.5
q-2 10 -4 18q-2 6 -2 8q-1 2 -7 17q-15 42 -26 66q-1 2 -3 6.5t-4 6.5q-9 19 -30 44q-13 17 -37 37q-2 1 -5 4.5t-5 4.5q-9 5 -11 7q-16 10 -24 13q-18 11 -51 24q-23 10 -60 17q-1 0 -1 -2t-1 -2z" />
    <glyph glyph-name="Ntilde" unicode="&#xd1;" horiz-adv-x="475" 
d="M393 765q1 -5 -2 -7.5t-10 -5t-10 -3.5t-14 -7.5t-18 -9.5q-19 -9 -45 -9q-15 0 -33 8q-3 1 -9 3.5t-9 4.5q-2 1 -8.5 3.5t-8.5 4.5q-1 1 -28 9q-1 0 -7.5 2t-11.5 2q-15 0 -33 -5q-8 -5 -13 -10q-9 -9 -15 -9q-11 2 -12 10q0 2 4 6l3 3l1 1v2h1q1 0 2 1t4 3.5t5 3.5
q3 3 15 8q6 2 24 4h1l2 1q20 2 38 -4q5 -1 29 -11l5 -2q1 -1 2 -1.5t3 -0.5t4 -1q0 -2 1 -2q14 -7 27 -10q17 -3 19 -3q20 2 61 20q2 1 4.5 2.5t4 2.5t4.5 2.5t6 3.5q15 4 17 -10zM409 13q0 -9 -4 -12q-7 -3 -16 0q-3 3 -5.5 11t-4.5 12q-6 13 -18.5 34t-20.5 37q-4 6 -5 9
q-5 10 -13 28q-6 12 -8 20q-2 2 -5 9t-4 8q-3 8 -9.5 20t-8.5 17q-8 20 -12 29q-1 3 -5 10t-6 11q0 1 -1 3.5t-1 3.5l-24 57q-46 100 -67 153q-3 6 -8 19t-8 19q-2 4 -4.5 8.5t-5.5 10t-5 8.5q-9 20 -14 27q-1 5 -4 9q-1 1 -2.5 4t-2.5 4q-4 4 -10 18q-3 9 -10 16
q-1 -13 1 -38.5t2 -36.5q0 -7 1 -20t1 -19q1 -13 -2 -117v-120.5t-1 -120.5v-18q-1 -18 0 -50.5t1 -42.5v-26q0 -17 -3 -19q-5 -3 -13 0q-7 3 -7 17q-2 94 2 161l-1 2q-1 2 -1 4q1 34 0.5 126.5t1.5 121.5q4 48 1 82q0 9 -0.5 25t-1 29t-1.5 24q0 30 -3 57q-2 29 -7 38
q-1 3 0.5 6t1.5 5q0 7 4 7q11 0 15 -15q20 -38 31 -56q7 -13 20 -38t20 -38q29 -56 37 -78q1 -3 4 -8.5t3 -7.5q2 -3 3.5 -8.5t2.5 -7.5q1 -3 4 -9.5t5 -10.5q1 -1 1 -3q1 -1 1 -2q1 -2 1 -3q2 -3 5 -11.5t4 -11.5q2 -4 5.5 -10.5t4.5 -8.5q5 -14 14 -29q2 -3 4 -10t4 -11
l6 -9q1 -2 5 -13.5t7 -17.5q6 -9 6 -13q6 -15 7 -17l9 -18t10.5 -22t8.5 -19q3 -5 4 -11q3 -4 15 -29q3 -8 9.5 -21.5t8.5 -18.5q14 -30 20 -37q1 3 1 30q0 64 -1 96q-1 22 -1 199q0 3 -0.5 8t-0.5 7q0 8 1 23t1 23q0 42 -1 62q0 6 -1 16.5t-1 15.5v4q0 4 -1 13t-1 13v27
q0 4 -1 12t-1 12q-1 4 -1 12t-1 12t-1 12t-1 12q-3 17 -1 19q7 2 11 -1l3 -2q4 -2 4 -4q2 -6 3 -13t1.5 -15.5t1.5 -13.5l3 -45q0 -15 1 -23q0 -3 0.5 -6t1.5 -7.5t1 -6.5q0 -1 -1 -3v-2q0 -2 3 -38q1 -16 1 -48v-26q0 -4 -1 -12t-1 -12q0 -2 1 -8t0 -10l-1 -1v-1v-37
q0 -16 0.5 -53t0.5 -55q0 -26 2 -78l3 -143q0 -3 2.5 -10t2.5 -11z" />
    <glyph glyph-name="Ograve" unicode="&#xd2;" horiz-adv-x="575" 
d="M306 741q-2 -10 -7 -11q-7 -1 -16 11l-4 4l-3 6l-4 4q-4 8 -7 11q-4 4 -10 12q-2 3 -6 7.5t-5 6.5q-7 7 -19 23q-2 2 -3 2q0 3 -1 4l-2.5 2.5t-2.5 3.5t-1 4t1 3.5t2.5 2t2.5 1.5q4 1 7.5 -2.5t6.5 -3.5q8 -10 26.5 -32.5t27.5 -35.5q2 -3 8 -10.5t9 -12.5zM509 154
q-2 -7 -11 -26q-3 -3 -4 -5q-5 -17 -7 -19q-2 -7 -16 -23q-13 -18 -30 -35h-1v-1q-45 -36 -67 -41q-55 -13 -63 -13q-50 3 -51 3q-34 7 -46 10q-29 8 -57 23q-22 11 -45 33q-12 11 -22 23q-7 9 -15 27q-15 29 -20 85q-1 11 -3 36t-3 36q0 7 -1 10q-1 9 -1 34t-1 34
q-1 23 0 47q-2 45 6 83q5 11 6 21q0 1 1 3q2 4 2 6l3 12q1 3 8 17q5 14 9 24q2 3 4 9q1 1 5 9.5t7 12.5q6 11 22 31l18 24q4 7 20 23q40 36 83 41q34 3 57 1q2 0 8 -0.5t9 -0.5q7 -1 19 -5q3 -1 9.5 -2t9.5 -1q9 -3 10 -3q1 -1 4 -2t5 -2q1 0 3.5 -1t4.5 -2q1 0 4 -0.5
t4 -1.5q5 -1 10 -6h1q1 0 2 -1q2 -2 7.5 -4.5t7.5 -3.5q8 -6 13 -10l3 -1l3 -3q1 0 5 -4q0 -1 2 -1t2 -1l3 -3q7 -4 10 -9q15 -13 24 -30q6 -5 13.5 -19t9.5 -17q13 -49 16 -55q2 -14 4 -41.5t3 -41.5q6 -41 5 -75q-2 -10 -2 -16q-1 -6 -1.5 -21.5t-0.5 -21.5q-1 -11 -1 -34
q-2 -6 -2 -9q0 -2 0.5 -5t0.5 -4q0 -7 -2 -18.5t-2 -14.5q-2 -25 -5 -34zM483 570q-2 6 -8 16q-1 2 -8.5 14t-12.5 17q0 1 -1 2t-1 2l-13 13q-19 17 -31 23l-2 2q-4 2 -5 2q-1 1 -3 2l-2 1q-8 6 -20 11q-13 7 -37 10q-28 6 -43 7q-32 2 -56 -4q-7 -2 -25 -11l-9 -3
q-5 -3 -13.5 -8.5t-12.5 -7.5q-3 -5 -7 -5q-29 -32 -50 -64q-1 -2 -3.5 -5.5t-2.5 -4.5q-1 0 -1 -1q1 -1 0 -2q-1 0 -2 -1v-2t-1 -2l-3 -3q-1 -5 -5 -15q0 -1 -1.5 -3t-2.5 -4q-1 -1 -5 -11t-6 -14q0 -3 -1 -4q-1 -6 -6 -19q0 -4 -1 -5q-6 -18 -8 -32q-4 -22 -4 -36
q-3 -74 4 -172q1 -9 3.5 -37.5t4.5 -43.5q6 -31 15 -53q3 -9 15 -27q2 -3 6.5 -8.5t5.5 -6.5t2 -3l2 -2q1 -1 3.5 -2.5t4.5 -3t4 -2.5q6 -5 44 -28q10 -5 56 -16q8 -2 24.5 -6t18.5 -4q3 0 8 -1t8 -1q2 0 44 9q5 1 15 4t15 4q3 3 12 7.5t12 7.5q18 13 23 15q1 2 10 11
q2 1 3.5 4.5t2.5 4.5q0 1 2 1t2 1q2 2 4 6t6 6q2 2 4 6q1 2 2 3q1 2 3 4q4 4 7 12q1 1 4 7q0 3 1 4q0 1 3 4q2 6 6 15q4 11 5 14q3 10 8 40q6 25 7 43v24q1 23 6 96q0 4 0.5 12t0.5 11q0 12 -8 73q-1 4 -1 12v12q-5 38 -3 46q0 1 -1 1q-6 28 -11 42z" />
    <glyph glyph-name="Oacute" unicode="&#xd3;" horiz-adv-x="575" 
d="M338 883q12 0 16 -9v-2q-1 -3 -3 -7l-3 -6q-5 -10 -13 -34q-1 -4 -8 -20q-2 -4 -8 -17.5t-10 -20.5q-4 -12 -8 -17q-5 -14 -8 -16q-15 2 -18 8q0 8 3 13q1 1 2.5 5t3.5 5q3 12 10 19q4 13 15 38t15 40q2 2 3 6t3 5q4 8 8 10zM509 154q-2 -7 -11 -26q-3 -3 -4 -5
q-5 -17 -7 -19q-2 -7 -16 -23q-13 -18 -30 -35h-1v-1q-45 -36 -67 -41q-55 -13 -63 -13q-50 3 -51 3q-34 7 -46 10q-29 8 -57 23q-22 11 -45 33q-12 11 -22 23q-7 9 -15 27q-15 29 -20 85q-1 11 -3 36t-3 36q0 7 -1 10q-1 9 -1 34t-1 34q-1 23 0 47q-2 45 6 83q5 11 6 21
q0 1 1 3q2 4 2 6l3 12q1 3 8 17q5 14 9 24q2 3 4 9q1 1 5 9.5t7 12.5q6 11 22 31l18 24q4 7 20 23q40 36 83 41q34 3 57 1q2 0 8 -0.5t9 -0.5q7 -1 19 -5q3 -1 9.5 -2t9.5 -1q9 -3 10 -3q1 -1 4 -2t5 -2q1 0 3.5 -1t4.5 -2q1 0 4 -0.5t4 -1.5q5 -1 10 -6h1q1 0 2 -1
q2 -2 7.5 -4.5t7.5 -3.5q8 -6 13 -10l3 -1l3 -3q1 0 5 -4q0 -1 2 -1t2 -1l3 -3q7 -4 10 -9q15 -13 24 -30q6 -5 13.5 -19t9.5 -17q13 -49 16 -55q2 -14 4 -41.5t3 -41.5q6 -41 5 -75q-2 -10 -2 -16q-1 -6 -1.5 -21.5t-0.5 -21.5q-1 -11 -1 -34q-2 -6 -2 -9q0 -2 0.5 -5
t0.5 -4q0 -7 -2 -18.5t-2 -14.5q-2 -25 -5 -34zM483 570q-2 6 -8 16q-1 2 -8.5 14t-12.5 17q0 1 -1 2t-1 2l-13 13q-19 17 -31 23l-2 2q-4 2 -5 2q-1 1 -3 2l-2 1q-8 6 -20 11q-13 7 -37 10q-28 6 -43 7q-32 2 -56 -4q-7 -2 -25 -11l-9 -3q-5 -3 -13.5 -8.5t-12.5 -7.5
q-3 -5 -7 -5q-29 -32 -50 -64q-1 -2 -3.5 -5.5t-2.5 -4.5q-1 0 -1 -1q1 -1 0 -2q-1 0 -2 -1v-2t-1 -2l-3 -3q-1 -5 -5 -15q0 -1 -1.5 -3t-2.5 -4q-1 -1 -5 -11t-6 -14q0 -3 -1 -4q-1 -6 -6 -19q0 -4 -1 -5q-6 -18 -8 -32q-4 -22 -4 -36q-3 -74 4 -172q1 -9 3.5 -37.5
t4.5 -43.5q6 -31 15 -53q3 -9 15 -27q2 -3 6.5 -8.5t5.5 -6.5t2 -3l2 -2q1 -1 3.5 -2.5t4.5 -3t4 -2.5q6 -5 44 -28q10 -5 56 -16q8 -2 24.5 -6t18.5 -4q3 0 8 -1t8 -1q2 0 44 9q5 1 15 4t15 4q3 3 12 7.5t12 7.5q18 13 23 15q1 2 10 11q2 1 3.5 4.5t2.5 4.5q0 1 2 1t2 1
q2 2 4 6t6 6q2 2 4 6q1 2 2 3q1 2 3 4q4 4 7 12q1 1 4 7q0 3 1 4q0 1 3 4q2 6 6 15q4 11 5 14q3 10 8 40q6 25 7 43v24q1 23 6 96q0 4 0.5 12t0.5 11q0 12 -8 73q-1 4 -1 12v12q-5 38 -3 46q0 1 -1 1q-6 28 -11 42z" />
    <glyph glyph-name="Ocircumflex" unicode="&#xd4;" horiz-adv-x="575" 
d="M509 154q-2 -7 -11 -26q-3 -3 -4 -5q-5 -17 -7 -19q-2 -7 -16 -23q-13 -18 -30 -35h-1v-1q-45 -36 -67 -41q-55 -13 -63 -13q-50 3 -51 3q-34 7 -46 10q-29 8 -57 23q-22 11 -45 33q-12 11 -22 23q-7 9 -15 27q-15 29 -20 85q-1 11 -3 36t-3 36q0 7 -1 10q-1 9 -1 34
t-1 34q-1 23 0 47q-2 45 6 83q5 11 6 21q0 1 1 3q2 4 2 6l3 12q1 3 8 17q5 14 9 24q2 3 4 9q1 1 5 9.5t7 12.5q6 11 22 31l18 24q4 7 20 23q40 36 83 41q34 3 57 1q2 0 8 -0.5t9 -0.5q7 -1 19 -5q3 -1 9.5 -2t9.5 -1q9 -3 10 -3q1 -1 4 -2t5 -2q1 0 3.5 -1t4.5 -2
q1 0 4 -0.5t4 -1.5q5 -1 10 -6h1q1 0 2 -1q2 -2 7.5 -4.5t7.5 -3.5q8 -6 13 -10l3 -1l3 -3q1 0 5 -4q0 -1 2 -1t2 -1l3 -3q7 -4 10 -9q15 -13 24 -30q6 -5 13.5 -19t9.5 -17q13 -49 16 -55q2 -14 4 -41.5t3 -41.5q6 -41 5 -75q-2 -10 -2 -16q-1 -6 -1.5 -21.5t-0.5 -21.5
q-1 -11 -1 -34q-2 -6 -2 -9q0 -2 0.5 -5t0.5 -4q0 -7 -2 -18.5t-2 -14.5q-2 -25 -5 -34zM483 570q-2 6 -8 16q-1 2 -8.5 14t-12.5 17q0 1 -1 2t-1 2l-13 13q-19 17 -31 23l-2 2q-4 2 -5 2q-1 1 -3 2l-2 1q-8 6 -20 11q-13 7 -37 10q-28 6 -43 7q-32 2 -56 -4q-7 -2 -25 -11
l-9 -3q-5 -3 -13.5 -8.5t-12.5 -7.5q-3 -5 -7 -5q-29 -32 -50 -64q-1 -2 -3.5 -5.5t-2.5 -4.5q-1 0 -1 -1q1 -1 0 -2q-1 0 -2 -1v-2t-1 -2l-3 -3q-1 -5 -5 -15q0 -1 -1.5 -3t-2.5 -4q-1 -1 -5 -11t-6 -14q0 -3 -1 -4q-1 -6 -6 -19q0 -4 -1 -5q-6 -18 -8 -32q-4 -22 -4 -36
q-3 -74 4 -172q1 -9 3.5 -37.5t4.5 -43.5q6 -31 15 -53q3 -9 15 -27q2 -3 6.5 -8.5t5.5 -6.5t2 -3l2 -2q1 -1 3.5 -2.5t4.5 -3t4 -2.5q6 -5 44 -28q10 -5 56 -16q8 -2 24.5 -6t18.5 -4q3 0 8 -1t8 -1q2 0 44 9q5 1 15 4t15 4q3 3 12 7.5t12 7.5q18 13 23 15q1 2 10 11
q2 1 3.5 4.5t2.5 4.5q0 1 2 1t2 1q2 2 4 6t6 6q2 2 4 6q1 2 2 3q1 2 3 4q4 4 7 12q1 1 4 7q0 3 1 4q0 1 3 4q2 6 6 15q4 11 5 14q3 10 8 40q6 25 7 43v24q1 23 6 96q0 4 0.5 12t0.5 11q0 12 -8 73q-1 4 -1 12v12q-5 38 -3 46q0 1 -1 1q-6 28 -11 42zM351 737q-1 -2 -4 -5
t-14 0q-3 3 -5 3q-4 8 -5 15q-3 5 -6 15.5t-6 15.5q-3 7 -11 21q-6 10 -16 16q-2 0 -8 -9q-1 -1 -16 -34q-2 -5 -17 -32q-5 -9 -6 -10q-12 0 -17 8q0 2 8 15q3 6 9 16q11 29 13 34q0 1 5.5 9.5t5.5 13.5q0 7 7 16q2 2 12 5h3.5t2 -1t3.5 -1t3 -2t1.5 -5.5t1.5 -4.5
q2 -2 9 -9.5t9 -12.5q3 -4 8 -12.5t7 -10.5q11 -20 13 -26q1 -2 6 -11t4 -17z" />
    <glyph glyph-name="Otilde" unicode="&#xd5;" horiz-adv-x="575" 
d="M429 776q1 -5 -2 -7.5t-10 -5t-10 -3.5q-3 -2 -14 -8t-18 -9q-19 -9 -45 -9q-15 0 -33 8q-3 1 -9 3.5t-9 4.5q-2 1 -8.5 3.5t-8.5 4.5q-1 1 -28 9q-1 0 -7.5 2t-11.5 2q-15 0 -33 -5q-8 -4 -13 -10q-9 -9 -15 -9q-11 2 -12 10q0 2 4 6l3 3q1 0 1 1v2t1 1h2q1 1 4 3.5
t5 3.5q3 3 15 8q6 2 24 4q1 0 3 1q20 2 38 -4q5 -1 29 -11l5 -2q1 -1 2 -1.5t3 -0.5t4 -1q0 -2 1 -2q14 -7 27 -10q17 -3 19 -3q20 2 61 20q2 1 4.5 2.5t4 2.5t4.5 2.5t6 3.5q15 4 17 -10zM509 154q-2 -7 -11 -26q-3 -3 -4 -5q-5 -17 -7 -19q-2 -7 -16 -23q-13 -18 -30 -35
h-1v-1q-45 -36 -67 -41q-55 -13 -63 -13q-50 3 -51 3q-34 7 -46 10q-29 8 -57 23q-22 11 -45 33q-12 11 -22 23q-7 9 -15 27q-15 29 -20 85q-1 11 -3 36t-3 36q0 7 -1 10q-1 9 -1 34t-1 34q-1 23 0 47q-2 45 6 83q5 11 6 21q0 1 1 3q2 4 2 6l3 12q1 3 8 17q5 14 9 24
q2 3 4 9q1 1 5 9.5t7 12.5q6 11 22 31l18 24q4 7 20 23q40 36 83 41q34 3 57 1q2 0 8 -0.5t9 -0.5q7 -1 19 -5q3 -1 9.5 -2t9.5 -1q9 -3 10 -3q1 -1 4 -2t5 -2q1 0 3.5 -1t4.5 -2q1 0 4 -0.5t4 -1.5q5 -1 10 -6h1q1 0 2 -1q2 -2 7.5 -4.5t7.5 -3.5q8 -6 13 -10l3 -1l3 -3
q1 0 5 -4q0 -1 2 -1t2 -1l3 -3q7 -4 10 -9q15 -13 24 -30q6 -5 13.5 -19t9.5 -17q13 -49 16 -55q2 -14 4 -41.5t3 -41.5q6 -41 5 -75q-2 -10 -2 -16q-1 -6 -1.5 -21.5t-0.5 -21.5q-1 -11 -1 -34q-2 -6 -2 -9q0 -2 0.5 -5t0.5 -4q0 -7 -2 -18.5t-2 -14.5q-2 -25 -5 -34z
M483 570q-2 6 -8 16q-1 2 -8.5 14t-12.5 17q0 1 -1 2t-1 2l-13 13q-19 17 -31 23l-2 2q-4 2 -5 2q-1 1 -3 2l-2 1q-8 6 -20 11q-13 7 -37 10q-28 6 -43 7q-32 2 -56 -4q-7 -2 -25 -11l-9 -3q-5 -3 -13.5 -8.5t-12.5 -7.5q-3 -5 -7 -5q-29 -32 -50 -64q-1 -2 -3.5 -5.5
t-2.5 -4.5q-1 0 -1 -1q1 -1 0 -2q-1 0 -2 -1v-2t-1 -2l-3 -3q-1 -5 -5 -15q0 -1 -1.5 -3t-2.5 -4q-1 -1 -5 -11t-6 -14q0 -3 -1 -4q-1 -6 -6 -19q0 -4 -1 -5q-6 -18 -8 -32q-4 -22 -4 -36q-3 -74 4 -172q1 -9 3.5 -37.5t4.5 -43.5q6 -31 15 -53q3 -9 15 -27q2 -3 6.5 -8.5
t5.5 -6.5t2 -3l2 -2q1 -1 3.5 -2.5t4.5 -3t4 -2.5q6 -5 44 -28q10 -5 56 -16q8 -2 24.5 -6t18.5 -4q3 0 8 -1t8 -1q2 0 44 9q5 1 15 4t15 4q3 3 12 7.5t12 7.5q18 13 23 15q1 2 10 11q2 1 3.5 4.5t2.5 4.5q0 1 2 1t2 1q2 2 4 6t6 6q2 2 4 6q1 2 2 3q1 2 3 4q4 4 7 12
q1 1 4 7q0 3 1 4q0 1 3 4q2 6 6 15q4 11 5 14q3 10 8 40q6 25 7 43v24q1 23 6 96q0 4 0.5 12t0.5 11q0 12 -8 73q-1 4 -1 12v12q-5 38 -3 46q0 1 -1 1q-6 28 -11 42z" />
    <glyph glyph-name="Odieresis" unicode="&#xd6;" horiz-adv-x="575" 
d="M246 785q4 -6 -3 -23q-6 -12 -14 -20q-4 -4 -10 -7q-4 0 -4 -1q-12 -1 -24 4q-2 0 -4 2.5t-4 2.5q-6 2 -9 4q-8 5 -11 22v12q0 2 2.5 5.5t2.5 6.5q0 1 2.5 2t1.5 3q1 0 1 2q1 2 1 3q3 2 8 7.5t8 7.5q5 3 18 3q16 -2 21 -5q8 -4 14 -17q3 -6 3 -14zM362 785q4 -6 -3 -23
q-6 -12 -14 -20q-4 -4 -10 -7q-4 0 -4 -1q-12 -1 -24 4q-2 0 -4 2.5t-4 2.5q-6 2 -9 4q-8 5 -11 22v12q0 2 2.5 5.5t2.5 6.5q0 1 2.5 2t1.5 3q1 0 1 2q1 2 1 3q3 2 8 7.5t8 7.5q5 3 18 3q16 -2 21 -5q8 -4 14 -17q3 -6 3 -14zM509 154q-2 -7 -11 -26q-3 -3 -4 -5
q-5 -17 -7 -19q-2 -7 -16 -23q-13 -18 -30 -35h-1v-1q-45 -36 -67 -41q-55 -13 -63 -13q-50 3 -51 3q-34 7 -46 10q-29 8 -57 23q-22 11 -45 33q-12 11 -22 23q-7 9 -15 27q-15 29 -20 85q-1 11 -3 36t-3 36q0 7 -1 10q-1 9 -1 34t-1 34q-1 23 0 47q-2 45 6 83q5 11 6 21
q0 1 1 3q2 4 2 6l3 12q1 3 8 17q5 14 9 24q2 3 4 9q1 1 5 9.5t7 12.5q6 11 22 31l18 24q4 7 20 23q40 36 83 41q34 3 57 1q2 0 8 -0.5t9 -0.5q7 -1 19 -5q3 -1 9.5 -2t9.5 -1q9 -3 10 -3q1 -1 4 -2t5 -2q1 0 3.5 -1t4.5 -2q1 0 4 -0.5t4 -1.5q5 -1 10 -6h1q1 0 2 -1
q2 -2 7.5 -4.5t7.5 -3.5q8 -6 13 -10l3 -1l3 -3q1 0 5 -4q0 -1 2 -1t2 -1l3 -3q7 -4 10 -9q15 -13 24 -30q6 -5 13.5 -19t9.5 -17q13 -49 16 -55q2 -14 4 -41.5t3 -41.5q6 -41 5 -75q-2 -10 -2 -16q-1 -6 -1.5 -21.5t-0.5 -21.5q-1 -11 -1 -34q-2 -6 -2 -9q0 -2 0.5 -5
t0.5 -4q0 -7 -2 -18.5t-2 -14.5q-2 -25 -5 -34zM483 570q-2 6 -8 16q-1 2 -8.5 14t-12.5 17q0 1 -1 2t-1 2l-13 13q-19 17 -31 23l-2 2q-4 2 -5 2q-1 1 -3 2l-2 1q-8 6 -20 11q-13 7 -37 10q-28 6 -43 7q-32 2 -56 -4q-7 -2 -25 -11l-9 -3q-5 -3 -13.5 -8.5t-12.5 -7.5
q-3 -5 -7 -5q-29 -32 -50 -64q-1 -2 -3.5 -5.5t-2.5 -4.5q-1 0 -1 -1q1 -1 0 -2q-1 0 -2 -1v-2t-1 -2l-3 -3q-1 -5 -5 -15q0 -1 -1.5 -3t-2.5 -4q-1 -1 -5 -11t-6 -14q0 -3 -1 -4q-1 -6 -6 -19q0 -4 -1 -5q-6 -18 -8 -32q-4 -22 -4 -36q-3 -74 4 -172q1 -9 3.5 -37.5
t4.5 -43.5q6 -31 15 -53q3 -9 15 -27q2 -3 6.5 -8.5t5.5 -6.5t2 -3l2 -2q1 -1 3.5 -2.5t4.5 -3t4 -2.5q6 -5 44 -28q10 -5 56 -16q8 -2 24.5 -6t18.5 -4q3 0 8 -1t8 -1q2 0 44 9q5 1 15 4t15 4q3 3 12 7.5t12 7.5q18 13 23 15q1 2 10 11q2 1 3.5 4.5t2.5 4.5q0 1 2 1t2 1
q2 2 4 6t6 6q2 2 4 6q1 2 2 3q1 2 3 4q4 4 7 12q1 1 4 7q0 3 1 4q0 1 3 4q2 6 6 15q4 11 5 14q3 10 8 40q6 25 7 43v24q1 23 6 96q0 4 0.5 12t0.5 11q0 12 -8 73q-1 4 -1 12v12q-5 38 -3 46q0 1 -1 1q-6 28 -11 42z" />
    <glyph glyph-name="multiply" unicode="&#xd7;" horiz-adv-x="567" 
d="M493 152q-9 0 -20 9q-1 2 -4 3.5t-4 2.5q0 1 -6 7q-1 2 -3 4q-3 2 -4 3l-14 14q-3 3 -15 11q-2 1 -6 5t-7 5q-2 3 -9 8t-10 9q-12 12 -30 25q-26 23 -29 25q-1 4 -6 7q-1 1 -3 2l-1 1q-1 1 -1 3h-4q-1 1 -2.5 3.5t-2.5 3.5q-22 22 -35 32q-5 -3 -12 -11t-10 -11
q-8 -9 -17 -17q-6 -8 -14 -14l-2 -1q-6 -8 -11 -13q-6 -4 -21 -22q-15 -15 -22 -24q-3 -4 -10 -12t-10 -12q-22 -24 -31 -35q-4 -6 -12 -11q-3 1 -6.5 3t-5.5 2q-8 3 -7 9q0 3 1.5 6t6.5 6l4 4q3 3 8 7.5t7 6.5q3 4 9 10t8 10q47 52 55 59q15 17 74 76q-1 3 -5.5 6.5
t-5.5 5.5q-5 5 -17.5 15t-17.5 16q-17 14 -49 40l-7.5 5t-6.5 4q-1 2 -6 5t-6 6q-8 3 -27 18q-24 18 -25 19q-2 2 -7.5 5.5t-7.5 6.5q-5 8 -4 12q2 6 9.5 6t14.5 -5q3 -1 4.5 -4.5t2.5 -4.5q6 -4 7 -9q4 -2 12 -7.5t13 -7.5q6 -5 38 -28q0 -1 2 -2l2 -1q2 -1 5 -3.5t5 -3.5
q6 -3 13 -10q9 -7 10 -8q15 -10 39 -32t30 -27q5 1 12 7.5t8 7.5q5 9 15 17q2 2 13.5 15.5t19.5 18.5q5 7 28.5 30.5t27.5 28.5q6 5 16 17l6 4l1 2q1 2 1 3q5 7 8 9q15 -1 18 -14q-1 -6 -7 -12t-7 -9q-7 -5 -25 -25q-28 -24 -49 -49q-3 -2 -8.5 -8.5t-9.5 -8.5q-2 -4 -7 -9
t-7 -9q-7 -5 -18 -17t-16 -16q4 -7 5 -8q0 -1 1 -1h2q7 -9 8 -10q4 -2 6 -5q32 -27 42 -37q4 -2 8 -9q12 -11 39 -33t39 -33q15 -9 27 -21q3 -3 12.5 -9.5t14.5 -10.5q-1 -2 0 -3t1 -2q5 -12 -6 -17z" />
    <glyph glyph-name="Oslash" unicode="&#xd8;" horiz-adv-x="645" 
d="M93 109q-33 48 -44 123q-8 52 0 144q0 7 2 17q2 43 5 51q0 6 3 17t3 19q6 14 10 30q8 35 14 50q1 2 4.5 7.5t4.5 8.5q1 1 1 5q1 4 9 12q2 4 4 6q0 1 1 1l2 1v2t1 2q0 1 2 2.5t2 2.5q15 12 28 25q1 1 3 4t4 4q4 2 6 4q1 1 3.5 2t3.5 3q2 2 4 2t3 1q2 3 7 4l3 3l4 2
q2 0 3 1l2 2t2 1q4 2 15 8.5t17 9.5q18 6 28 9q5 1 69 9q18 2 84 -5q21 0 45 -6q10 -3 39 -16q1 3 6.5 10t6.5 8q6 14 10 17q1 1 2.5 4t2.5 4q2 7 6 8q12 2 15 -4q4 -10 -8 -22q-2 -3 -5.5 -10t-6.5 -10q-5 -7 -10 -13q-3 -3 -1 -5q4 -4 13 -8.5t10 -5.5q10 -7 14.5 -11.5
t6.5 -10t4 -8.5q3 -5 10 -28t8 -26q15 -88 15 -92q3 -10 3 -24q4 -29 5 -48v-14q2 -6 3 -10q0 -24 1 -36q0 -48 -7 -76q-2 -5 -4 -15.5t-4 -15.5q-1 -3 -3 -14t-5 -17q-7 -17 -7 -18q-26 -74 -81 -128q-3 -3 -30 -22q-30 -16 -34 -18q-3 -2 -8.5 -4t-8.5 -3q-1 0 -3 -1.5
t-4 -2.5q-7 -3 -27 -7q-52 -12 -101 0q-6 1 -18 5q-6 2 -26 7q-2 1 -5 1l-21 7q-6 4 -7 5q-19 7 -24 10l-3 3h-1q-1 0 -1 1q-3 3 -9 5q-2 2 -10 7t-10 7q-3 -4 -14 -16.5t-13 -16.5q0 -1 -2 -3t-2 -3q-1 -1 -2 -3l-1 -3q0 -1 -2.5 -4t-2.5 -4q0 -3 -2 -5q1 -4 -9 -4
q-2 -2 -5 0t-4 2q-2 5 6 18q2 2 4 8t4 8q5 5 11 17q14 17 17 27q-2 3 -8 7t-21 26zM149 79q18 -15 31 -23q1 -1 13 -8q20 -10 79 -29q4 -1 20.5 -4t26.5 -4q9 0 25 2t25 2q9 1 26 10q8 3 24 11q3 1 11 5l12 6q20 13 23 14q2 2 12 10q16 15 33 35q9 18 16 28q3 4 7 16l1 2
q2 3 3 5q1 1 1.5 4t2.5 4q1 3 2.5 8.5t2.5 8.5q4 10 6 16t5 17.5t5 17.5q1 3 3 8.5t3 8.5q2 12 4 18q0 4 1 10t2 10t2 10t1 10v33v32q-3 27 -3 29t-1.5 13t-1.5 18q0 14 -11 78t-16 81q-2 6 -10 23q-5 11 -14 15q-3 3 -10 8.5t-9 8.5l-6 -7l-10 -14l-5 -6q-1 -2 -1 -5
q-18 -24 -46 -70.5t-34 -56.5q-6 -13 -20 -34t-19 -30q-10 -14 -40 -64q-7 -11 -37 -56t-45 -70q-1 -1 -11 -16q-2 -2 -4.5 -7.5t-5.5 -7.5q-2 -6 -9 -16.5t-10 -16.5q-3 -4 -7 -12t-6 -10q0 -2 -1 -3l-3 -3q-1 -1 -2.5 -5t-2.5 -5q-1 0 -1 -1v-2q-3 -1 -3 -3q-1 -1 -13 -24
zM130 99q2 -2 8 5t12.5 18.5t11 19.5t6.5 12q7 15 19 33q22 36 41 65q7 12 37 57.5t45 71.5q7 11 20 33t20 32q19 27 40 65q4 6 10.5 17.5t9.5 15.5q4 6 11 18.5t8 13.5q3 5 10 16t11 17q2 3 5 8t5 7q1 2 7.5 11t10.5 16.5t2 9.5q-7 8 -15 10q-2 2 -7 3t-6 2q-4 1 -14 5
q-12 3 -66 8q-30 2 -35 2l-1 -1h-2q-72 -4 -92 -14q-10 -4 -18 -9q-3 -1 -8.5 -5t-8.5 -5q-2 -1 -5 -3l-4 -1l-2 -2t-2 -1q-1 -1 -2 -1q-2 -1 -3 -1l-3 -3l-2 -1q-2 -1 -3 -2l-3 -3q-6 -3 -7 -4q-2 -1 -5 -4q-2 -1 -5.5 -4.5t-5.5 -4.5q-8 -7 -22 -21q-2 -3 -6.5 -9t-6.5 -9
q-8 -17 -10 -21l-5 -10l1 -1q0 -1 -1 -3q-2 -1 -2.5 -3.5t-2.5 -4.5q-3 -3 -4.5 -12.5t-2.5 -12.5q-13 -42 -18 -75q-3 -16 -5 -48.5t-3 -38.5q-3 -39 2 -93.5t11 -73.5l8 -24q18 -36 22 -41q8 -10 20 -22z" />
    <glyph glyph-name="Ugrave" unicode="&#xd9;" horiz-adv-x="605" 
d="M326 731q-2 -10 -7 -11q-7 -1 -16 11l-4 4l-3 6l-4 4q-4 8 -7 11q-4 4 -10 12q-2 3 -6 7.5t-5 6.5q-7 7 -19 23q-2 2 -3 2q0 3 -1 4l-2.5 2.5t-2.5 3.5t-1 4t1 3.5t2.5 2t2.5 1.5q4 1 7.5 -2.5t6.5 -3.5q8 -10 26.5 -32.5t27.5 -35.5q2 -3 8 -10.5t9 -12.5zM49 693
q4 1 11 -2q4 -1 6 -9q0 -88 7 -219q1 -19 2 -56.5t2 -56.5q1 -13 2 -46t2 -50.5t3.5 -43t7.5 -45.5q2 -8 4 -12q9 -27 11 -32q1 -3 5 -9q1 -2 3 -7t4 -8q2 -2 3 -4q1 -1 1 -3h1l2 -1q0 -1 1 -3l1 -2q0 -1 2 -2l2 -1q0 -1 0.5 -2.5t1.5 -2.5q1 -2 3.5 -4t3.5 -4q4 -3 11 -10
q30 -25 60 -34h3t3 -1q21 -8 42 -9q43 -6 74 -2q20 2 29 5q8 2 14 4q7 2 23 11q1 0 2.5 1.5t3.5 2.5q22 16 26 20q19 23 27 32q1 1 25 34q3 7 11.5 27.5t11.5 32.5q9 34 21 101q4 14 6 35q3 30 3 89q0 13 0.5 27.5t1.5 32t1 27.5v43t1 44q0 47 -4 84q0 1 -1 6.5t-2 10.5
q-2 15 3 15t8 -0.5t5 -2.5t2 -6q1 -2 3 -19q2 -10 2 -14q3 -19 3 -56v-77v-9q0 -1 -3 -46q0 -3 -0.5 -9t-0.5 -8t0.5 -5t0.5 -5q0 -9 -1 -31.5t-1 -33.5v-8q0 -38 -4 -63q-1 -6 -5 -39t-8 -50q-10 -43 -15 -55q-2 -6 -5 -12q-2 -7 -7 -19t-7 -17q-2 -6 -8 -10q-1 -1 -2 -4.5
t-3 -5.5l-1 -2q-1 -2 -2 -3q0 -1 -1 -1h-2q-5 -10 -7 -12l-12 -12q-2 -3 -16 -17q-1 -1 -4.5 -3t-4.5 -4q-15 -13 -24 -18h-2t-2 -1l-2 -2q-10 -5 -14 -5q-4 -2 -14 -6q-3 0 -7 -2t-7 -3t-8 -1.5t-8 -0.5q-3 -1 -9.5 -1h-9.5q-2 0 -13 -1.5t-18 -1.5q-6 0 -16.5 1t-15.5 1
q-39 -1 -92 21q-17 7 -23 11q-3 2 -9.5 8t-9.5 8q-2 1 -4.5 4t-4.5 4q-8 6 -10 8q-1 1 -2 3t-2 3q-5 7 -14.5 22.5t-11.5 18.5q-1 4 -3.5 11t-3.5 10q-2 3 -4.5 10.5t-3.5 9.5q-6 14 -8 45q-2 14 -7 82v19q0 5 -2 15v35q-4 77 -5 119q0 3 0.5 8.5t0.5 8.5q0 4 -0.5 9.5
t-1.5 12t-1 10.5v35q-5 112 -4 134q0 9 4 11z" />
    <glyph glyph-name="Uacute" unicode="&#xda;" horiz-adv-x="605" 
d="M330 863q12 0 16 -9v-2q-1 -3 -3 -7l-3 -6q-5 -10 -13 -34q-1 -4 -8 -20q-2 -4 -8 -17.5t-10 -20.5q-4 -12 -8 -17q-5 -14 -8 -16q-15 2 -18 8q0 8 3 13q1 1 2.5 5t3.5 5q3 12 10 19q4 13 15 38t15 40q2 2 3 6t3 5q4 8 8 10zM49 693q4 1 11 -2q4 -1 6 -9q0 -88 7 -219
q1 -19 2 -56.5t2 -56.5q1 -13 2 -46t2 -50.5t3.5 -43t7.5 -45.5q2 -8 4 -12q9 -27 11 -32q1 -3 5 -9q1 -2 3 -7t4 -8q2 -2 3 -4q1 -1 1 -3h1l2 -1q0 -1 1 -3l1 -2q0 -1 2 -2l2 -1q0 -1 0.5 -2.5t1.5 -2.5q1 -2 3.5 -4t3.5 -4q4 -3 11 -10q30 -25 60 -34h3t3 -1q21 -8 42 -9
q43 -6 74 -2q20 2 29 5q8 2 14 4q7 2 23 11q1 0 2.5 1.5t3.5 2.5q22 16 26 20q19 23 27 32q1 1 25 34q3 7 11.5 27.5t11.5 32.5q9 34 21 101q4 14 6 35q3 30 3 89q0 13 0.5 27.5t1.5 32t1 27.5v43t1 44q0 47 -4 84q0 1 -1 6.5t-2 10.5q-2 15 3 15t8 -0.5t5 -2.5t2 -6
q1 -2 3 -19q2 -10 2 -14q3 -19 3 -56v-77v-9q0 -1 -3 -46q0 -3 -0.5 -9t-0.5 -8t0.5 -5t0.5 -5q0 -9 -1 -31.5t-1 -33.5v-8q0 -38 -4 -63q-1 -6 -5 -39t-8 -50q-10 -43 -15 -55q-2 -6 -5 -12q-2 -7 -7 -19t-7 -17q-2 -6 -8 -10q-1 -1 -2 -4.5t-3 -5.5l-1 -2q-1 -2 -2 -3
q0 -1 -1 -1h-2q-5 -10 -7 -12l-12 -12q-2 -3 -16 -17q-1 -1 -4.5 -3t-4.5 -4q-15 -13 -24 -18h-2t-2 -1l-2 -2q-10 -5 -14 -5q-4 -2 -14 -6q-3 0 -7 -2t-7 -3t-8 -1.5t-8 -0.5q-3 -1 -9.5 -1h-9.5q-2 0 -13 -1.5t-18 -1.5q-6 0 -16.5 1t-15.5 1q-39 -1 -92 21q-17 7 -23 11
q-3 2 -9.5 8t-9.5 8q-2 1 -4.5 4t-4.5 4q-8 6 -10 8q-1 1 -2 3t-2 3q-5 7 -14.5 22.5t-11.5 18.5q-1 4 -3.5 11t-3.5 10q-2 3 -4.5 10.5t-3.5 9.5q-6 14 -8 45q-2 14 -7 82v19q0 5 -2 15v35q-4 77 -5 119q0 3 0.5 8.5t0.5 8.5q0 4 -0.5 9.5t-1.5 12t-1 10.5v35
q-5 112 -4 134q0 9 4 11z" />
    </font>
</defs>
</svg>
